0
SECTION
2
HEADER
9
$INSUNITS
70
4
9
$ACADVER
1
AC1014
9
$HANDSEED
5
FFFF
0
ENDSEC
0
SECTION
2
TABLES
0
TABLE
2
VPORT
5
8
100
AcDbSymbolTable
0
ENDTAB
0
TABLE
2
LTYPE
5
5
100
AcDbSymbolTable
0
LTYPE
5
14
100
AcDbSymbolTableRecord
100
AcDbLinetypeTableRecord
2
BYBLOCK
70
0
0
LTYPE
5
15
100
AcDbSymbolTableRecord
100
AcDbLinetypeTableRecord
2
BYLAYER
70
0
0
ENDTAB
0
TABLE
2
LAYER
5
2
100
AcDbSymbolTable
70
2
0
LAYER
5
50
100
AcDbSymbolTableRecord
100
AcDbLayerTableRecord
2
0
70
0
6
CONTINUOUS
0
ENDTAB
0
TABLE
2
STYLE
5
3
100
AcDbSymbolTable
70
1
0
STYLE
5
11
100
AcDbSymbolTableRecord
100
AcDbTextStyleTableRecord
2
STANDARD
70
0
0
ENDTAB
0
TABLE
2
VIEW
5
6
100
AcDbSymbolTable
70
0
0
ENDTAB
0
TABLE
2
UCS
5
7
100
AcDbSymbolTable
70
0
0
ENDTAB
0
TABLE
2
APPID
5
9
100
AcDbSymbolTable
70
2
0
APPID
5
12
100
AcDbSymbolTableRecord
100
AcDbRegAppTableRecord
2
ACAD
70
0
0
ENDTAB
0
TABLE
2
DIMSTYLE
5
A
100
AcDbSymbolTable
70
1
0
ENDTAB
0
TABLE
2
BLOCK_RECORD
5
1
100
AcDbSymbolTable
70
1
0
BLOCK_RECORD
5
1F
100
AcDbSymbolTableRecord
100
AcDbBlockTableRecord
2
*MODEL_SPACE
0
BLOCK_RECORD
5
1B
100
AcDbSymbolTableRecord
100
AcDbBlockTableRecord
2
*PAPER_SPACE
0
ENDTAB
0
ENDSEC
0
SECTION
2
BLOCKS
0
BLOCK
5
20
100
AcDbEntity
100
AcDbBlockBegin
2
*MODEL_SPACE
0
ENDBLK
5
21
100
AcDbEntity
100
AcDbBlockEnd
0
BLOCK
5
1C
100
AcDbEntity
100
AcDbBlockBegin
2
*PAPER_SPACE
0
ENDBLK
5
1D
100
AcDbEntity
100
AcDbBlockEnd
0
ENDSEC
0
SECTION
2
ENTITIES
0
LWPOLYLINE
5
100
100
AcDbEntity
8
0
100
AcDbPolyline
90
12
70
1
43
0.0
10
106.38230698925571
20
156.18055733819637
10
106.38230698925571
20
161.20549333282386
10
93.382306989255696
20
161.20549333282386
10
93.382306989255696
20
156.18055733819634
10
90.38230698925571
20
156.18055733819634
10
90.38230698925571
20
151.94302533551007
10
88.382306989255696
20
153.73930540009607
10
88.382306989255682
20
163.20549333282386
10
111.38230698925571
20
163.20549333282386
10
111.38230698925574
20
153.9430253355101
10
109.38230698925572
20
151.94302533551013
10
109.38230698925572
20
156.18055733819637
0
LWPOLYLINE
5
101
100
AcDbEntity
8
0
100
AcDbPolyline
90
12
70
1
43
0.0
10
154.78230698925572
20
152.70549333282398
10
154.78230698925572
20
158.20549333282398
10
157.78230698925572
20
158.20549333282401
10
157.78230698925572
20
162.44302533551024
10
159.78230698925572
20
164.44302533551024
10
159.78230698925574
20
150.70549333282398
10
136.78230698925569
20
150.70549333282395
10
136.78230698925569
20
164.23930540009621
10
138.78230698925569
20
162.44302533551021
10
138.78230698925569
20
158.20549333282395
10
141.78230698925569
20
158.20549333282398
10
141.78230698925569
20
152.70549333282395
0
LWPOLYLINE
5
102
100
AcDbEntity
8
0
100
AcDbPolyline
90
4
70
1
43
0.0
10
208.18230698925578
20
155.57425933416698
10
185.18230698925572
20
155.57425933416692
10
185.18230698925566
20
159.57425933416692
10
208.18230698925575
20
159.57425933416698
0
LWPOLYLINE
5
103
100
AcDbEntity
8
0
100
AcDbPolyline
90
8
70
1
43
0.0
10
254.58230698925598
20
155.57425933416701
10
254.58230698925598
20
163.57425933416698
10
256.58230698925598
20
163.57425933416698
10
256.58230698925598
20
151.57425933416701
10
233.58230698925598
20
151.57425933416698
10
233.58230698925593
20
163.57425933416695
10
251.58230698925598
20
163.57425933416698
10
251.58230698925595
20
155.57425933416698
0
LWPOLYLINE
5
104
100
AcDbEntity
8
0
100
AcDbPolyline
90
8
70
1
43
0.0
10
302.98230698925624
20
155.57425933416701
10
302.98230698925619
20
163.57425933416698
10
304.98230698925619
20
163.57425933416704
10
304.98230698925619
20
151.57425933416701
10
281.98230698925619
20
151.57425933416698
10
281.98230698925619
20
163.57425933416695
10
299.98230698925619
20
163.57425933416698
10
299.98230698925619
20
155.57425933416704
0
LWPOLYLINE
5
105
100
AcDbEntity
8
0
100
AcDbPolyline
90
62
70
1
43
0.0
10
339.88230698925582
20
209.57425933416673
10
339.88230698925582
20
203.44925933416675
10
336.88230698925588
20
203.44925933416678
10
336.88230698925588
20
197.57425933416675
10
342.88230698925588
20
197.57425933416675
10
342.88230698925588
20
209.57425933416681
10
346.38230698925582
20
209.57425933416675
10
346.38230698925588
20
189.69925933416675
10
349.38230698925594
20
189.69925933416675
10
349.38230698925588
20
185.44925933416678
10
346.38230698925599
20
185.44925933416678
10
346.38230698925599
20
177.69925933416675
10
349.38230698925594
20
177.69925933416673
10
349.38230698925594
20
173.44925933416675
10
346.38230698925599
20
173.44925933416675
10
346.38230698925599
20
165.69925933416675
10
349.38230698925594
20
165.69925933416675
10
349.38230698925594
20
161.44925933416675
10
346.38230698925599
20
161.44925933416675
10
346.38230698925605
20
141.69925933416678
10
349.38230698925599
20
141.69925933416678
10
349.38230698925599
20
137.44925933416675
10
346.38230698925605
20
137.44925933416675
10
346.38230698925605
20
129.69925933416678
10
349.38230698925599
20
129.69925933416678
10
349.38230698925599
20
125.44925933416675
10
346.38230698925605
20
125.44925933416675
10
346.38230698925605
20
116.57425933416677
10
343.88230698925605
20
116.57425933416677
10
343.88230698925611
20
113.57425933416677
10
349.38230698925611
20
113.57425933416678
10
349.38230698925611
20
109.57425933416675
10
346.38230698925611
20
109.57425933416678
10
346.38230698925605
20
105.57425933416675
10
333.38230698925605
20
105.57425933416674
10
333.38230698925605
20
109.57425933416674
10
330.38230698925599
20
109.57425933416674
10
330.38230698925611
20
113.57425933416673
10
335.88230698925605
20
113.57425933416675
10
335.88230698925605
20
116.57425933416675
10
333.38230698925605
20
116.57425933416675
10
333.38230698925599
20
125.44925933416673
10
330.38230698925599
20
125.44925933416673
10
330.38230698925599
20
129.69925933416673
10
333.38230698925599
20
129.69925933416675
10
333.38230698925599
20
137.44925933416675
10
330.38230698925599
20
137.44925933416675
10
330.38230698925599
20
141.69925933416675
10
333.38230698925599
20
141.69925933416673
10
333.38230698925594
20
161.44925933416673
10
330.38230698925594
20
161.44925933416673
10
330.38230698925594
20
165.69925933416673
10
333.38230698925594
20
165.69925933416673
10
333.38230698925594
20
173.44925933416675
10
330.38230698925588
20
173.44925933416675
10
330.38230698925594
20
177.69925933416673
10
333.38230698925594
20
177.69925933416675
10
333.38230698925588
20
185.44925933416675
10
330.38230698925588
20
185.44925933416678
10
330.38230698925588
20
189.69925933416675
10
333.38230698925594
20
189.69925933416675
10
333.38230698925588
20
209.57425933416675
0
LWPOLYLINE
5
106
100
AcDbEntity
8
0
100
AcDbPolyline
90
48
70
1
43
0.0
10
377.7823069892566
20
207.57425933416738
10
390.78230698925665
20
207.57425933416741
10
390.78230698925665
20
200.57425933416741
10
393.78230698925671
20
200.57425933416741
10
393.78230698925665
20
191.57425933416738
10
390.78230698925665
20
191.57425933416738
10
390.78230698925671
20
187.57425933416741
10
393.78230698925671
20
187.57425933416744
10
393.78230698925671
20
179.57425933416741
10
390.78230698925671
20
179.57425933416741
10
390.78230698925671
20
175.57425933416741
10
393.78230698925671
20
175.57425933416741
10
393.78230698925671
20
155.57425933416741
10
390.78230698925671
20
155.57425933416738
10
390.78230698925677
20
151.57425933416741
10
393.78230698925677
20
151.57425933416744
10
393.78230698925671
20
143.57425933416744
10
390.78230698925677
20
143.57425933416741
10
390.78230698925677
20
139.57425933416741
10
393.78230698925677
20
139.57425933416741
10
393.78230698925677
20
131.57425933416741
10
390.78230698925677
20
131.57425933416741
10
390.78230698925677
20
127.57425933416741
10
393.78230698925677
20
127.57425933416741
10
393.78230698925682
20
107.57425933416741
10
374.78230698925688
20
107.57425933416738
10
374.78230698925677
20
127.57425933416738
10
377.78230698925677
20
127.57425933416738
10
377.78230698925677
20
131.57425933416738
10
374.78230698925671
20
131.57425933416738
10
374.78230698925677
20
139.57425933416738
10
377.78230698925677
20
139.57425933416738
10
377.78230698925665
20
143.57425933416738
10
374.78230698925671
20
143.57425933416735
10
374.78230698925677
20
151.57425933416738
10
377.78230698925677
20
151.57425933416738
10
377.78230698925665
20
155.57425933416738
10
374.78230698925677
20
155.57425933416738
10
374.78230698925671
20
175.57425933416738
10
377.78230698925665
20
175.57425933416738
10
377.7823069892566
20
179.57425933416738
10
374.78230698925665
20
179.57425933416738
10
374.78230698925671
20
187.57425933416741
10
377.78230698925665
20
187.57425933416741
10
377.7823069892566
20
191.57425933416738
10
374.78230698925665
20
191.57425933416738
10
374.78230698925665
20
200.57425933416738
10
377.7823069892566
20
200.57425933416738
0
LWPOLYLINE
5
107
100
AcDbEntity
8
0
100
AcDbPolyline
90
4
70
1
43
0.0
10
386.28230698925665
20
190.57520206289365
10
386.28230698925665
20
200.45020206289365
10
382.28230698925665
20
200.45020206289365
10
382.28230698925671
20
190.57520206289365
0
LWPOLYLINE
5
108
100
AcDbEntity
8
0
100
AcDbPolyline
90
60
70
1
43
0.0
10
430.68230698925703
20
113.57425933416738
10
430.68230698925703
20
105.57425933416738
10
426.68230698925703
20
105.57425933416738
10
426.68230698925703
20
113.57425933416737
10
422.68230698925709
20
113.57425933416737
10
422.68230698925709
20
105.57425933416737
10
419.18230698925697
20
105.57425933416737
10
419.18230698925703
20
125.57425933416737
10
422.18230698925703
20
125.57425933416737
10
422.18230698925697
20
129.57425933416738
10
419.18230698925697
20
129.57425933416738
10
419.18230698925703
20
137.57425933416738
10
422.18230698925703
20
137.57425933416738
10
422.18230698925697
20
141.57425933416735
10
419.18230698925697
20
141.57425933416735
10
419.18230698925697
20
149.57425933416738
10
422.18230698925697
20
149.57425933416741
10
422.18230698925697
20
153.57425933416738
10
419.18230698925697
20
153.57425933416738
10
419.18230698925697
20
173.57425933416738
10
422.18230698925697
20
173.57425933416744
10
422.18230698925686
20
177.57425933416738
10
419.18230698925692
20
177.57425933416738
10
419.18230698925697
20
185.57425933416738
10
422.18230698925697
20
185.57425933416738
10
422.18230698925686
20
189.57425933416738
10
419.18230698925692
20
189.57425933416741
10
419.18230698925697
20
198.57425933416738
10
422.18230698925686
20
198.57425933416738
10
422.18230698925686
20
205.57425933416738
10
419.18230698925692
20
205.57425933416738
10
419.18230698925686
20
209.57425933416738
10
438.18230698925697
20
209.57425933416744
10
438.18230698925686
20
205.57425933416741
10
435.18230698925692
20
205.57425933416741
10
435.18230698925697
20
198.57425933416744
10
438.18230698925697
20
198.57425933416744
10
438.18230698925686
20
189.57425933416744
10
435.18230698925692
20
189.57425933416744
10
435.18230698925697
20
185.57425933416741
10
438.18230698925697
20
185.57425933416741
10
438.18230698925697
20
177.57425933416741
10
435.18230698925697
20
177.57425933416741
10
435.18230698925697
20
173.57425933416744
10
438.18230698925703
20
173.57425933416744
10
438.18230698925697
20
153.57425933416744
10
435.18230698925697
20
153.57425933416741
10
435.18230698925709
20
149.57425933416741
10
438.18230698925703
20
149.57425933416741
10
438.18230698925697
20
141.57425933416738
10
435.18230698925697
20
141.57425933416738
10
435.18230698925709
20
137.57425933416741
10
438.18230698925703
20
137.57425933416741
10
438.18230698925703
20
129.57425933416741
10
435.18230698925709
20
129.57425933416741
10
435.18230698925709
20
125.57425933416739
10
438.18230698925709
20
125.57425933416739
10
438.18230698925709
20
105.57425933416739
10
434.68230698925703
20
105.57425933416739
10
434.68230698925703
20
113.57425933416738
0
LWPOLYLINE
5
109
100
AcDbEntity
8
0
100
AcDbPolyline
90
62
70
1
43
0.0
10
480.31818329767162
20
204.45151507813091
10
480.31818329767162
20
198.32651507813091
10
477.31818329767168
20
198.32651507813091
10
477.31818329767168
20
192.45151507813091
10
483.31818329767168
20
192.45151507813091
10
483.31818329767168
20
204.45151507813094
10
486.81818329767168
20
204.45151507813094
10
486.81818329767174
20
184.57651507813091
10
489.81818329767174
20
184.57651507813085
10
489.81818329767168
20
180.32651507813085
10
486.81818329767174
20
180.32651507813088
10
486.81818329767174
20
172.57651507813085
10
489.81818329767174
20
172.57651507813083
10
489.81818329767174
20
168.32651507813083
10
486.81818329767174
20
168.32651507813085
10
486.81818329767174
20
160.57651507813085
10
489.81818329767174
20
160.57651507813085
10
489.81818329767174
20
156.32651507813083
10
486.81818329767174
20
156.32651507813083
10
486.81818329767174
20
136.5765150781308
10
489.81818329767179
20
136.5765150781308
10
489.81818329767179
20
132.32651507813077
10
486.81818329767179
20
132.32651507813077
10
486.81818329767174
20
124.57651507813077
10
489.81818329767179
20
124.57651507813077
10
489.81818329767185
20
120.32651507813074
10
486.81818329767179
20
120.32651507813074
10
486.81818329767179
20
111.45151507813075
10
484.31818329767179
20
111.45151507813075
10
484.31818329767179
20
108.45151507813074
10
489.81818329767185
20
108.45151507813077
10
489.81818329767185
20
104.45151507813074
10
486.81818329767179
20
104.45151507813074
10
486.81818329767179
20
100.45151507813073
10
473.81818329767179
20
100.45151507813073
10
473.81818329767179
20
104.45151507813071
10
470.81818329767174
20
104.45151507813071
10
470.81818329767174
20
108.45151507813071
10
476.31818329767179
20
108.45151507813073
10
476.31818329767179
20
111.45151507813074
10
473.81818329767168
20
111.45151507813074
10
473.81818329767179
20
120.32651507813073
10
470.81818329767174
20
120.32651507813073
10
470.81818329767168
20
124.57651507813074
10
473.81818329767168
20
124.57651507813074
10
473.81818329767179
20
132.32651507813077
10
470.81818329767174
20
132.32651507813074
10
470.81818329767168
20
136.57651507813074
10
473.81818329767168
20
136.57651507813077
10
473.81818329767168
20
156.3265150781308
10
470.81818329767168
20
156.3265150781308
10
470.81818329767157
20
160.5765150781308
10
473.81818329767162
20
160.5765150781308
10
473.81818329767168
20
168.32651507813083
10
470.81818329767168
20
168.32651507813083
10
470.81818329767157
20
172.57651507813083
10
473.81818329767162
20
172.57651507813083
10
473.81818329767162
20
180.32651507813085
10
470.81818329767157
20
180.32651507813083
10
470.81818329767157
20
184.57651507813085
10
473.81818329767157
20
184.57651507813085
10
473.81818329767157
20
204.45151507813091
0
LWPOLYLINE
5
110
100
AcDbEntity
8
0
100
AcDbPolyline
90
24
70
1
43
0.0
10
90.872622876997937
20
-180.93787482511613
10
91.872622876997937
20
-180.73787482511614
10
90.872622876997923
20
-178.93787482511613
10
90.872622876997895
20
-168.43787482511613
10
88.872622876997909
20
-168.43787482511613
10
88.872622876997895
20
-162.4378748251161
10
92.972622876997889
20
-162.4378748251161
10
92.972625162239936
20
-158.43787482511607
10
88.872622876997895
20
-158.43787482511613
10
88.87262287699761
20
-40.437874825115891
10
92.972694862123063
20
-40.43787482511587
10
92.972694862123021
20
-36.43787482511587
10
88.87262287699761
20
-36.437874825115884
10
88.872622876997582
20
-32.437874825115863
10
100.87262287699758
20
-32.437874825115841
10
100.87262287699792
20
-168.43787482511607
10
98.872622876997909
20
-168.43787482511607
10
98.872622876997923
20
-178.93787482511613
10
97.872622876997923
20
-180.73787482511614
10
98.872622876997923
20
-180.93787482511613
10
98.872622876997951
20
-181.9378748251161
10
98.372622876997937
20
-182.43787482511613
10
91.372622876997951
20
-182.43787482511613
10
90.872622876997937
20
-181.93787482511613
0
LWPOLYLINE
5
111
100
AcDbEntity
8
0
100
AcDbPolyline
90
24
70
1
43
0.0
10
128.27262287699861
20
-180.93787482511598
10
129.27262287699861
20
-180.73787482511597
10
128.27262287699861
20
-178.93787482511601
10
128.27262287699858
20
-168.43787482511601
10
126.27262287699858
20
-168.43787482511601
10
126.27262287699857
20
-162.43787482511601
10
130.37262287699858
20
-162.43787482511601
10
130.37262516224064
20
-158.43787482511598
10
126.27262287699855
20
-158.43787482511604
10
126.2726228769983
20
-40.437874825116069
10
130.37269486212375
20
-40.437874825116054
10
130.37269486212372
20
-36.437874825116062
10
126.27262287699828
20
-36.437874825116069
10
126.27262287699828
20
-32.437874825116062
10
138.27262287699827
20
-32.437874825116033
10
138.27262287699858
20
-168.43787482511598
10
136.27262287699858
20
-168.43787482511598
10
136.27262287699861
20
-178.93787482511598
10
135.27262287699861
20
-180.73787482511597
10
136.27262287699861
20
-180.93787482511601
10
136.27262287699861
20
-181.93787482511598
10
135.77262287699861
20
-182.43787482511601
10
128.77262287699861
20
-182.43787482511601
10
128.27262287699861
20
-181.93787482511601
0
LINE
5
112
100
AcDbEntity
8
0
100
AcDbLine
10
162.833785052493
20
-159.52702430795657
30
0
11
166.93378733773432
21
-159.52702430767772
31
0
0
LINE
5
113
100
AcDbEntity
8
0
100
AcDbLine
10
166.93378733773432
20
-159.52702430767772
30
0
11
166.93378505276431
21
-163.52702430767772
31
0
0
LINE
5
114
100
AcDbEntity
8
0
100
AcDbLine
10
166.93378505276431
20
-163.52702430767772
30
0
11
162.83378505276502
21
-163.52702430795657
31
0
0
LINE
5
115
100
AcDbEntity
8
0
100
AcDbLine
10
162.83378505276502
20
-163.52702430795657
30
0
11
162.83378505317307
21
-169.52702430795654
31
0
0
LINE
5
116
100
AcDbEntity
8
0
100
AcDbLine
10
162.83378505317307
20
-169.52702430795654
30
0
11
164.83378505317276
21
-169.52702430782051
31
0
0
LINE
5
117
100
AcDbEntity
8
0
100
AcDbLine
10
172.83378505317131
20
-169.52702430727643
30
0
11
174.83378505317103
21
-169.52702430714041
31
0
0
LINE
5
118
100
AcDbEntity
8
0
100
AcDbLine
10
174.83378505317103
20
-169.52702430714041
30
0
11
174.83378505235487
21
-157.52702430714044
31
0
0
LINE
5
119
100
AcDbEntity
8
0
100
AcDbLine
10
174.83378505235487
20
-157.52702430714044
30
0
11
173.33378503000336
21
-157.52702412842854
31
0
0
LINE
5
120
100
AcDbEntity
8
0
100
AcDbLine
10
173.33378503000336
20
-157.52702412842854
30
0
11
171.53378512598016
21
-155.52702462028927
31
0
0
LINE
5
121
100
AcDbEntity
8
0
100
AcDbLine
10
171.53378512598016
20
-155.52702462028927
30
0
11
169.8337851639784
21
-155.52702462040489
31
0
0
LINE
5
122
100
AcDbEntity
8
0
100
AcDbLine
10
169.8337851639784
20
-155.52702462040489
30
0
11
169.33378497026342
21
-155.52702430751452
31
0
0
LINE
5
123
100
AcDbEntity
8
0
100
AcDbLine
10
169.33378497026342
20
-155.52702430751452
30
0
11
166.83378505222024
21
-155.52702430768454
31
0
0
LINE
5
124
100
AcDbEntity
8
0
100
AcDbLine
10
166.83378505222024
20
-155.52702430768454
30
0
11
167.98848559046326
21
-153.52702430760601
31
0
0
LINE
5
125
100
AcDbEntity
8
0
100
AcDbLine
10
167.98848559046326
20
-153.52702430760601
30
0
11
166.83378505208424
21
-153.52702430768454
31
0
0
LINE
5
126
100
AcDbEntity
8
0
100
AcDbLine
10
166.83378505208424
20
-153.52702430768454
30
0
11
167.98848559032729
21
-151.52702430760601
31
0
0
LINE
5
127
100
AcDbEntity
8
0
100
AcDbLine
10
167.98848559032729
20
-151.52702430760601
30
0
11
166.83378505194821
21
-151.52702430768454
31
0
0
LINE
5
128
100
AcDbEntity
8
0
100
AcDbLine
10
166.83378505194821
20
-151.52702430768454
30
0
11
167.98848559019123
21
-149.52702430760604
31
0
0
LINE
5
129
100
AcDbEntity
8
0
100
AcDbLine
10
167.98848559019123
20
-149.52702430760604
30
0
11
166.83378505181221
21
-149.52702430768457
31
0
0
LINE
5
130
100
AcDbEntity
8
0
100
AcDbLine
10
166.83378505181221
20
-149.52702430768457
30
0
11
167.98848559005521
21
-147.52702430760604
31
0
0
LINE
5
131
100
AcDbEntity
8
0
100
AcDbLine
10
167.98848559005521
20
-147.52702430760604
30
0
11
166.83378505167616
21
-147.52702430768457
31
0
0
LINE
5
132
100
AcDbEntity
8
0
100
AcDbLine
10
166.83378505167616
20
-147.52702430768457
30
0
11
167.98848558991921
21
-145.52702430760604
31
0
0
LINE
5
133
100
AcDbEntity
8
0
100
AcDbLine
10
167.98848558991921
20
-145.52702430760604
30
0
11
166.83378505154013
21
-145.52702430768457
31
0
0
LINE
5
134
100
AcDbEntity
8
0
100
AcDbLine
10
166.83378505154013
20
-145.52702430768457
30
0
11
167.98848558978318
21
-143.52702430760604
31
0
0
LINE
5
135
100
AcDbEntity
8
0
100
AcDbLine
10
167.98848558978318
20
-143.52702430760604
30
0
11
166.83378505140413
21
-143.52702430768457
31
0
0
LINE
5
136
100
AcDbEntity
8
0
100
AcDbLine
10
166.83378505140413
20
-143.52702430768457
30
0
11
167.98848558964715
21
-141.52702430760604
31
0
0
LINE
5
137
100
AcDbEntity
8
0
100
AcDbLine
10
167.98848558964715
20
-141.52702430760604
30
0
11
166.83378505126811
21
-141.5270243076846
31
0
0
LINE
5
138
100
AcDbEntity
8
0
100
AcDbLine
10
166.83378505126811
20
-141.5270243076846
30
0
11
167.98848558951113
21
-139.52702430760607
31
0
0
LINE
5
139
100
AcDbEntity
8
0
100
AcDbLine
10
167.98848558951113
20
-139.52702430760607
30
0
11
166.83378505113208
21
-139.5270243076846
31
0
0
LINE
5
140
100
AcDbEntity
8
0
100
AcDbLine
10
166.83378505113208
20
-139.5270243076846
30
0
11
167.9884855893751
21
-137.52702430760607
31
0
0
LINE
5
141
100
AcDbEntity
8
0
100
AcDbLine
10
167.9884855893751
20
-137.52702430760607
30
0
11
166.83378505099608
21
-137.5270243076846
31
0
0
LINE
5
142
100
AcDbEntity
8
0
100
AcDbLine
10
166.83378505099608
20
-137.5270243076846
30
0
11
167.98848558923908
21
-135.52702430760607
31
0
0
LINE
5
143
100
AcDbEntity
8
0
100
AcDbLine
10
167.98848558923908
20
-135.52702430760607
30
0
11
166.83378505086006
21
-135.5270243076846
31
0
0
LINE
5
144
100
AcDbEntity
8
0
100
AcDbLine
10
166.83378505086006
20
-135.5270243076846
30
0
11
167.98848558910308
21
-133.5270243076061
31
0
0
LINE
5
145
100
AcDbEntity
8
0
100
AcDbLine
10
167.98848558910308
20
-133.5270243076061
30
0
11
166.83378505072403
21
-133.52702430768463
31
0
0
LINE
5
146
100
AcDbEntity
8
0
100
AcDbLine
10
166.83378505072403
20
-133.52702430768463
30
0
11
167.98848558896705
21
-131.52702430760607
31
0
0
LINE
5
147
100
AcDbEntity
8
0
100
AcDbLine
10
167.98848558896705
20
-131.52702430760607
30
0
11
166.83378505058801
21
-131.52702430768463
31
0
0
LINE
5
148
100
AcDbEntity
8
0
100
AcDbLine
10
166.83378505058801
20
-131.52702430768463
30
0
11
167.988485588831
21
-129.5270243076061
31
0
0
LINE
5
149
100
AcDbEntity
8
0
100
AcDbLine
10
167.988485588831
20
-129.5270243076061
30
0
11
166.83378505045198
21
-129.52702430768463
31
0
0
LINE
5
150
100
AcDbEntity
8
0
100
AcDbLine
10
166.83378505045198
20
-129.52702430768463
30
0
11
167.98848558869503
21
-127.5270243076061
31
0
0
LINE
5
151
100
AcDbEntity
8
0
100
AcDbLine
10
167.98848558869503
20
-127.5270243076061
30
0
11
166.83378505031598
21
-127.52702430768464
31
0
0
LINE
5
152
100
AcDbEntity
8
0
100
AcDbLine
10
166.83378505031598
20
-127.52702430768464
30
0
11
167.98848558855897
21
-125.5270243076061
31
0
0
LINE
5
153
100
AcDbEntity
8
0
100
AcDbLine
10
167.98848558855897
20
-125.5270243076061
30
0
11
166.83378505017996
21
-125.52702430768463
31
0
0
LINE
5
154
100
AcDbEntity
8
0
100
AcDbLine
10
166.83378505017996
20
-125.52702430768463
30
0
11
167.98848558842295
21
-123.5270243076061
31
0
0
LINE
5
155
100
AcDbEntity
8
0
100
AcDbLine
10
167.98848558842295
20
-123.5270243076061
30
0
11
166.8337850500439
21
-123.52702430768463
31
0
0
LINE
5
156
100
AcDbEntity
8
0
100
AcDbLine
10
166.8337850500439
20
-123.52702430768463
30
0
11
167.98848558828695
21
-121.52702430760611
31
0
0
LINE
5
157
100
AcDbEntity
8
0
100
AcDbLine
10
167.98848558828695
20
-121.52702430760611
30
0
11
166.83378504990793
21
-121.52702430768464
31
0
0
LINE
5
158
100
AcDbEntity
8
0
100
AcDbLine
10
166.83378504990793
20
-121.52702430768464
30
0
11
167.98848558815092
21
-119.52702430760611
31
0
0
LINE
5
159
100
AcDbEntity
8
0
100
AcDbLine
10
167.98848558815092
20
-119.52702430760611
30
0
11
166.83378504977188
21
-119.52702430768467
31
0
0
LINE
5
160
100
AcDbEntity
8
0
100
AcDbLine
10
166.83378504977188
20
-119.52702430768467
30
0
11
167.98848558801492
21
-117.52702430760613
31
0
0
LINE
5
161
100
AcDbEntity
8
0
100
AcDbLine
10
167.98848558801492
20
-117.52702430760613
30
0
11
166.83378504963585
21
-117.52702430768466
31
0
0
LINE
5
162
100
AcDbEntity
8
0
100
AcDbLine
10
166.83378504963585
20
-117.52702430768466
30
0
11
167.98848558787887
21
-115.52702430760613
31
0
0
LINE
5
163
100
AcDbEntity
8
0
100
AcDbLine
10
167.98848558787887
20
-115.52702430760613
30
0
11
166.83378504949985
21
-115.52702430768466
31
0
0
LINE
5
164
100
AcDbEntity
8
0
100
AcDbLine
10
166.83378504949985
20
-115.52702430768466
30
0
11
167.98848558774284
21
-113.52702430760614
31
0
0
LINE
5
165
100
AcDbEntity
8
0
100
AcDbLine
10
167.98848558774284
20
-113.52702430760614
30
0
11
166.83378504936383
21
-113.52702430768467
31
0
0
LINE
5
166
100
AcDbEntity
8
0
100
AcDbLine
10
166.83378504936383
20
-113.52702430768467
30
0
11
167.98848558760685
21
-111.52702430760614
31
0
0
LINE
5
167
100
AcDbEntity
8
0
100
AcDbLine
10
167.98848558760685
20
-111.52702430760614
30
0
11
166.8337850492278
21
-111.52702430768466
31
0
0
LINE
5
168
100
AcDbEntity
8
0
100
AcDbLine
10
166.8337850492278
20
-111.52702430768466
30
0
11
167.98848558747082
21
-109.52702430760615
31
0
0
LINE
5
169
100
AcDbEntity
8
0
100
AcDbLine
10
167.98848558747082
20
-109.52702430760615
30
0
11
166.83378504909177
21
-109.52702430768467
31
0
0
LINE
5
170
100
AcDbEntity
8
0
100
AcDbLine
10
166.83378504909177
20
-109.52702430768467
30
0
11
167.98848558733479
21
-107.52702430760615
31
0
0
LINE
5
171
100
AcDbEntity
8
0
100
AcDbLine
10
167.98848558733479
20
-107.52702430760615
30
0
11
166.83378504895575
21
-107.52702430768468
31
0
0
LINE
5
172
100
AcDbEntity
8
0
100
AcDbLine
10
166.83378504895575
20
-107.52702430768468
30
0
11
167.9884855871988
21
-105.52702430760617
31
0
0
LINE
5
173
100
AcDbEntity
8
0
100
AcDbLine
10
167.9884855871988
20
-105.52702430760617
30
0
11
166.83378504881975
21
-105.52702430768468
31
0
0
LINE
5
174
100
AcDbEntity
8
0
100
AcDbLine
10
166.83378504881975
20
-105.52702430768468
30
0
11
167.98848558706277
21
-103.52702430760617
31
0
0
LINE
5
175
100
AcDbEntity
8
0
100
AcDbLine
10
167.98848558706277
20
-103.52702430760617
30
0
11
166.83378504868372
21
-103.52702430768468
31
0
0
LINE
5
176
100
AcDbEntity
8
0
100
AcDbLine
10
166.83378504868372
20
-103.52702430768468
30
0
11
167.98848558692671
21
-101.52702430760618
31
0
0
LINE
5
177
100
AcDbEntity
8
0
100
AcDbLine
10
167.98848558692671
20
-101.52702430760618
30
0
11
166.8337850485477
21
-101.5270243076847
31
0
0
LINE
5
178
100
AcDbEntity
8
0
100
AcDbLine
10
166.8337850485477
20
-101.5270243076847
30
0
11
167.98848558679072
21
-99.527024307606183
31
0
0
LINE
5
179
100
AcDbEntity
8
0
100
AcDbLine
10
167.98848558679072
20
-99.527024307606183
30
0
11
166.8337850484117
21
-99.527024307684698
31
0
0
LINE
5
180
100
AcDbEntity
8
0
100
AcDbLine
10
166.8337850484117
20
-99.527024307684698
30
0
11
167.98848558665469
21
-97.527024307606197
31
0
0
LINE
5
181
100
AcDbEntity
8
0
100
AcDbLine
10
167.98848558665469
20
-97.527024307606197
30
0
11
166.83378504827567
21
-97.527024307684712
31
0
0
LINE
5
182
100
AcDbEntity
8
0
100
AcDbLine
10
166.83378504827567
20
-97.527024307684712
30
0
11
167.98848558651869
21
-95.527024307606197
31
0
0
LINE
5
183
100
AcDbEntity
8
0
100
AcDbLine
10
167.98848558651869
20
-95.527024307606197
30
0
11
166.83378504813962
21
-95.527024307684712
31
0
0
LINE
5
184
100
AcDbEntity
8
0
100
AcDbLine
10
166.83378504813962
20
-95.527024307684712
30
0
11
167.98848558638267
21
-93.527024307606212
31
0
0
LINE
5
185
100
AcDbEntity
8
0
100
AcDbLine
10
167.98848558638267
20
-93.527024307606212
30
0
11
166.83378504800362
21
-93.527024307684727
31
0
0
LINE
5
186
100
AcDbEntity
8
0
100
AcDbLine
10
166.83378504800362
20
-93.527024307684727
30
0
11
167.98848558624661
21
-91.527024307606212
31
0
0
LINE
5
187
100
AcDbEntity
8
0
100
AcDbLine
10
167.98848558624661
20
-91.527024307606212
30
0
11
166.83378504786759
21
-91.527024307684727
31
0
0
LINE
5
188
100
AcDbEntity
8
0
100
AcDbLine
10
166.83378504786759
20
-91.527024307684727
30
0
11
167.98848558611064
21
-89.527024307606212
31
0
0
LINE
5
189
100
AcDbEntity
8
0
100
AcDbLine
10
167.98848558611064
20
-89.527024307606212
30
0
11
166.83378504773157
21
-89.527024307684741
31
0
0
LINE
5
190
100
AcDbEntity
8
0
100
AcDbLine
10
166.83378504773157
20
-89.527024307684741
30
0
11
167.98848558597459
21
-87.527024307606226
31
0
0
LINE
5
191
100
AcDbEntity
8
0
100
AcDbLine
10
167.98848558597459
20
-87.527024307606226
30
0
11
166.83378504759557
21
-87.527024307684769
31
0
0
LINE
5
192
100
AcDbEntity
8
0
100
AcDbLine
10
166.83378504759557
20
-87.527024307684769
30
0
11
167.98848558583856
21
-85.527024307606212
31
0
0
LINE
5
193
100
AcDbEntity
8
0
100
AcDbLine
10
167.98848558583856
20
-85.527024307606212
30
0
11
166.83378504745951
21
-85.527024307684769
31
0
0
LINE
5
194
100
AcDbEntity
8
0
100
AcDbLine
10
166.83378504745951
20
-85.527024307684769
30
0
11
167.98848558570256
21
-83.527024307606226
31
0
0
LINE
5
195
100
AcDbEntity
8
0
100
AcDbLine
10
167.98848558570256
20
-83.527024307606226
30
0
11
166.83378504732354
21
-83.527024307684755
31
0
0
LINE
5
196
100
AcDbEntity
8
0
100
AcDbLine
10
166.83378504732354
20
-83.527024307684755
30
0
11
167.98848558556654
21
-81.52702430760624
31
0
0
LINE
5
197
100
AcDbEntity
8
0
100
AcDbLine
10
167.98848558556654
20
-81.52702430760624
30
0
11
166.83378504718749
21
-81.527024307684769
31
0
0
LINE
5
198
100
AcDbEntity
8
0
100
AcDbLine
10
166.83378504718749
20
-81.527024307684769
30
0
11
167.98848558543051
21
-79.527024307606254
31
0
0
LINE
5
199
100
AcDbEntity
8
0
100
AcDbLine
10
167.98848558543051
20
-79.527024307606254
30
0
11
166.83378504705146
21
-79.527024307684798
31
0
0
LINE
5
200
100
AcDbEntity
8
0
100
AcDbLine
10
166.83378504705146
20
-79.527024307684798
30
0
11
167.98848558529448
21
-77.527024307606268
31
0
0
LINE
5
201
100
AcDbEntity
8
0
100
AcDbLine
10
167.98848558529448
20
-77.527024307606268
30
0
11
166.83378504691547
21
-77.527024307684798
31
0
0
LINE
5
202
100
AcDbEntity
8
0
100
AcDbLine
10
166.83378504691547
20
-77.527024307684798
30
0
11
167.98848558515846
21
-75.52702430760624
31
0
0
LINE
5
203
100
AcDbEntity
8
0
100
AcDbLine
10
167.98848558515846
20
-75.52702430760624
30
0
11
166.83378504677944
21
-75.527024307684769
31
0
0
LINE
5
204
100
AcDbEntity
8
0
100
AcDbLine
10
166.83378504677944
20
-75.527024307684769
30
0
11
167.98848558502243
21
-73.527024307606254
31
0
0
LINE
5
205
100
AcDbEntity
8
0
100
AcDbLine
10
167.98848558502243
20
-73.527024307606254
30
0
11
166.83378504664341
21
-73.527024307684798
31
0
0
LINE
5
206
100
AcDbEntity
8
0
100
AcDbLine
10
166.83378504664341
20
-73.527024307684798
30
0
11
167.98848558488643
21
-71.527024307606283
31
0
0
LINE
5
207
100
AcDbEntity
8
0
100
AcDbLine
10
167.98848558488643
20
-71.527024307606283
30
0
11
166.83378504650739
21
-71.527024307684798
31
0
0
LINE
5
208
100
AcDbEntity
8
0
100
AcDbLine
10
166.83378504650739
20
-71.527024307684798
30
0
11
167.98848558475041
21
-69.527024307606283
31
0
0
LINE
5
209
100
AcDbEntity
8
0
100
AcDbLine
10
167.98848558475041
20
-69.527024307606283
30
0
11
166.83378504637136
21
-69.527024307684826
31
0
0
LINE
5
210
100
AcDbEntity
8
0
100
AcDbLine
10
166.83378504637136
20
-69.527024307684826
30
0
11
167.98848558461441
21
-67.527024307606311
31
0
0
LINE
5
211
100
AcDbEntity
8
0
100
AcDbLine
10
167.98848558461441
20
-67.527024307606311
30
0
11
166.83378504623533
21
-67.527024307684826
31
0
0
LINE
5
212
100
AcDbEntity
8
0
100
AcDbLine
10
166.83378504623533
20
-67.527024307684826
30
0
11
167.98848558447838
21
-65.527024307606283
31
0
0
LINE
5
213
100
AcDbEntity
8
0
100
AcDbLine
10
167.98848558447838
20
-65.527024307606283
30
0
11
166.83378504609934
21
-65.527024307684798
31
0
0
LINE
5
214
100
AcDbEntity
8
0
100
AcDbLine
10
166.83378504609934
20
-65.527024307684798
30
0
11
167.98848558434233
21
-63.52702430760629
31
0
0
LINE
5
215
100
AcDbEntity
8
0
100
AcDbLine
10
167.98848558434233
20
-63.52702430760629
30
0
11
166.83378504596331
21
-63.527024307684826
31
0
0
LINE
5
216
100
AcDbEntity
8
0
100
AcDbLine
10
166.83378504596331
20
-63.527024307684826
30
0
11
167.98848558420633
21
-61.527024307606311
31
0
0
LINE
5
217
100
AcDbEntity
8
0
100
AcDbLine
10
167.98848558420633
20
-61.527024307606311
30
0
11
166.83378504582726
21
-61.52702430768484
31
0
0
LINE
5
218
100
AcDbEntity
8
0
100
AcDbLine
10
166.83378504582726
20
-61.52702430768484
30
0
11
167.9884855840703
21
-59.527024307606318
31
0
0
LINE
5
219
100
AcDbEntity
8
0
100
AcDbLine
10
167.9884855840703
20
-59.527024307606318
30
0
11
166.83378504569129
21
-59.52702430768484
31
0
0
LINE
5
220
100
AcDbEntity
8
0
100
AcDbLine
10
166.83378504569129
20
-59.52702430768484
30
0
11
167.98848558393428
21
-57.527024307606325
31
0
0
LINE
5
221
100
AcDbEntity
8
0
100
AcDbLine
10
167.98848558393428
20
-57.527024307606325
30
0
11
166.83378504555523
21
-57.527024307684869
31
0
0
LINE
5
222
100
AcDbEntity
8
0
100
AcDbLine
10
166.83378504555523
20
-57.527024307684869
30
0
11
167.98848558379828
21
-55.527024307606318
31
0
0
LINE
5
223
100
AcDbEntity
8
0
100
AcDbLine
10
167.98848558379828
20
-55.527024307606318
30
0
11
166.83378504541921
21
-55.52702430768484
31
0
0
LINE
5
224
100
AcDbEntity
8
0
100
AcDbLine
10
166.83378504541921
20
-55.52702430768484
30
0
11
167.98848558366223
21
-53.527024307606325
31
0
0
LINE
5
225
100
AcDbEntity
8
0
100
AcDbLine
10
167.98848558366223
20
-53.527024307606325
30
0
11
166.83378504528321
21
-53.527024307684847
31
0
0
LINE
5
226
100
AcDbEntity
8
0
100
AcDbLine
10
166.83378504528321
20
-53.527024307684847
30
0
11
167.9884855835262
21
-51.527024307606332
31
0
0
LINE
5
227
100
AcDbEntity
8
0
100
AcDbLine
10
167.9884855835262
20
-51.527024307606332
30
0
11
166.83378504514718
21
-51.527024307684869
31
0
0
LINE
5
228
100
AcDbEntity
8
0
100
AcDbLine
10
166.83378504514718
20
-51.527024307684869
30
0
11
167.9884855833902
21
-49.527024307606354
31
0
0
LINE
5
229
100
AcDbEntity
8
0
100
AcDbLine
10
167.9884855833902
20
-49.527024307606354
30
0
11
166.83378504501118
21
-49.527024307684883
31
0
0
LINE
5
230
100
AcDbEntity
8
0
100
AcDbLine
10
166.83378504501118
20
-49.527024307684883
30
0
11
167.98848558325417
21
-47.527024307606361
31
0
0
LINE
5
231
100
AcDbEntity
8
0
100
AcDbLine
10
167.98848558325417
20
-47.527024307606361
30
0
11
166.83378504487513
21
-47.527024307684883
31
0
0
LINE
5
232
100
AcDbEntity
8
0
100
AcDbLine
10
166.83378504487513
20
-47.527024307684883
30
0
11
166.83378504473907
21
-45.527024307684904
31
0
0
LINE
5
233
100
AcDbEntity
8
0
100
AcDbLine
10
166.83378504473907
20
-45.527024307684904
30
0
11
174.83378504473774
21
-45.52702430714082
31
0
0
LINE
5
234
100
AcDbEntity
8
0
100
AcDbLine
10
174.83378504473774
20
-45.52702430714082
30
0
11
174.83378504392161
21
-33.527024307140856
31
0
0
LINE
5
235
100
AcDbEntity
8
0
100
AcDbLine
10
174.83378504392161
20
-33.527024307140856
30
0
11
162.83378504392368
21
-33.527024307956992
31
0
0
LINE
5
236
100
AcDbEntity
8
0
100
AcDbLine
10
162.83378504392368
20
-33.527024307956992
30
0
11
162.83378504419571
21
-37.527024307956978
31
0
0
LINE
5
237
100
AcDbEntity
8
0
100
AcDbLine
10
162.83378504419571
20
-37.527024307956978
30
0
11
166.93385702932045
21
-37.527024307678118
31
0
0
LINE
5
238
100
AcDbEntity
8
0
100
AcDbLine
10
166.93385702932045
20
-37.527024307678118
30
0
11
166.93385702959247
21
-41.527024307678133
31
0
0
LINE
5
239
100
AcDbEntity
8
0
100
AcDbLine
10
166.93385702959247
20
-41.527024307678133
30
0
11
162.83378504446773
21
-41.527024307956978
31
0
0
LINE
5
240
100
AcDbEntity
8
0
100
AcDbLine
10
162.83378504446773
20
-41.527024307956978
30
0
11
162.833785052493
21
-159.52702430795657
31
0
0
LINE
5
241
100
AcDbEntity
8
0
100
AcDbLine
10
165.83378505400944
20
-181.82702430775248
30
0
11
164.83378505402288
21
-182.02702430782045
31
0
0
LINE
5
242
100
AcDbEntity
8
0
100
AcDbLine
10
164.83378505402288
20
-182.02702430782045
30
0
11
164.83378505409087
21
-183.02702430782048
31
0
0
LINE
5
243
100
AcDbEntity
8
0
100
AcDbLine
10
164.83378505409087
20
-183.02702430782048
30
0
11
165.33378505412497
21
-183.52702430778649
31
0
0
LINE
5
244
100
AcDbEntity
8
0
100
AcDbLine
10
165.33378505412497
20
-183.52702430778649
30
0
11
172.33378505412614
21
-183.52702430731043
31
0
0
LINE
5
245
100
AcDbEntity
8
0
100
AcDbLine
10
172.33378505412614
20
-183.52702430731043
30
0
11
172.8337850540922
21
-183.02702430727638
31
0
0
LINE
5
246
100
AcDbEntity
8
0
100
AcDbLine
10
172.8337850540922
20
-183.02702430727638
30
0
11
172.83378505402422
21
-182.02702430727641
31
0
0
LINE
5
247
100
AcDbEntity
8
0
100
AcDbLine
10
172.83378505402422
20
-182.02702430727641
30
0
11
171.83378505401041
21
-181.8270243073444
31
0
0
LINE
5
248
100
AcDbEntity
8
0
100
AcDbLine
10
171.83378505401041
20
-181.8270243073444
30
0
11
172.83378505388816
21
-180.02702430727641
31
0
0
LINE
5
249
100
AcDbEntity
8
0
100
AcDbLine
10
172.83378505388816
20
-180.02702430727641
30
0
11
172.8337850531741
21
-169.52702430727643
31
0
0
LINE
5
250
100
AcDbEntity
8
0
100
AcDbLine
10
164.83378505317276
20
-169.52702430782054
30
0
11
164.83378505388683
21
-180.02702430782051
31
0
0
LINE
5
251
100
AcDbEntity
8
0
100
AcDbLine
10
164.83378505388683
20
-180.02702430782051
30
0
11
165.83378505400944
21
-181.82702430775248
31
0
0
LWPOLYLINE
5
252
100
AcDbEntity
8
0
100
AcDbPolyline
90
4
70
1
43
0.0
10
213.57262287794975
20
-111.63787482511621
10
213.5726228779497
20
-103.23787482511621
10
201.57262287794967
20
-103.23787482511625
10
201.5726228779497
20
-111.63787482511624
0
LWPOLYLINE
5
253
100
AcDbEntity
8
0
100
AcDbPolyline
90
4
70
1
43
0.0
10
209.57262287794973
20
-114.68787482511622
10
205.57262287794973
20
-114.68787482511624
10
205.57262287794973
20
-116.68787482511621
10
209.57262287794973
20
-116.68787482511621
0
LWPOLYLINE
5
254
100
AcDbEntity
8
0
100
AcDbPolyline
90
4
70
1
43
0.0
10
216.8226228779497
20
-105.43787482511621
10
214.8226228779497
20
-105.43787482511621
10
214.8226228779497
20
-109.43787482511622
10
216.8226228779497
20
-109.43787482511622
0
LWPOLYLINE
5
255
100
AcDbEntity
8
0
100
AcDbPolyline
90
4
70
1
43
0.0
10
200.3226228779497
20
-109.43787482511625
10
200.3226228779497
20
-105.43787482511625
10
198.32262287794973
20
-105.43787482511624
10
198.32262287794973
20
-109.43787482511625
0
LWPOLYLINE
5
256
100
AcDbEntity
8
0
100
AcDbPolyline
90
16
70
1
43
0.0
10
201.0726228779497
20
-113.93787482511624
10
197.07262287794973
20
-113.93787482511625
10
197.0726228779497
20
-96.937874825116253
10
201.5726228779497
20
-96.937874825116239
10
201.5726228779497
20
-101.93787482511615
10
205.57262287794958
20
-101.93787482511624
10
205.5726228779497
20
-96.937874825116239
10
209.57262287794973
20
-96.937874825116239
10
209.57262287794981
20
-101.93787482511622
10
213.5726228779497
20
-101.93787482511613
10
213.5726228779497
20
-96.937874825116225
10
218.0726228779497
20
-96.937874825116211
10
218.0726228779497
20
-113.9378748251162
10
214.07262287794975
20
-113.93787482511621
10
214.07262287794975
20
-117.9378748251162
10
201.0726228779497
20
-117.93787482511625
0
LWPOLYLINE
5
257
100
AcDbEntity
8
0
100
AcDbPolyline
90
20
70
1
43
0.0
10
248.7773234163291
20
-115.86891119956064
42
-0.41421356237307422
10
247.7773234163291
20
-114.86891119956063
10
247.77732341632912
20
-104.80484764684019
42
1.8633249580710185
10
246.27732341632907
20
-104.8048476468402
10
246.2773234163291
20
-115.36891119956061
42
0.41421356237309503
10
247.27732341632912
20
-116.36891119956063
10
254.97262287794985
20
-116.36891119956061
10
254.9726228779499
20
-111.8689111995606
10
257.37262287794982
20
-111.8689111995606
10
257.37262287794988
20
-119.56839572194579
10
243.47262287794987
20
-119.56839572194582
10
244.77732341632912
20
-117.30858810081051
10
244.77732341632912
20
-101.80670571473993
42
-0.12295078443323521
10
245.01204362261797
20
-100.86660611899738
10
247.40817301276718
20
-96.367254332544377
42
-0.27714820665912454
10
249.17345280647834
20
-95.307353928286886
10
254.97262287794982
20
-95.307353928286872
10
254.97262287794985
20
-105.30735392828689
10
251.97262287794985
20
-105.30735392828687
10
251.97262287794985
20
-115.86891119956063
0
LWPOLYLINE
5
258
100
AcDbEntity
8
0
100
AcDbPolyline
90
4
70
1
43
0.0
10
294.77262287794997
20
-105.88787482511643
10
294.77262287794997
20
-108.98787482511642
10
282.77262287794997
20
-108.98787482511644
10
282.77262287794997
20
-105.88787482511646
0
LWPOLYLINE
5
259
100
AcDbEntity
8
0
100
AcDbPolyline
90
4
70
1
43
0.0
10
332.17262287794995
20
-105.88783883255375
10
332.17262287794995
20
-108.98791081767919
10
320.17262287794995
20
-108.98791081767922
10
320.17262287794983
20
-105.8878388325538
0
ENDSEC
0
SECTION
2
OBJECTS
0
DICTIONARY
5
C
100
AcDbDictionary
3
ACAD_GROUP
350
D
3
ACAD_MLINESTYLE
350
17
0
DICTIONARY
5
D
100
AcDbDictionary
0
DICTIONARY
5
1A
330
C
100
AcDbDictionary
0
DICTIONARY
5
17
100
AcDbDictionary
0
ENDSEC
0
EOF
