0
SECTION
2
HEADER
9
$INSUNITS
70
4
9
$ACADVER
1
AC1014
9
$HANDSEED
5
FFFF
0
ENDSEC
0
SECTION
2
TABLES
0
TABLE
2
VPORT
5
8
100
AcDbSymbolTable
0
ENDTAB
0
TABLE
2
LTYPE
5
5
100
AcDbSymbolTable
0
LTYPE
5
14
100
AcDbSymbolTableRecord
100
AcDbLinetypeTableRecord
2
BYBLOCK
70
0
0
LTYPE
5
15
100
AcDbSymbolTableRecord
100
AcDbLinetypeTableRecord
2
BYLAYER
70
0
0
ENDTAB
0
TABLE
2
LAYER
5
2
100
AcDbSymbolTable
70
2
0
LAYER
5
50
100
AcDbSymbolTableRecord
100
AcDbLayerTableRecord
2
0
70
0
6
CONTINUOUS
0
ENDTAB
0
TABLE
2
STYLE
5
3
100
AcDbSymbolTable
70
1
0
STYLE
5
11
100
AcDbSymbolTableRecord
100
AcDbTextStyleTableRecord
2
STANDARD
70
0
0
ENDTAB
0
TABLE
2
VIEW
5
6
100
AcDbSymbolTable
70
0
0
ENDTAB
0
TABLE
2
UCS
5
7
100
AcDbSymbolTable
70
0
0
ENDTAB
0
TABLE
2
APPID
5
9
100
AcDbSymbolTable
70
2
0
APPID
5
12
100
AcDbSymbolTableRecord
100
AcDbRegAppTableRecord
2
ACAD
70
0
0
ENDTAB
0
TABLE
2
DIMSTYLE
5
A
100
AcDbSymbolTable
70
1
0
ENDTAB
0
TABLE
2
BLOCK_RECORD
5
1
100
AcDbSymbolTable
70
1
0
BLOCK_RECORD
5
1F
100
AcDbSymbolTableRecord
100
AcDbBlockTableRecord
2
*MODEL_SPACE
0
BLOCK_RECORD
5
1B
100
AcDbSymbolTableRecord
100
AcDbBlockTableRecord
2
*PAPER_SPACE
0
ENDTAB
0
ENDSEC
0
SECTION
2
BLOCKS
0
BLOCK
5
20
100
AcDbEntity
100
AcDbBlockBegin
2
*MODEL_SPACE
0
ENDBLK
5
21
100
AcDbEntity
100
AcDbBlockEnd
0
BLOCK
5
1C
100
AcDbEntity
100
AcDbBlockBegin
2
*PAPER_SPACE
0
ENDBLK
5
1D
100
AcDbEntity
100
AcDbBlockEnd
0
ENDSEC
0
SECTION
2
ENTITIES
0
LWPOLYLINE
5
100
100
AcDbEntity
8
0
100
AcDbPolyline
90
24
70
1
43
0.0
10
28.96590882507023
20
9.4874722064536421
10
29.96590882507023
20
9.6874722064536414
10
28.96590882507023
20
11.487472206453639
10
28.965908825070237
20
21.987472206453624
10
26.965908825070237
20
21.987472206453624
10
26.965908825070237
20
27.98747220645361
10
31.065908825070231
20
27.987472206453617
10
31.065911110312289
20
31.98747220645361
10
26.965908825070237
20
31.987472206453624
10
26.965908825070265
20
149.98747220645342
10
31.065980810195704
20
149.98747220645339
10
31.065980810195704
20
153.98747220645339
10
26.965908825070272
20
153.98747220645339
10
26.965908825070272
20
157.98747220645342
10
38.965908825070258
20
157.98747220645342
10
38.965908825070223
20
21.987472206453624
10
36.965908825070223
20
21.987472206453624
10
36.965908825070223
20
11.487472206453635
10
35.965908825070215
20
9.6874722064536396
10
36.965908825070215
20
9.4874722064536385
10
36.965908825070223
20
8.4874722064536474
10
36.465908825070215
20
7.987472206453643
10
29.465908825070226
20
7.9874722064536439
10
28.96590882507023
20
8.4874722064536421
0
LINE
5
101
100
AcDbEntity
8
0
100
AcDbLine
10
64.682568396124452
20
33.871209592856033
30
0
11
68.782570681365812
21
33.871209593134864
31
0
0
LINE
5
102
100
AcDbEntity
8
0
100
AcDbLine
10
68.782570681365812
20
33.871209593134864
30
0
11
68.782568396395774
21
29.871209593134882
31
0
0
LINE
5
103
100
AcDbEntity
8
0
100
AcDbLine
10
68.782568396395774
20
29.871209593134882
30
0
11
64.682568396396476
21
29.871209592856047
31
0
0
LINE
5
104
100
AcDbEntity
8
0
100
AcDbLine
10
64.682568396396476
20
29.871209592856047
30
0
11
64.682568396804527
21
23.871209592856061
31
0
0
LINE
5
105
100
AcDbEntity
8
0
100
AcDbLine
10
64.682568396804527
20
23.871209592856061
30
0
11
66.682568396804186
21
23.871209592992074
31
0
0
LINE
5
106
100
AcDbEntity
8
0
100
AcDbLine
10
74.682568396802807
20
23.87120959353615
30
0
11
76.68256839680248
21
23.871209593672166
31
0
0
LINE
5
107
100
AcDbEntity
8
0
100
AcDbLine
10
76.68256839680248
20
23.871209593672166
30
0
11
76.68256839598638
21
35.871209593672134
31
0
0
LINE
5
108
100
AcDbEntity
8
0
100
AcDbLine
10
76.68256839598638
20
35.871209593672134
30
0
11
75.182568373634894
21
35.871209772384056
31
0
0
LINE
5
109
100
AcDbEntity
8
0
100
AcDbLine
10
75.182568373634894
20
35.871209772384056
30
0
11
73.38256846961167
21
37.87120928052331
31
0
0
LINE
5
110
100
AcDbEntity
8
0
100
AcDbLine
10
73.38256846961167
20
37.87120928052331
30
0
11
71.682568507609929
21
37.871209280407705
31
0
0
LINE
5
111
100
AcDbEntity
8
0
100
AcDbLine
10
71.682568507609929
20
37.871209280407705
30
0
11
71.182568313894919
21
37.871209593298083
31
0
0
LINE
5
112
100
AcDbEntity
8
0
100
AcDbLine
10
71.182568313894919
20
37.871209593298083
30
0
11
68.682568395851732
21
37.871209593128057
31
0
0
LINE
5
113
100
AcDbEntity
8
0
100
AcDbLine
10
68.682568395851732
20
37.871209593128057
30
0
11
69.837268934094766
21
39.871209593206586
31
0
0
LINE
5
114
100
AcDbEntity
8
0
100
AcDbLine
10
69.837268934094766
20
39.871209593206586
30
0
11
68.68256839571572
21
39.871209593128057
31
0
0
LINE
5
115
100
AcDbEntity
8
0
100
AcDbLine
10
68.68256839571572
20
39.871209593128057
30
0
11
69.837268933958754
21
41.871209593206579
31
0
0
LINE
5
116
100
AcDbEntity
8
0
100
AcDbLine
10
69.837268933958754
20
41.871209593206579
30
0
11
68.682568395579707
21
41.871209593128043
31
0
0
LINE
5
117
100
AcDbEntity
8
0
100
AcDbLine
10
68.682568395579707
20
41.871209593128043
30
0
11
69.837268933822742
21
43.871209593206579
31
0
0
LINE
5
118
100
AcDbEntity
8
0
100
AcDbLine
10
69.837268933822742
20
43.871209593206579
30
0
11
68.682568395443695
21
43.871209593128036
31
0
0
LINE
5
119
100
AcDbEntity
8
0
100
AcDbLine
10
68.682568395443695
20
43.871209593128036
30
0
11
69.837268933686715
21
45.871209593206572
31
0
0
LINE
5
120
100
AcDbEntity
8
0
100
AcDbLine
10
69.837268933686715
20
45.871209593206572
30
0
11
68.682568395307669
21
45.871209593128043
31
0
0
LINE
5
121
100
AcDbEntity
8
0
100
AcDbLine
10
68.682568395307669
20
45.871209593128043
30
0
11
69.837268933550703
21
47.871209593206565
31
0
0
LINE
5
122
100
AcDbEntity
8
0
100
AcDbLine
10
69.837268933550703
20
47.871209593206565
30
0
11
68.682568395171657
21
47.871209593128029
31
0
0
LINE
5
123
100
AcDbEntity
8
0
100
AcDbLine
10
68.682568395171657
20
47.871209593128029
30
0
11
69.837268933414677
21
49.871209593206558
31
0
0
LINE
5
124
100
AcDbEntity
8
0
100
AcDbLine
10
69.837268933414677
20
49.871209593206558
30
0
11
68.682568395035645
21
49.871209593128029
31
0
0
LINE
5
125
100
AcDbEntity
8
0
100
AcDbLine
10
68.682568395035645
20
49.871209593128029
30
0
11
69.837268933278665
21
51.871209593206551
31
0
0
LINE
5
126
100
AcDbEntity
8
0
100
AcDbLine
10
69.837268933278665
20
51.871209593206551
30
0
11
68.682568394899619
21
51.871209593128015
31
0
0
LINE
5
127
100
AcDbEntity
8
0
100
AcDbLine
10
68.682568394899619
20
51.871209593128015
30
0
11
69.837268933142653
21
53.871209593206544
31
0
0
LINE
5
128
100
AcDbEntity
8
0
100
AcDbLine
10
69.837268933142653
20
53.871209593206544
30
0
11
68.682568394763607
21
53.871209593128015
31
0
0
LINE
5
129
100
AcDbEntity
8
0
100
AcDbLine
10
68.682568394763607
20
53.871209593128015
30
0
11
69.837268933006641
21
55.871209593206537
31
0
0
LINE
5
130
100
AcDbEntity
8
0
100
AcDbLine
10
69.837268933006641
20
55.871209593206537
30
0
11
68.68256839462758
21
55.871209593128015
31
0
0
LINE
5
131
100
AcDbEntity
8
0
100
AcDbLine
10
68.68256839462758
20
55.871209593128015
30
0
11
69.837268932870614
21
57.871209593206537
31
0
0
LINE
5
132
100
AcDbEntity
8
0
100
AcDbLine
10
69.837268932870614
20
57.871209593206537
30
0
11
68.682568394491568
21
57.871209593128015
31
0
0
LINE
5
133
100
AcDbEntity
8
0
100
AcDbLine
10
68.682568394491568
20
57.871209593128015
30
0
11
69.837268932734602
21
59.871209593206544
31
0
0
LINE
5
134
100
AcDbEntity
8
0
100
AcDbLine
10
69.837268932734602
20
59.871209593206544
30
0
11
68.682568394355556
21
59.871209593128007
31
0
0
LINE
5
135
100
AcDbEntity
8
0
100
AcDbLine
10
68.682568394355556
20
59.871209593128007
30
0
11
69.83726893259859
21
61.87120959320653
31
0
0
LINE
5
136
100
AcDbEntity
8
0
100
AcDbLine
10
69.83726893259859
20
61.87120959320653
30
0
11
68.682568394219544
21
61.871209593128
31
0
0
LINE
5
137
100
AcDbEntity
8
0
100
AcDbLine
10
68.682568394219544
20
61.871209593128
30
0
11
69.837268932462578
21
63.87120959320653
31
0
0
LINE
5
138
100
AcDbEntity
8
0
100
AcDbLine
10
69.837268932462578
20
63.87120959320653
30
0
11
68.682568394083518
21
63.871209593127993
31
0
0
LINE
5
139
100
AcDbEntity
8
0
100
AcDbLine
10
68.682568394083518
20
63.871209593127993
30
0
11
69.837268932326552
21
65.871209593206515
31
0
0
LINE
5
140
100
AcDbEntity
8
0
100
AcDbLine
10
69.837268932326552
20
65.871209593206515
30
0
11
68.682568393947506
21
65.871209593127986
31
0
0
LINE
5
141
100
AcDbEntity
8
0
100
AcDbLine
10
68.682568393947506
20
65.871209593127986
30
0
11
69.83726893219054
21
67.871209593206515
31
0
0
LINE
5
142
100
AcDbEntity
8
0
100
AcDbLine
10
69.83726893219054
20
67.871209593206515
30
0
11
68.682568393811493
21
67.871209593127986
31
0
0
LINE
5
143
100
AcDbEntity
8
0
100
AcDbLine
10
68.682568393811493
20
67.871209593127986
30
0
11
69.837268932054528
21
69.871209593206501
31
0
0
LINE
5
144
100
AcDbEntity
8
0
100
AcDbLine
10
69.837268932054528
20
69.871209593206501
30
0
11
68.682568393675481
21
69.871209593127972
31
0
0
LINE
5
145
100
AcDbEntity
8
0
100
AcDbLine
10
68.682568393675481
20
69.871209593127972
30
0
11
69.837268931918516
21
71.871209593206501
31
0
0
LINE
5
146
100
AcDbEntity
8
0
100
AcDbLine
10
69.837268931918516
20
71.871209593206501
30
0
11
68.682568393539455
21
71.871209593127986
31
0
0
LINE
5
147
100
AcDbEntity
8
0
100
AcDbLine
10
68.682568393539455
20
71.871209593127986
30
0
11
69.837268931782489
21
73.871209593206501
31
0
0
LINE
5
148
100
AcDbEntity
8
0
100
AcDbLine
10
69.837268931782489
20
73.871209593206501
30
0
11
68.682568393403443
21
73.871209593127958
31
0
0
LINE
5
149
100
AcDbEntity
8
0
100
AcDbLine
10
68.682568393403443
20
73.871209593127958
30
0
11
69.837268931646463
21
75.871209593206487
31
0
0
LINE
5
150
100
AcDbEntity
8
0
100
AcDbLine
10
69.837268931646463
20
75.871209593206487
30
0
11
68.682568393267431
21
75.871209593127958
31
0
0
LINE
5
151
100
AcDbEntity
8
0
100
AcDbLine
10
68.682568393267431
20
75.871209593127958
30
0
11
69.837268931510451
21
77.871209593206473
31
0
0
LINE
5
152
100
AcDbEntity
8
0
100
AcDbLine
10
69.837268931510451
20
77.871209593206473
30
0
11
68.682568393131405
21
77.871209593127958
31
0
0
LINE
5
153
100
AcDbEntity
8
0
100
AcDbLine
10
68.682568393131405
20
77.871209593127958
30
0
11
69.837268931374439
21
79.871209593206487
31
0
0
LINE
5
154
100
AcDbEntity
8
0
100
AcDbLine
10
69.837268931374439
20
79.871209593206487
30
0
11
68.682568392995393
21
79.871209593127958
31
0
0
LINE
5
155
100
AcDbEntity
8
0
100
AcDbLine
10
68.682568392995393
20
79.871209593127958
30
0
11
69.837268931238427
21
81.871209593206487
31
0
0
LINE
5
156
100
AcDbEntity
8
0
100
AcDbLine
10
69.837268931238427
20
81.871209593206487
30
0
11
68.682568392859366
21
81.871209593127944
31
0
0
LINE
5
157
100
AcDbEntity
8
0
100
AcDbLine
10
68.682568392859366
20
81.871209593127944
30
0
11
69.837268931102415
21
83.871209593206473
31
0
0
LINE
5
158
100
AcDbEntity
8
0
100
AcDbLine
10
69.837268931102415
20
83.871209593206473
30
0
11
68.682568392723354
21
83.871209593127944
31
0
0
LINE
5
159
100
AcDbEntity
8
0
100
AcDbLine
10
68.682568392723354
20
83.871209593127944
30
0
11
69.837268930966388
21
85.871209593206459
31
0
0
LINE
5
160
100
AcDbEntity
8
0
100
AcDbLine
10
69.837268930966388
20
85.871209593206459
30
0
11
68.682568392587342
21
85.871209593127929
31
0
0
LINE
5
161
100
AcDbEntity
8
0
100
AcDbLine
10
68.682568392587342
20
85.871209593127929
30
0
11
69.837268930830376
21
87.871209593206459
31
0
0
LINE
5
162
100
AcDbEntity
8
0
100
AcDbLine
10
69.837268930830376
20
87.871209593206459
30
0
11
68.68256839245133
21
87.871209593127929
31
0
0
LINE
5
163
100
AcDbEntity
8
0
100
AcDbLine
10
68.68256839245133
20
87.871209593127929
30
0
11
69.837268930694364
21
89.871209593206459
31
0
0
LINE
5
164
100
AcDbEntity
8
0
100
AcDbLine
10
69.837268930694364
20
89.871209593206459
30
0
11
68.682568392315318
21
89.871209593127915
31
0
0
LINE
5
165
100
AcDbEntity
8
0
100
AcDbLine
10
68.682568392315318
20
89.871209593127915
30
0
11
69.837268930558338
21
91.871209593206444
31
0
0
LINE
5
166
100
AcDbEntity
8
0
100
AcDbLine
10
69.837268930558338
20
91.871209593206444
30
0
11
68.682568392179292
21
91.871209593127929
31
0
0
LINE
5
167
100
AcDbEntity
8
0
100
AcDbLine
10
68.682568392179292
20
91.871209593127929
30
0
11
69.837268930422326
21
93.871209593206459
31
0
0
LINE
5
168
100
AcDbEntity
8
0
100
AcDbLine
10
69.837268930422326
20
93.871209593206459
30
0
11
68.682568392043279
21
93.871209593127929
31
0
0
LINE
5
169
100
AcDbEntity
8
0
100
AcDbLine
10
68.682568392043279
20
93.871209593127929
30
0
11
69.837268930286314
21
95.871209593206444
31
0
0
LINE
5
170
100
AcDbEntity
8
0
100
AcDbLine
10
69.837268930286314
20
95.871209593206444
30
0
11
68.682568391907267
21
95.871209593127901
31
0
0
LINE
5
171
100
AcDbEntity
8
0
100
AcDbLine
10
68.682568391907267
20
95.871209593127901
30
0
11
69.837268930150302
21
97.87120959320643
31
0
0
LINE
5
172
100
AcDbEntity
8
0
100
AcDbLine
10
69.837268930150302
20
97.87120959320643
30
0
11
68.682568391771241
21
97.871209593127901
31
0
0
LINE
5
173
100
AcDbEntity
8
0
100
AcDbLine
10
68.682568391771241
20
97.871209593127901
30
0
11
69.837268930014289
21
99.87120959320643
31
0
0
LINE
5
174
100
AcDbEntity
8
0
100
AcDbLine
10
69.837268930014289
20
99.87120959320643
30
0
11
68.682568391635229
21
99.871209593127901
31
0
0
LINE
5
175
100
AcDbEntity
8
0
100
AcDbLine
10
68.682568391635229
20
99.871209593127901
30
0
11
69.837268929878263
21
101.87120959320643
31
0
0
LINE
5
176
100
AcDbEntity
8
0
100
AcDbLine
10
69.837268929878263
20
101.87120959320643
30
0
11
68.682568391499217
21
101.8712095931279
31
0
0
LINE
5
177
100
AcDbEntity
8
0
100
AcDbLine
10
68.682568391499217
20
101.8712095931279
30
0
11
69.837268929742251
21
103.87120959320642
31
0
0
LINE
5
178
100
AcDbEntity
8
0
100
AcDbLine
10
69.837268929742251
20
103.87120959320642
30
0
11
68.682568391363205
21
103.87120959312789
31
0
0
LINE
5
179
100
AcDbEntity
8
0
100
AcDbLine
10
68.682568391363205
20
103.87120959312789
30
0
11
69.837268929606239
21
105.87120959320642
31
0
0
LINE
5
180
100
AcDbEntity
8
0
100
AcDbLine
10
69.837268929606239
20
105.87120959320642
30
0
11
68.682568391227193
21
105.87120959312786
31
0
0
LINE
5
181
100
AcDbEntity
8
0
100
AcDbLine
10
68.682568391227193
20
105.87120959312786
30
0
11
69.837268929470213
21
107.87120959320643
31
0
0
LINE
5
182
100
AcDbEntity
8
0
100
AcDbLine
10
69.837268929470213
20
107.87120959320643
30
0
11
68.682568391091166
21
107.87120959312786
31
0
0
LINE
5
183
100
AcDbEntity
8
0
100
AcDbLine
10
68.682568391091166
20
107.87120959312786
30
0
11
69.837268929334201
21
109.87120959320642
31
0
0
LINE
5
184
100
AcDbEntity
8
0
100
AcDbLine
10
69.837268929334201
20
109.87120959320642
30
0
11
68.682568390955154
21
109.87120959312787
31
0
0
LINE
5
185
100
AcDbEntity
8
0
100
AcDbLine
10
68.682568390955154
20
109.87120959312787
30
0
11
69.837268929198174
21
111.8712095932064
31
0
0
LINE
5
186
100
AcDbEntity
8
0
100
AcDbLine
10
69.837268929198174
20
111.8712095932064
30
0
11
68.682568390819128
21
111.87120959312786
31
0
0
LINE
5
187
100
AcDbEntity
8
0
100
AcDbLine
10
68.682568390819128
20
111.87120959312786
30
0
11
69.837268929062162
21
113.8712095932064
31
0
0
LINE
5
188
100
AcDbEntity
8
0
100
AcDbLine
10
69.837268929062162
20
113.8712095932064
30
0
11
68.682568390683116
21
113.87120959312783
31
0
0
LINE
5
189
100
AcDbEntity
8
0
100
AcDbLine
10
68.682568390683116
20
113.87120959312783
30
0
11
69.83726892892615
21
115.87120959320637
31
0
0
LINE
5
190
100
AcDbEntity
8
0
100
AcDbLine
10
69.83726892892615
20
115.87120959320637
30
0
11
68.682568390547104
21
115.87120959312783
31
0
0
LINE
5
191
100
AcDbEntity
8
0
100
AcDbLine
10
68.682568390547104
20
115.87120959312783
30
0
11
69.837268928790138
21
117.8712095932064
31
0
0
LINE
5
192
100
AcDbEntity
8
0
100
AcDbLine
10
69.837268928790138
20
117.8712095932064
30
0
11
68.682568390411078
21
117.87120959312786
31
0
0
LINE
5
193
100
AcDbEntity
8
0
100
AcDbLine
10
68.682568390411078
20
117.87120959312786
30
0
11
69.837268928654112
21
119.8712095932064
31
0
0
LINE
5
194
100
AcDbEntity
8
0
100
AcDbLine
10
69.837268928654112
20
119.8712095932064
30
0
11
68.682568390275065
21
119.87120959312784
31
0
0
LINE
5
195
100
AcDbEntity
8
0
100
AcDbLine
10
68.682568390275065
20
119.87120959312784
30
0
11
69.8372689285181
21
121.87120959320639
31
0
0
LINE
5
196
100
AcDbEntity
8
0
100
AcDbLine
10
69.8372689285181
20
121.87120959320639
30
0
11
68.682568390139053
21
121.87120959312782
31
0
0
LINE
5
197
100
AcDbEntity
8
0
100
AcDbLine
10
68.682568390139053
20
121.87120959312782
30
0
11
69.837268928382088
21
123.87120959320637
31
0
0
LINE
5
198
100
AcDbEntity
8
0
100
AcDbLine
10
69.837268928382088
20
123.87120959320637
30
0
11
68.682568390003041
21
123.87120959312782
31
0
0
LINE
5
199
100
AcDbEntity
8
0
100
AcDbLine
10
68.682568390003041
20
123.87120959312782
30
0
11
69.837268928246075
21
125.87120959320636
31
0
0
LINE
5
200
100
AcDbEntity
8
0
100
AcDbLine
10
69.837268928246075
20
125.87120959320636
30
0
11
68.682568389867015
21
125.87120959312782
31
0
0
LINE
5
201
100
AcDbEntity
8
0
100
AcDbLine
10
68.682568389867015
20
125.87120959312782
30
0
11
69.837268928110049
21
127.87120959320639
31
0
0
LINE
5
202
100
AcDbEntity
8
0
100
AcDbLine
10
69.837268928110049
20
127.87120959320639
30
0
11
68.682568389731003
21
127.87120959312782
31
0
0
LINE
5
203
100
AcDbEntity
8
0
100
AcDbLine
10
68.682568389731003
20
127.87120959312782
30
0
11
69.837268927974037
21
129.87120959320637
31
0
0
LINE
5
204
100
AcDbEntity
8
0
100
AcDbLine
10
69.837268927974037
20
129.87120959320637
30
0
11
68.682568389594991
21
129.87120959312782
31
0
0
LINE
5
205
100
AcDbEntity
8
0
100
AcDbLine
10
68.682568389594991
20
129.87120959312782
30
0
11
69.837268927838025
21
131.87120959320634
31
0
0
LINE
5
206
100
AcDbEntity
8
0
100
AcDbLine
10
69.837268927838025
20
131.87120959320634
30
0
11
68.682568389458979
21
131.87120959312782
31
0
0
LINE
5
207
100
AcDbEntity
8
0
100
AcDbLine
10
68.682568389458979
20
131.87120959312782
30
0
11
69.837268927702013
21
133.87120959320634
31
0
0
LINE
5
208
100
AcDbEntity
8
0
100
AcDbLine
10
69.837268927702013
20
133.87120959320634
30
0
11
68.682568389322952
21
133.87120959312779
31
0
0
LINE
5
209
100
AcDbEntity
8
0
100
AcDbLine
10
68.682568389322952
20
133.87120959312779
30
0
11
69.837268927565987
21
135.87120959320634
31
0
0
LINE
5
210
100
AcDbEntity
8
0
100
AcDbLine
10
69.837268927565987
20
135.87120959320634
30
0
11
68.68256838918694
21
135.87120959312779
31
0
0
LINE
5
211
100
AcDbEntity
8
0
100
AcDbLine
10
68.68256838918694
20
135.87120959312779
30
0
11
69.83726892742996
21
137.87120959320634
31
0
0
LINE
5
212
100
AcDbEntity
8
0
100
AcDbLine
10
69.83726892742996
20
137.87120959320634
30
0
11
68.682568389050928
21
137.87120959312779
31
0
0
LINE
5
213
100
AcDbEntity
8
0
100
AcDbLine
10
68.682568389050928
20
137.87120959312779
30
0
11
69.837268927293948
21
139.87120959320634
31
0
0
LINE
5
214
100
AcDbEntity
8
0
100
AcDbLine
10
69.837268927293948
20
139.87120959320634
30
0
11
68.682568388914902
21
139.87120959312779
31
0
0
LINE
5
215
100
AcDbEntity
8
0
100
AcDbLine
10
68.682568388914902
20
139.87120959312779
30
0
11
69.837268927157936
21
141.87120959320634
31
0
0
LINE
5
216
100
AcDbEntity
8
0
100
AcDbLine
10
69.837268927157936
20
141.87120959320634
30
0
11
68.68256838877889
21
141.87120959312776
31
0
0
LINE
5
217
100
AcDbEntity
8
0
100
AcDbLine
10
68.68256838877889
20
141.87120959312776
30
0
11
69.837268927021924
21
143.87120959320632
31
0
0
LINE
5
218
100
AcDbEntity
8
0
100
AcDbLine
10
69.837268927021924
20
143.87120959320632
30
0
11
68.682568388642864
21
143.87120959312776
31
0
0
LINE
5
219
100
AcDbEntity
8
0
100
AcDbLine
10
68.682568388642864
20
143.87120959312776
30
0
11
69.837268926885912
21
145.87120959320632
31
0
0
LINE
5
220
100
AcDbEntity
8
0
100
AcDbLine
10
69.837268926885912
20
145.87120959320632
30
0
11
68.682568388506851
21
145.87120959312776
31
0
0
LINE
5
221
100
AcDbEntity
8
0
100
AcDbLine
10
68.682568388506851
20
145.87120959312776
30
0
11
68.682568388370839
21
147.87120959312776
31
0
0
LINE
5
222
100
AcDbEntity
8
0
100
AcDbLine
10
68.682568388370839
20
147.87120959312776
30
0
11
76.682568388369461
21
147.87120959367181
31
0
0
LINE
5
223
100
AcDbEntity
8
0
100
AcDbLine
10
76.682568388369461
20
147.87120959367181
30
0
11
76.682568387553374
21
159.87120959367178
31
0
0
LINE
5
224
100
AcDbEntity
8
0
100
AcDbLine
10
76.682568387553374
20
159.87120959367178
30
0
11
64.682568387555435
21
159.87120959285568
31
0
0
LINE
5
225
100
AcDbEntity
8
0
100
AcDbLine
10
64.682568387555435
20
159.87120959285568
30
0
11
64.682568387827473
21
155.87120959285568
31
0
0
LINE
5
226
100
AcDbEntity
8
0
100
AcDbLine
10
64.682568387827473
20
155.87120959285568
30
0
11
68.782640372952201
21
155.87120959313449
31
0
0
LINE
5
227
100
AcDbEntity
8
0
100
AcDbLine
10
68.782640372952201
20
155.87120959313449
30
0
11
68.782640373224226
21
151.87120959313455
31
0
0
LINE
5
228
100
AcDbEntity
8
0
100
AcDbLine
10
68.782640373224226
20
151.87120959313455
30
0
11
64.682568388099497
21
151.87120959285571
31
0
0
LINE
5
229
100
AcDbEntity
8
0
100
AcDbLine
10
64.682568388099497
20
151.87120959285571
30
0
11
64.682568396124452
21
33.871209592856033
31
0
0
LINE
5
230
100
AcDbEntity
8
0
100
AcDbLine
10
67.682568397640864
20
11.571209593060122
30
0
11
66.682568397654293
21
11.371209592992113
31
0
0
LINE
5
231
100
AcDbEntity
8
0
100
AcDbLine
10
66.682568397654293
20
11.371209592992113
30
0
11
66.682568397722292
21
10.371209592992113
31
0
0
LINE
5
232
100
AcDbEntity
8
0
100
AcDbLine
10
66.682568397722292
20
10.371209592992113
30
0
11
67.182568397756384
21
9.8712095930261192
31
0
0
LINE
5
233
100
AcDbEntity
8
0
100
AcDbLine
10
67.182568397756384
20
9.8712095930261192
30
0
11
74.182568397757549
21
9.8712095935021811
31
0
0
LINE
5
234
100
AcDbEntity
8
0
100
AcDbLine
10
74.182568397757549
20
9.8712095935021811
30
0
11
74.682568397723628
21
10.371209593536188
31
0
0
LINE
5
235
100
AcDbEntity
8
0
100
AcDbLine
10
74.682568397723628
20
10.371209593536188
30
0
11
74.682568397655629
21
11.371209593536175
31
0
0
LINE
5
236
100
AcDbEntity
8
0
100
AcDbLine
10
74.682568397655629
20
11.371209593536175
30
0
11
73.682568397641859
21
11.57120959346817
31
0
0
LINE
5
237
100
AcDbEntity
8
0
100
AcDbLine
10
73.682568397641859
20
11.57120959346817
30
0
11
74.682568397519617
21
13.371209593536172
31
0
0
LINE
5
238
100
AcDbEntity
8
0
100
AcDbLine
10
74.682568397519617
20
13.371209593536172
30
0
11
74.682568396805522
21
23.871209593536147
31
0
0
LINE
5
239
100
AcDbEntity
8
0
100
AcDbLine
10
66.682568396804186
20
23.871209592992081
30
0
11
66.682568397518281
21
13.371209592992106
31
0
0
LINE
5
240
100
AcDbEntity
8
0
100
AcDbLine
10
66.682568397518281
20
13.371209592992106
30
0
11
67.682568397640864
21
11.571209593060122
31
0
0
LWPOLYLINE
5
241
100
AcDbEntity
8
0
100
AcDbPolyline
90
24
70
1
43
0.0
10
99.765908826021075
20
9.4874722064536154
10
100.76590882602106
20
9.6874722064536165
10
99.765908826021075
20
11.487472206453615
10
99.765908826021075
20
21.987472206453607
10
97.765908826021061
20
21.987472206453607
10
97.765908826021061
20
27.987472206453603
10
101.86590882602106
20
27.987472206453603
10
101.86591111126312
20
31.987472206453596
10
97.765908826021061
20
31.987472206453589
10
97.765908826021047
20
149.98747220645348
10
101.8659808111465
20
149.98747220645348
10
101.86598081114651
20
153.98747220645348
10
97.765908826021061
20
153.98747220645348
10
97.765908826021061
20
157.98747220645348
10
109.76590882602105
20
157.98747220645348
10
109.76590882602108
20
21.987472206453607
10
107.76590882602106
20
21.987472206453607
10
107.76590882602106
20
11.487472206453607
10
106.76590882602106
20
9.687472206453613
10
107.76590882602106
20
9.4874722064536119
10
107.76590882602108
20
8.4874722064536172
10
107.26590882602108
20
7.9874722064536163
10
100.26590882602108
20
7.9874722064536163
10
99.765908826021075
20
8.4874722064536154
0
LWPOLYLINE
5
242
100
AcDbEntity
8
0
100
AcDbPolyline
90
4
70
1
43
0.0
10
151.66590882602108
20
78.787472206453572
10
151.66590882602108
20
87.187472206453549
10
139.66590882602108
20
87.187472206453549
10
139.66590882602105
20
78.787472206453558
0
LWPOLYLINE
5
243
100
AcDbEntity
8
0
100
AcDbPolyline
90
4
70
1
43
0.0
10
147.66590882602111
20
75.73747220645356
10
143.66590882602108
20
75.73747220645356
10
143.66590882602108
20
73.73747220645356
10
147.66590882602111
20
73.737472206453575
0
LWPOLYLINE
5
244
100
AcDbEntity
8
0
100
AcDbPolyline
90
4
70
1
43
0.0
10
154.91590882602111
20
84.987472206453546
10
152.91590882602111
20
84.987472206453546
10
152.91590882602111
20
80.987472206453532
10
154.91590882602108
20
80.98747220645356
0
LWPOLYLINE
5
245
100
AcDbEntity
8
0
100
AcDbPolyline
90
4
70
1
43
0.0
10
138.41590882602108
20
80.987472206453532
10
138.41590882602108
20
84.987472206453546
10
136.41590882602108
20
84.987472206453546
10
136.41590882602105
20
80.987472206453532
0
LWPOLYLINE
5
246
100
AcDbEntity
8
0
100
AcDbPolyline
90
16
70
1
43
0.0
10
139.16590882602105
20
76.48747220645356
10
135.16590882602105
20
76.48747220645356
10
135.16590882602105
20
93.487472206453518
10
139.66590882602108
20
93.487472206453518
10
139.66590882602108
20
88.487472206453631
10
143.66590882602097
20
88.487472206453532
10
143.66590882602108
20
93.487472206453518
10
147.66590882602111
20
93.487472206453518
10
147.66590882602119
20
88.487472206453532
10
151.66590882602111
20
88.487472206453631
10
151.66590882602108
20
93.487472206453518
10
156.16590882602111
20
93.487472206453518
10
156.16590882602108
20
76.48747220645356
10
152.16590882602111
20
76.48747220645356
10
152.16590882602111
20
72.487472206453575
10
139.16590882602105
20
72.487472206453575
0
LWPOLYLINE
5
247
100
AcDbEntity
8
0
100
AcDbPolyline
90
24
70
1
43
0.0
10
192.56590882602094
20
81.056435832009242
10
192.56590882602094
20
78.056435832009242
10
190.06590882602097
20
78.056435832009242
10
190.06590882602097
20
74.556435832009242
10
186.87060936440025
20
74.556435832009228
42
-0.41421356237307944
10
185.87060936440022
20
75.556435832009257
10
185.87060936440025
20
85.620499384729683
42
1.8633249580710245
10
184.37060936440022
20
85.620499384729655
10
184.3706093644002
20
75.056435832009242
42
0.41421356237309503
10
185.3706093644002
20
74.056435832009242
10
193.06590882602094
20
74.056435832009242
10
193.06590882602094
20
81.556435832009242
10
195.46590882602095
20
81.556435832009242
10
195.46590882602095
20
70.856951309624051
10
181.565908826021
20
70.856951309624066
10
182.87060936440025
20
73.116758930759374
10
182.87060936440017
20
88.618641316829951
42
-0.12295078443329055
10
183.10532957068909
20
89.558740912572461
10
185.50145896083836
20
94.058092699025494
42
-0.27714820665911549
10
187.26673875454949
20
95.11799310328297
10
193.06590882602094
20
95.11799310328297
10
193.06590882602097
20
92.117993103282956
10
190.06590882602097
20
92.117993103282956
10
190.06590882602094
20
81.056435832009242
0
LWPOLYLINE
5
248
100
AcDbEntity
8
0
100
AcDbPolyline
90
4
70
1
43
0.0
10
232.86590882602093
20
84.537508199016216
10
232.86590882602093
20
81.437436213890791
10
220.86590882602093
20
81.437436213890791
10
220.86590882602093
20
84.537508199016216
0
LWPOLYLINE
5
249
100
AcDbEntity
8
0
100
AcDbPolyline
90
4
70
1
43
0.0
10
270.26590882602113
20
84.537472206453558
10
270.26590882602113
20
81.437472206453549
10
258.26590882602113
20
81.437472206453535
10
258.26590882602113
20
84.537472206453543
0
LWPOLYLINE
5
250
100
AcDbEntity
8
0
100
AcDbPolyline
90
4
70
1
43
0.0
10
36.811506092235071
20
-29.594422994649861
10
36.811506092235071
20
-23.594422994649857
10
33.811506092235049
20
-23.594422994649868
10
33.811506092235049
20
-29.594422994649872
0
LWPOLYLINE
5
251
100
AcDbEntity
8
0
100
AcDbPolyline
90
56
70
1
43
0.0
10
28.811506092234996
20
-38.969422994649896
10
28.811506092235
20
-19.094422994649864
10
41.81150609223512
20
-19.094422994649854
10
41.811506092235113
20
-38.969422994649889
10
44.811506092235128
20
-38.969422994649904
10
44.811506092235128
20
-43.219422994649896
10
41.811506092235113
20
-43.219422994649889
10
41.811506092235113
20
-50.969422994649918
10
44.811506092235128
20
-50.969422994649925
10
44.811506092235128
20
-55.219422994649925
10
41.811506092235113
20
-55.219422994649918
10
41.811506092235113
20
-62.969422994649932
10
44.81150609223512
20
-62.969422994649932
10
44.81150609223512
20
-67.219422994649946
10
41.811506092235113
20
-67.219422994649946
10
41.811506092235106
20
-86.96942299464996
10
44.81150609223512
20
-86.96942299464996
10
44.81150609223512
20
-91.219422994649975
10
41.811506092235092
20
-91.219422994649989
10
41.811506092235092
20
-98.969422994649989
10
44.81150609223512
20
-98.969422994649989
10
44.81150609223512
20
-103.21942299465
10
41.811506092235092
20
-103.21942299465
10
41.811506092235092
20
-112.09442299464999
10
39.311506092235071
20
-112.09442299464999
10
39.311506092235071
20
-115.09442299465
10
44.811506092235113
20
-115.09442299465
10
44.811506092235113
20
-119.09442299465
10
41.811506092235085
20
-119.09442299465
10
41.811506092235092
20
-123.09442299465002
10
28.811506092234982
20
-123.09442299465002
10
28.811506092234982
20
-119.09442299465
10
25.811506092234957
20
-119.09442299465
10
25.811506092234961
20
-115.09442299465
10
31.311506092235007
20
-115.09442299465
10
31.311506092235003
20
-112.09442299464999
10
28.811506092234982
20
-112.09442299464999
10
28.811506092234982
20
-103.21942299464999
10
25.811506092234961
20
-103.21942299464999
10
25.811506092234961
20
-98.969422994649975
10
28.811506092234985
20
-98.969422994649989
10
28.811506092234985
20
-91.219422994649975
10
25.811506092234964
20
-91.219422994649975
10
25.811506092234964
20
-86.96942299464996
10
28.811506092234985
20
-86.96942299464996
10
28.811506092234993
20
-67.219422994649932
10
25.811506092234964
20
-67.219422994649932
10
25.811506092234971
20
-62.969422994649918
10
28.811506092234993
20
-62.969422994649939
10
28.811506092234993
20
-55.219422994649904
10
25.811506092234971
20
-55.219422994649896
10
25.811506092234971
20
-50.969422994649918
10
28.811506092235
20
-50.969422994649925
10
28.811506092235
20
-43.219422994649896
10
25.811506092234975
20
-43.219422994649889
10
25.811506092234975
20
-38.969422994649889
0
LWPOLYLINE
5
252
100
AcDbEntity
8
0
100
AcDbPolyline
90
52
70
1
43
0.0
10
73.211506092235211
20
-21.094422994649914
10
77.711506092235268
20
-21.094422994649918
10
77.711506092235268
20
-24.031922994649921
10
81.711506092235311
20
-24.031922994649921
10
81.711506092235311
20
-21.094422994649925
10
86.211506092235354
20
-21.094422994649918
10
86.211506092235354
20
-28.094422994649921
10
89.211506092235382
20
-28.094422994649921
10
89.211506092235382
20
-37.094422994649904
10
86.211506092235339
20
-37.094422994649904
10
86.211506092235354
20
-41.094422994649904
10
89.211506092235382
20
-41.094422994649904
10
89.211506092235368
20
-49.094422994649904
10
86.211506092235339
20
-49.094422994649911
10
86.211506092235354
20
-53.094422994649904
10
89.211506092235368
20
-53.094422994649904
10
89.211506092235368
20
-73.094422994649904
10
86.211506092235339
20
-73.094422994649918
10
86.211506092235339
20
-77.094422994649904
10
89.211506092235368
20
-77.094422994649918
10
89.211506092235368
20
-85.094422994649918
10
86.211506092235339
20
-85.094422994649932
10
86.211506092235339
20
-89.094422994649918
10
89.211506092235368
20
-89.094422994649918
10
89.211506092235368
20
-97.094422994649932
10
86.211506092235325
20
-97.094422994649932
10
86.211506092235339
20
-101.09442299464993
10
89.211506092235339
20
-101.09442299464993
10
89.211506092235339
20
-121.09442299464993
10
70.21150609223514
20
-121.09442299464993
10
70.211506092235155
20
-101.09442299464993
10
73.211506092235197
20
-101.09442299464993
10
73.211506092235197
20
-97.094422994649932
10
70.211506092235155
20
-97.094422994649932
10
70.211506092235155
20
-89.094422994649918
10
73.211506092235197
20
-89.094422994649918
10
73.211506092235197
20
-85.094422994649932
10
70.211506092235169
20
-85.094422994649932
10
70.211506092235169
20
-77.094422994649904
10
73.211506092235197
20
-77.094422994649904
10
73.211506092235197
20
-73.094422994649918
10
70.211506092235169
20
-73.094422994649918
10
70.211506092235169
20
-53.094422994649904
10
73.211506092235211
20
-53.094422994649904
10
73.211506092235211
20
-49.094422994649911
10
70.211506092235169
20
-49.094422994649911
10
70.211506092235169
20
-41.094422994649904
10
73.211506092235211
20
-41.094422994649904
10
73.211506092235211
20
-37.094422994649904
10
70.211506092235183
20
-37.094422994649904
10
70.211506092235169
20
-28.094422994649911
10
73.211506092235211
20
-28.094422994649911
0
LWPOLYLINE
5
253
100
AcDbEntity
8
0
100
AcDbPolyline
90
4
70
1
43
0.0
10
81.711506092235297
20
-38.09348026592366
10
81.711506092235297
20
-35.218480265923652
10
77.711506092235254
20
-35.218480265923652
10
77.711506092235254
20
-38.09348026592366
0
LWPOLYLINE
5
254
100
AcDbEntity
8
0
100
AcDbPolyline
90
4
70
1
43
0.0
10
125.6115060922354
20
-29.594422994649939
10
125.6115060922354
20
-23.594422994649946
10
122.6115060922354
20
-23.59442299464995
10
122.61150609223542
20
-29.594422994649943
0
LWPOLYLINE
5
255
100
AcDbEntity
8
0
100
AcDbPolyline
90
56
70
1
43
0.0
10
117.6115060922354
20
-55.219422994649925
10
114.6115060922354
20
-55.219422994649925
10
114.61150609223543
20
-50.969422994649953
10
117.61150609223542
20
-50.96942299464996
10
117.6115060922354
20
-43.219422994649946
10
114.6115060922354
20
-43.219422994649946
10
114.61150609223543
20
-38.96942299464996
10
117.61150609223542
20
-38.969422994649968
10
117.6115060922354
20
-19.094422994649968
10
130.6115060922354
20
-19.094422994649968
10
130.6115060922354
20
-38.96942299464996
10
133.61150609223537
20
-38.969422994649968
10
133.61150609223537
20
-43.219422994649946
10
130.6115060922354
20
-43.219422994649939
10
130.6115060922354
20
-50.969422994649953
10
133.61150609223537
20
-50.969422994649953
10
133.61150609223537
20
-55.219422994649946
10
130.6115060922354
20
-55.219422994649953
10
130.6115060922354
20
-62.969422994649946
10
133.61150609223537
20
-62.969422994649939
10
133.61150609223537
20
-67.219422994649946
10
130.6115060922354
20
-67.21942299464996
10
130.6115060922354
20
-86.969422994649932
10
133.61150609223537
20
-86.969422994649932
10
133.61150609223537
20
-91.219422994649932
10
130.6115060922354
20
-91.219422994649932
10
130.6115060922354
20
-98.969422994649932
10
133.61150609223537
20
-98.969422994649932
10
133.61150609223537
20
-103.21942299464993
10
130.6115060922354
20
-103.21942299464993
10
130.6115060922354
20
-112.0944229946499
10
128.1115060922354
20
-112.0944229946499
10
128.1115060922354
20
-115.09442299464992
10
133.61150609223537
20
-115.0944229946499
10
133.61150609223537
20
-119.0944229946499
10
130.6115060922354
20
-119.0944229946499
10
130.6115060922354
20
-123.0944229946499
10
117.61150609223542
20
-123.0944229946499
10
117.6115060922354
20
-119.0944229946499
10
114.6115060922354
20
-119.0944229946499
10
114.6115060922354
20
-115.0944229946499
10
120.1115060922354
20
-115.09442299464992
10
120.11150609223542
20
-112.0944229946499
10
117.61150609223542
20
-112.0944229946499
10
117.6115060922354
20
-103.21942299464993
10
114.6115060922354
20
-103.21942299464993
10
114.61150609223543
20
-98.969422994649932
10
117.61150609223542
20
-98.969422994649932
10
117.6115060922354
20
-91.219422994649932
10
114.6115060922354
20
-91.219422994649932
10
114.61150609223543
20
-86.969422994649932
10
117.61150609223542
20
-86.969422994649918
10
117.6115060922354
20
-67.219422994649932
10
114.6115060922354
20
-67.219422994649946
10
114.61150609223543
20
-62.969422994649939
10
117.61150609223542
20
-62.969422994649939
0
LWPOLYLINE
5
256
100
AcDbEntity
8
0
100
AcDbPolyline
90
60
70
1
43
0.0
10
173.92118498897111
20
-117.22023863856339
10
173.92118498897111
20
-125.22023863856336
10
169.92118498897113
20
-125.22023863856336
10
169.92118498897113
20
-117.22023863856339
10
165.92118498897116
20
-117.22023863856339
10
165.92118498897116
20
-125.22023863856334
10
162.42118498897116
20
-125.22023863856334
10
162.42118498897111
20
-105.22023863856347
10
165.42118498897111
20
-105.22023863856347
10
165.42118498897113
20
-101.22023863856347
10
162.42118498897111
20
-101.22023863856347
10
162.42118498897111
20
-93.220238638563515
10
165.42118498897111
20
-93.220238638563515
10
165.42118498897111
20
-89.220238638563529
10
162.42118498897111
20
-89.220238638563544
10
162.42118498897111
20
-81.220238638563572
10
165.42118498897111
20
-81.220238638563572
10
165.42118498897111
20
-77.2202386385636
10
162.42118498897111
20
-77.2202386385636
10
162.42118498897105
20
-57.2202386385637
10
165.42118498897108
20
-57.2202386385637
10
165.42118498897108
20
-53.220238638563721
10
162.42118498897105
20
-53.220238638563721
10
162.42118498897105
20
-45.220238638563757
10
165.42118498897108
20
-45.220238638563757
10
165.42118498897108
20
-41.220238638563778
10
162.42118498897105
20
-41.220238638563778
10
162.42118498897102
20
-32.220238638563828
10
165.42118498897105
20
-32.220238638563842
10
165.42118498897105
20
-25.22023863856387
10
162.42118498897102
20
-25.220238638563867
10
162.42118498897105
20
-21.220238638563895
10
181.42118498897105
20
-21.22023863856392
10
181.42118498897105
20
-25.220238638563902
10
178.42118498897105
20
-25.220238638563892
10
178.42118498897105
20
-32.220238638563849
10
181.42118498897105
20
-32.220238638563863
10
181.42118498897105
20
-41.220238638563785
10
178.42118498897105
20
-41.220238638563785
10
178.42118498897105
20
-45.220238638563771
10
181.42118498897105
20
-45.220238638563771
10
181.42118498897108
20
-53.220238638563728
10
178.42118498897108
20
-53.220238638563728
10
178.42118498897105
20
-57.220238638563714
10
181.42118498897105
20
-57.220238638563714
10
181.42118498897108
20
-77.220238638563615
10
178.42118498897108
20
-77.220238638563615
10
178.42118498897108
20
-81.220238638563586
10
181.42118498897108
20
-81.220238638563586
10
181.42118498897111
20
-89.220238638563544
10
178.42118498897111
20
-89.220238638563544
10
178.42118498897108
20
-93.220238638563529
10
181.42118498897111
20
-93.220238638563529
10
181.42118498897111
20
-101.22023863856349
10
178.42118498897111
20
-101.22023863856349
10
178.42118498897111
20
-105.22023863856349
10
181.42118498897108
20
-105.22023863856349
10
181.42118498897116
20
-125.22023863856336
10
177.92118498897111
20
-125.22023863856336
10
177.92118498897111
20
-117.22023863856339
0
LWPOLYLINE
5
257
100
AcDbEntity
8
0
100
AcDbPolyline
90
8
70
1
43
0.0
10
226.41150609223564
20
-67.094422994649989
10
226.41150609223564
20
-75.094422994649989
10
224.41150609223567
20
-75.094422994649989
10
224.41150609223567
20
-71.094422994649989
10
205.41150609223567
20
-71.094422994649989
10
205.41150609223567
20
-75.094422994649989
10
203.4115060922357
20
-75.094422994649989
10
203.4115060922357
20
-67.094422994649975
0
LWPOLYLINE
5
258
100
AcDbEntity
8
0
100
AcDbPolyline
90
12
70
1
43
0.0
10
269.81150609223573
20
-75.963188995993121
10
269.81150609223573
20
-70.463188995993121
10
272.81150609223579
20
-70.463188995993121
10
272.81150609223579
20
-66.22565699330687
10
274.81150609223573
20
-64.225656993306856
10
274.81150609223573
20
-77.963188995993121
10
251.81150609223567
20
-77.963188995993107
10
251.81150609223567
20
-64.429376928720856
10
253.81150609223567
20
-66.225656993306856
10
253.81150609223567
20
-70.463188995993107
10
256.81150609223567
20
-70.463188995993121
10
256.81150609223567
20
-75.963188995993107
0
LWPOLYLINE
5
259
100
AcDbEntity
8
0
100
AcDbPolyline
90
12
70
1
43
0.0
10
318.21150609223565
20
-72.488124990620605
10
318.21150609223565
20
-67.463188995993121
10
305.21150609223571
20
-67.463188995993121
10
305.21150609223571
20
-72.488124990620619
10
302.21150609223565
20
-72.488124990620619
10
302.21150609223565
20
-76.72565699330687
10
300.21150609223571
20
-74.92937692872087
10
300.21150609223571
20
-65.463188995993121
10
323.21150609223565
20
-65.463188995993121
10
323.21150609223571
20
-74.72565699330687
10
321.2115060922356
20
-76.72565699330687
10
321.2115060922356
20
-72.488124990620605
0
ENDSEC
0
SECTION
2
OBJECTS
0
DICTIONARY
5
C
100
AcDbDictionary
3
ACAD_GROUP
350
D
3
ACAD_MLINESTYLE
350
17
0
DICTIONARY
5
D
100
AcDbDictionary
0
DICTIONARY
5
1A
330
C
100
AcDbDictionary
0
DICTIONARY
5
17
100
AcDbDictionary
0
ENDSEC
0
EOF
