0
SECTION
2
HEADER
9
$INSUNITS
70
4
9
$ACADVER
1
AC1014
9
$HANDSEED
5
FFFF
0
ENDSEC
0
SECTION
2
TABLES
0
TABLE
2
VPORT
5
8
100
AcDbSymbolTable
0
ENDTAB
0
TABLE
2
LTYPE
5
5
100
AcDbSymbolTable
0
LTYPE
5
14
100
AcDbSymbolTableRecord
100
AcDbLinetypeTableRecord
2
BYBLOCK
70
0
0
LTYPE
5
15
100
AcDbSymbolTableRecord
100
AcDbLinetypeTableRecord
2
BYLAYER
70
0
0
ENDTAB
0
TABLE
2
LAYER
5
2
100
AcDbSymbolTable
70
2
0
LAYER
5
50
100
AcDbSymbolTableRecord
100
AcDbLayerTableRecord
2
0
70
0
6
CONTINUOUS
0
ENDTAB
0
TABLE
2
STYLE
5
3
100
AcDbSymbolTable
70
1
0
STYLE
5
11
100
AcDbSymbolTableRecord
100
AcDbTextStyleTableRecord
2
STANDARD
70
0
0
ENDTAB
0
TABLE
2
VIEW
5
6
100
AcDbSymbolTable
70
0
0
ENDTAB
0
TABLE
2
UCS
5
7
100
AcDbSymbolTable
70
0
0
ENDTAB
0
TABLE
2
APPID
5
9
100
AcDbSymbolTable
70
2
0
APPID
5
12
100
AcDbSymbolTableRecord
100
AcDbRegAppTableRecord
2
ACAD
70
0
0
ENDTAB
0
TABLE
2
DIMSTYLE
5
A
100
AcDbSymbolTable
70
1
0
ENDTAB
0
TABLE
2
BLOCK_RECORD
5
1
100
AcDbSymbolTable
70
1
0
BLOCK_RECORD
5
1F
100
AcDbSymbolTableRecord
100
AcDbBlockTableRecord
2
*MODEL_SPACE
0
BLOCK_RECORD
5
1B
100
AcDbSymbolTableRecord
100
AcDbBlockTableRecord
2
*PAPER_SPACE
0
ENDTAB
0
ENDSEC
0
SECTION
2
BLOCKS
0
BLOCK
5
20
100
AcDbEntity
100
AcDbBlockBegin
2
*MODEL_SPACE
0
ENDBLK
5
21
100
AcDbEntity
100
AcDbBlockEnd
0
BLOCK
5
1C
100
AcDbEntity
100
AcDbBlockBegin
2
*PAPER_SPACE
0
ENDBLK
5
1D
100
AcDbEntity
100
AcDbBlockEnd
0
ENDSEC
0
SECTION
2
ENTITIES
0
LWPOLYLINE
5
100
100
AcDbEntity
8
0
100
AcDbPolyline
90
4
70
1
43
0.0
10
43.829617419469074
20
212.57302032045104
10
43.829617419469074
20
216.57302032045101
10
39.829617419469074
20
216.57302032045101
10
39.829617419469066
20
212.57302032045104
0
LWPOLYLINE
5
101
100
AcDbEntity
8
0
100
AcDbPolyline
90
233
70
1
43
0.0
10
44.835155504670261
20
51.073020320451121
10
44.835155504670261
20
55.073020320451114
10
44.335155504670269
20
55.073020320451114
10
44.335155504670254
20
57.073020320451121
10
44.959317957848207
20
58.154101401532188
10
43.804617419468983
20
58.154101401532188
10
43.804617419468983
20
58.181128428559234
10
44.959317957848207
20
60.181128428559219
10
43.804617419468983
20
60.181128428559219
10
43.804617419468983
20
60.208155455586251
10
44.959317957848207
20
62.208155455586237
10
43.804617419468983
20
62.208155455586237
10
43.804617419468983
20
62.235182482613283
10
44.959317957848207
20
64.235182482613283
10
43.804617419468983
20
64.235182482613283
10
43.804617419468983
20
64.2622095096403
10
44.959317957848207
20
66.262209509640286
10
43.804617419468983
20
66.262209509640286
10
43.804617419468983
20
66.289236536667332
10
44.959317957848207
20
68.289236536667332
10
43.804617419468983
20
68.289236536667332
10
43.804617419468983
20
68.316263563694349
10
44.959317957848207
20
70.316263563694349
10
43.804617419468983
20
70.316263563694349
10
43.804617419468983
20
70.343290590721381
10
44.959317957848214
20
72.343290590721367
10
43.80461741946899
20
72.343290590721367
10
43.80461741946899
20
72.370317617748412
10
44.959317957848214
20
74.370317617748412
10
43.80461741946899
20
74.370317617748412
10
43.80461741946899
20
74.39734464477543
10
44.959317957848214
20
76.39734464477543
10
43.80461741946899
20
76.39734464477543
10
43.80461741946899
20
76.424371671802461
10
44.959317957848214
20
78.424371671802447
10
43.80461741946899
20
78.424371671802447
10
43.80461741946899
20
78.451398698829479
10
44.959317957848214
20
80.451398698829465
10
43.80461741946899
20
80.451398698829465
10
43.80461741946899
20
80.478425725856511
10
44.959317957848214
20
82.478425725856511
10
43.80461741946899
20
82.478425725856511
10
43.80461741946899
20
82.505452752883528
10
44.959317957848214
20
84.505452752883514
10
43.80461741946899
20
84.505452752883514
10
43.80461741946899
20
84.53247977991056
10
44.959317957848214
20
86.53247977991056
10
43.80461741946899
20
86.53247977991056
10
43.80461741946899
20
86.559506806937577
10
44.959317957848214
20
88.559506806937577
10
43.80461741946899
20
88.559506806937577
10
43.80461741946899
20
88.586533833964609
10
44.959317957848214
20
90.586533833964609
10
43.80461741946899
20
90.586533833964609
10
43.80461741946899
20
90.61356086099164
10
44.959317957848228
20
92.613560860991626
10
43.804617419468997
20
92.613560860991626
10
43.804617419468997
20
92.640587888018672
10
44.959317957848228
20
94.640587888018658
10
43.804617419468997
20
94.640587888018658
10
43.804617419468997
20
94.667614915045704
10
44.959317957848228
20
96.667614915045704
10
43.804617419468997
20
96.667614915045704
10
43.804617419468997
20
96.694641942072721
10
44.959317957848228
20
98.694641942072707
10
43.804617419468997
20
98.694641942072693
10
43.804617419468997
20
98.721668969099738
10
44.959317957848228
20
100.72166896909974
10
43.804617419468997
20
100.72166896909974
10
43.804617419468997
20
100.74869599612676
10
44.959317957848228
20
102.74869599612674
10
43.804617419468997
20
102.74869599612677
10
43.804617419468997
20
102.7757230231538
10
44.959317957848228
20
104.7757230231538
10
43.804617419468997
20
104.7757230231538
10
43.804617419468997
20
104.80275005018083
10
44.959317957848228
20
106.80275005018082
10
43.804617419468997
20
106.8027500501808
10
43.804617419468997
20
106.82977707720784
10
44.959317957848235
20
108.82977707720784
10
43.804617419469011
20
108.82977707720784
10
43.804617419469011
20
108.85680410423487
10
44.959317957848235
20
110.85680410423485
10
43.804617419469011
20
110.85680410423487
10
43.804617419469011
20
110.88383113126191
10
44.959317957848235
20
112.8838311312619
10
43.804617419469011
20
112.8838311312619
10
43.804617419469011
20
112.91085815828892
10
44.959317957848235
20
114.9108581582889
10
43.804617419469011
20
114.9108581582889
10
43.804617419469011
20
114.93788518531595
10
44.959317957848235
20
116.93788518531593
10
43.804617419469011
20
116.93788518531593
10
43.804617419469011
20
116.96491221234298
10
44.959317957848235
20
118.96491221234298
10
43.804617419469011
20
118.96491221234298
10
43.804617419469011
20
118.99193923937
10
44.959317957848235
20
120.99193923937
10
43.804617419469011
20
120.99193923937001
10
43.804617419469011
20
121.01896626639703
10
44.959317957848235
20
123.01896626639703
10
43.804617419469011
20
123.01896626639703
10
43.804617419469011
20
123.04599329342406
10
44.959317957848235
20
125.04599329342405
10
43.804617419469011
20
125.04599329342405
10
43.804617419469011
20
125.07302032045109
10
44.959317957848235
20
127.07302032045108
10
43.804617419469018
20
127.07302032045109
10
43.804617419469011
20
127.10004734747811
10
44.959317957848242
20
129.1000473474781
10
43.804617419469018
20
129.10004734747812
10
43.804617419469018
20
129.12707437450513
10
44.959317957848242
20
131.12707437450513
10
43.804617419469018
20
131.12707437450513
10
43.804617419469018
20
131.15410140153216
10
44.959317957848242
20
133.15410140153216
10
43.804617419469018
20
133.15410140153216
10
43.804617419469018
20
133.18112842855919
10
44.959317957848242
20
135.18112842855916
10
43.804617419469018
20
135.18112842855919
10
43.804617419469018
20
135.20815545558622
10
44.959317957848242
20
137.20815545558619
10
43.804617419469018
20
137.20815545558619
10
43.804617419469018
20
137.23518248261323
10
44.959317957848242
20
139.23518248261323
10
43.804617419469018
20
139.23518248261323
10
43.804617419469018
20
139.26220950964026
10
44.959317957848242
20
141.26220950964026
10
43.804617419469018
20
141.26220950964026
10
43.804617419469018
20
141.28923653666729
10
44.959317957848256
20
143.28923653666726
10
43.804617419469025
20
143.28923653666726
10
43.804617419469025
20
143.31626356369429
10
44.959317957848256
20
145.31626356369429
10
43.804617419469025
20
145.31626356369429
10
43.804617419469025
20
145.34329059072132
10
44.959317957848256
20
147.34329059072132
10
43.804617419469025
20
147.34329059072132
10
43.804617419469025
20
147.37031761774836
10
44.959317957848256
20
149.37031761774836
10
43.804617419469025
20
149.37031761774836
10
43.804617419469025
20
149.39734464477539
10
44.959317957848256
20
151.39734464477539
10
43.804617419469025
20
151.39734464477539
10
43.804617419469025
20
151.42437167180242
10
44.959317957848256
20
153.42437167180242
10
43.804617419469025
20
153.42437167180242
10
43.804617419469025
20
153.45139869882945
10
44.959317957848256
20
155.45139869882945
10
43.804617419469025
20
155.45139869882945
10
43.804617419469025
20
155.47842572585648
10
44.959317957848256
20
157.47842572585648
10
43.804617419469025
20
157.47842572585648
10
43.804617419469025
20
157.50545275288349
10
44.959317957848256
20
159.50545275288349
10
43.804617419469025
20
159.50545275288349
10
43.804617419469025
20
159.53247977991052
10
44.959317957848256
20
161.53247977991049
10
43.804617419469025
20
161.53247977991055
10
43.804617419469025
20
161.55950680693758
10
44.959317957848263
20
163.55950680693755
10
43.804617419469032
20
163.55950680693755
10
43.804617419469032
20
163.58653383396458
10
44.959317957848263
20
165.58653383396458
10
43.804617419469032
20
165.58653383396458
10
43.804617419469032
20
165.61356086099164
10
44.959317957848263
20
167.61356086099164
10
43.804617419469032
20
167.61356086099158
10
43.804617419469032
20
167.64058788801862
10
44.959317957848263
20
169.64058788801862
10
43.804617419469032
20
169.64058788801862
10
43.804617419469032
20
169.66761491504568
10
44.959317957848263
20
171.66761491504565
10
43.804617419469032
20
171.66761491504562
10
43.804617419469032
20
171.69464194207268
10
44.959317957848263
20
173.69464194207268
10
43.804617419469032
20
173.69464194207268
10
43.804617419469032
20
173.72166896909971
10
44.959317957848263
20
175.72166896909971
10
43.804617419469032
20
175.72166896909974
10
43.804617419469032
20
175.74869599612671
10
44.959317957848263
20
177.74869599612671
10
43.804617419469032
20
177.74869599612674
10
43.804617419469032
20
177.77572302315374
10
44.95931795784827
20
179.77572302315372
10
43.804617419469039
20
179.77572302315377
10
43.804617419469039
20
179.80275005018075
10
44.95931795784827
20
181.80275005018075
10
43.804617419469039
20
181.80275005018078
10
43.804617419469039
20
181.82977707720781
10
44.95931795784827
20
183.82977707720781
10
43.804617419469039
20
183.82977707720781
10
43.804617419469039
20
183.85680410423487
10
44.95931795784827
20
185.85680410423487
10
43.804617419469039
20
185.85680410423481
10
43.804617419469039
20
185.88383113126187
10
44.95931795784827
20
187.88383113126187
10
43.804617419469039
20
187.88383113126187
10
43.804617419469039
20
187.9108581582889
10
44.95931795784827
20
189.91085815828887
10
43.804617419469039
20
189.91085815828887
10
43.804617419469039
20
189.93788518531591
10
44.95931795784827
20
191.93788518531591
10
43.804617419469039
20
191.93788518531593
10
43.804617419469039
20
191.96491221234294
10
44.95931795784827
20
193.96491221234294
10
43.804617419469039
20
193.96491221234297
10
43.804617419469039
20
193.99193923936994
10
44.95931795784827
20
195.99193923936994
10
43.804617419469039
20
195.99193923936997
10
43.804617419469039
20
196.018966266397
10
44.95931795784827
20
198.018966266397
10
43.804617419469039
20
198.018966266397
10
43.804617419469039
20
198.04599329342403
10
44.959317957848278
20
200.045993293424
10
43.804617419469054
20
200.045993293424
10
43.804617419469054
20
200.07302032045104
10
44.959317957848278
20
202.07302032045104
10
43.804617419469054
20
202.07302032045106
10
42.93859201568462
20
202.57302032045104
10
40.408592015684619
20
201.57302032045101
10
37.408592015684619
20
201.57302032045101
10
36.408592015684619
20
203.07302032045104
10
35.354617419469079
20
203.07302032045104
10
35.354617419469079
20
207.07302032045104
10
36.354617419469079
20
207.07302032045104
10
36.354617419469086
20
219.07302032045101
10
47.304617419469054
20
219.07302032045101
10
47.304617419469054
20
207.07302032045104
10
48.304617419469054
20
207.07302255562522
10
48.304617419468975
20
55.073020320451114
10
47.804617419468975
20
55.073020320451114
10
47.804617419468968
20
51.073020320451121
0
LWPOLYLINE
5
102
100
AcDbEntity
8
0
100
AcDbPolyline
90
4
70
1
43
0.0
10
80.406311312716952
20
137.50851426649999
10
80.406311312716952
20
140.50851426650001
10
74.406311312716952
20
140.50851426650001
10
74.406311312716952
20
137.50851426649999
0
LWPOLYLINE
5
103
100
AcDbEntity
8
0
100
AcDbPolyline
90
4
70
1
43
0.0
10
80.406311312716952
20
127.5085142665
10
80.406311312716952
20
130.50851426650001
10
74.406311312716952
20
130.50851426650001
10
74.406311312716952
20
127.5085142665
0
LWPOLYLINE
5
104
100
AcDbEntity
8
0
100
AcDbPolyline
90
4
70
1
43
0.0
10
83.156306097310193
20
132.00851426649999
10
83.156306097310193
20
136.00851426649999
10
72.206306097311568
20
136.00851426649999
10
72.206306097311582
20
132.00851426650001
0
LWPOLYLINE
5
105
100
AcDbEntity
8
0
100
AcDbPolyline
90
12
70
1
43
0.0
10
83.106314043803565
20
126.2085142665
10
71.50631404380357
20
126.2085142665
10
71.50631404380357
20
128.2085142665
10
67.506314043803556
20
128.2085142665
10
67.50631404380357
20
139.8085142665
10
71.506314043803584
20
139.8085142665
10
71.506314043803599
20
141.8085142665
10
83.106314043803536
20
141.8085142665
10
83.106314043803536
20
139.8085142665
10
87.106314043803579
20
139.8085142665
10
87.106314043803579
20
128.2085142665
10
83.106314043803579
20
128.2085142665
0
LWPOLYLINE
5
106
100
AcDbEntity
8
0
100
AcDbPolyline
90
17
70
1
43
0.0
10
119.40631404380122
20
123.11325465313197
10
119.40631404380122
20
141.56726327664956
42
-0.080144309458957647
10
120.2481799836267
20
141.87769851644987
42
-0.47204144273713833
10
120.96345690094404
20
141.28887661439987
10
120.96345690094404
20
132.36880527913195
42
1.2483018743459284
10
122.10631404380121
20
132.11325465313197
10
122.10631404380121
20
142.6031326169859
10
121.58558810163754
20
142.90377387986811
10
114.50631404380121
20
142.90377387986811
10
114.50631404380121
20
137.90377387986811
10
112.50631404380123
20
137.90377387986811
10
112.50631404380123
20
144.90377387986808
10
122.74028864001676
20
144.90377387986808
10
123.60631404380118
20
144.40377387986811
10
124.76101458218041
20
144.40377387986811
10
123.60631404380102
20
142.4037738798678
10
123.60631404380102
20
123.11325465313197
0
LWPOLYLINE
5
107
100
AcDbEntity
8
0
100
AcDbPolyline
90
12
70
1
43
0.0
10
152.16101458218037
20
137.00851426649999
10
150.16101458218037
20
137.00851426649999
10
150.16101458218037
20
144.00851426650001
10
170.1610145821802
20
144.00851426650001
10
170.1610145821802
20
137.00851426650001
10
168.1610145821802
20
137.00851426650001
10
168.1610145821802
20
131.00851426650001
10
170.1610145821802
20
131.00851426649999
10
170.1610145821802
20
124.0085142665
10
150.16101458218037
20
124.0085142665
10
150.1610145821804
20
131.00851426649999
10
152.1610145821804
20
131.00851426649999
0
LWPOLYLINE
5
108
100
AcDbEntity
8
0
100
AcDbPolyline
90
8
70
1
43
0.0
10
162.16101466413676
20
126.5085142665
10
162.16101466413676
20
126.2585142665
10
166.9110145821804
20
126.2585142665
10
166.9110145821804
20
141.75851426650001
10
162.16101466413679
20
141.75851426650001
10
162.16101466413676
20
141.50851426650001
10
156.6610145821804
20
141.50851426650001
10
156.66101458218037
20
126.5085142665
0
LWPOLYLINE
5
109
100
AcDbEntity
8
0
100
AcDbPolyline
90
4
70
1
43
0.0
10
198.07628362478079
20
132.0085142665001
10
201.04574553957949
20
132.0085142665001
10
201.04574553957949
20
136.00851426650007
10
198.07628362478079
20
136.0085142665001
0
LWPOLYLINE
5
110
100
AcDbEntity
8
0
100
AcDbPolyline
90
4
70
1
43
0.0
10
203.56101458218012
20
130.00851426650007
10
195.56101458218012
20
130.00851426650007
10
195.56101458218012
20
138.0085142665001
10
203.56101458218012
20
138.0085142665001
0
LWPOLYLINE
5
111
100
AcDbEntity
8
0
100
AcDbPolyline
90
4
70
1
43
0.0
10
237.96101458218016
20
141.00851426650007
10
231.96101458218013
20
141.00851426650007
10
231.96101458218013
20
139.0085142665001
10
237.96101458218016
20
139.0085142665001
0
LWPOLYLINE
5
112
100
AcDbEntity
8
0
100
AcDbPolyline
90
4
70
1
43
0.0
10
228.96101458218016
20
144.0085142665001
10
240.96101458218016
20
144.0085142665001
10
240.96101458218013
20
124.00851426650009
10
228.96101458218016
20
124.00851426650009
0
LWPOLYLINE
5
113
100
AcDbEntity
8
0
100
AcDbPolyline
90
20
70
1
43
0.0
10
101.88340428161128
20
-111.41264646535669
10
98.583404281611351
20
-111.41264646535669
10
98.583404281611351
20
-105.71264646535667
10
94.183404281611331
20
-105.71264646535666
10
94.183404281611331
20
-111.41264646535669
10
78.583404281611266
20
-111.41264646535672
10
78.583404281611266
20
-105.71264646535666
10
74.183404281611246
20
-105.71264646535664
10
74.183404281611246
20
-111.41264646535667
10
58.58340428161118
20
-111.41264646535667
10
58.583404281611195
20
-105.71264646535666
10
54.183404281611168
20
-105.71264646535664
10
54.183404281611161
20
-111.41264646535666
10
38.583404281611095
20
-111.41264646535669
10
38.583404281611095
20
-105.71264646535664
10
34.183404281611082
20
-105.71264646535661
10
34.183404281611082
20
-111.41264646535666
10
21.88340428161094
20
-111.41264646535667
10
21.883404281610943
20
-101.41264646535667
10
101.88340428161128
20
-101.41264646535669
0
LWPOLYLINE
5
114
100
AcDbEntity
8
0
100
AcDbPolyline
90
20
70
1
43
0.0
10
212.53401745836044
20
-115.3506063479181
10
209.23401745836054
20
-115.3506063479181
10
209.23401745836054
20
-109.65060634791804
10
204.83401745836051
20
-109.65060634791804
10
204.83401745836056
20
-115.3506063479181
10
189.23401745836046
20
-115.35060634791807
10
189.23401745836043
20
-109.65060634791804
10
184.83401745836039
20
-109.65060634791804
10
184.83401745836045
20
-115.35060634791807
10
169.23401745836034
20
-115.35060634791805
10
169.23401745836031
20
-109.65060634791803
10
164.83401745836031
20
-109.65060634791803
10
164.83401745836031
20
-115.35060634791805
10
149.23401745836023
20
-115.35060634791805
10
149.2340174583602
20
-109.650606347918
10
144.83401745836019
20
-109.650606347918
10
144.83401745836022
20
-115.35060634791805
10
132.53401745836004
20
-115.35060634791805
10
132.53401745836004
20
-105.35060634791805
10
212.53401745836047
20
-105.3506063479181
0
LWPOLYLINE
5
115
100
AcDbEntity
8
0
100
AcDbPolyline
90
4
70
1
43
0.0
10
237.93401745836087
20
-107.60060634791829
10
317.93401745836127
20
-107.60060634791834
10
317.93401745836127
20
-113.10060634791839
10
237.9340174583609
20
-113.10060634791827
0
LWPOLYLINE
5
116
100
AcDbEntity
8
0
100
AcDbPolyline
90
32
70
1
43
0.0
10
391.3340174583617
20
-98.350606347918315
10
391.3340174583617
20
-108.35060634791832
10
395.3340174583617
20
-108.35060634791832
10
395.3340174583617
20
-98.350606347918315
10
411.33401745836181
20
-98.35060634791833
10
411.33401745836176
20
-108.35060634791833
10
415.33401745836181
20
-108.35060634791833
10
415.33401745836181
20
-98.35060634791833
10
423.33401745836181
20
-98.35060634791833
10
423.33401745836193
20
-118.35060634791836
10
406.33401745836181
20
-118.35060634791833
10
406.33401745836176
20
-122.35060634791834
10
400.3340174583617
20
-122.35060634791834
10
400.3340174583617
20
-118.35060634791833
10
386.3340174583617
20
-118.35060634791832
10
386.3340174583617
20
-122.35060634791833
10
380.33401745836164
20
-122.35060634791833
10
380.33401745836159
20
-118.35060634791832
10
366.33401745836153
20
-118.3506063479183
10
366.33401745836153
20
-122.3506063479183
10
360.33401745836153
20
-122.3506063479183
10
360.33401745836153
20
-118.35060634791832
10
343.33401745836142
20
-118.3506063479183
10
343.33401745836142
20
-98.350606347918301
10
351.33401745836147
20
-98.350606347918301
10
351.33401745836147
20
-108.3506063479183
10
355.33401745836153
20
-108.3506063479183
10
355.33401745836153
20
-98.350606347918301
10
371.33401745836159
20
-98.350606347918315
10
371.33401745836153
20
-108.35060634791832
10
375.33401745836159
20
-108.35060634791832
10
375.33401745836159
20
-98.350606347918301
0
LWPOLYLINE
5
117
100
AcDbEntity
8
0
100
AcDbPolyline
90
32
70
1
43
0.0
10
496.73401745836338
20
-98.350606347918387
10
496.73401745836338
20
-108.35060634791839
10
500.73401745836344
20
-108.35060634791839
10
500.73401745836344
20
-98.350606347918387
10
516.7340174583635
20
-98.350606347918415
10
516.7340174583635
20
-108.35060634791841
10
520.7340174583635
20
-108.35060634791841
10
520.7340174583635
20
-98.350606347918415
10
528.7340174583635
20
-98.350606347918415
10
528.73401745836361
20
-118.35060634791843
10
511.7340174583635
20
-118.35060634791841
10
511.73401745836344
20
-122.35060634791841
10
505.73401745836344
20
-122.35060634791841
10
505.73401745836344
20
-118.35060634791841
10
491.73401745836338
20
-118.35060634791839
10
491.73401745836338
20
-122.35060634791839
10
485.73401745836338
20
-122.35060634791839
10
485.73401745836327
20
-118.35060634791839
10
471.73401745836321
20
-118.35060634791837
10
471.73401745836321
20
-122.35060634791837
10
465.73401745836321
20
-122.35060634791837
10
465.73401745836321
20
-118.35060634791839
10
448.7340174583631
20
-118.35060634791837
10
448.7340174583631
20
-98.350606347918372
10
456.73401745836316
20
-98.350606347918372
10
456.73401745836316
20
-108.35060634791837
10
460.73401745836321
20
-108.35060634791837
10
460.73401745836321
20
-98.350606347918372
10
476.73401745836327
20
-98.350606347918387
10
476.73401745836321
20
-108.35060634791839
10
480.73401745836327
20
-108.35060634791839
10
480.73401745836327
20
-98.350606347918372
0
LWPOLYLINE
5
118
100
AcDbEntity
8
0
100
AcDbPolyline
90
32
70
1
43
0.0
10
622.13401745836347
20
-98.350606347918529
10
622.13401745836347
20
-108.35060634791853
10
626.13401745836336
20
-108.35060634791853
10
626.13401745836336
20
-98.350606347918529
10
634.13401745836347
20
-98.350606347918529
10
634.13401745836359
20
-118.35060634791856
10
617.13401745836347
20
-118.35060634791853
10
617.13401745836336
20
-122.35060634791853
10
611.13401745836336
20
-122.35060634791853
10
611.13401745836336
20
-118.35060634791853
10
597.13401745836325
20
-118.35060634791851
10
597.13401745836325
20
-122.35060634791851
10
591.13401745836325
20
-122.35060634791851
10
591.13401745836325
20
-118.35060634791851
10
577.13401745836313
20
-118.3506063479185
10
577.13401745836313
20
-122.3506063479185
10
571.13401745836313
20
-122.3506063479185
10
571.13401745836313
20
-118.35060634791851
10
554.13401745836302
20
-118.3506063479185
10
554.13401745836302
20
-98.3506063479185
10
562.13401745836313
20
-98.3506063479185
10
562.13401745836313
20
-108.3506063479185
10
566.13401745836313
20
-108.3506063479185
10
566.13401745836313
20
-98.3506063479185
10
582.13401745836325
20
-98.350606347918514
10
582.13401745836313
20
-108.35060634791851
10
586.13401745836325
20
-108.35060634791851
10
586.13401745836325
20
-98.3506063479185
10
602.13401745836325
20
-98.350606347918514
10
602.13401745836336
20
-108.35060634791851
10
606.13401745836336
20
-108.35060634791851
10
606.13401745836336
20
-98.350606347918514
0
LWPOLYLINE
5
119
100
AcDbEntity
8
0
100
AcDbPolyline
90
32
70
1
43
0.0
10
727.53401745836254
20
-98.350606347918571
10
727.53401745836254
20
-108.35060634791857
10
731.53401745836265
20
-108.35060634791857
10
731.53401745836277
20
-98.350606347918571
10
739.53401745836277
20
-98.350606347918571
10
739.53401745836254
20
-118.35060634791859
10
722.53401745836254
20
-118.35060634791857
10
722.53401745836277
20
-122.35060634791857
10
716.53401745836265
20
-122.35060634791857
10
716.53401745836254
20
-118.35060634791857
10
702.53401745836243
20
-118.35060634791856
10
702.53401745836254
20
-122.35060634791856
10
696.53401745836254
20
-122.35060634791856
10
696.53401745836254
20
-118.35060634791856
10
682.53401745836243
20
-118.35060634791853
10
682.53401745836243
20
-122.35060634791853
10
676.53401745836231
20
-122.35060634791853
10
676.53401745836231
20
-118.35060634791856
10
659.53401745836231
20
-118.35060634791853
10
659.53401745836231
20
-98.350606347918529
10
667.53401745836231
20
-98.350606347918529
10
667.53401745836231
20
-108.35060634791853
10
671.53401745836231
20
-108.35060634791853
10
671.53401745836231
20
-98.350606347918529
10
687.53401745836243
20
-98.350606347918557
10
687.53401745836243
20
-108.35060634791856
10
691.53401745836254
20
-108.35060634791856
10
691.53401745836254
20
-98.350606347918529
10
707.53401745836254
20
-98.350606347918557
10
707.53401745836243
20
-108.35060634791856
10
711.53401745836254
20
-108.35060634791856
10
711.53401745836254
20
-98.350606347918557
0
LWPOLYLINE
5
120
100
AcDbEntity
8
0
100
AcDbPolyline
90
20
70
1
43
0.0
10
816.93401745836252
20
-110.35060634791901
10
816.93401745836252
20
-100.35060634791901
10
832.93401745836263
20
-100.35060634791901
10
832.93401745836252
20
-110.35060634791901
10
836.93401745836252
20
-110.35060634791901
10
836.93401745836252
20
-100.35060634791903
10
844.93401745836263
20
-100.35060634791903
10
844.93401745836263
20
-120.35060634791903
10
764.93401745836218
20
-120.35060634791897
10
764.93401745836218
20
-100.35060634791897
10
772.93401745836218
20
-100.35060634791897
10
772.93401745836218
20
-110.35060634791897
10
776.93401745836229
20
-110.35060634791897
10
776.93401745836229
20
-100.35060634791897
10
792.9340174583624
20
-100.35060634791898
10
792.9340174583624
20
-110.35060634791898
10
796.9340174583624
20
-110.35060634791898
10
796.9340174583624
20
-100.35060634791897
10
812.93401745836252
20
-100.35060634791898
10
812.93401745836252
20
-110.35060634791901
0
LWPOLYLINE
5
121
100
AcDbEntity
8
0
100
AcDbPolyline
90
20
70
1
43
0.0
10
922.33401745836227
20
-110.35060634791898
10
922.33401745836227
20
-100.35060634791898
10
938.33401745836238
20
-100.35060634791898
10
938.33401745836227
20
-110.35060634791898
10
942.33401745836227
20
-110.35060634791898
10
942.33401745836227
20
-100.35060634791901
10
950.3340174583625
20
-100.35060634791901
10
950.3340174583625
20
-120.35060634791901
10
870.33401745836204
20
-120.35060634791895
10
870.33401745836204
20
-100.35060634791895
10
878.33401745836204
20
-100.35060634791895
10
878.33401745836204
20
-110.35060634791895
10
882.33401745836204
20
-110.35060634791895
10
882.33401745836204
20
-100.35060634791895
10
898.33401745836215
20
-100.35060634791897
10
898.33401745836215
20
-110.35060634791897
10
902.33401745836215
20
-110.35060634791897
10
902.33401745836215
20
-100.35060634791895
10
918.33401745836227
20
-100.35060634791897
10
918.33401745836227
20
-110.35060634791898
0
LWPOLYLINE
5
122
100
AcDbEntity
8
0
100
AcDbPolyline
90
20
70
1
43
0.0
10
1047.7340174583662
20
-110.35060634791895
10
1047.7340174583662
20
-100.35060634791895
10
1055.7340174583665
20
-100.35060634791897
10
1055.7340174583665
20
-120.35060634791897
10
975.73401745836588
20
-120.35060634791891
10
975.73401745836588
20
-100.35060634791891
10
983.73401745836588
20
-100.35060634791891
10
983.73401745836588
20
-110.35060634791891
10
987.734017458366
20
-110.35060634791891
10
987.734017458366
20
-100.35060634791891
10
1003.734017458366
20
-100.35060634791893
10
1003.734017458366
20
-110.35060634791893
10
1007.7340174583661
20
-110.35060634791893
10
1007.7340174583661
20
-100.35060634791891
10
1023.7340174583662
20
-100.35060634791893
10
1023.7340174583662
20
-110.35060634791895
10
1027.7340174583662
20
-110.35060634791895
10
1027.7340174583662
20
-100.35060634791893
10
1043.7340174583662
20
-100.35060634791895
10
1043.7340174583662
20
-110.35060634791895
0
LWPOLYLINE
5
123
100
AcDbEntity
8
0
100
AcDbPolyline
90
20
70
1
43
0.0
10
1153.1340174583661
20
-110.3506063479189
10
1153.1340174583661
20
-100.3506063479189
10
1161.1340174583661
20
-100.35060634791891
10
1161.1340174583661
20
-120.35060634791891
10
1081.1340174583656
20
-120.35060634791887
10
1081.1340174583656
20
-100.35060634791887
10
1089.1340174583656
20
-100.35060634791887
10
1089.1340174583656
20
-110.35060634791887
10
1093.1340174583656
20
-110.35060634791887
10
1093.1340174583656
20
-100.35060634791887
10
1109.1340174583659
20
-100.35060634791888
10
1109.1340174583659
20
-110.35060634791888
10
1113.1340174583659
20
-110.35060634791888
10
1113.1340174583659
20
-100.35060634791887
10
1129.1340174583659
20
-100.35060634791888
10
1129.1340174583659
20
-110.3506063479189
10
1133.1340174583661
20
-110.3506063479189
10
1133.1340174583661
20
-100.35060634791888
10
1149.1340174583661
20
-100.3506063479189
10
1149.1340174583659
20
-110.3506063479189
0
ENDSEC
0
SECTION
2
OBJECTS
0
DICTIONARY
5
C
100
AcDbDictionary
3
ACAD_GROUP
350
D
3
ACAD_MLINESTYLE
350
17
0
DICTIONARY
5
D
100
AcDbDictionary
0
DICTIONARY
5
1A
330
C
100
AcDbDictionary
0
DICTIONARY
5
17
100
AcDbDictionary
0
ENDSEC
0
EOF
