0
SECTION
2
HEADER
9
$INSUNITS
70
4
9
$ACADVER
1
AC1014
9
$HANDSEED
5
FFFF
0
ENDSEC
0
SECTION
2
TABLES
0
TABLE
2
VPORT
5
8
100
AcDbSymbolTable
0
ENDTAB
0
TABLE
2
LTYPE
5
5
100
AcDbSymbolTable
0
LTYPE
5
14
100
AcDbSymbolTableRecord
100
AcDbLinetypeTableRecord
2
BYBLOCK
70
0
0
LTYPE
5
15
100
AcDbSymbolTableRecord
100
AcDbLinetypeTableRecord
2
BYLAYER
70
0
0
ENDTAB
0
TABLE
2
LAYER
5
2
100
AcDbSymbolTable
70
2
0
LAYER
5
50
100
AcDbSymbolTableRecord
100
AcDbLayerTableRecord
2
0
70
0
6
CONTINUOUS
0
ENDTAB
0
TABLE
2
STYLE
5
3
100
AcDbSymbolTable
70
1
0
STYLE
5
11
100
AcDbSymbolTableRecord
100
AcDbTextStyleTableRecord
2
STANDARD
70
0
0
ENDTAB
0
TABLE
2
VIEW
5
6
100
AcDbSymbolTable
70
0
0
ENDTAB
0
TABLE
2
UCS
5
7
100
AcDbSymbolTable
70
0
0
ENDTAB
0
TABLE
2
APPID
5
9
100
AcDbSymbolTable
70
2
0
APPID
5
12
100
AcDbSymbolTableRecord
100
AcDbRegAppTableRecord
2
ACAD
70
0
0
ENDTAB
0
TABLE
2
DIMSTYLE
5
A
100
AcDbSymbolTable
70
1
0
ENDTAB
0
TABLE
2
BLOCK_RECORD
5
1
100
AcDbSymbolTable
70
1
0
BLOCK_RECORD
5
1F
100
AcDbSymbolTableRecord
100
AcDbBlockTableRecord
2
*MODEL_SPACE
0
BLOCK_RECORD
5
1B
100
AcDbSymbolTableRecord
100
AcDbBlockTableRecord
2
*PAPER_SPACE
0
ENDTAB
0
ENDSEC
0
SECTION
2
BLOCKS
0
BLOCK
5
20
100
AcDbEntity
100
AcDbBlockBegin
2
*MODEL_SPACE
0
ENDBLK
5
21
100
AcDbEntity
100
AcDbBlockEnd
0
BLOCK
5
1C
100
AcDbEntity
100
AcDbBlockBegin
2
*PAPER_SPACE
0
ENDBLK
5
1D
100
AcDbEntity
100
AcDbBlockEnd
0
ENDSEC
0
SECTION
2
ENTITIES
0
LWPOLYLINE
5
100
100
AcDbEntity
8
0
100
AcDbPolyline
90
4
70
1
43
0.0
10
41.5625988721428
20
235.20128390716485
10
41.5625988721428
20
239.20128390716485
10
37.5625988721428
20
239.20128390716485
10
37.562598872142807
20
235.20128390716485
0
LWPOLYLINE
5
101
100
AcDbEntity
8
0
100
AcDbPolyline
90
233
70
1
43
0.0
10
42.943136957344208
20
73.701283907164651
10
42.943136957344208
20
77.701283907164651
10
42.443136957344201
20
77.701283907164665
10
42.443136957344201
20
79.701283907164665
10
43.067299410522146
20
80.782364988245732
10
41.912598872142922
20
80.782364988245732
10
41.912598872142922
20
80.809392015272778
10
43.067299410522146
20
82.809392015272763
10
41.912598872142922
20
82.809392015272763
10
41.912598872142922
20
82.836419042299795
10
43.067299410522146
20
84.836419042299781
10
41.912598872142922
20
84.836419042299781
10
41.912598872142922
20
84.863446069326827
10
43.067299410522146
20
86.863446069326812
10
41.912598872142922
20
86.863446069326812
10
41.912598872142922
20
86.890473096353844
10
43.067299410522139
20
88.890473096353844
10
41.912598872142908
20
88.890473096353858
10
41.912598872142908
20
88.917500123380904
10
43.067299410522139
20
90.91750012338089
10
41.912598872142908
20
90.91750012338089
10
41.912598872142908
20
90.944527150407907
10
43.067299410522139
20
92.944527150407907
10
41.912598872142908
20
92.944527150407907
10
41.912598872142908
20
92.971554177434953
10
43.067299410522139
20
94.971554177434939
10
41.912598872142908
20
94.971554177434939
10
41.912598872142908
20
94.998581204461985
10
43.067299410522139
20
96.998581204461971
10
41.912598872142908
20
96.998581204461971
10
41.912598872142908
20
97.025608231489002
10
43.067299410522125
20
99.025608231489002
10
41.912598872142901
20
99.025608231489002
10
41.912598872142901
20
99.052635258516034
10
43.067299410522125
20
101.05263525851603
10
41.912598872142901
20
101.05263525851603
10
41.912598872142901
20
101.07966228554307
10
43.067299410522125
20
103.07966228554307
10
41.912598872142901
20
103.07966228554305
10
41.912598872142901
20
103.10668931257011
10
43.067299410522125
20
105.1066893125701
10
41.912598872142901
20
105.1066893125701
10
41.912598872142901
20
105.13371633959713
10
43.067299410522125
20
107.13371633959711
10
41.912598872142901
20
107.13371633959711
10
41.912598872142901
20
107.16074336662416
10
43.067299410522125
20
109.16074336662416
10
41.912598872142901
20
109.16074336662416
10
41.912598872142894
20
109.18777039365118
10
43.067299410522118
20
111.18777039365116
10
41.912598872142894
20
111.18777039365116
10
41.912598872142894
20
111.21479742067821
10
43.067299410522118
20
113.21479742067821
10
41.912598872142894
20
113.21479742067821
10
41.912598872142894
20
113.24182444770526
10
43.067299410522118
20
115.24182444770524
10
41.912598872142894
20
115.24182444770523
10
41.912598872142894
20
115.26885147473226
10
43.067299410522118
20
117.26885147473226
10
41.912598872142894
20
117.26885147473227
10
41.912598872142894
20
117.29587850175932
10
43.067299410522111
20
119.29587850175932
10
41.91259887214288
20
119.29587850175932
10
41.91259887214288
20
119.32290552878634
10
43.067299410522111
20
121.32290552878632
10
41.91259887214288
20
121.32290552878632
10
41.91259887214288
20
121.34993255581337
10
43.067299410522111
20
123.34993255581338
10
41.91259887214288
20
123.34993255581338
10
41.91259887214288
20
123.37695958284039
10
43.067299410522111
20
125.3769595828404
10
41.91259887214288
20
125.37695958284039
10
41.91259887214288
20
125.40398660986742
10
43.067299410522111
20
127.40398660986742
10
41.91259887214288
20
127.40398660986742
10
41.91259887214288
20
127.43101363689445
10
43.067299410522111
20
129.43101363689442
10
41.91259887214288
20
129.43101363689445
10
41.91259887214288
20
129.45804066392151
10
43.067299410522104
20
131.45804066392148
10
41.912598872142873
20
131.45804066392148
10
41.912598872142873
20
131.48506769094851
10
43.067299410522104
20
133.48506769094851
10
41.912598872142873
20
133.48506769094851
10
41.912598872142873
20
133.51209471797551
10
43.067299410522104
20
135.51209471797554
10
41.912598872142873
20
135.51209471797554
10
41.912598872142873
20
135.53912174500257
10
43.067299410522104
20
137.53912174500257
10
41.912598872142873
20
137.53912174500255
10
41.912598872142873
20
137.56614877202961
10
43.067299410522104
20
139.56614877202958
10
41.912598872142873
20
139.56614877202961
10
41.912598872142873
20
139.59317579905664
10
43.067299410522097
20
141.59317579905664
10
41.912598872142866
20
141.59317579905664
10
41.912598872142866
20
141.62020282608367
10
43.067299410522097
20
143.62020282608367
10
41.912598872142866
20
143.62020282608364
10
41.912598872142866
20
143.64722985311067
10
43.067299410522097
20
145.64722985311067
10
41.912598872142866
20
145.64722985311067
10
41.912598872142866
20
145.6742568801377
10
43.067299410522097
20
147.6742568801377
10
41.912598872142866
20
147.6742568801377
10
41.912598872142866
20
147.70128390716476
10
43.067299410522097
20
149.70128390716474
10
41.912598872142866
20
149.70128390716474
10
41.912598872142866
20
149.72831093419177
10
43.067299410522097
20
151.7283109341918
10
41.912598872142866
20
151.7283109341918
10
41.912598872142858
20
151.7553379612188
10
43.067299410522082
20
153.75533796121883
10
41.912598872142858
20
153.7553379612188
10
41.912598872142858
20
153.78236498824583
10
43.067299410522082
20
155.78236498824583
10
41.912598872142858
20
155.78236498824583
10
41.912598872142858
20
155.80939201527286
10
43.067299410522082
20
157.80939201527286
10
41.912598872142858
20
157.80939201527286
10
41.912598872142858
20
157.83641904229989
10
43.067299410522082
20
159.83641904229989
10
41.912598872142858
20
159.83641904229989
10
41.912598872142858
20
159.86344606932693
10
43.067299410522075
20
161.86344606932693
10
41.912598872142851
20
161.86344606932693
10
41.912598872142851
20
161.89047309635396
10
43.067299410522075
20
163.89047309635396
10
41.912598872142851
20
163.89047309635399
10
41.912598872142851
20
163.91750012338096
10
43.067299410522075
20
165.91750012338096
10
41.912598872142851
20
165.91750012338099
10
41.912598872142851
20
165.94452715040802
10
43.067299410522075
20
167.94452715040802
10
41.912598872142851
20
167.94452715040796
10
41.912598872142851
20
167.97155417743508
10
43.067299410522075
20
169.97155417743505
10
41.912598872142851
20
169.97155417743502
10
41.912598872142851
20
169.99858120446208
10
43.067299410522075
20
171.99858120446208
10
41.912598872142851
20
171.99858120446208
10
41.912598872142851
20
172.02560823148912
10
43.067299410522068
20
174.02560823148912
10
41.912598872142837
20
174.02560823148912
10
41.912598872142837
20
174.05263525851612
10
43.067299410522068
20
176.05263525851612
10
41.912598872142837
20
176.05263525851612
10
41.912598872142837
20
176.07966228554318
10
43.067299410522068
20
178.07966228554318
10
41.912598872142837
20
178.07966228554318
10
41.912598872142837
20
178.10668931257024
10
43.067299410522068
20
180.10668931257021
10
41.912598872142837
20
180.10668931257018
10
41.912598872142837
20
180.13371633959724
10
43.067299410522068
20
182.13371633959724
10
41.912598872142837
20
182.13371633959721
10
41.912598872142837
20
182.16074336662427
10
43.067299410522054
20
184.16074336662427
10
41.91259887214283
20
184.16074336662427
10
41.91259887214283
20
184.18777039365128
10
43.067299410522054
20
186.18777039365128
10
41.91259887214283
20
186.18777039365131
10
41.91259887214283
20
186.21479742067831
10
43.067299410522054
20
188.21479742067828
10
41.91259887214283
20
188.21479742067828
10
41.91259887214283
20
188.24182444770537
10
43.067299410522054
20
190.24182444770534
10
41.91259887214283
20
190.24182444770534
10
41.91259887214283
20
190.26885147473237
10
43.067299410522054
20
192.26885147473237
10
41.91259887214283
20
192.26885147473234
10
41.91259887214283
20
192.29587850175943
10
43.067299410522054
20
194.29587850175943
10
41.91259887214283
20
194.29587850175943
10
41.91259887214283
20
194.32290552878644
10
43.067299410522047
20
196.32290552878644
10
41.912598872142823
20
196.32290552878644
10
41.912598872142823
20
196.34993255581347
10
43.067299410522047
20
198.34993255581344
10
41.912598872142823
20
198.34993255581344
10
41.912598872142823
20
198.37695958284053
10
43.067299410522047
20
200.3769595828405
10
41.912598872142823
20
200.3769595828405
10
41.912598872142823
20
200.40398660986753
10
43.067299410522047
20
202.40398660986753
10
41.912598872142823
20
202.40398660986753
10
41.912598872142823
20
202.43101363689453
10
43.06729941052204
20
204.43101363689453
10
41.912598872142809
20
204.43101363689451
10
41.912598872142809
20
204.45804066392159
10
43.06729941052204
20
206.45804066392159
10
41.912598872142809
20
206.45804066392159
10
41.912598872142809
20
206.48506769094863
10
43.06729941052204
20
208.4850676909486
10
41.912598872142809
20
208.48506769094865
10
41.912598872142809
20
208.51209471797563
10
43.06729941052204
20
210.51209471797563
10
41.912598872142809
20
210.51209471797563
10
41.912598872142809
20
210.53912174500269
10
43.06729941052204
20
212.53912174500269
10
41.912598872142809
20
212.53912174500269
10
41.912598872142809
20
212.56614877202969
10
43.06729941052204
20
214.56614877202969
10
41.912598872142809
20
214.56614877202966
10
41.912598872142809
20
214.59317579905675
10
43.067299410522033
20
216.59317579905675
10
41.912598872142802
20
216.59317579905672
10
41.912598872142802
20
216.62020282608378
10
43.067299410522033
20
218.62020282608376
10
41.912598872142802
20
218.62020282608373
10
41.912598872142802
20
218.64722985311079
10
43.067299410522033
20
220.64722985311079
10
41.912598872142802
20
220.64722985311082
10
41.912598872142802
20
220.67425688013782
10
43.067299410522033
20
222.67425688013782
10
41.912598872142802
20
222.67425688013782
10
41.912598872142802
20
222.70128390716485
10
43.067299410522033
20
224.70128390716485
10
41.912598872142794
20
224.70128390716485
10
41.046573468358361
20
225.20128390716482
10
38.516573468358366
20
224.20128390716485
10
35.516573468358359
20
224.20128390716482
10
34.516573468358359
20
225.70128390716485
10
32.71259887214282
20
225.70128390716488
10
32.71259887214282
20
229.70128390716485
10
33.71259887214282
20
229.70128390716485
10
33.712598872142806
20
241.70128390716485
10
45.412598872142794
20
241.70128390716485
10
45.412598872142802
20
229.70128390716485
10
46.412598872142809
20
229.701286142339
10
46.412598872142922
20
77.701283907164651
10
45.912598872142929
20
77.701283907164651
10
45.912598872142929
20
73.701283907164651
0
LWPOLYLINE
5
102
100
AcDbEntity
8
0
100
AcDbPolyline
90
4
70
1
43
0.0
10
83.962596141054121
20
161.20128390716476
10
83.962596141054121
20
164.20128390716479
10
77.962596141054107
20
164.20128390716479
10
77.962596141054121
20
161.20128390716476
0
LWPOLYLINE
5
103
100
AcDbEntity
8
0
100
AcDbPolyline
90
4
70
1
43
0.0
10
83.962596141054121
20
151.20128390716476
10
83.962596141054121
20
154.20128390716476
10
77.962596141054121
20
154.20128390716479
10
77.962596141054121
20
151.20128390716476
0
LWPOLYLINE
5
104
100
AcDbEntity
8
0
100
AcDbPolyline
90
4
70
1
43
0.0
10
87.462590925647277
20
155.70128390716476
10
87.462590925647277
20
159.70128390716476
10
75.762590925648723
20
159.70128390716479
10
75.762590925648738
20
155.70128390716476
0
LWPOLYLINE
5
105
100
AcDbEntity
8
0
100
AcDbPolyline
90
12
70
1
43
0.0
10
87.412598872140677
20
149.90128390716475
10
75.812598872140654
20
149.90128390716475
10
75.812598872140654
20
151.90128390716478
10
71.812598872140654
20
151.90128390716475
10
71.81259887214064
20
163.50128390716478
10
75.812598872140654
20
163.5012839071648
10
75.812598872140654
20
165.50128390716478
10
87.41259887214062
20
165.50128390716478
10
87.41259887214062
20
163.50128390716478
10
91.412598872140649
20
163.50128390716478
10
91.412598872140677
20
151.90128390716475
10
87.412598872140677
20
151.90128390716478
0
LWPOLYLINE
5
106
100
AcDbEntity
8
0
100
AcDbPolyline
90
17
70
1
43
0.0
10
123.71259887213823
20
146.80602429379658
10
123.71259887213822
20
165.26003291731416
42
-0.080144309458958202
10
124.5544648119637
20
165.57046815711448
42
-0.4720414427371547
10
125.26974172928105
20
164.98164625506445
10
125.26974172928107
20
156.06157491979653
42
1.2483018743459284
10
126.41259887213822
20
155.80602429379655
10
126.4125988721382
20
166.29590225765048
10
125.89187292997453
20
166.59654352053269
10
118.81259887213821
20
166.59654352053269
10
118.81259887213821
20
162.59654352053269
10
116.81259887213821
20
162.59654352053269
10
116.81259887213821
20
168.59654352053269
10
127.04657346835376
20
168.59654352053272
10
127.91259887213819
20
168.09654352053272
10
129.06729941051742
20
168.09654352053272
10
127.91259887213803
20
166.09654352053238
10
127.91259887213805
20
146.80602429379655
0
LWPOLYLINE
5
107
100
AcDbEntity
8
0
100
AcDbPolyline
90
8
70
1
43
0.0
10
167.21729949247384
20
150.20128390716468
10
167.21729949247384
20
149.95128390716468
10
171.96729941051743
20
149.95128390716465
10
171.96729941051743
20
165.45128390716471
10
167.21729949247384
20
165.45128390716468
10
167.21729949247384
20
165.20128390716468
10
161.71729941051746
20
165.20128390716468
10
161.71729941051746
20
150.20128390716468
0
LWPOLYLINE
5
108
100
AcDbEntity
8
0
100
AcDbPolyline
90
4
70
1
43
0.0
10
174.46729941051728
20
147.70128390716468
10
154.46729941051746
20
147.70128390716468
10
154.46729941051743
20
167.70128390716468
10
174.46729941051728
20
167.70128390716468
0
LWPOLYLINE
5
109
100
AcDbEntity
8
0
100
AcDbPolyline
90
4
70
1
43
0.0
10
202.86729941051721
20
150.70128390716468
10
208.86729941051723
20
150.70128390716468
10
208.86729941051723
20
152.70128390716468
10
202.86729941051721
20
152.70128390716468
0
LWPOLYLINE
5
110
100
AcDbEntity
8
0
100
AcDbPolyline
90
4
70
1
43
0.0
10
211.86729941051723
20
147.70128390716468
10
199.86729941051723
20
147.70128390716468
10
199.86729941051721
20
167.70128390716468
10
211.86729941051723
20
167.70128390716468
0
LWPOLYLINE
5
111
100
AcDbEntity
8
0
100
AcDbPolyline
90
4
70
1
43
0.0
10
237.26729941051724
20
152.70128390716468
10
237.26729941051724
20
162.70128390716468
10
245.7520303679166
20
162.70128390716468
10
245.7520303679166
20
152.70128390716468
0
LWPOLYLINE
5
112
100
AcDbEntity
8
0
100
AcDbPolyline
90
4
70
1
43
0.0
10
242.23676132531594
20
159.70128390716468
10
239.26729941051721
20
159.70128390716468
10
239.26729941051721
20
155.70128390716468
10
242.23676132531594
20
155.70128390716468
0
LWPOLYLINE
5
113
100
AcDbEntity
8
0
100
AcDbPolyline
90
20
70
1
43
0.0
10
125.75988233480226
20
-158.81354603115904
10
123.20988233480234
20
-158.81354603115904
10
123.20988233480233
20
-153.11354603115899
10
118.80988233480235
20
-153.11354603115899
10
118.80988233480237
20
-158.81354603115904
10
103.20988233480239
20
-158.81354603115904
10
103.20988233480239
20
-153.11354603115899
10
98.809882334802396
20
-153.11354603115899
10
98.809882334802396
20
-158.81354603115904
10
83.20988233480243
20
-158.81354603115901
10
83.20988233480243
20
-153.11354603115899
10
78.809882334802438
20
-153.11354603115899
10
78.809882334802438
20
-158.81354603115901
10
63.209882334802465
20
-158.81354603115904
10
63.209882334802458
20
-153.11354603115899
10
58.809882334802467
20
-153.11354603115899
10
58.809882334802481
20
-158.81354603115904
10
45.75988233480242
20
-158.81354603115904
10
45.759882334802398
20
-148.81354603115906
10
125.75988233480224
20
-148.81354603115904
0
LWPOLYLINE
5
114
100
AcDbEntity
8
0
100
AcDbPolyline
90
20
70
1
43
0.0
10
231.15988233480192
20
-158.81354603115901
10
228.60988233480199
20
-158.81354603115901
10
228.60988233480197
20
-153.11354603115899
10
224.20988233480199
20
-153.11354603115899
10
224.20988233480202
20
-158.81354603115901
10
208.60988233480202
20
-158.81354603115901
10
208.60988233480199
20
-153.11354603115899
10
204.20988233480202
20
-153.11354603115899
10
204.20988233480202
20
-158.81354603115901
10
188.60988233480208
20
-158.81354603115898
10
188.60988233480202
20
-153.11354603115899
10
184.20988233480205
20
-153.11354603115899
10
184.2098823348021
20
-158.81354603115898
10
168.60988233480211
20
-158.81354603115901
10
168.60988233480208
20
-153.11354603115899
10
164.2098823348021
20
-153.11354603115899
10
164.20988233480213
20
-158.81354603115901
10
151.15988233480206
20
-158.81354603115904
10
151.15988233480203
20
-148.81354603115906
10
231.15988233480186
20
-148.81354603115904
0
LWPOLYLINE
5
115
100
AcDbEntity
8
0
100
AcDbPolyline
90
4
70
1
43
0.0
10
256.5598823348019
20
-151.06354603115909
10
336.55988233480173
20
-151.06354603115906
10
336.55988233480173
20
-156.56354603115904
10
256.5598823348019
20
-156.56354603115904
0
LWPOLYLINE
5
116
100
AcDbEntity
8
0
100
AcDbPolyline
90
20
70
1
43
0.0
10
433.95988233480125
20
-153.81354603115901
10
433.95988233480125
20
-143.81354603115904
10
441.95988233480131
20
-143.81354603115904
10
441.95988233480131
20
-163.81354603115898
10
361.95988233480142
20
-163.81354603115898
10
361.95988233480136
20
-143.81354603115904
10
369.95988233480142
20
-143.81354603115904
10
369.95988233480142
20
-153.81354603115901
10
373.95988233480136
20
-153.81354603115901
10
373.95988233480136
20
-143.81354603115904
10
389.95988233480136
20
-143.81354603115904
10
389.95988233480136
20
-153.81354603115901
10
393.95988233480131
20
-153.81354603115901
10
393.95988233480131
20
-143.81354603115904
10
409.95988233480125
20
-143.81354603115904
10
409.95988233480125
20
-153.81354603115901
10
413.95988233480125
20
-153.81354603115901
10
413.95988233480131
20
-143.81354603115904
10
429.95988233480125
20
-143.81354603115904
10
429.95988233480125
20
-153.81354603115901
0
LWPOLYLINE
5
117
100
AcDbEntity
8
0
100
AcDbPolyline
90
20
70
1
43
0.0
10
539.35988233480111
20
-153.81354603115898
10
539.35988233480111
20
-143.81354603115898
10
547.35988233480111
20
-143.81354603115898
10
547.35988233480111
20
-163.81354603115895
10
467.35988233480128
20
-163.81354603115895
10
467.35988233480123
20
-143.81354603115898
10
475.35988233480117
20
-143.81354603115898
10
475.35988233480117
20
-153.81354603115898
10
479.35988233480117
20
-153.81354603115898
10
479.35988233480123
20
-143.81354603115898
10
495.35988233480117
20
-143.81354603115898
10
495.35988233480117
20
-153.81354603115898
10
499.35988233480117
20
-153.81354603115898
10
499.35988233480117
20
-143.81354603115898
10
515.35988233480111
20
-143.81354603115898
10
515.35988233480111
20
-153.81354603115898
10
519.35988233480111
20
-153.81354603115898
10
519.35988233480111
20
-143.81354603115898
10
535.35988233480111
20
-143.81354603115898
10
535.35988233480111
20
-153.81354603115898
0
LWPOLYLINE
5
118
100
AcDbEntity
8
0
100
AcDbPolyline
90
20
70
1
43
0.0
10
624.75988233480109
20
-153.81354603115878
10
624.75988233480109
20
-143.81354603115878
10
640.75988233480098
20
-143.81354603115878
10
640.75988233480098
20
-153.81354603115878
10
644.75988233480109
20
-153.81354603115878
10
644.75988233480098
20
-143.81354603115878
10
652.75988233480109
20
-143.81354603115878
10
652.75988233480109
20
-163.81354603115875
10
572.75988233480132
20
-163.81354603115875
10
572.7598823348012
20
-143.81354603115878
10
580.7598823348012
20
-143.81354603115878
10
580.7598823348012
20
-153.81354603115878
10
584.7598823348012
20
-153.81354603115878
10
584.7598823348012
20
-143.81354603115878
10
600.7598823348012
20
-143.81354603115878
10
600.7598823348012
20
-153.81354603115878
10
604.7598823348012
20
-153.81354603115878
10
604.7598823348012
20
-143.81354603115878
10
620.75988233480109
20
-143.81354603115878
10
620.75988233480109
20
-153.81354603115878
0
LWPOLYLINE
5
119
100
AcDbEntity
8
0
100
AcDbPolyline
90
20
70
1
43
0.0
10
730.15988233480016
20
-153.81354603115872
10
730.15988233480016
20
-143.81354603115875
10
746.15988233480016
20
-143.81354603115875
10
746.15988233480016
20
-153.81354603115872
10
750.15988233480016
20
-153.81354603115872
10
750.15988233480016
20
-143.81354603115875
10
758.15988233480016
20
-143.81354603115875
10
758.15988233480016
20
-163.81354603115869
10
678.15988233480027
20
-163.81354603115869
10
678.15988233480027
20
-143.81354603115875
10
686.15988233480027
20
-143.81354603115875
10
686.15988233480027
20
-153.81354603115872
10
690.15988233480027
20
-153.81354603115872
10
690.15988233480027
20
-143.81354603115875
10
706.15988233480027
20
-143.81354603115875
10
706.15988233480016
20
-153.81354603115872
10
710.15988233480016
20
-153.81354603115872
10
710.15988233480016
20
-143.81354603115875
10
726.15988233480016
20
-143.81354603115875
10
726.15988233480016
20
-153.81354603115872
0
LWPOLYLINE
5
120
100
AcDbEntity
8
0
100
AcDbPolyline
90
20
70
1
43
0.0
10
831.55988233480025
20
-143.81354603115898
10
831.55988233480025
20
-153.81354603115895
10
835.55988233480036
20
-153.81354603115898
10
835.55988233480036
20
-143.81354603115898
10
851.55988233480025
20
-143.81354603115898
10
851.55988233480014
20
-153.81354603115895
10
855.55988233480025
20
-153.81354603115898
10
855.55988233480025
20
-143.81354603115898
10
863.55988233480025
20
-143.81354603115898
10
863.55988233480036
20
-163.81354603115895
10
783.55988233480048
20
-163.81354603115895
10
783.55988233480048
20
-143.81354603115898
10
791.55988233480048
20
-143.81354603115898
10
791.55988233480025
20
-153.81354603115895
10
795.55988233480036
20
-153.81354603115898
10
795.55988233480036
20
-143.81354603115898
10
811.55988233480025
20
-143.81354603115898
10
811.55988233480025
20
-153.81354603115895
10
815.55988233480036
20
-153.81354603115898
10
815.55988233480036
20
-143.81354603115898
0
LWPOLYLINE
5
121
100
AcDbEntity
8
0
100
AcDbPolyline
90
20
70
1
43
0.0
10
936.95988233480023
20
-143.81354603115892
10
936.95988233480023
20
-153.81354603115892
10
940.95988233480034
20
-153.81354603115889
10
940.95988233480034
20
-143.81354603115892
10
956.95988233480023
20
-143.81354603115892
10
956.95988233480011
20
-153.81354603115892
10
960.95988233480011
20
-153.81354603115889
10
960.95988233480011
20
-143.81354603115892
10
968.95988233480023
20
-143.81354603115892
10
968.95988233480023
20
-163.81354603115886
10
888.95988233480034
20
-163.81354603115886
10
888.95988233480034
20
-143.81354603115892
10
896.95988233480034
20
-143.81354603115892
10
896.95988233480023
20
-153.81354603115892
10
900.95988233480034
20
-153.81354603115889
10
900.95988233480034
20
-143.81354603115892
10
916.95988233480023
20
-143.81354603115892
10
916.95988233480023
20
-153.81354603115892
10
920.95988233480034
20
-153.81354603115889
10
920.95988233480034
20
-143.81354603115892
0
LWPOLYLINE
5
122
100
AcDbEntity
8
0
100
AcDbPolyline
90
20
70
1
43
0.0
10
1062.3598823347997
20
-143.81354603115892
10
1062.3598823347997
20
-153.81354603115889
10
1066.3598823347997
20
-153.81354603115889
10
1066.3598823347997
20
-143.81354603115892
10
1074.3598823347997
20
-143.81354603115892
10
1074.3598823347997
20
-163.81354603115886
10
994.35988233479986
20
-163.81354603115886
10
994.35988233479986
20
-143.81354603115892
10
1002.3598823347999
20
-143.81354603115892
10
1002.3598823347997
20
-153.81354603115889
10
1006.3598823347997
20
-153.81354603115889
10
1006.3598823348
20
-143.81354603115892
10
1022.3598823347999
20
-143.81354603115892
10
1022.3598823347997
20
-153.81354603115889
10
1026.3598823347997
20
-153.81354603115889
10
1026.3598823347997
20
-143.81354603115892
10
1042.3598823347997
20
-143.81354603115892
10
1042.3598823347997
20
-153.81354603115889
10
1046.3598823347997
20
-153.81354603115889
10
1046.3598823347997
20
-143.81354603115892
0
LWPOLYLINE
5
123
100
AcDbEntity
8
0
100
AcDbPolyline
90
20
70
1
43
0.0
10
1167.7598823347996
20
-143.81354603115886
10
1167.7598823347996
20
-153.81354603115884
10
1171.7598823347996
20
-153.81354603115886
10
1171.7598823347996
20
-143.81354603115886
10
1179.7598823347996
20
-143.81354603115886
10
1179.7598823347996
20
-163.81354603115884
10
1099.7598823347998
20
-163.81354603115884
10
1099.7598823347998
20
-143.81354603115886
10
1107.7598823347998
20
-143.81354603115886
10
1107.7598823347996
20
-153.81354603115884
10
1111.7598823347996
20
-153.81354603115886
10
1111.7598823347998
20
-143.81354603115886
10
1127.7598823347998
20
-143.81354603115886
10
1127.7598823347996
20
-153.81354603115884
10
1131.7598823347996
20
-153.81354603115886
10
1131.7598823347996
20
-143.81354603115886
10
1147.7598823347996
20
-143.81354603115886
10
1147.7598823347996
20
-153.81354603115884
10
1151.7598823347996
20
-153.81354603115886
10
1151.7598823347996
20
-143.81354603115886
0
ENDSEC
0
SECTION
2
OBJECTS
0
DICTIONARY
5
C
100
AcDbDictionary
3
ACAD_GROUP
350
D
3
ACAD_MLINESTYLE
350
17
0
DICTIONARY
5
D
100
AcDbDictionary
0
DICTIONARY
5
1A
330
C
100
AcDbDictionary
0
DICTIONARY
5
17
100
AcDbDictionary
0
ENDSEC
0
EOF
