0
SECTION
2
HEADER
9
$INSUNITS
70
4
9
$ACADVER
1
AC1014
9
$HANDSEED
5
FFFF
0
ENDSEC
0
SECTION
2
TABLES
0
TABLE
2
VPORT
5
8
100
AcDbSymbolTable
0
ENDTAB
0
TABLE
2
LTYPE
5
5
100
AcDbSymbolTable
0
LTYPE
5
14
100
AcDbSymbolTableRecord
100
AcDbLinetypeTableRecord
2
BYBLOCK
70
0
0
LTYPE
5
15
100
AcDbSymbolTableRecord
100
AcDbLinetypeTableRecord
2
BYLAYER
70
0
0
ENDTAB
0
TABLE
2
LAYER
5
2
100
AcDbSymbolTable
70
2
0
LAYER
5
50
100
AcDbSymbolTableRecord
100
AcDbLayerTableRecord
2
0
70
0
6
CONTINUOUS
0
ENDTAB
0
TABLE
2
STYLE
5
3
100
AcDbSymbolTable
70
1
0
STYLE
5
11
100
AcDbSymbolTableRecord
100
AcDbTextStyleTableRecord
2
STANDARD
70
0
0
ENDTAB
0
TABLE
2
VIEW
5
6
100
AcDbSymbolTable
70
0
0
ENDTAB
0
TABLE
2
UCS
5
7
100
AcDbSymbolTable
70
0
0
ENDTAB
0
TABLE
2
APPID
5
9
100
AcDbSymbolTable
70
2
0
APPID
5
12
100
AcDbSymbolTableRecord
100
AcDbRegAppTableRecord
2
ACAD
70
0
0
ENDTAB
0
TABLE
2
DIMSTYLE
5
A
100
AcDbSymbolTable
70
1
0
ENDTAB
0
TABLE
2
BLOCK_RECORD
5
1
100
AcDbSymbolTable
70
1
0
BLOCK_RECORD
5
1F
100
AcDbSymbolTableRecord
100
AcDbBlockTableRecord
2
*MODEL_SPACE
0
BLOCK_RECORD
5
1B
100
AcDbSymbolTableRecord
100
AcDbBlockTableRecord
2
*PAPER_SPACE
0
ENDTAB
0
ENDSEC
0
SECTION
2
BLOCKS
0
BLOCK
5
20
100
AcDbEntity
100
AcDbBlockBegin
2
*MODEL_SPACE
0
ENDBLK
5
21
100
AcDbEntity
100
AcDbBlockEnd
0
BLOCK
5
1C
100
AcDbEntity
100
AcDbBlockBegin
2
*PAPER_SPACE
0
ENDBLK
5
1D
100
AcDbEntity
100
AcDbBlockEnd
0
ENDSEC
0
SECTION
2
ENTITIES
0
LWPOLYLINE
5
100
100
AcDbEntity
8
0
100
AcDbPolyline
90
28
70
1
43
0.0
10
25.750756532096627
20
182.66530280502596
42
-0.41421356237311452
10
25.550756532096628
20
182.86530280502598
10
25.550756532096628
20
186.66530280502599
10
37.550756532096599
20
186.66530280502599
10
37.550756532096628
20
50.66530280502608
10
35.550756532096635
20
50.66530280502608
10
35.550756532096635
20
40.16530280502608
10
34.550756532096628
20
38.365302805026083
10
35.550756532096628
20
38.165302805026087
10
35.550756532096635
20
37.165302805026087
10
35.050756532096628
20
36.665302805026087
10
28.050756532096656
20
36.665302805026087
10
27.550756532096656
20
37.165302805026087
10
27.550756532096656
20
38.165302805026087
10
28.550756532096656
20
38.36530280502609
10
27.550756532096653
20
40.165302805026087
10
27.550756532096653
20
50.66530280502608
10
25.550756532096656
20
50.66530280502608
10
25.55075653209666
20
56.465302805026084
42
-0.41421356237314705
10
25.750756532096656
20
56.665302805026073
10
29.550756532096646
20
56.665302805026073
10
29.550758817338696
20
60.665302805026073
10
25.750756532096652
20
60.66530280502608
42
-0.41421356237312101
10
25.550756532096656
20
60.865302805026076
10
25.550756532096621
20
178.465302805026
42
-0.41421356237312101
10
25.750756532096631
20
178.66530280502599
10
29.550828517221476
20
178.66530280502602
10
29.550828517221468
20
182.66530280502599
0
ARC
5
101
100
AcDbEntity
8
0
100
AcDbCircle
10
61.335697347515307
20
185.86753564550807
30
0
40
0.19999999999993356
100
AcDbArc
50
180
51
270.00000000390418
0
LINE
5
102
100
AcDbEntity
8
0
100
AcDbLine
10
61.335697347528935
20
185.66753564550817
30
0
11
65.13576933265314
21
185.66753564576658
31
0
0
LINE
5
103
100
AcDbEntity
8
0
100
AcDbLine
10
65.13576933265314
20
185.66753564576658
30
0
11
65.135769332925179
21
181.66753564576663
31
0
0
LINE
5
104
100
AcDbEntity
8
0
100
AcDbLine
10
65.135769332925179
20
181.66753564576663
30
0
11
61.335697347800973
21
181.6675356455082
31
0
0
ARC
5
105
100
AcDbEntity
8
0
100
AcDbCircle
10
61.335697347814524
20
181.46753564550824
30
0
40
0.19999999999996021
100
AcDbArc
50
90.000000003881794
51
180
0
LINE
5
106
100
AcDbEntity
8
0
100
AcDbLine
10
61.135697347814599
20
181.46753564549456
30
0
11
61.135697355812283
21
63.867535645494833
31
0
0
ARC
5
107
100
AcDbEntity
8
0
100
AcDbCircle
10
61.335697355812222
20
63.867535645508376
30
0
40
0.19999999999994245
100
AcDbArc
50
180
51
270.00000000390622
0
LINE
5
108
100
AcDbEntity
8
0
100
AcDbLine
10
61.335697355825857
20
63.667535645508444
30
0
11
65.135699641067262
21
63.66753564576689
31
0
0
LINE
5
109
100
AcDbEntity
8
0
100
AcDbLine
10
65.135699641067262
20
63.66753564576689
30
0
11
65.135697356097239
21
59.66753564576689
31
0
0
LINE
5
110
100
AcDbEntity
8
0
100
AcDbLine
10
65.135697356097239
20
59.66753564576689
30
0
11
61.335697356097882
21
59.667535645508451
31
0
0
ARC
5
111
100
AcDbEntity
8
0
100
AcDbCircle
10
61.33569735611146
20
59.467535645508519
30
0
40
0.19999999999993356
100
AcDbArc
50
90.000000003889937
51
180
0
LINE
5
112
100
AcDbEntity
8
0
100
AcDbLine
10
61.135697356111514
20
59.467535645494863
30
0
11
61.135697356505965
21
53.667535645494866
31
0
0
LINE
5
113
100
AcDbEntity
8
0
100
AcDbLine
10
61.135697356505965
20
53.667535645494866
30
0
11
63.135697356505631
21
53.667535645630892
31
0
0
LINE
5
114
100
AcDbEntity
8
0
100
AcDbLine
10
71.135697356504238
20
53.667535646174962
30
0
11
73.135697356503911
21
53.667535646310974
31
0
0
LINE
5
115
100
AcDbEntity
8
0
100
AcDbLine
10
73.135697356503911
20
53.667535646310974
30
0
11
73.135697355687824
21
65.667535646310952
31
0
0
LINE
5
116
100
AcDbEntity
8
0
100
AcDbLine
10
73.135697355687824
20
65.667535646310952
30
0
11
71.635697333336338
21
65.667535825022867
31
0
0
LINE
5
117
100
AcDbEntity
8
0
100
AcDbLine
10
71.635697333336338
20
65.667535825022867
30
0
11
69.835697429313115
21
67.667535333162135
31
0
0
LINE
5
118
100
AcDbEntity
8
0
100
AcDbLine
10
69.835697429313115
20
67.667535333162135
30
0
11
68.13569746731136
21
67.66753533304653
31
0
0
LINE
5
119
100
AcDbEntity
8
0
100
AcDbLine
10
68.13569746731136
20
67.66753533304653
30
0
11
67.635697273596364
21
67.667535645936894
31
0
0
LINE
5
120
100
AcDbEntity
8
0
100
AcDbLine
10
67.635697273596364
20
67.667535645936894
30
0
11
65.135697355553177
21
67.667535645766876
31
0
0
LINE
5
121
100
AcDbEntity
8
0
100
AcDbLine
10
65.135697355553177
20
67.667535645766876
30
0
11
66.290397893796211
21
69.66753564584539
31
0
0
LINE
5
122
100
AcDbEntity
8
0
100
AcDbLine
10
66.290397893796211
20
69.66753564584539
30
0
11
65.135697355417165
21
69.667535645766861
31
0
0
LINE
5
123
100
AcDbEntity
8
0
100
AcDbLine
10
65.135697355417165
20
69.667535645766861
30
0
11
66.290397893660199
21
71.667535645845405
31
0
0
LINE
5
124
100
AcDbEntity
8
0
100
AcDbLine
10
66.290397893660199
20
71.667535645845405
30
0
11
65.135697355281138
21
71.667535645766861
31
0
0
LINE
5
125
100
AcDbEntity
8
0
100
AcDbLine
10
65.135697355281138
20
71.667535645766861
30
0
11
66.290397893524172
21
73.66753564584539
31
0
0
LINE
5
126
100
AcDbEntity
8
0
100
AcDbLine
10
66.290397893524172
20
73.66753564584539
30
0
11
65.13569735514514
21
73.667535645766861
31
0
0
LINE
5
127
100
AcDbEntity
8
0
100
AcDbLine
10
65.13569735514514
20
73.667535645766861
30
0
11
66.29039789338816
21
75.66753564584539
31
0
0
LINE
5
128
100
AcDbEntity
8
0
100
AcDbLine
10
66.29039789338816
20
75.66753564584539
30
0
11
65.135697355009114
21
75.667535645766861
31
0
0
LINE
5
129
100
AcDbEntity
8
0
100
AcDbLine
10
65.135697355009114
20
75.667535645766861
30
0
11
66.290397893252148
21
77.66753564584539
31
0
0
LINE
5
130
100
AcDbEntity
8
0
100
AcDbLine
10
66.290397893252148
20
77.66753564584539
30
0
11
65.135697354873102
21
77.667535645766861
31
0
0
LINE
5
131
100
AcDbEntity
8
0
100
AcDbLine
10
65.135697354873102
20
77.667535645766861
30
0
11
66.290397893116136
21
79.667535645845376
31
0
0
LINE
5
132
100
AcDbEntity
8
0
100
AcDbLine
10
66.290397893116136
20
79.667535645845376
30
0
11
65.13569735473709
21
79.667535645766861
31
0
0
LINE
5
133
100
AcDbEntity
8
0
100
AcDbLine
10
65.13569735473709
20
79.667535645766861
30
0
11
66.290397892980124
21
81.667535645845376
31
0
0
LINE
5
134
100
AcDbEntity
8
0
100
AcDbLine
10
66.290397892980124
20
81.667535645845376
30
0
11
65.135697354601078
21
81.667535645766861
31
0
0
LINE
5
135
100
AcDbEntity
8
0
100
AcDbLine
10
65.135697354601078
20
81.667535645766861
30
0
11
66.290397892844112
21
83.667535645845362
31
0
0
LINE
5
136
100
AcDbEntity
8
0
100
AcDbLine
10
66.290397892844112
20
83.667535645845362
30
0
11
65.135697354465066
21
83.667535645766847
31
0
0
LINE
5
137
100
AcDbEntity
8
0
100
AcDbLine
10
65.135697354465066
20
83.667535645766847
30
0
11
66.290397892708086
21
85.667535645845362
31
0
0
LINE
5
138
100
AcDbEntity
8
0
100
AcDbLine
10
66.290397892708086
20
85.667535645845362
30
0
11
65.135697354329039
21
85.667535645766847
31
0
0
LINE
5
139
100
AcDbEntity
8
0
100
AcDbLine
10
65.135697354329039
20
85.667535645766847
30
0
11
66.290397892572074
21
87.667535645845362
31
0
0
LINE
5
140
100
AcDbEntity
8
0
100
AcDbLine
10
66.290397892572074
20
87.667535645845362
30
0
11
65.135697354193027
21
87.667535645766833
31
0
0
LINE
5
141
100
AcDbEntity
8
0
100
AcDbLine
10
65.135697354193027
20
87.667535645766833
30
0
11
66.290397892436062
21
89.667535645845362
31
0
0
LINE
5
142
100
AcDbEntity
8
0
100
AcDbLine
10
66.290397892436062
20
89.667535645845362
30
0
11
65.135697354057015
21
89.667535645766833
31
0
0
LINE
5
143
100
AcDbEntity
8
0
100
AcDbLine
10
65.135697354057015
20
89.667535645766833
30
0
11
66.290397892300049
21
91.667535645845362
31
0
0
LINE
5
144
100
AcDbEntity
8
0
100
AcDbLine
10
66.290397892300049
20
91.667535645845362
30
0
11
65.135697353920989
21
91.667535645766819
31
0
0
LINE
5
145
100
AcDbEntity
8
0
100
AcDbLine
10
65.135697353920989
20
91.667535645766819
30
0
11
66.290397892164037
21
93.667535645845348
31
0
0
LINE
5
146
100
AcDbEntity
8
0
100
AcDbLine
10
66.290397892164037
20
93.667535645845348
30
0
11
65.135697353784977
21
93.667535645766819
31
0
0
LINE
5
147
100
AcDbEntity
8
0
100
AcDbLine
10
65.135697353784977
20
93.667535645766819
30
0
11
66.290397892028011
21
95.667535645845334
31
0
0
LINE
5
148
100
AcDbEntity
8
0
100
AcDbLine
10
66.290397892028011
20
95.667535645845334
30
0
11
65.135697353648965
21
95.667535645766804
31
0
0
LINE
5
149
100
AcDbEntity
8
0
100
AcDbLine
10
65.135697353648965
20
95.667535645766804
30
0
11
66.290397891891999
21
97.667535645845348
31
0
0
LINE
5
150
100
AcDbEntity
8
0
100
AcDbLine
10
66.290397891891999
20
97.667535645845348
30
0
11
65.135697353512953
21
97.667535645766819
31
0
0
LINE
5
151
100
AcDbEntity
8
0
100
AcDbLine
10
65.135697353512953
20
97.667535645766819
30
0
11
66.290397891755987
21
99.667535645845348
31
0
0
LINE
5
152
100
AcDbEntity
8
0
100
AcDbLine
10
66.290397891755987
20
99.667535645845348
30
0
11
65.135697353376941
21
99.667535645766804
31
0
0
LINE
5
153
100
AcDbEntity
8
0
100
AcDbLine
10
65.135697353376941
20
99.667535645766804
30
0
11
66.290397891619961
21
101.66753564584533
31
0
0
LINE
5
154
100
AcDbEntity
8
0
100
AcDbLine
10
66.290397891619961
20
101.66753564584533
30
0
11
65.135697353240928
21
101.66753564576682
31
0
0
LINE
5
155
100
AcDbEntity
8
0
100
AcDbLine
10
65.135697353240928
20
101.66753564576682
30
0
11
66.290397891483948
21
103.66753564584533
31
0
0
LINE
5
156
100
AcDbEntity
8
0
100
AcDbLine
10
66.290397891483948
20
103.66753564584533
30
0
11
65.135697353104916
21
103.6675356457668
31
0
0
LINE
5
157
100
AcDbEntity
8
0
100
AcDbLine
10
65.135697353104916
20
103.6675356457668
30
0
11
66.290397891347936
21
105.66753564584532
31
0
0
LINE
5
158
100
AcDbEntity
8
0
100
AcDbLine
10
66.290397891347936
20
105.66753564584532
30
0
11
65.13569735296889
21
105.6675356457668
31
0
0
LINE
5
159
100
AcDbEntity
8
0
100
AcDbLine
10
65.13569735296889
20
105.6675356457668
30
0
11
66.290397891211924
21
107.66753564584532
31
0
0
LINE
5
160
100
AcDbEntity
8
0
100
AcDbLine
10
66.290397891211924
20
107.66753564584532
30
0
11
65.135697352832878
21
107.6675356457668
31
0
0
LINE
5
161
100
AcDbEntity
8
0
100
AcDbLine
10
65.135697352832878
20
107.6675356457668
30
0
11
66.290397891075912
21
109.66753564584531
31
0
0
LINE
5
162
100
AcDbEntity
8
0
100
AcDbLine
10
66.290397891075912
20
109.66753564584531
30
0
11
65.135697352696866
21
109.66753564576679
31
0
0
LINE
5
163
100
AcDbEntity
8
0
100
AcDbLine
10
65.135697352696866
20
109.66753564576679
30
0
11
66.2903978909399
21
111.66753564584532
31
0
0
LINE
5
164
100
AcDbEntity
8
0
100
AcDbLine
10
66.2903978909399
20
111.66753564584532
30
0
11
65.135697352560854
21
111.66753564576679
31
0
0
LINE
5
165
100
AcDbEntity
8
0
100
AcDbLine
10
65.135697352560854
20
111.66753564576679
30
0
11
66.290397890803888
21
113.66753564584531
31
0
0
LINE
5
166
100
AcDbEntity
8
0
100
AcDbLine
10
66.290397890803888
20
113.66753564584531
30
0
11
65.135697352424827
21
113.66753564576678
31
0
0
LINE
5
167
100
AcDbEntity
8
0
100
AcDbLine
10
65.135697352424827
20
113.66753564576678
30
0
11
66.290397890667862
21
115.66753564584532
31
0
0
LINE
5
168
100
AcDbEntity
8
0
100
AcDbLine
10
66.290397890667862
20
115.66753564584532
30
0
11
65.135697352288815
21
115.66753564576678
31
0
0
LINE
5
169
100
AcDbEntity
8
0
100
AcDbLine
10
65.135697352288815
20
115.66753564576678
30
0
11
66.29039789053185
21
117.66753564584531
31
0
0
LINE
5
170
100
AcDbEntity
8
0
100
AcDbLine
10
66.29039789053185
20
117.66753564584531
30
0
11
65.135697352152803
21
117.66753564576676
31
0
0
LINE
5
171
100
AcDbEntity
8
0
100
AcDbLine
10
65.135697352152803
20
117.66753564576676
30
0
11
66.290397890395838
21
119.66753564584531
31
0
0
LINE
5
172
100
AcDbEntity
8
0
100
AcDbLine
10
66.290397890395838
20
119.66753564584531
30
0
11
65.135697352016791
21
119.66753564576676
31
0
0
LINE
5
173
100
AcDbEntity
8
0
100
AcDbLine
10
65.135697352016791
20
119.66753564576676
30
0
11
66.290397890259825
21
121.66753564584531
31
0
0
LINE
5
174
100
AcDbEntity
8
0
100
AcDbLine
10
66.290397890259825
20
121.66753564584531
30
0
11
65.135697351880779
21
121.66753564576678
31
0
0
LINE
5
175
100
AcDbEntity
8
0
100
AcDbLine
10
65.135697351880779
20
121.66753564576678
30
0
11
66.290397890123799
21
123.66753564584529
31
0
0
LINE
5
176
100
AcDbEntity
8
0
100
AcDbLine
10
66.290397890123799
20
123.66753564584529
30
0
11
65.135697351744767
21
123.66753564576676
31
0
0
LINE
5
177
100
AcDbEntity
8
0
100
AcDbLine
10
65.135697351744767
20
123.66753564576676
30
0
11
66.290397889987787
21
125.66753564584529
31
0
0
LINE
5
178
100
AcDbEntity
8
0
100
AcDbLine
10
66.290397889987787
20
125.66753564584529
30
0
11
65.135697351608741
21
125.66753564576675
31
0
0
LINE
5
179
100
AcDbEntity
8
0
100
AcDbLine
10
65.135697351608741
20
125.66753564576675
30
0
11
66.290397889851775
21
127.66753564584528
31
0
0
LINE
5
180
100
AcDbEntity
8
0
100
AcDbLine
10
66.290397889851775
20
127.66753564584528
30
0
11
65.135697351472729
21
127.66753564576675
31
0
0
LINE
5
181
100
AcDbEntity
8
0
100
AcDbLine
10
65.135697351472729
20
127.66753564576675
30
0
11
66.290397889715763
21
129.66753564584528
31
0
0
LINE
5
182
100
AcDbEntity
8
0
100
AcDbLine
10
66.290397889715763
20
129.66753564584528
30
0
11
65.135697351336717
21
129.66753564576675
31
0
0
LINE
5
183
100
AcDbEntity
8
0
100
AcDbLine
10
65.135697351336717
20
129.66753564576675
30
0
11
66.290397889579751
21
131.66753564584528
31
0
0
LINE
5
184
100
AcDbEntity
8
0
100
AcDbLine
10
66.290397889579751
20
131.66753564584528
30
0
11
65.135697351200704
21
131.66753564576675
31
0
0
LINE
5
185
100
AcDbEntity
8
0
100
AcDbLine
10
65.135697351200704
20
131.66753564576675
30
0
11
66.290397889443739
21
133.66753564584525
31
0
0
LINE
5
186
100
AcDbEntity
8
0
100
AcDbLine
10
66.290397889443739
20
133.66753564584525
30
0
11
65.135697351064692
21
133.66753564576675
31
0
0
LINE
5
187
100
AcDbEntity
8
0
100
AcDbLine
10
65.135697351064692
20
133.66753564576675
30
0
11
66.290397889307712
21
135.66753564584525
31
0
0
LINE
5
188
100
AcDbEntity
8
0
100
AcDbLine
10
66.290397889307712
20
135.66753564584525
30
0
11
65.135697350928666
21
135.66753564576669
31
0
0
LINE
5
189
100
AcDbEntity
8
0
100
AcDbLine
10
65.135697350928666
20
135.66753564576669
30
0
11
66.2903978891717
21
137.66753564584525
31
0
0
LINE
5
190
100
AcDbEntity
8
0
100
AcDbLine
10
66.2903978891717
20
137.66753564584525
30
0
11
65.135697350792654
21
137.66753564576672
31
0
0
LINE
5
191
100
AcDbEntity
8
0
100
AcDbLine
10
65.135697350792654
20
137.66753564576672
30
0
11
66.290397889035688
21
139.66753564584531
31
0
0
LINE
5
192
100
AcDbEntity
8
0
100
AcDbLine
10
66.290397889035688
20
139.66753564584531
30
0
11
65.135697350656642
21
139.66753564576672
31
0
0
LINE
5
193
100
AcDbEntity
8
0
100
AcDbLine
10
65.135697350656642
20
139.66753564576672
30
0
11
66.290397888899676
21
141.66753564584528
31
0
0
LINE
5
194
100
AcDbEntity
8
0
100
AcDbLine
10
66.290397888899676
20
141.66753564584528
30
0
11
65.135697350520616
21
141.66753564576672
31
0
0
LINE
5
195
100
AcDbEntity
8
0
100
AcDbLine
10
65.135697350520616
20
141.66753564576672
30
0
11
66.290397888763664
21
143.66753564584525
31
0
0
LINE
5
196
100
AcDbEntity
8
0
100
AcDbLine
10
66.290397888763664
20
143.66753564584525
30
0
11
65.135697350384604
21
143.66753564576672
31
0
0
LINE
5
197
100
AcDbEntity
8
0
100
AcDbLine
10
65.135697350384604
20
143.66753564576672
30
0
11
66.290397888627638
21
145.66753564584525
31
0
0
LINE
5
198
100
AcDbEntity
8
0
100
AcDbLine
10
66.290397888627638
20
145.66753564584525
30
0
11
65.135697350248591
21
145.66753564576669
31
0
0
LINE
5
199
100
AcDbEntity
8
0
100
AcDbLine
10
65.135697350248591
20
145.66753564576669
30
0
11
66.290397888491626
21
147.66753564584528
31
0
0
LINE
5
200
100
AcDbEntity
8
0
100
AcDbLine
10
66.290397888491626
20
147.66753564584528
30
0
11
65.135697350112579
21
147.66753564576672
31
0
0
LINE
5
201
100
AcDbEntity
8
0
100
AcDbLine
10
65.135697350112579
20
147.66753564576672
30
0
11
66.290397888355614
21
149.66753564584528
31
0
0
LINE
5
202
100
AcDbEntity
8
0
100
AcDbLine
10
66.290397888355614
20
149.66753564584528
30
0
11
65.135697349976567
21
149.66753564576672
31
0
0
LINE
5
203
100
AcDbEntity
8
0
100
AcDbLine
10
65.135697349976567
20
149.66753564576672
30
0
11
66.290397888219587
21
151.66753564584528
31
0
0
LINE
5
204
100
AcDbEntity
8
0
100
AcDbLine
10
66.290397888219587
20
151.66753564584528
30
0
11
65.135697349840555
21
151.66753564576669
31
0
0
LINE
5
205
100
AcDbEntity
8
0
100
AcDbLine
10
65.135697349840555
20
151.66753564576669
30
0
11
66.290397888083575
21
153.66753564584522
31
0
0
LINE
5
206
100
AcDbEntity
8
0
100
AcDbLine
10
66.290397888083575
20
153.66753564584522
30
0
11
65.135697349704543
21
153.66753564576666
31
0
0
LINE
5
207
100
AcDbEntity
8
0
100
AcDbLine
10
65.135697349704543
20
153.66753564576666
30
0
11
66.290397887947563
21
155.66753564584522
31
0
0
LINE
5
208
100
AcDbEntity
8
0
100
AcDbLine
10
66.290397887947563
20
155.66753564584522
30
0
11
65.135697349568517
21
155.66753564576666
31
0
0
LINE
5
209
100
AcDbEntity
8
0
100
AcDbLine
10
65.135697349568517
20
155.66753564576666
30
0
11
66.290397887811551
21
157.66753564584525
31
0
0
LINE
5
210
100
AcDbEntity
8
0
100
AcDbLine
10
66.290397887811551
20
157.66753564584525
30
0
11
65.135697349432505
21
157.66753564576669
31
0
0
LINE
5
211
100
AcDbEntity
8
0
100
AcDbLine
10
65.135697349432505
20
157.66753564576669
30
0
11
66.290397887675539
21
159.66753564584525
31
0
0
LINE
5
212
100
AcDbEntity
8
0
100
AcDbLine
10
66.290397887675539
20
159.66753564584525
30
0
11
65.135697349296493
21
159.66753564576669
31
0
0
LINE
5
213
100
AcDbEntity
8
0
100
AcDbLine
10
65.135697349296493
20
159.66753564576669
30
0
11
66.290397887539527
21
161.66753564584522
31
0
0
LINE
5
214
100
AcDbEntity
8
0
100
AcDbLine
10
66.290397887539527
20
161.66753564584522
30
0
11
65.13569734916048
21
161.66753564576669
31
0
0
LINE
5
215
100
AcDbEntity
8
0
100
AcDbLine
10
65.13569734916048
20
161.66753564576669
30
0
11
66.290397887403515
21
163.66753564584519
31
0
0
LINE
5
216
100
AcDbEntity
8
0
100
AcDbLine
10
66.290397887403515
20
163.66753564584519
30
0
11
65.135697349024454
21
163.66753564576669
31
0
0
LINE
5
217
100
AcDbEntity
8
0
100
AcDbLine
10
65.135697349024454
20
163.66753564576669
30
0
11
66.290397887267488
21
165.66753564584519
31
0
0
LINE
5
218
100
AcDbEntity
8
0
100
AcDbLine
10
66.290397887267488
20
165.66753564584519
30
0
11
65.135697348888442
21
165.66753564576669
31
0
0
LINE
5
219
100
AcDbEntity
8
0
100
AcDbLine
10
65.135697348888442
20
165.66753564576669
30
0
11
66.290397887131476
21
167.66753564584522
31
0
0
LINE
5
220
100
AcDbEntity
8
0
100
AcDbLine
10
66.290397887131476
20
167.66753564584522
30
0
11
65.13569734875243
21
167.66753564576669
31
0
0
LINE
5
221
100
AcDbEntity
8
0
100
AcDbLine
10
65.13569734875243
20
167.66753564576669
30
0
11
66.290397886995464
21
169.66753564584519
31
0
0
LINE
5
222
100
AcDbEntity
8
0
100
AcDbLine
10
66.290397886995464
20
169.66753564584519
30
0
11
65.135697348616418
21
169.66753564576666
31
0
0
LINE
5
223
100
AcDbEntity
8
0
100
AcDbLine
10
65.135697348616418
20
169.66753564576666
30
0
11
66.290397886859452
21
171.66753564584519
31
0
0
LINE
5
224
100
AcDbEntity
8
0
100
AcDbLine
10
66.290397886859452
20
171.66753564584519
30
0
11
65.135697348480406
21
171.66753564576666
31
0
0
LINE
5
225
100
AcDbEntity
8
0
100
AcDbLine
10
65.135697348480406
20
171.66753564576666
30
0
11
66.290397886723426
21
173.66753564584516
31
0
0
LINE
5
226
100
AcDbEntity
8
0
100
AcDbLine
10
66.290397886723426
20
173.66753564584516
30
0
11
65.135697348344394
21
173.66753564576666
31
0
0
LINE
5
227
100
AcDbEntity
8
0
100
AcDbLine
10
65.135697348344394
20
173.66753564576666
30
0
11
66.290397886587414
21
175.66753564584516
31
0
0
LINE
5
228
100
AcDbEntity
8
0
100
AcDbLine
10
66.290397886587414
20
175.66753564584516
30
0
11
65.135697348208367
21
175.66753564576663
31
0
0
LINE
5
229
100
AcDbEntity
8
0
100
AcDbLine
10
65.135697348208367
20
175.66753564576663
30
0
11
65.135697348072355
21
177.66753564576663
31
0
0
LINE
5
230
100
AcDbEntity
8
0
100
AcDbLine
10
65.135697348072355
20
177.66753564576663
30
0
11
73.135697348070991
21
177.66753564631071
31
0
0
LINE
5
231
100
AcDbEntity
8
0
100
AcDbLine
10
73.135697348070991
20
177.66753564631071
30
0
11
73.13569734725489
21
189.66753564631065
31
0
0
LINE
5
232
100
AcDbEntity
8
0
100
AcDbLine
10
73.13569734725489
20
189.66753564631065
30
0
11
61.135697347256944
21
189.66753564549458
31
0
0
LINE
5
233
100
AcDbEntity
8
0
100
AcDbLine
10
61.135697347256944
20
189.66753564549458
30
0
11
61.135697347515368
21
185.86753564549454
31
0
0
LINE
5
234
100
AcDbEntity
8
0
100
AcDbLine
10
64.135697357342281
20
41.367535645698922
30
0
11
63.13569735735571
21
41.167535645630906
31
0
0
LINE
5
235
100
AcDbEntity
8
0
100
AcDbLine
10
63.13569735735571
20
41.167535645630906
30
0
11
63.135697357423723
21
40.167535645630906
31
0
0
LINE
5
236
100
AcDbEntity
8
0
100
AcDbLine
10
63.135697357423723
20
40.167535645630906
30
0
11
63.635697357457815
21
39.667535645664913
31
0
0
LINE
5
237
100
AcDbEntity
8
0
100
AcDbLine
10
63.635697357457815
20
39.667535645664913
30
0
11
70.63569735745898
21
39.667535646140983
31
0
0
LINE
5
238
100
AcDbEntity
8
0
100
AcDbLine
10
70.63569735745898
20
39.667535646140983
30
0
11
71.135697357425073
21
40.16753564617499
31
0
0
LINE
5
239
100
AcDbEntity
8
0
100
AcDbLine
10
71.135697357425073
20
40.16753564617499
30
0
11
71.13569735735706
21
41.167535646174976
31
0
0
LINE
5
240
100
AcDbEntity
8
0
100
AcDbLine
10
71.13569735735706
20
41.167535646174976
30
0
11
70.13569735734329
21
41.367535646106973
31
0
0
LINE
5
241
100
AcDbEntity
8
0
100
AcDbLine
10
70.13569735734329
20
41.367535646106973
30
0
11
71.135697357221048
21
43.167535646174969
31
0
0
LINE
5
242
100
AcDbEntity
8
0
100
AcDbLine
10
71.135697357221048
20
43.167535646174969
30
0
11
71.135697356506967
21
53.667535646174962
31
0
0
LINE
5
243
100
AcDbEntity
8
0
100
AcDbLine
10
63.135697356505631
20
53.667535645630892
30
0
11
63.135697357219698
21
43.167535645630906
31
0
0
LINE
5
244
100
AcDbEntity
8
0
100
AcDbLine
10
63.135697357219698
20
43.167535645630906
30
0
11
64.135697357342281
21
41.367535645698922
31
0
0
LWPOLYLINE
5
245
100
AcDbEntity
8
0
100
AcDbPolyline
90
28
70
1
43
0.0
10
96.550756533047405
20
182.66530280502579
42
-0.41421356237314705
10
96.350756533047402
20
182.86530280502575
10
96.350756533047402
20
186.66530280502573
10
108.35075653304742
20
186.66530280502573
10
108.3507565330474
20
50.665302805026229
10
106.35075653304739
20
50.665302805026229
10
106.35075653304739
20
40.165302805026258
10
105.35075653304739
20
38.365302805026275
10
106.35075653304739
20
38.165302805026272
10
106.35075653304739
20
37.165302805026279
10
105.85075653304739
20
36.665302805026279
10
98.850756533047388
20
36.665302805026279
10
98.350756533047388
20
37.165302805026279
10
98.350756533047402
20
38.165302805026272
10
99.350756533047374
20
38.365302805026275
10
98.350756533047388
20
40.165302805026272
10
98.350756533047402
20
50.665302805026229
10
96.350756533047388
20
50.665302805026229
10
96.350756533047388
20
56.465302805026212
42
-0.41421356237305601
10
96.550756533047377
20
56.665302805026208
10
100.35075653304739
20
56.665302805026208
10
100.35075881828945
20
60.665302805026194
10
96.550756533047377
20
60.665302805026187
42
-0.41421356237304302
10
96.350756533047388
20
60.865302805026182
10
96.350756533047416
20
178.46530280502577
42
-0.4142135623732251
10
96.550756533047405
20
178.66530280502573
10
100.35082851817225
20
178.66530280502576
10
100.35082851817225
20
182.66530280502576
0
LWPOLYLINE
5
246
100
AcDbEntity
8
0
100
AcDbPolyline
90
4
70
1
43
0.0
10
150.25075653304737
20
107.465302805026
10
150.25075653304734
20
115.865302805026
10
138.25075653304737
20
115.865302805026
10
138.25075653304739
20
107.465302805026
0
LWPOLYLINE
5
247
100
AcDbEntity
8
0
100
AcDbPolyline
90
4
70
1
43
0.0
10
146.25075653304739
20
104.41530280502602
10
142.25075653304739
20
104.41530280502602
10
142.25075653304742
20
102.415302805026
10
146.25075653304742
20
102.41530280502602
0
LWPOLYLINE
5
248
100
AcDbEntity
8
0
100
AcDbPolyline
90
4
70
1
43
0.0
10
153.50075653304737
20
113.665302805026
10
151.50075653304737
20
113.665302805026
10
151.50075653304737
20
109.66530280502599
10
153.50075653304737
20
109.66530280502599
0
LWPOLYLINE
5
249
100
AcDbEntity
8
0
100
AcDbPolyline
90
4
70
1
43
0.0
10
137.00075653304739
20
109.66530280502599
10
137.00075653304739
20
113.665302805026
10
135.00075653304739
20
113.665302805026
10
135.00075653304742
20
109.66530280502599
0
LWPOLYLINE
5
250
100
AcDbEntity
8
0
100
AcDbPolyline
90
16
70
1
43
0.0
10
137.75075653304742
20
105.165302805026
10
133.75075653304742
20
105.165302805026
10
133.75075653304737
20
122.16530280502599
10
138.25075653304734
20
122.16530280502599
10
138.25075653304737
20
117.16530280502609
10
142.25075653304725
20
117.16530280502602
10
142.25075653304737
20
122.16530280502599
10
146.25075653304734
20
122.16530280502597
10
146.25075653304745
20
117.16530280502602
10
150.25075653304734
20
117.16530280502609
10
150.25075653304731
20
122.16530280502599
10
154.75075653304731
20
122.16530280502599
10
154.75075653304737
20
105.165302805026
10
150.75075653304739
20
105.16530280502602
10
150.75075653304739
20
101.16530280502602
10
137.75075653304742
20
101.165302805026
0
LINE
5
251
100
AcDbEntity
8
0
100
AcDbLine
10
183.15075653304751
20
118.16530280502599
30
0
11
180.15075653304751
21
118.16530280502599
31
0
0
LINE
5
252
100
AcDbEntity
8
0
100
AcDbLine
10
180.15075653304751
20
118.16530280502599
30
0
11
180.15075653304757
21
105.16530280502604
31
0
0
LINE
5
253
100
AcDbEntity
8
0
100
AcDbLine
10
180.15075653304757
20
105.16530280502604
30
0
11
183.15075653304757
21
105.16530280502604
31
0
0
LINE
5
254
100
AcDbEntity
8
0
100
AcDbLine
10
183.15075653304757
20
105.16530280502604
30
0
11
183.15075653304757
21
108.16530280502603
31
0
0
LINE
5
255
100
AcDbEntity
8
0
100
AcDbLine
10
183.15075653304751
20
112.16530280502602
30
0
11
183.15075653304751
21
118.16530280502599
31
0
0
LINE
5
256
100
AcDbEntity
8
0
100
AcDbLine
10
195.15075653304751
20
112.16530280502602
30
0
11
183.15075653304751
21
112.16530280502602
31
0
0
LINE
5
257
100
AcDbEntity
8
0
100
AcDbLine
10
183.15075653304751
20
108.16530280502603
30
0
11
195.15075653304751
21
108.16530280502603
31
0
0
LINE
5
258
100
AcDbEntity
8
0
100
AcDbLine
10
198.15075653304748
20
105.16530280502604
30
0
11
198.15075653304746
21
118.16530280502599
31
0
0
LWPOLYLINE
5
259
100
AcDbEntity
8
0
100
AcDbPolyline
90
4
70
1
43
0.0
10
220.55075653304786
20
113.66530280502602
10
220.55075653304786
20
109.66530280502602
10
208.55075653304749
20
109.66530280502602
10
208.55075653304749
20
113.66530280502602
0
LWPOLYLINE
5
260
100
AcDbEntity
8
0
100
AcDbPolyline
90
20
70
1
43
0.0
10
251.25545707142706
20
103.2342664305817
42
-0.41421356237305862
10
250.25545707142709
20
104.2342664305817
10
250.25545707142714
20
114.29832998330212
42
1.8633249580710542
10
248.75545707142709
20
114.29832998330211
10
248.75545707142709
20
103.73426643058168
42
0.41421356237309503
10
249.75545707142712
20
102.7342664305817
10
257.45075653304787
20
102.7342664305817
10
257.45075653304787
20
107.23426643058168
10
259.85075653304784
20
107.23426643058168
10
259.85075653304784
20
99.534781908196507
10
245.95075653304787
20
99.534781908196507
10
247.25545707142712
20
101.79458952933182
10
247.25545707142709
20
117.29647191540241
42
-0.12295078443328829
10
247.49017727771599
20
118.23657151114494
10
249.88630666786526
20
122.73592329759794
42
-0.27714820665911977
10
251.65158646157636
20
123.79582370185543
10
257.45075653304787
20
123.79582370185543
10
257.45075653304787
20
113.79582370185543
10
254.45075653304784
20
113.79582370185544
10
254.45075653304784
20
103.2342664305817
0
LWPOLYLINE
5
261
100
AcDbEntity
8
0
100
AcDbPolyline
90
8
70
1
43
0.0
10
47.965731879568743
20
-127.06319389920705
10
47.965731879568771
20
-119.06319389920708
10
49.965731879568764
20
-119.06319389920708
10
49.965731879568729
20
-131.06319389920702
10
26.965731879568821
20
-131.06319389920696
10
26.965731879568857
20
-119.06319389920699
10
44.965731879568779
20
-119.06319389920705
10
44.965731879568757
20
-127.06319389920702
0
LWPOLYLINE
5
262
100
AcDbEntity
8
0
100
AcDbPolyline
90
8
70
1
43
0.0
10
94.136488112990136
20
-124.09086887710247
10
94.136488112990151
20
-116.09086887710251
10
96.136488112990165
20
-116.09086887710254
10
96.136488112990136
20
-128.09086887710248
10
73.136488112990136
20
-128.09086887710239
10
73.136488112990179
20
-116.09086887710245
10
91.136488112990151
20
-116.09086887710251
10
91.136488112990151
20
-124.09086887710245
0
LINE
5
263
100
AcDbEntity
8
0
100
AcDbLine
10
145.62774677852437
20
-114.05730767450689
30
0
11
122.62774677852447
21
-114.0573076745068
31
0
0
LWPOLYLINE
5
264
100
AcDbEntity
8
0
100
AcDbPolyline
90
4
70
1
43
0.0
10
145.62774677852437
20
-118.05730767450686
10
122.62774677852447
20
-118.0573076745068
10
122.62774677852447
20
-114.0573076745068
10
145.62774677852437
20
-114.05730767450689
0
LWPOLYLINE
5
265
100
AcDbEntity
8
0
100
AcDbPolyline
90
4
70
1
43
0.0
10
122.62774677852447
20
-118.0573076745068
10
145.62774677852437
20
-118.05730767450686
10
145.62774677852437
20
-114.05730767450689
10
122.62774677852447
20
-114.0573076745068
0
LWPOLYLINE
5
266
100
AcDbEntity
8
0
100
AcDbPolyline
90
12
70
1
43
0.0
10
191.86032868279628
20
-125.63479530796825
10
191.86032868279631
20
-120.13479530796828
10
194.86032868279634
20
-120.13479530796829
10
194.86032868279634
20
-115.89726330528207
10
196.86032868279631
20
-113.89726330528207
10
196.86032868279628
20
-127.63479530796826
10
173.86032868279631
20
-127.63479530796818
10
173.86032868279636
20
-114.10098324069601
10
175.86032868279634
20
-115.89726330528201
10
175.86032868279634
20
-120.13479530796822
10
178.86032868279631
20
-120.13479530796823
10
178.86032868279636
20
-125.63479530796823
0
LWPOLYLINE
5
267
100
AcDbEntity
8
0
100
AcDbPolyline
90
12
70
1
43
0.0
10
237.82265062404258
20
-119.0260833399164
10
237.82265062404258
20
-114.00114734528891
10
224.82265062404255
20
-114.00114734528887
10
224.82265062404255
20
-119.02608333991637
10
221.82265062404255
20
-119.02608333991637
10
221.82265062404252
20
-123.26361534260261
10
219.82265062404252
20
-121.46733527801661
10
219.82265062404258
20
-112.00114734528887
10
242.82265062404258
20
-112.00114734528893
10
242.82265062404252
20
-121.26361534260266
10
240.82265062404252
20
-123.26361534260266
10
240.82265062404252
20
-119.02608333991638
0
LWPOLYLINE
5
268
100
AcDbEntity
8
0
100
AcDbPolyline
90
48
70
1
43
0.0
10
269.73648811299103
20
-61.687731299736761
10
282.73648811299097
20
-61.687731299736797
10
282.73648811299091
20
-68.687731299736754
10
285.73648811299097
20
-68.687731299736768
10
285.73648811299086
20
-77.687731299736697
10
282.73648811299091
20
-77.687731299736697
10
282.73648811299091
20
-81.687731299736669
10
285.73648811299091
20
-81.687731299736669
10
285.73648811299086
20
-89.687731299736626
10
282.73648811299086
20
-89.68773129973664
10
282.73648811299086
20
-93.687731299736598
10
285.73648811299086
20
-93.687731299736612
10
285.73648811299074
20
-113.6877312997365
10
282.7364881129908
20
-113.68773129973653
10
282.7364881129908
20
-117.68773129973647
10
285.73648811299074
20
-117.68773129973651
10
285.73648811299074
20
-125.68773129973647
10
282.73648811299074
20
-125.68773129973644
10
282.73648811299074
20
-129.68773129973644
10
285.73648811299074
20
-129.68773129973644
10
285.73648811299068
20
-137.68773129973641
10
282.73648811299074
20
-137.68773129973638
10
282.73648811299074
20
-141.68773129973638
10
285.73648811299068
20
-141.68773129973641
10
285.73648811299063
20
-161.6877312997363
10
266.73648811299068
20
-161.68773129973624
10
266.7364881129908
20
-141.68773129973633
10
269.7364881129908
20
-141.68773129973633
10
269.7364881129908
20
-137.68773129973636
10
266.7364881129908
20
-137.68773129973636
10
266.73648811299086
20
-129.68773129973636
10
269.7364881129908
20
-129.68773129973638
10
269.7364881129908
20
-125.68773129973641
10
266.7364881129908
20
-125.68773129973643
10
266.73648811299086
20
-117.68773129973644
10
269.73648811299086
20
-117.68773129973644
10
269.73648811299086
20
-113.68773129973648
10
266.73648811299086
20
-113.68773129973647
10
266.73648811299097
20
-93.687731299736555
10
269.73648811299091
20
-93.687731299736555
10
269.73648811299091
20
-89.687731299736612
10
266.73648811299091
20
-89.687731299736583
10
266.73648811299097
20
-81.687731299736612
10
269.73648811299097
20
-81.68773129973664
10
269.73648811299097
20
-77.687731299736654
10
266.73648811299097
20
-77.687731299736654
10
266.73648811299103
20
-68.687731299736711
10
269.73648811299097
20
-68.687731299736726
0
LWPOLYLINE
5
269
100
AcDbEntity
8
0
100
AcDbPolyline
90
4
70
1
43
0.0
10
277.73648811299091
20
-78.686788571010425
10
277.73648811299097
20
-68.811788571010482
10
274.73648811299097
20
-68.811788571010467
10
274.73648811299097
20
-78.686788571010425
0
LWPOLYLINE
5
270
100
AcDbEntity
8
0
100
AcDbPolyline
90
60
70
1
43
0.0
10
326.55641460079124
20
-143.17074118984851
10
326.55641460079124
20
-151.17074118984851
10
322.55641460079124
20
-151.17074118984851
10
322.5564146007913
20
-143.17074118984851
10
318.5564146007913
20
-143.17074118984848
10
318.5564146007913
20
-151.17074118984848
10
315.0564146007913
20
-151.17074118984848
10
315.0564146007913
20
-131.17074118984848
10
318.05641460079136
20
-131.17074118984848
10
318.05641460079136
20
-127.17074118984848
10
315.0564146007913
20
-127.17074118984847
10
315.0564146007913
20
-119.17074118984846
10
318.05641460079136
20
-119.17074118984848
10
318.05641460079136
20
-115.1707411898485
10
315.0564146007913
20
-115.17074118984848
10
315.05641460079136
20
-107.17074118984847
10
318.05641460079141
20
-107.17074118984847
10
318.05641460079141
20
-103.17074118984848
10
315.05641460079141
20
-103.17074118984848
10
315.05641460079141
20
-83.170741189848457
10
318.05641460079141
20
-83.170741189848485
10
318.05641460079141
20
-79.170741189848471
10
315.05641460079141
20
-79.170741189848457
10
315.05641460079147
20
-71.170741189848471
10
318.05641460079147
20
-71.170741189848471
10
318.05641460079147
20
-67.170741189848471
10
315.05641460079147
20
-67.170741189848457
10
315.05641460079153
20
-58.170741189848478
10
318.05641460079153
20
-58.170741189848478
10
318.05641460079153
20
-51.170741189848471
10
315.05641460079153
20
-51.170741189848464
10
315.05641460079153
20
-47.170741189848471
10
334.05641460079153
20
-47.170741189848535
10
334.05641460079147
20
-51.170741189848528
10
331.05641460079147
20
-51.17074118984852
10
331.05641460079153
20
-58.17074118984852
10
334.05641460079147
20
-58.170741189848528
10
334.05641460079147
20
-67.170741189848513
10
331.05641460079147
20
-67.170741189848513
10
331.05641460079147
20
-71.170741189848499
10
334.05641460079147
20
-71.170741189848513
10
334.05641460079141
20
-79.170741189848513
10
331.05641460079141
20
-79.170741189848499
10
331.05641460079147
20
-83.170741189848499
10
334.05641460079147
20
-83.170741189848513
10
334.05641460079141
20
-103.17074118984851
10
331.05641460079141
20
-103.1707411898485
10
331.05641460079141
20
-107.17074118984851
10
334.05641460079141
20
-107.17074118984854
10
334.0564146007913
20
-115.17074118984854
10
331.05641460079136
20
-115.17074118984853
10
331.05641460079141
20
-119.17074118984851
10
334.0564146007913
20
-119.17074118984854
10
334.0564146007913
20
-127.17074118984854
10
331.05641460079136
20
-127.17074118984853
10
331.05641460079136
20
-131.17074118984851
10
334.0564146007913
20
-131.17074118984854
10
334.0564146007913
20
-151.17074118984854
10
330.5564146007913
20
-151.17074118984851
10
330.5564146007913
20
-143.17074118984851
0
LWPOLYLINE
5
271
100
AcDbEntity
8
0
100
AcDbPolyline
90
64
70
1
43
0.0
10
365.77956936851808
20
-59.317232805122657
10
365.77956936851808
20
-65.442232805122643
10
362.77956936851803
20
-65.442232805122629
10
362.77956936851803
20
-71.317232805122643
10
368.77956936851803
20
-71.317232805122671
10
368.77956936851803
20
-59.317232805122664
10
372.27956936851808
20
-59.317232805122671
10
372.27956936851803
20
-79.192232805122686
10
375.27956936851803
20
-79.1922328051227
10
375.27956936851797
20
-83.442232805122686
10
372.27956936851797
20
-83.442232805122671
10
372.27956936851797
20
-91.1922328051227
10
375.27956936851797
20
-91.192232805122714
10
375.27956936851797
20
-95.4422328051227
10
372.27956936851797
20
-95.442232805122686
10
372.27956936851797
20
-103.19223280512267
10
375.27956936851797
20
-103.19223280512269
10
375.27956936851785
20
-107.44223280512271
10
372.27956936851797
20
-107.4422328051227
10
372.27956936851791
20
-127.19223280512269
10
375.27956936851785
20
-127.1922328051227
10
375.2795693685178
20
-131.44223280512273
10
372.27956936851785
20
-131.44223280512273
10
372.27956936851785
20
-139.19223280512267
10
375.2795693685178
20
-139.1922328051227
10
375.2795693685178
20
-143.44223280512273
10
372.27956936851785
20
-143.4422328051227
10
372.27956936851785
20
-152.31723280512267
10
369.77956936851774
20
-152.31723280512267
10
369.77956936851785
20
-155.31723280512267
10
375.2795693685178
20
-155.3172328051227
10
375.27956936851774
20
-159.3172328051227
10
372.27956936851774
20
-159.31723280512267
10
372.27956936851774
20
-163.31723280512273
10
365.77956936851774
20
-163.31723280512264
10
365.77956936851768
20
-168.51671732750788
10
359.2795693685178
20
-168.51671732750785
10
359.27956936851774
20
-159.31723280512267
10
356.2795693685178
20
-159.31723280512264
10
356.2795693685178
20
-155.31723280512264
10
361.7795693685178
20
-155.31723280512264
10
361.7795693685178
20
-152.31723280512264
10
359.2795693685178
20
-152.31723280512267
10
359.2795693685178
20
-143.44223280512267
10
356.2795693685178
20
-143.44223280512264
10
356.27956936851785
20
-139.19223280512264
10
359.27956936851785
20
-139.19223280512267
10
359.2795693685178
20
-131.44223280512267
10
356.27956936851785
20
-131.44223280512264
10
356.27956936851785
20
-127.19223280512264
10
359.27956936851785
20
-127.19223280512266
10
359.27956936851785
20
-107.44223280512267
10
356.27956936851797
20
-107.44223280512266
10
356.27956936851797
20
-103.19223280512263
10
359.27956936851791
20
-103.19223280512264
10
359.27956936851791
20
-95.442232805122629
10
356.27956936851797
20
-95.442232805122615
10
356.27956936851797
20
-91.192232805122643
10
359.27956936851797
20
-91.192232805122657
10
359.27956936851791
20
-83.442232805122643
10
356.27956936851803
20
-83.442232805122615
10
356.27956936851803
20
-79.192232805122643
10
359.27956936851797
20
-79.192232805122643
10
359.27956936851808
20
-59.317232805122643
0
LWPOLYLINE
5
272
100
AcDbEntity
8
0
100
AcDbPolyline
90
64
70
1
43
0.0
10
409.47613185478707
20
-163.8879442461714
10
409.47613185478707
20
-170.01294424617134
10
402.97613185478696
20
-170.01294424617134
10
402.97613185478701
20
-150.13794424617134
10
399.97613185478701
20
-150.13794424617134
10
399.97613185478701
20
-145.88794424617134
10
402.97613185478713
20
-145.88794424617137
10
402.97613185478713
20
-138.13794424617134
10
399.97613185478707
20
-138.13794424617132
10
399.97613185478707
20
-133.88794424617134
10
402.97613185478713
20
-133.8879442461714
10
402.97613185478713
20
-126.13794424617137
10
399.97613185478707
20
-126.13794424617134
10
399.97613185478707
20
-121.88794424617134
10
402.97613185478713
20
-121.88794424617136
10
402.97613185478718
20
-102.13794424617136
10
399.97613185478713
20
-102.13794424617134
10
399.97613185478713
20
-97.887944246171358
10
402.97613185478724
20
-97.887944246171358
10
402.97613185478724
20
-90.137944246171372
10
399.97613185478718
20
-90.13794424617133
10
399.97613185478718
20
-85.887944246171344
10
402.97613185478724
20
-85.887944246171358
10
402.97613185478724
20
-77.012944246171372
10
405.4761318547873
20
-77.012944246171372
10
405.4761318547873
20
-74.012944246171372
10
399.97613185478724
20
-74.012944246171358
10
399.97613185478724
20
-70.012944246171372
10
402.9761318547873
20
-70.012944246171372
10
402.9761318547873
20
-60.813459723786195
10
409.47613185478735
20
-60.81345972378621
10
409.47613185478747
20
-66.012944246171401
10
415.97613185478747
20
-66.012944246171415
10
415.97613185478747
20
-70.012944246171415
10
418.97613185478747
20
-70.012944246171415
10
418.97613185478747
20
-74.012944246171429
10
413.47613185478741
20
-74.012944246171401
10
413.47613185478735
20
-77.012944246171401
10
415.97613185478741
20
-77.012944246171415
10
415.97613185478741
20
-85.887944246171372
10
418.97613185478747
20
-85.887944246171401
10
418.97613185478747
20
-90.137944246171401
10
415.97613185478735
20
-90.137944246171401
10
415.97613185478735
20
-97.887944246171386
10
418.97613185478741
20
-97.887944246171401
10
418.97613185478741
20
-102.13794424617141
10
415.97613185478735
20
-102.1379442461714
10
415.9761318547873
20
-121.88794424617137
10
418.97613185478735
20
-121.8879442461714
10
418.97613185478735
20
-126.13794424617141
10
415.9761318547873
20
-126.13794424617139
10
415.9761318547873
20
-133.8879442461714
10
418.97613185478735
20
-133.8879442461714
10
418.97613185478735
20
-138.1379442461714
10
415.97613185478724
20
-138.13794424617137
10
415.97613185478724
20
-145.8879442461714
10
418.97613185478724
20
-145.8879442461714
10
418.97613185478724
20
-150.1379442461714
10
415.97613185478724
20
-150.1379442461714
10
415.97613185478724
20
-170.01294424617134
10
412.47613185478707
20
-170.01294424617134
10
412.47613185478713
20
-158.01294424617137
10
406.47613185478701
20
-158.01294424617137
10
406.47613185478701
20
-163.8879442461714
0
ENDSEC
0
SECTION
2
OBJECTS
0
DICTIONARY
5
C
100
AcDbDictionary
3
ACAD_GROUP
350
D
3
ACAD_MLINESTYLE
350
17
0
DICTIONARY
5
D
100
AcDbDictionary
0
DICTIONARY
5
1A
330
C
100
AcDbDictionary
0
DICTIONARY
5
17
100
AcDbDictionary
0
ENDSEC
0
EOF
