0
SECTION
2
HEADER
9
$INSUNITS
70
4
9
$ACADVER
1
AC1014
9
$HANDSEED
5
FFFF
0
ENDSEC
0
SECTION
2
TABLES
0
TABLE
2
VPORT
5
8
100
AcDbSymbolTable
0
ENDTAB
0
TABLE
2
LTYPE
5
5
100
AcDbSymbolTable
0
LTYPE
5
14
100
AcDbSymbolTableRecord
100
AcDbLinetypeTableRecord
2
BYBLOCK
70
0
0
LTYPE
5
15
100
AcDbSymbolTableRecord
100
AcDbLinetypeTableRecord
2
BYLAYER
70
0
0
ENDTAB
0
TABLE
2
LAYER
5
2
100
AcDbSymbolTable
70
2
0
LAYER
5
50
100
AcDbSymbolTableRecord
100
AcDbLayerTableRecord
2
0
70
0
6
CONTINUOUS
0
ENDTAB
0
TABLE
2
STYLE
5
3
100
AcDbSymbolTable
70
1
0
STYLE
5
11
100
AcDbSymbolTableRecord
100
AcDbTextStyleTableRecord
2
STANDARD
70
0
0
ENDTAB
0
TABLE
2
VIEW
5
6
100
AcDbSymbolTable
70
0
0
ENDTAB
0
TABLE
2
UCS
5
7
100
AcDbSymbolTable
70
0
0
ENDTAB
0
TABLE
2
APPID
5
9
100
AcDbSymbolTable
70
2
0
APPID
5
12
100
AcDbSymbolTableRecord
100
AcDbRegAppTableRecord
2
ACAD
70
0
0
ENDTAB
0
TABLE
2
DIMSTYLE
5
A
100
AcDbSymbolTable
70
1
0
ENDTAB
0
TABLE
2
BLOCK_RECORD
5
1
100
AcDbSymbolTable
70
1
0
BLOCK_RECORD
5
1F
100
AcDbSymbolTableRecord
100
AcDbBlockTableRecord
2
*MODEL_SPACE
0
BLOCK_RECORD
5
1B
100
AcDbSymbolTableRecord
100
AcDbBlockTableRecord
2
*PAPER_SPACE
0
ENDTAB
0
ENDSEC
0
SECTION
2
BLOCKS
0
BLOCK
5
20
100
AcDbEntity
100
AcDbBlockBegin
2
*MODEL_SPACE
0
ENDBLK
5
21
100
AcDbEntity
100
AcDbBlockEnd
0
BLOCK
5
1C
100
AcDbEntity
100
AcDbBlockBegin
2
*PAPER_SPACE
0
ENDBLK
5
1D
100
AcDbEntity
100
AcDbBlockEnd
0
ENDSEC
0
SECTION
2
ENTITIES
0
LWPOLYLINE
5
100
100
AcDbEntity
8
0
100
AcDbPolyline
90
24
70
1
43
0.0
10
44.168213466126119
20
16.217486384249135
10
45.168213466126119
20
16.417486384249138
10
44.168213466126119
20
18.217486384249131
10
44.16821346612609
20
28.717486384249121
10
42.168213466126105
20
28.717486384249117
10
42.16821346612609
20
34.717486384249106
10
46.268213466126085
20
34.717486384249113
10
46.268215751368132
20
38.717486384249106
10
42.168213466126083
20
38.717486384249099
10
42.168213466125891
20
156.71748638424893
10
46.268285451251323
20
156.71748638424893
10
46.268285451251316
20
160.71748638424893
10
42.168213466125877
20
160.71748638424893
10
42.16821346612587
20
164.71748638424896
10
54.168213466125849
20
164.71748638424896
10
54.168213466126076
20
28.717486384249131
10
52.168213466126076
20
28.717486384249131
10
52.16821346612609
20
18.217486384249138
10
51.168213466126097
20
16.417486384249141
10
52.16821346612609
20
16.217486384249138
10
52.168213466126105
20
15.217486384249151
10
51.66821346612609
20
14.717486384249145
10
44.668213466126119
20
14.717486384249135
10
44.168213466126119
20
15.217486384249135
0
LINE
5
101
100
AcDbEntity
8
0
100
AcDbLine
10
80.530612220537975
20
41.842189664391995
30
0
11
84.630614505779334
21
41.84218966467084
31
0
0
LINE
5
102
100
AcDbEntity
8
0
100
AcDbLine
10
84.630614505779334
20
41.84218966467084
30
0
11
84.630612220809311
21
37.842189664670855
31
0
0
LINE
5
103
100
AcDbEntity
8
0
100
AcDbLine
10
84.630612220809311
20
37.842189664670855
30
0
11
80.530612220809999
21
37.842189664392002
31
0
0
LINE
5
104
100
AcDbEntity
8
0
100
AcDbLine
10
80.530612220809999
20
37.842189664392002
30
0
11
80.530612221218092
21
31.842189664392031
31
0
0
LINE
5
105
100
AcDbEntity
8
0
100
AcDbLine
10
80.530612221218092
20
31.842189664392031
30
0
11
82.530612221217737
21
31.842189664528043
31
0
0
LINE
5
106
100
AcDbEntity
8
0
100
AcDbLine
10
90.530612221216359
20
31.84218966507213
30
0
11
92.530612221216018
21
31.842189665208149
31
0
0
LINE
5
107
100
AcDbEntity
8
0
100
AcDbLine
10
92.530612221216018
20
31.842189665208149
30
0
11
92.530612220399917
21
43.84218966520811
31
0
0
LINE
5
108
100
AcDbEntity
8
0
100
AcDbLine
10
92.530612220399917
20
43.84218966520811
30
0
11
91.030612198048416
21
43.842189843920025
31
0
0
LINE
5
109
100
AcDbEntity
8
0
100
AcDbLine
10
91.030612198048416
20
43.842189843920025
30
0
11
89.230612294025207
21
45.842189352059279
31
0
0
LINE
5
110
100
AcDbEntity
8
0
100
AcDbLine
10
89.230612294025207
20
45.842189352059279
30
0
11
87.530612332023452
21
45.842189351943674
31
0
0
LINE
5
111
100
AcDbEntity
8
0
100
AcDbLine
10
87.530612332023452
20
45.842189351943674
30
0
11
87.030612138308442
21
45.842189664834045
31
0
0
LINE
5
112
100
AcDbEntity
8
0
100
AcDbLine
10
87.030612138308442
20
45.842189664834045
30
0
11
84.530612220265255
21
45.842189664664019
31
0
0
LINE
5
113
100
AcDbEntity
8
0
100
AcDbLine
10
84.530612220265255
20
45.842189664664019
30
0
11
85.685312758508289
21
47.842189664742548
31
0
0
LINE
5
114
100
AcDbEntity
8
0
100
AcDbLine
10
85.685312758508289
20
47.842189664742548
30
0
11
84.530612220129228
21
47.842189664664012
31
0
0
LINE
5
115
100
AcDbEntity
8
0
100
AcDbLine
10
84.530612220129228
20
47.842189664664012
30
0
11
85.685312758372277
21
49.842189664742534
31
0
0
LINE
5
116
100
AcDbEntity
8
0
100
AcDbLine
10
85.685312758372277
20
49.842189664742534
30
0
11
84.530612219993216
21
49.842189664664005
31
0
0
LINE
5
117
100
AcDbEntity
8
0
100
AcDbLine
10
84.530612219993216
20
49.842189664664005
30
0
11
85.68531275823625
21
51.842189664742534
31
0
0
LINE
5
118
100
AcDbEntity
8
0
100
AcDbLine
10
85.68531275823625
20
51.842189664742534
30
0
11
84.530612219857204
21
51.842189664663998
31
0
0
LINE
5
119
100
AcDbEntity
8
0
100
AcDbLine
10
84.530612219857204
20
51.842189664663998
30
0
11
85.685312758100224
21
53.84218966474252
31
0
0
LINE
5
120
100
AcDbEntity
8
0
100
AcDbLine
10
85.685312758100224
20
53.84218966474252
30
0
11
84.530612219721178
21
53.842189664663991
31
0
0
LINE
5
121
100
AcDbEntity
8
0
100
AcDbLine
10
84.530612219721178
20
53.842189664663991
30
0
11
85.685312757964198
21
55.84218966474252
31
0
0
LINE
5
122
100
AcDbEntity
8
0
100
AcDbLine
10
85.685312757964198
20
55.84218966474252
30
0
11
84.530612219585151
21
55.842189664663984
31
0
0
LINE
5
123
100
AcDbEntity
8
0
100
AcDbLine
10
84.530612219585151
20
55.842189664663984
30
0
11
85.685312757828186
21
57.842189664742506
31
0
0
LINE
5
124
100
AcDbEntity
8
0
100
AcDbLine
10
85.685312757828186
20
57.842189664742506
30
0
11
84.530612219449139
21
57.842189664663977
31
0
0
LINE
5
125
100
AcDbEntity
8
0
100
AcDbLine
10
84.530612219449139
20
57.842189664663977
30
0
11
85.685312757692174
21
59.842189664742513
31
0
0
LINE
5
126
100
AcDbEntity
8
0
100
AcDbLine
10
85.685312757692174
20
59.842189664742513
30
0
11
84.530612219313127
21
59.842189664663969
31
0
0
LINE
5
127
100
AcDbEntity
8
0
100
AcDbLine
10
84.530612219313127
20
59.842189664663969
30
0
11
85.685312757556147
21
61.842189664742492
31
0
0
LINE
5
128
100
AcDbEntity
8
0
100
AcDbLine
10
85.685312757556147
20
61.842189664742492
30
0
11
84.530612219177087
21
61.842189664663962
31
0
0
LINE
5
129
100
AcDbEntity
8
0
100
AcDbLine
10
84.530612219177087
20
61.842189664663962
30
0
11
85.685312757420121
21
63.842189664742492
31
0
0
LINE
5
130
100
AcDbEntity
8
0
100
AcDbLine
10
85.685312757420121
20
63.842189664742492
30
0
11
84.530612219041075
21
63.842189664663955
31
0
0
LINE
5
131
100
AcDbEntity
8
0
100
AcDbLine
10
84.530612219041075
20
63.842189664663955
30
0
11
85.685312757284109
21
65.842189664742477
31
0
0
LINE
5
132
100
AcDbEntity
8
0
100
AcDbLine
10
85.685312757284109
20
65.842189664742477
30
0
11
84.530612218905063
21
65.842189664663948
31
0
0
LINE
5
133
100
AcDbEntity
8
0
100
AcDbLine
10
84.530612218905063
20
65.842189664663948
30
0
11
85.685312757148097
21
67.842189664742477
31
0
0
LINE
5
134
100
AcDbEntity
8
0
100
AcDbLine
10
85.685312757148097
20
67.842189664742477
30
0
11
84.530612218769051
21
67.842189664663948
31
0
0
LINE
5
135
100
AcDbEntity
8
0
100
AcDbLine
10
84.530612218769051
20
67.842189664663948
30
0
11
85.685312757012071
21
69.842189664742477
31
0
0
LINE
5
136
100
AcDbEntity
8
0
100
AcDbLine
10
85.685312757012071
20
69.842189664742477
30
0
11
84.53061221863301
21
69.842189664663934
31
0
0
LINE
5
137
100
AcDbEntity
8
0
100
AcDbLine
10
84.53061221863301
20
69.842189664663934
30
0
11
85.685312756876044
21
71.842189664742463
31
0
0
LINE
5
138
100
AcDbEntity
8
0
100
AcDbLine
10
85.685312756876044
20
71.842189664742463
30
0
11
84.530612218496998
21
71.84218966466392
31
0
0
LINE
5
139
100
AcDbEntity
8
0
100
AcDbLine
10
84.530612218496998
20
71.84218966466392
30
0
11
85.685312756740032
21
73.842189664742449
31
0
0
LINE
5
140
100
AcDbEntity
8
0
100
AcDbLine
10
85.685312756740032
20
73.842189664742449
30
0
11
84.530612218360972
21
73.842189664663934
31
0
0
LINE
5
141
100
AcDbEntity
8
0
100
AcDbLine
10
84.530612218360972
20
73.842189664663934
30
0
11
85.68531275660402
21
75.842189664742449
31
0
0
LINE
5
142
100
AcDbEntity
8
0
100
AcDbLine
10
85.68531275660402
20
75.842189664742449
30
0
11
84.53061221822496
21
75.84218966466392
31
0
0
LINE
5
143
100
AcDbEntity
8
0
100
AcDbLine
10
84.53061221822496
20
75.84218966466392
30
0
11
85.68531275646798
21
77.842189664742449
31
0
0
LINE
5
144
100
AcDbEntity
8
0
100
AcDbLine
10
85.68531275646798
20
77.842189664742449
30
0
11
84.530612218088933
21
77.84218966466392
31
0
0
LINE
5
145
100
AcDbEntity
8
0
100
AcDbLine
10
84.530612218088933
20
77.84218966466392
30
0
11
85.685312756331967
21
79.842189664742435
31
0
0
LINE
5
146
100
AcDbEntity
8
0
100
AcDbLine
10
85.685312756331967
20
79.842189664742435
30
0
11
84.530612217952921
21
79.842189664663906
31
0
0
LINE
5
147
100
AcDbEntity
8
0
100
AcDbLine
10
84.530612217952921
20
79.842189664663906
30
0
11
85.685312756195941
21
81.842189664742421
31
0
0
LINE
5
148
100
AcDbEntity
8
0
100
AcDbLine
10
85.685312756195941
20
81.842189664742421
30
0
11
84.530612217816895
21
81.842189664663906
31
0
0
LINE
5
149
100
AcDbEntity
8
0
100
AcDbLine
10
84.530612217816895
20
81.842189664663906
30
0
11
85.685312756059929
21
83.842189664742421
31
0
0
LINE
5
150
100
AcDbEntity
8
0
100
AcDbLine
10
85.685312756059929
20
83.842189664742421
30
0
11
84.530612217680883
21
83.842189664663906
31
0
0
LINE
5
151
100
AcDbEntity
8
0
100
AcDbLine
10
84.530612217680883
20
83.842189664663906
30
0
11
85.685312755923917
21
85.842189664742406
31
0
0
LINE
5
152
100
AcDbEntity
8
0
100
AcDbLine
10
85.685312755923917
20
85.842189664742406
30
0
11
84.530612217544842
21
85.842189664663891
31
0
0
LINE
5
153
100
AcDbEntity
8
0
100
AcDbLine
10
84.530612217544842
20
85.842189664663891
30
0
11
85.685312755787891
21
87.842189664742406
31
0
0
LINE
5
154
100
AcDbEntity
8
0
100
AcDbLine
10
85.685312755787891
20
87.842189664742406
30
0
11
84.53061221740883
21
87.842189664663891
31
0
0
LINE
5
155
100
AcDbEntity
8
0
100
AcDbLine
10
84.53061221740883
20
87.842189664663891
30
0
11
85.685312755651864
21
89.842189664742392
31
0
0
LINE
5
156
100
AcDbEntity
8
0
100
AcDbLine
10
85.685312755651864
20
89.842189664742392
30
0
11
84.530612217272818
21
89.842189664663877
31
0
0
LINE
5
157
100
AcDbEntity
8
0
100
AcDbLine
10
84.530612217272818
20
89.842189664663877
30
0
11
85.685312755515852
21
91.842189664742406
31
0
0
LINE
5
158
100
AcDbEntity
8
0
100
AcDbLine
10
85.685312755515852
20
91.842189664742406
30
0
11
84.530612217136806
21
91.842189664663877
31
0
0
LINE
5
159
100
AcDbEntity
8
0
100
AcDbLine
10
84.530612217136806
20
91.842189664663877
30
0
11
85.685312755379812
21
93.842189664742392
31
0
0
LINE
5
160
100
AcDbEntity
8
0
100
AcDbLine
10
85.685312755379812
20
93.842189664742392
30
0
11
84.530612217000765
21
93.842189664663863
31
0
0
LINE
5
161
100
AcDbEntity
8
0
100
AcDbLine
10
84.530612217000765
20
93.842189664663863
30
0
11
85.6853127552438
21
95.842189664742378
31
0
0
LINE
5
162
100
AcDbEntity
8
0
100
AcDbLine
10
85.6853127552438
20
95.842189664742378
30
0
11
84.530612216864753
21
95.842189664663863
31
0
0
LINE
5
163
100
AcDbEntity
8
0
100
AcDbLine
10
84.530612216864753
20
95.842189664663863
30
0
11
85.685312755107788
21
97.842189664742364
31
0
0
LINE
5
164
100
AcDbEntity
8
0
100
AcDbLine
10
85.685312755107788
20
97.842189664742364
30
0
11
84.530612216728741
21
97.842189664663849
31
0
0
LINE
5
165
100
AcDbEntity
8
0
100
AcDbLine
10
84.530612216728741
20
97.842189664663849
30
0
11
85.685312754971775
21
99.842189664742364
31
0
0
LINE
5
166
100
AcDbEntity
8
0
100
AcDbLine
10
85.685312754971775
20
99.842189664742364
30
0
11
84.530612216592715
21
99.842189664663849
31
0
0
LINE
5
167
100
AcDbEntity
8
0
100
AcDbLine
10
84.530612216592715
20
99.842189664663849
30
0
11
85.685312754835763
21
101.84218966474236
31
0
0
LINE
5
168
100
AcDbEntity
8
0
100
AcDbLine
10
85.685312754835763
20
101.84218966474236
30
0
11
84.530612216456689
21
101.84218966466383
31
0
0
LINE
5
169
100
AcDbEntity
8
0
100
AcDbLine
10
84.530612216456689
20
101.84218966466383
30
0
11
85.685312754699723
21
103.84218966474236
31
0
0
LINE
5
170
100
AcDbEntity
8
0
100
AcDbLine
10
85.685312754699723
20
103.84218966474236
30
0
11
84.530612216320677
21
103.84218966466383
31
0
0
LINE
5
171
100
AcDbEntity
8
0
100
AcDbLine
10
84.530612216320677
20
103.84218966466383
30
0
11
85.685312754563711
21
105.84218966474234
31
0
0
LINE
5
172
100
AcDbEntity
8
0
100
AcDbLine
10
85.685312754563711
20
105.84218966474234
30
0
11
84.530612216184664
21
105.84218966466382
31
0
0
LINE
5
173
100
AcDbEntity
8
0
100
AcDbLine
10
84.530612216184664
20
105.84218966466382
30
0
11
85.685312754427684
21
107.84218966474234
31
0
0
LINE
5
174
100
AcDbEntity
8
0
100
AcDbLine
10
85.685312754427684
20
107.84218966474234
30
0
11
84.530612216048638
21
107.84218966466382
31
0
0
LINE
5
175
100
AcDbEntity
8
0
100
AcDbLine
10
84.530612216048638
20
107.84218966466382
30
0
11
85.685312754291672
21
109.84218966474234
31
0
0
LINE
5
176
100
AcDbEntity
8
0
100
AcDbLine
10
85.685312754291672
20
109.84218966474234
30
0
11
84.530612215912612
21
109.84218966466381
31
0
0
LINE
5
177
100
AcDbEntity
8
0
100
AcDbLine
10
84.530612215912612
20
109.84218966466381
30
0
11
85.685312754155646
21
111.84218966474234
31
0
0
LINE
5
178
100
AcDbEntity
8
0
100
AcDbLine
10
85.685312754155646
20
111.84218966474234
30
0
11
84.530612215776586
21
111.84218966466381
31
0
0
LINE
5
179
100
AcDbEntity
8
0
100
AcDbLine
10
84.530612215776586
20
111.84218966466381
30
0
11
85.685312754019634
21
113.84218966474231
31
0
0
LINE
5
180
100
AcDbEntity
8
0
100
AcDbLine
10
85.685312754019634
20
113.84218966474231
30
0
11
84.530612215640573
21
113.84218966466378
31
0
0
LINE
5
181
100
AcDbEntity
8
0
100
AcDbLine
10
84.530612215640573
20
113.84218966466378
30
0
11
85.685312753883608
21
115.84218966474232
31
0
0
LINE
5
182
100
AcDbEntity
8
0
100
AcDbLine
10
85.685312753883608
20
115.84218966474232
30
0
11
84.530612215504561
21
115.84218966466379
31
0
0
LINE
5
183
100
AcDbEntity
8
0
100
AcDbLine
10
84.530612215504561
20
115.84218966466379
30
0
11
85.685312753747596
21
117.84218966474234
31
0
0
LINE
5
184
100
AcDbEntity
8
0
100
AcDbLine
10
85.685312753747596
20
117.84218966474234
30
0
11
84.530612215368535
21
117.84218966466378
31
0
0
LINE
5
185
100
AcDbEntity
8
0
100
AcDbLine
10
84.530612215368535
20
117.84218966466378
30
0
11
85.685312753611555
21
119.84218966474231
31
0
0
LINE
5
186
100
AcDbEntity
8
0
100
AcDbLine
10
85.685312753611555
20
119.84218966474231
30
0
11
84.530612215232509
21
119.84218966466378
31
0
0
LINE
5
187
100
AcDbEntity
8
0
100
AcDbLine
10
84.530612215232509
20
119.84218966466378
30
0
11
85.685312753475543
21
121.84218966474231
31
0
0
LINE
5
188
100
AcDbEntity
8
0
100
AcDbLine
10
85.685312753475543
20
121.84218966474231
30
0
11
84.530612215096497
21
121.84218966466376
31
0
0
LINE
5
189
100
AcDbEntity
8
0
100
AcDbLine
10
84.530612215096497
20
121.84218966466376
30
0
11
85.685312753339531
21
123.84218966474229
31
0
0
LINE
5
190
100
AcDbEntity
8
0
100
AcDbLine
10
85.685312753339531
20
123.84218966474229
30
0
11
84.530612214960485
21
123.84218966466375
31
0
0
LINE
5
191
100
AcDbEntity
8
0
100
AcDbLine
10
84.530612214960485
20
123.84218966466375
30
0
11
85.685312753203519
21
125.84218966474231
31
0
0
LINE
5
192
100
AcDbEntity
8
0
100
AcDbLine
10
85.685312753203519
20
125.84218966474231
30
0
11
84.530612214824444
21
125.84218966466378
31
0
0
LINE
5
193
100
AcDbEntity
8
0
100
AcDbLine
10
84.530612214824444
20
125.84218966466378
30
0
11
85.685312753067478
21
127.84218966474229
31
0
0
LINE
5
194
100
AcDbEntity
8
0
100
AcDbLine
10
85.685312753067478
20
127.84218966474229
30
0
11
84.530612214688432
21
127.84218966466375
31
0
0
LINE
5
195
100
AcDbEntity
8
0
100
AcDbLine
10
84.530612214688432
20
127.84218966466375
30
0
11
85.685312752931466
21
129.84218966474228
31
0
0
LINE
5
196
100
AcDbEntity
8
0
100
AcDbLine
10
85.685312752931466
20
129.84218966474228
30
0
11
84.53061221455242
21
129.84218966466375
31
0
0
LINE
5
197
100
AcDbEntity
8
0
100
AcDbLine
10
84.53061221455242
20
129.84218966466375
30
0
11
85.685312752795454
21
131.84218966474225
31
0
0
LINE
5
198
100
AcDbEntity
8
0
100
AcDbLine
10
85.685312752795454
20
131.84218966474225
30
0
11
84.530612214416408
21
131.84218966466372
31
0
0
LINE
5
199
100
AcDbEntity
8
0
100
AcDbLine
10
84.530612214416408
20
131.84218966466372
30
0
11
85.685312752659428
21
133.84218966474225
31
0
0
LINE
5
200
100
AcDbEntity
8
0
100
AcDbLine
10
85.685312752659428
20
133.84218966474225
30
0
11
84.530612214280367
21
133.84218966466369
31
0
0
LINE
5
201
100
AcDbEntity
8
0
100
AcDbLine
10
84.530612214280367
20
133.84218966466369
30
0
11
85.685312752523402
21
135.84218966474228
31
0
0
LINE
5
202
100
AcDbEntity
8
0
100
AcDbLine
10
85.685312752523402
20
135.84218966474228
30
0
11
84.530612214144355
21
135.84218966466375
31
0
0
LINE
5
203
100
AcDbEntity
8
0
100
AcDbLine
10
84.530612214144355
20
135.84218966466375
30
0
11
85.685312752387389
21
137.84218966474225
31
0
0
LINE
5
204
100
AcDbEntity
8
0
100
AcDbLine
10
85.685312752387389
20
137.84218966474225
30
0
11
84.530612214008329
21
137.84218966466372
31
0
0
LINE
5
205
100
AcDbEntity
8
0
100
AcDbLine
10
84.530612214008329
20
137.84218966466372
30
0
11
85.685312752251377
21
139.84218966474225
31
0
0
LINE
5
206
100
AcDbEntity
8
0
100
AcDbLine
10
85.685312752251377
20
139.84218966474225
30
0
11
84.530612213872317
21
139.84218966466369
31
0
0
LINE
5
207
100
AcDbEntity
8
0
100
AcDbLine
10
84.530612213872317
20
139.84218966466369
30
0
11
85.685312752115351
21
141.84218966474222
31
0
0
LINE
5
208
100
AcDbEntity
8
0
100
AcDbLine
10
85.685312752115351
20
141.84218966474222
30
0
11
84.530612213736291
21
141.84218966466369
31
0
0
LINE
5
209
100
AcDbEntity
8
0
100
AcDbLine
10
84.530612213736291
20
141.84218966466369
30
0
11
85.685312751979325
21
143.84218966474222
31
0
0
LINE
5
210
100
AcDbEntity
8
0
100
AcDbLine
10
85.685312751979325
20
143.84218966474222
30
0
11
84.530612213600278
21
143.84218966466366
31
0
0
LINE
5
211
100
AcDbEntity
8
0
100
AcDbLine
10
84.530612213600278
20
143.84218966466366
30
0
11
85.685312751843298
21
145.84218966474222
31
0
0
LINE
5
212
100
AcDbEntity
8
0
100
AcDbLine
10
85.685312751843298
20
145.84218966474222
30
0
11
84.530612213464252
21
145.84218966466369
31
0
0
LINE
5
213
100
AcDbEntity
8
0
100
AcDbLine
10
84.530612213464252
20
145.84218966466369
30
0
11
85.685312751707286
21
147.84218966474222
31
0
0
LINE
5
214
100
AcDbEntity
8
0
100
AcDbLine
10
85.685312751707286
20
147.84218966474222
30
0
11
84.53061221332824
21
147.84218966466369
31
0
0
LINE
5
215
100
AcDbEntity
8
0
100
AcDbLine
10
84.53061221332824
20
147.84218966466369
30
0
11
85.685312751571274
21
149.84218966474222
31
0
0
LINE
5
216
100
AcDbEntity
8
0
100
AcDbLine
10
85.685312751571274
20
149.84218966474222
30
0
11
84.530612213192228
21
149.84218966466366
31
0
0
LINE
5
217
100
AcDbEntity
8
0
100
AcDbLine
10
84.530612213192228
20
149.84218966466366
30
0
11
85.685312751435248
21
151.84218966474219
31
0
0
LINE
5
218
100
AcDbEntity
8
0
100
AcDbLine
10
85.685312751435248
20
151.84218966474219
30
0
11
84.530612213056187
21
151.84218966466366
31
0
0
LINE
5
219
100
AcDbEntity
8
0
100
AcDbLine
10
84.530612213056187
20
151.84218966466366
30
0
11
85.685312751299222
21
153.84218966474219
31
0
0
LINE
5
220
100
AcDbEntity
8
0
100
AcDbLine
10
85.685312751299222
20
153.84218966474219
30
0
11
84.530612212920175
21
153.84218966466364
31
0
0
LINE
5
221
100
AcDbEntity
8
0
100
AcDbLine
10
84.530612212920175
20
153.84218966466364
30
0
11
84.530612212784163
21
155.84218966466364
31
0
0
LINE
5
222
100
AcDbEntity
8
0
100
AcDbLine
10
84.530612212784163
20
155.84218966466364
30
0
11
92.530612212782799
21
155.84218966520771
31
0
0
LINE
5
223
100
AcDbEntity
8
0
100
AcDbLine
10
92.530612212782799
20
155.84218966520771
30
0
11
92.53061221196667
21
167.84218966520766
31
0
0
LINE
5
224
100
AcDbEntity
8
0
100
AcDbLine
10
92.53061221196667
20
167.84218966520766
30
0
11
80.530612211968716
21
167.84218966439155
31
0
0
LINE
5
225
100
AcDbEntity
8
0
100
AcDbLine
10
80.530612211968716
20
167.84218966439155
30
0
11
80.530612212240754
21
163.84218966439158
31
0
0
LINE
5
226
100
AcDbEntity
8
0
100
AcDbLine
10
80.530612212240754
20
163.84218966439158
30
0
11
84.630684197365497
21
163.8421896646704
31
0
0
LINE
5
227
100
AcDbEntity
8
0
100
AcDbLine
10
84.630684197365497
20
163.8421896646704
30
0
11
84.630684197637521
21
159.8421896646704
31
0
0
LINE
5
228
100
AcDbEntity
8
0
100
AcDbLine
10
84.630684197637521
20
159.8421896646704
30
0
11
80.530612212512807
21
159.84218966439155
31
0
0
LINE
5
229
100
AcDbEntity
8
0
100
AcDbLine
10
80.530612212512807
20
159.84218966439155
30
0
11
80.530612220537975
21
41.842189664391995
31
0
0
LWPOLYLINE
5
230
100
AcDbEntity
8
0
100
AcDbPolyline
90
24
70
1
43
0.0
10
114.96821346707725
20
16.217486384248907
10
115.96821346707725
20
16.41748638424891
10
114.96821346707725
20
18.217486384248907
10
114.96821346707721
20
28.717486384248907
10
112.96821346707722
20
28.7174863842489
10
112.96821346707722
20
34.7174863842489
10
117.06821346707721
20
34.717486384248907
10
117.06821575231928
20
38.717486384248907
10
112.96821346707722
20
38.7174863842489
10
112.96821346707711
20
156.71748638424884
10
117.06828545220255
20
156.71748638424884
10
117.06828545220255
20
160.71748638424884
10
112.96821346707711
20
160.71748638424884
10
112.96821346707709
20
164.71748638424884
10
124.96821346707708
20
164.71748638424884
10
124.96821346707721
20
28.717486384248918
10
122.96821346707719
20
28.717486384248918
10
122.96821346707722
20
18.217486384248911
10
121.96821346707722
20
16.417486384248917
10
122.96821346707722
20
16.217486384248915
10
122.96821346707722
20
15.21748638424892
10
122.46821346707721
20
14.717486384248918
10
115.46821346707723
20
14.717486384248907
10
114.96821346707722
20
15.217486384248907
0
LWPOLYLINE
5
231
100
AcDbEntity
8
0
100
AcDbPolyline
90
25
70
1
43
0.0
10
155.67291400545673
20
84.817228645441418
42
-0.41421356237309503
10
154.67291400545673
20
85.817228645441418
10
154.67291400545673
20
91.819734926888117
42
1.8633249580710731
10
153.17291400545673
20
91.819734926888117
10
153.17291400545673
20
85.317228645441432
42
0.41421356237309503
10
154.17291400545673
20
84.317228645441418
10
161.56821346707747
20
84.317228645441432
10
161.56821346707744
20
78.117744123056255
10
158.86821346707748
20
78.117744123056241
10
158.86821346707745
20
79.835288584167102
42
1.1237800726980471
10
159.01821347090612
20
81.117744123056241
10
150.36821346707745
20
81.117744123056241
10
151.67291400545673
20
83.377551744191564
10
151.67291400545668
20
94.817876858988399
42
-0.12295078443325944
10
151.90763421174557
20
95.757976454730937
10
154.3037636018949
20
100.25732824118394
42
-0.27714820665910961
10
156.06904339560597
20
101.31722864544142
10
161.86821346707745
20
101.31722864544143
10
161.86821346707745
20
98.317228645441404
10
158.86821346707745
20
98.317228645441404
10
158.86821346707745
20
91.317228645441432
10
161.86821346707748
20
91.317228645441446
10
161.86821346707745
20
88.317228645441418
10
158.86821346707748
20
88.317228645441418
10
158.86821346707745
20
84.817228645441418
0
LWPOLYLINE
5
232
100
AcDbEntity
8
0
100
AcDbPolyline
90
4
70
1
43
0.0
10
203.76821346707743
20
85.517486384248755
10
203.76821346707743
20
93.917486384248747
10
191.76821346707743
20
93.917486384248747
10
191.76821346707743
20
85.517486384248755
0
LWPOLYLINE
5
233
100
AcDbEntity
8
0
100
AcDbPolyline
90
4
70
1
43
0.0
10
199.76821346707743
20
82.467486384248758
10
195.76821346707746
20
82.467486384248758
10
195.76821346707746
20
80.467486384248744
10
199.76821346707743
20
80.467486384248758
0
LWPOLYLINE
5
234
100
AcDbEntity
8
0
100
AcDbPolyline
90
4
70
1
43
0.0
10
207.01821346707743
20
91.717486384248758
10
205.01821346707743
20
91.717486384248758
10
205.01821346707746
20
87.717486384248758
10
207.01821346707743
20
87.717486384248758
0
LWPOLYLINE
5
235
100
AcDbEntity
8
0
100
AcDbPolyline
90
4
70
1
43
0.0
10
190.51821346707743
20
87.717486384248744
10
190.51821346707743
20
91.717486384248744
10
188.51821346707743
20
91.717486384248744
10
188.51821346707743
20
87.717486384248744
0
LWPOLYLINE
5
236
100
AcDbEntity
8
0
100
AcDbPolyline
90
16
70
1
43
0.0
10
191.26821346707743
20
83.21748638424873
10
187.26821346707743
20
83.21748638424873
10
187.26821346707743
20
100.21748638424874
10
191.76821346707743
20
100.21748638424874
10
191.76821346707743
20
95.217486384248815
10
195.76821346707732
20
95.217486384248744
10
195.76821346707746
20
100.21748638424874
10
199.76821346707743
20
100.21748638424874
10
199.76821346707754
20
95.217486384248758
10
203.76821346707743
20
95.217486384248829
10
203.76821346707743
20
100.21748638424874
10
208.26821346707743
20
100.21748638424876
10
208.26821346707743
20
83.217486384248772
10
204.26821346707749
20
83.217486384248772
10
204.26821346707749
20
79.217486384248758
10
191.26821346707746
20
79.217486384248758
0
LWPOLYLINE
5
237
100
AcDbEntity
8
0
100
AcDbPolyline
90
4
70
1
43
0.0
10
245.66821346707744
20
91.267522376811442
10
245.66821346707744
20
88.167450391685961
10
233.66821346707746
20
88.167450391685946
10
233.66821346707746
20
91.267522376811428
0
LWPOLYLINE
5
238
100
AcDbEntity
8
0
100
AcDbPolyline
90
4
70
1
43
0.0
10
283.06821346707773
20
91.267486384248713
10
283.06821346707773
20
88.167486384248704
10
271.06821346707773
20
88.16748638424869
10
271.06821346707773
20
91.267486384248699
0
LWPOLYLINE
5
239
100
AcDbEntity
8
0
100
AcDbPolyline
90
4
70
1
43
0.0
10
44.780510439999482
20
-56.357306561097758
10
44.780510439999475
20
-50.357306561097772
10
41.780510439999489
20
-50.357306561097801
10
41.780510439999489
20
-56.357306561097772
0
LWPOLYLINE
5
240
100
AcDbEntity
8
0
100
AcDbPolyline
90
56
70
1
43
0.0
10
36.78051043999951
20
-65.732306561097801
10
36.780510439999475
20
-45.857306561097815
10
49.780510439999475
20
-45.857306561097786
10
49.780510439999503
20
-65.732306561097772
10
52.780510439999482
20
-65.732306561097772
10
52.780510439999489
20
-69.982306561097758
10
49.78051043999951
20
-69.982306561097744
10
49.78051043999951
20
-77.732306561097758
10
52.780510439999503
20
-77.732306561097772
10
52.78051043999951
20
-81.982306561097744
10
49.780510439999532
20
-81.982306561097744
10
49.780510439999532
20
-89.732306561097744
10
52.780510439999517
20
-89.732306561097744
10
52.780510439999524
20
-93.982306561097744
10
49.780510439999539
20
-93.982306561097758
10
49.780510439999574
20
-113.7323065610977
10
52.780510439999553
20
-113.73230656109769
10
52.78051043999956
20
-117.98230656109772
10
49.780510439999574
20
-117.98230656109772
10
49.780510439999588
20
-125.73230656109769
10
52.780510439999581
20
-125.73230656109769
10
52.780510439999581
20
-129.98230656109769
10
49.780510439999588
20
-129.98230656109769
10
49.78051043999961
20
-138.85730656109769
10
47.280510439999603
20
-138.85730656109769
10
47.280510439999617
20
-141.85730656109766
10
52.780510439999595
20
-141.85730656109766
10
52.780510439999617
20
-145.85730656109766
10
49.78051043999961
20
-145.85730656109769
10
49.780510439999617
20
-149.85730656109766
10
36.780510439999631
20
-149.85730656109766
10
36.780510439999631
20
-145.85730656109769
10
33.780510439999631
20
-145.85730656109769
10
33.780510439999631
20
-141.85730656109769
10
39.280510439999624
20
-141.85730656109769
10
39.280510439999617
20
-138.85730656109769
10
36.780510439999617
20
-138.85730656109769
10
36.780510439999603
20
-129.98230656109772
10
33.78051043999961
20
-129.98230656109772
10
33.78051043999961
20
-125.73230656109772
10
36.780510439999595
20
-125.73230656109772
10
36.780510439999588
20
-117.98230656109773
10
33.780510439999588
20
-117.98230656109772
10
33.780510439999588
20
-113.73230656109772
10
36.780510439999581
20
-113.73230656109772
10
36.780510439999546
20
-93.982306561097744
10
33.780510439999553
20
-93.982306561097758
10
33.780510439999546
20
-89.732306561097772
10
36.780510439999546
20
-89.732306561097758
10
36.780510439999532
20
-81.982306561097744
10
33.780510439999539
20
-81.982306561097744
10
33.780510439999524
20
-77.732306561097772
10
36.780510439999524
20
-77.732306561097786
10
36.78051043999951
20
-69.982306561097772
10
33.780510439999517
20
-69.982306561097772
10
33.78051043999951
20
-65.732306561097786
0
LWPOLYLINE
5
241
100
AcDbEntity
8
0
100
AcDbPolyline
90
4
70
1
43
0.0
10
89.680510439999779
20
-52.794806561097722
10
89.680510439999779
20
-49.919806561097715
10
85.680510439999779
20
-49.91980656109773
10
85.680510439999779
20
-52.79480656109773
0
LWPOLYLINE
5
242
100
AcDbEntity
8
0
100
AcDbPolyline
90
4
70
1
43
0.0
10
89.680510439999779
20
-62.794806561097751
10
89.680510439999779
20
-59.919806561097744
10
85.680510439999779
20
-59.919806561097751
10
85.680510439999779
20
-62.794806561097751
0
LWPOLYLINE
5
243
100
AcDbEntity
8
0
100
AcDbPolyline
90
52
70
1
43
0.0
10
78.180510439999736
20
-45.857306561097715
10
97.180510439999779
20
-45.857306561097687
10
97.180510439999793
20
-49.857306561097715
10
94.180510439999793
20
-49.857306561097701
10
94.180510439999793
20
-56.857306561097722
10
97.180510439999807
20
-56.857306561097722
10
97.180510439999807
20
-65.85730656109773
10
94.180510439999807
20
-65.85730656109773
10
94.180510439999807
20
-69.857306561097744
10
97.180510439999807
20
-69.857306561097744
10
97.180510439999807
20
-77.857306561097758
10
94.180510439999807
20
-77.857306561097758
10
94.180510439999807
20
-81.857306561097758
10
97.180510439999807
20
-81.857306561097758
10
97.180510439999836
20
-101.85730656109781
10
94.180510439999821
20
-101.85730656109781
10
94.180510439999821
20
-105.85730656109781
10
97.18051043999985
20
-105.85730656109781
10
97.18051043999985
20
-113.85730656109784
10
94.180510439999836
20
-113.85730656109786
10
94.180510439999836
20
-117.85730656109784
10
97.18051043999985
20
-117.85730656109784
10
97.18051043999985
20
-125.85730656109787
10
94.180510439999864
20
-125.85730656109789
10
94.180510439999864
20
-129.85730656109789
10
97.180510439999864
20
-129.85730656109786
10
97.180510439999864
20
-149.85730656109794
10
78.180510439999836
20
-149.85730656109797
10
78.180510439999807
20
-129.85730656109791
10
81.180510439999821
20
-129.85730656109791
10
81.180510439999821
20
-125.8573065610979
10
78.180510439999807
20
-125.8573065610979
10
78.180510439999807
20
-117.85730656109789
10
81.180510439999807
20
-117.85730656109789
10
81.180510439999807
20
-113.85730656109789
10
78.180510439999807
20
-113.85730656109789
10
78.180510439999793
20
-105.85730656109786
10
81.180510439999807
20
-105.85730656109783
10
81.180510439999807
20
-101.85730656109783
10
78.180510439999793
20
-101.85730656109784
10
78.180510439999779
20
-81.857306561097801
10
81.180510439999779
20
-81.857306561097801
10
81.180510439999765
20
-77.857306561097786
10
78.180510439999779
20
-77.857306561097786
10
78.18051043999975
20
-69.857306561097758
10
81.180510439999765
20
-69.857306561097772
10
81.180510439999765
20
-65.857306561097758
10
78.18051043999975
20
-65.857306561097758
10
78.18051043999975
20
-56.857306561097744
10
81.18051043999975
20
-56.857306561097751
10
81.180510439999765
20
-49.85730656109773
10
78.180510439999736
20
-49.85730656109773
0
LWPOLYLINE
5
244
100
AcDbEntity
8
0
100
AcDbPolyline
90
4
70
1
43
0.0
10
133.58051044000004
20
-56.357306561097936
10
133.58051044000004
20
-50.35730656109795
10
130.58051044000004
20
-50.357306561097957
10
130.58051044000004
20
-56.357306561097928
0
LWPOLYLINE
5
245
100
AcDbEntity
8
0
100
AcDbPolyline
90
56
70
1
43
0.0
10
125.58051044000008
20
-81.982306561097928
10
122.58051044000007
20
-81.982306561097928
10
122.58051044000005
20
-77.732306561097957
10
125.58051044000008
20
-77.732306561097943
10
125.58051044000007
20
-69.982306561097943
10
122.58051044000005
20
-69.982306561097957
10
122.58051044000004
20
-65.732306561097971
10
125.58051044000004
20
-65.732306561097971
10
125.58051044000003
20
-45.857306561097971
10
138.58051044000004
20
-45.857306561097957
10
138.58051044000007
20
-65.732306561097943
10
141.58051044000007
20
-65.732306561097928
10
141.58051044000007
20
-69.982306561097914
10
138.58051044000007
20
-69.982306561097928
10
138.5805104400001
20
-77.732306561097943
10
141.58051044000007
20
-77.732306561097943
10
141.58051044000007
20
-81.982306561097928
10
138.5805104400001
20
-81.982306561097914
10
138.5805104400001
20
-89.732306561097914
10
141.5805104400001
20
-89.732306561097914
10
141.58051044000007
20
-93.982306561097914
10
138.5805104400001
20
-93.982306561097914
10
138.58051044000013
20
-113.7323065610979
10
141.58051044000013
20
-113.7323065610979
10
141.58051044000013
20
-117.98230656109791
10
138.58051044000013
20
-117.98230656109791
10
138.58051044000013
20
-125.73230656109789
10
141.58051044000013
20
-125.73230656109787
10
141.58051044000013
20
-129.98230656109791
10
138.58051044000013
20
-129.98230656109789
10
138.58051044000013
20
-138.85730656109789
10
136.08051044000013
20
-138.85730656109786
10
136.08051044000013
20
-141.85730656109786
10
141.58051044000015
20
-141.85730656109786
10
141.58051044000015
20
-145.85730656109786
10
138.58051044000015
20
-145.85730656109786
10
138.58051044000015
20
-149.85730656109786
10
125.58051044000015
20
-149.85730656109789
10
125.58051044000015
20
-145.85730656109789
10
122.58051044000014
20
-145.85730656109791
10
122.58051044000013
20
-141.85730656109789
10
128.08051044000013
20
-141.85730656109789
10
128.08051044000013
20
-138.85730656109789
10
125.58051044000015
20
-138.85730656109789
10
125.58051044000013
20
-129.98230656109791
10
122.58051044000013
20
-129.98230656109791
10
122.58051044000011
20
-125.73230656109791
10
125.58051044000013
20
-125.73230656109791
10
125.58051044000011
20
-117.98230656109793
10
122.58051044000011
20
-117.98230656109793
10
122.5805104400001
20
-113.73230656109791
10
125.5805104400001
20
-113.73230656109791
10
125.5805104400001
20
-93.982306561097943
10
122.58051044000007
20
-93.982306561097957
10
122.58051044000007
20
-89.732306561097943
10
125.58051044000008
20
-89.732306561097943
0
LWPOLYLINE
5
246
100
AcDbEntity
8
0
100
AcDbPolyline
90
60
70
1
43
0.0
10
178.48051044000061
20
-141.85730656109789
10
178.48051044000061
20
-149.85730656109786
10
174.48051044000061
20
-149.85730656109786
10
174.48051044000061
20
-141.85730656109789
10
170.48051044000061
20
-141.85730656109789
10
170.48051044000061
20
-149.85730656109789
10
166.98051044000064
20
-149.85730656109789
10
166.98051044000056
20
-129.85730656109791
10
169.98051044000056
20
-129.85730656109791
10
169.98051044000061
20
-125.85730656109791
10
166.98051044000056
20
-125.85730656109791
10
166.98051044000056
20
-117.85730656109793
10
169.98051044000056
20
-117.85730656109793
10
169.98051044000056
20
-113.85730656109794
10
166.98051044000056
20
-113.85730656109794
10
166.98051044000053
20
-105.85730656109797
10
169.98051044000053
20
-105.85730656109794
10
169.98051044000053
20
-101.85730656109796
10
166.98051044000053
20
-101.85730656109794
10
166.9805104400005
20
-81.857306561097971
10
169.9805104400005
20
-81.857306561097985
10
169.9805104400005
20
-77.857306561098
10
166.9805104400005
20
-77.857306561098
10
166.98051044000044
20
-69.857306561098
10
169.98051044000047
20
-69.857306561098
10
169.98051044000047
20
-65.857306561098014
10
166.98051044000044
20
-65.857306561098014
10
166.98051044000042
20
-56.857306561098042
10
169.98051044000044
20
-56.857306561098042
10
169.98051044000044
20
-49.857306561098049
10
166.98051044000042
20
-49.857306561098049
10
166.98051044000044
20
-45.857306561098063
10
185.98051044000042
20
-45.857306561098035
10
185.98051044000042
20
-49.857306561098042
10
182.98051044000044
20
-49.857306561098028
10
182.98051044000039
20
-56.857306561098014
10
185.98051044000044
20
-56.857306561098014
10
185.98051044000044
20
-65.857306561098
10
182.98051044000044
20
-65.857306561098
10
182.98051044000044
20
-69.857306561097985
10
185.98051044000044
20
-69.857306561097985
10
185.98051044000047
20
-77.857306561097971
10
182.98051044000047
20
-77.857306561097971
10
182.98051044000047
20
-81.857306561097971
10
185.98051044000047
20
-81.857306561097971
10
185.9805104400005
20
-101.85730656109794
10
182.9805104400005
20
-101.85730656109791
10
182.9805104400005
20
-105.85730656109791
10
185.9805104400005
20
-105.8573065610979
10
185.98051044000056
20
-113.85730656109791
10
182.98051044000056
20
-113.85730656109791
10
182.98051044000056
20
-117.8573065610979
10
185.98051044000056
20
-117.8573065610979
10
185.98051044000056
20
-125.85730656109789
10
182.98051044000059
20
-125.85730656109789
10
182.98051044000056
20
-129.85730656109789
10
185.98051044000056
20
-129.85730656109789
10
185.98051044000059
20
-149.85730656109786
10
182.48051044000056
20
-149.85730656109786
10
182.48051044000056
20
-141.85730656109789
0
LWPOLYLINE
5
247
100
AcDbEntity
8
0
100
AcDbPolyline
90
12
70
1
43
0.0
10
228.63051044000071
20
-98.495006471271722
10
228.63051044000071
20
-93.978073257706782
10
215.63051044000071
20
-93.978073257706797
10
215.63051044000071
20
-98.495006471271751
10
212.63051044000068
20
-98.495006471271751
10
212.63051044000068
20
-102.98653986448927
10
211.38051044000068
20
-101.72807325770682
10
211.38051044000068
20
-92.728073257706825
10
232.88051044000071
20
-92.728073257706782
10
232.88051044000071
20
-101.73653986448926
10
231.63051044000071
20
-102.98653986448926
10
231.63051044000071
20
-98.495006471271722
0
LWPOLYLINE
5
248
100
AcDbEntity
8
0
100
AcDbPolyline
90
12
70
1
43
0.0
10
275.5305104400008
20
-102.85730656109806
10
275.5305104400008
20
-97.357306561098071
10
278.5305104400008
20
-97.357306561098071
10
278.5305104400008
20
-92.865773167880548
10
279.7805104400008
20
-91.615773167880548
10
279.7805104400008
20
-104.10730656109806
10
258.28051044000074
20
-104.10730656109808
10
258.28051044000074
20
-91.607306561098113
10
259.53051044000074
20
-92.865773167880576
10
259.53051044000074
20
-97.357306561098085
10
262.53051044000074
20
-97.357306561098099
10
262.53051044000074
20
-102.85730656109808
0
LINE
5
249
100
AcDbEntity
8
0
100
AcDbLine
10
83.53061222205443
20
19.542189664596098
30
0
11
82.530612222067873
21
19.342189664528089
31
0
0
LINE
5
250
100
AcDbEntity
8
0
100
AcDbLine
10
82.530612222067873
20
19.342189664528089
30
0
11
82.530612222135886
21
18.342189664528089
31
0
0
LINE
5
251
100
AcDbEntity
8
0
100
AcDbLine
10
82.530612222135886
20
18.342189664528089
30
0
11
83.030612222169964
21
17.842189664562099
31
0
0
LINE
5
252
100
AcDbEntity
8
0
100
AcDbLine
10
83.030612222169964
20
17.842189664562099
30
0
11
90.030612222171143
21
17.842189665038173
31
0
0
LINE
5
253
100
AcDbEntity
8
0
100
AcDbLine
10
90.030612222171143
20
17.842189665038173
30
0
11
90.530612222137208
21
18.342189665072176
31
0
0
LINE
5
254
100
AcDbEntity
8
0
100
AcDbLine
10
90.530612222137208
20
18.342189665072176
30
0
11
90.530612222069209
21
19.342189665072166
31
0
0
LINE
5
255
100
AcDbEntity
8
0
100
AcDbLine
10
90.530612222069209
20
19.342189665072166
30
0
11
89.530612222055424
21
19.542189665004159
31
0
0
LINE
5
256
100
AcDbEntity
8
0
100
AcDbLine
10
89.530612222055424
20
19.542189665004159
30
0
11
90.530612221933197
21
21.342189665072159
31
0
0
LINE
5
257
100
AcDbEntity
8
0
100
AcDbLine
10
90.530612221933197
20
21.342189665072159
30
0
11
90.530612221219087
21
31.842189665072127
31
0
0
LINE
5
258
100
AcDbEntity
8
0
100
AcDbLine
10
82.530612221217737
20
31.84218966452805
30
0
11
82.530612221931847
21
21.342189664528082
31
0
0
LINE
5
259
100
AcDbEntity
8
0
100
AcDbLine
10
82.530612221931847
20
21.342189664528082
30
0
11
83.53061222205443
21
19.542189664596098
31
0
0
ENDSEC
0
SECTION
2
OBJECTS
0
DICTIONARY
5
C
100
AcDbDictionary
3
ACAD_GROUP
350
D
3
ACAD_MLINESTYLE
350
17
0
DICTIONARY
5
D
100
AcDbDictionary
0
DICTIONARY
5
1A
330
C
100
AcDbDictionary
0
DICTIONARY
5
17
100
AcDbDictionary
0
ENDSEC
0
EOF
