0
SECTION
2
HEADER
9
$INSUNITS
70
4
9
$ACADVER
1
AC1014
9
$HANDSEED
5
FFFF
0
ENDSEC
0
SECTION
2
TABLES
0
TABLE
2
VPORT
5
8
100
AcDbSymbolTable
0
ENDTAB
0
TABLE
2
LTYPE
5
5
100
AcDbSymbolTable
0
LTYPE
5
14
100
AcDbSymbolTableRecord
100
AcDbLinetypeTableRecord
2
BYBLOCK
70
0
0
LTYPE
5
15
100
AcDbSymbolTableRecord
100
AcDbLinetypeTableRecord
2
BYLAYER
70
0
0
ENDTAB
0
TABLE
2
LAYER
5
2
100
AcDbSymbolTable
70
2
0
LAYER
5
50
100
AcDbSymbolTableRecord
100
AcDbLayerTableRecord
2
0
70
0
6
CONTINUOUS
0
ENDTAB
0
TABLE
2
STYLE
5
3
100
AcDbSymbolTable
70
1
0
STYLE
5
11
100
AcDbSymbolTableRecord
100
AcDbTextStyleTableRecord
2
STANDARD
70
0
0
ENDTAB
0
TABLE
2
VIEW
5
6
100
AcDbSymbolTable
70
0
0
ENDTAB
0
TABLE
2
UCS
5
7
100
AcDbSymbolTable
70
0
0
ENDTAB
0
TABLE
2
APPID
5
9
100
AcDbSymbolTable
70
2
0
APPID
5
12
100
AcDbSymbolTableRecord
100
AcDbRegAppTableRecord
2
ACAD
70
0
0
ENDTAB
0
TABLE
2
DIMSTYLE
5
A
100
AcDbSymbolTable
70
1
0
ENDTAB
0
TABLE
2
BLOCK_RECORD
5
1
100
AcDbSymbolTable
70
1
0
BLOCK_RECORD
5
1F
100
AcDbSymbolTableRecord
100
AcDbBlockTableRecord
2
*MODEL_SPACE
0
BLOCK_RECORD
5
1B
100
AcDbSymbolTableRecord
100
AcDbBlockTableRecord
2
*PAPER_SPACE
0
ENDTAB
0
ENDSEC
0
SECTION
2
BLOCKS
0
BLOCK
5
20
100
AcDbEntity
100
AcDbBlockBegin
2
*MODEL_SPACE
0
ENDBLK
5
21
100
AcDbEntity
100
AcDbBlockEnd
0
BLOCK
5
1C
100
AcDbEntity
100
AcDbBlockBegin
2
*PAPER_SPACE
0
ENDBLK
5
1D
100
AcDbEntity
100
AcDbBlockEnd
0
ENDSEC
0
SECTION
2
ENTITIES
0
LWPOLYLINE
5
100
100
AcDbEntity
8
0
100
AcDbPolyline
90
4
70
1
43
0.0
10
37.361020240580615
20
206.17815340987011
10
37.361020240580615
20
209.17815340987011
10
33.361020240580615
20
209.17815340987011
10
33.361020240580615
20
206.17815340987011
0
LWPOLYLINE
5
101
100
AcDbEntity
8
0
100
AcDbPolyline
90
52
70
1
43
0.0
10
25.861020240580611
20
213.17815340987011
10
44.861020240580615
20
213.17815340987011
10
44.861020240580615
20
209.17815340987011
10
41.861020240580622
20
209.17815340987011
10
41.861020240580615
20
202.17815340987013
10
44.861020240580615
20
202.17815340987013
10
44.861020240580615
20
193.17815340987016
10
41.861020240580615
20
193.17815340987016
10
41.861020240580615
20
189.17815340987019
10
44.861020240580615
20
189.17815340987019
10
44.861020240580615
20
181.17815340987022
10
41.861020240580615
20
181.17815340987022
10
41.861020240580615
20
177.17815340987022
10
44.861020240580615
20
177.17815340987022
10
44.861020240580615
20
157.1781534098703
10
41.861020240580615
20
157.17815340987033
10
41.861020240580615
20
153.17815340987033
10
44.861020240580615
20
153.17815340987033
10
44.861020240580615
20
145.17815340987036
10
41.861020240580615
20
145.17815340987033
10
41.861020240580615
20
141.17815340987039
10
44.861020240580615
20
141.17815340987039
10
44.861020240580615
20
133.17815340987042
10
41.861020240580615
20
133.17815340987042
10
41.861020240580615
20
129.17815340987042
10
44.861020240580615
20
129.17815340987042
10
44.861020240580615
20
109.17815340987049
10
25.861020240580615
20
109.17815340987049
10
25.861020240580615
20
129.17815340987042
10
28.861020240580615
20
129.17815340987042
10
28.861020240580615
20
133.17815340987042
10
25.861020240580615
20
133.17815340987042
10
25.861020240580615
20
141.17815340987039
10
28.861020240580615
20
141.17815340987039
10
28.861020240580615
20
145.17815340987033
10
25.861020240580615
20
145.17815340987033
10
25.861020240580615
20
153.17815340987033
10
28.861020240580615
20
153.17815340987033
10
28.861020240580615
20
157.1781534098703
10
25.861020240580615
20
157.1781534098703
10
25.861020240580615
20
177.17815340987022
10
28.861020240580615
20
177.17815340987022
10
28.861020240580615
20
181.17815340987022
10
25.861020240580615
20
181.17815340987022
10
25.861020240580615
20
189.17815340987019
10
28.861020240580615
20
189.17815340987019
10
28.861020240580615
20
193.17815340987016
10
25.861020240580615
20
193.17815340987022
10
25.861020240580615
20
202.17815340987016
10
28.861020240580615
20
202.17815340987016
10
28.861020240580615
20
209.17815340987011
10
25.861020240580615
20
209.17815340987011
0
LWPOLYLINE
5
102
100
AcDbEntity
8
0
100
AcDbPolyline
90
4
70
1
43
0.0
10
76.427328969526926
20
204.54394469311356
10
76.427328969526926
20
210.54394469311353
10
73.427328969526911
20
210.5439446931135
10
73.427328969526911
20
204.54394469311353
0
LWPOLYLINE
5
103
100
AcDbEntity
8
0
100
AcDbPolyline
90
56
70
1
43
0.0
10
68.427328969526897
20
178.91894469311367
10
65.427328969526883
20
178.91894469311367
10
65.427328969526883
20
183.16894469311362
10
68.427328969526897
20
183.16894469311362
10
68.427328969526897
20
190.91894469311359
10
65.427328969526883
20
190.91894469311359
10
65.427328969526883
20
195.16894469311356
10
68.427328969526897
20
195.16894469311356
10
68.427328969526883
20
215.0439446931135
10
81.42732896952694
20
215.0439446931135
10
81.427328969526954
20
195.16894469311356
10
84.42732896952694
20
195.16894469311356
10
84.42732896952694
20
190.91894469311359
10
81.427328969526954
20
190.91894469311359
10
81.427328969526954
20
183.16894469311362
10
84.42732896952694
20
183.16894469311362
10
84.427328969526968
20
178.91894469311364
10
81.427328969526954
20
178.91894469311364
10
81.42732896952694
20
171.16894469311364
10
84.42732896952694
20
171.1689446931137
10
84.427328969526968
20
166.91894469311367
10
81.427328969526954
20
166.91894469311364
10
81.427328969526954
20
147.16894469311373
10
84.427328969526968
20
147.16894469311376
10
84.427328969526968
20
142.91894469311376
10
81.427328969526954
20
142.91894469311376
10
81.427328969526954
20
135.16894469311379
10
84.427328969526968
20
135.16894469311379
10
84.427328969526968
20
130.91894469311381
10
81.427328969526954
20
130.91894469311381
10
81.427328969526968
20
122.04394469311384
10
78.927328969526954
20
122.04394469311384
10
78.927328969526968
20
119.04394469311386
10
84.427328969526982
20
119.04394469311386
10
84.427328969526982
20
115.04394469311387
10
81.427328969526968
20
115.04394469311387
10
81.427328969526968
20
111.04394469311389
10
68.42732896952694
20
111.04394469311389
10
68.427328969526926
20
115.04394469311387
10
65.427328969526911
20
115.04394469311387
10
65.427328969526911
20
119.04394469311386
10
70.92732896952694
20
119.04394469311386
10
70.92732896952694
20
122.04394469311384
10
68.427328969526926
20
122.04394469311384
10
68.427328969526911
20
130.91894469311381
10
65.427328969526911
20
130.91894469311379
10
65.427328969526911
20
135.16894469311379
10
68.427328969526911
20
135.16894469311379
10
68.427328969526911
20
142.91894469311376
10
65.427328969526911
20
142.91894469311376
10
65.427328969526911
20
147.16894469311373
10
68.427328969526911
20
147.16894469311376
10
68.427328969526911
20
166.91894469311367
10
65.427328969526897
20
166.91894469311364
10
65.427328969526897
20
171.16894469311364
10
68.427328969526911
20
171.1689446931137
0
LWPOLYLINE
5
104
100
AcDbEntity
8
0
100
AcDbPolyline
90
60
70
1
43
0.0
10
121.32732896952696
20
119.04394469311369
10
121.32732896952695
20
111.04394469311372
10
117.32732896952695
20
111.04394469311373
10
117.32732896952696
20
119.0439446931137
10
113.32732896952699
20
119.04394469311369
10
113.32732896952697
20
111.04394469311372
10
109.82732896952697
20
111.04394469311372
10
109.82732896952699
20
131.04394469311364
10
112.827328969527
20
131.04394469311364
10
112.827328969527
20
135.04394469311362
10
109.82732896952699
20
135.04394469311364
10
109.827328969527
20
143.04394469311362
10
112.82732896952702
20
143.04394469311362
10
112.82732896952702
20
147.04394469311359
10
109.827328969527
20
147.04394469311359
10
109.82732896952703
20
155.04394469311359
10
112.82732896952703
20
155.04394469311359
10
112.82732896952703
20
159.04394469311356
10
109.82732896952704
20
159.04394469311356
10
109.82732896952706
20
179.04394469311347
10
112.82732896952706
20
179.04394469311347
10
112.82732896952706
20
183.04394469311347
10
109.82732896952706
20
183.04394469311347
10
109.82732896952709
20
191.04394469311345
10
112.82732896952707
20
191.04394469311345
10
112.82732896952707
20
195.04394469311342
10
109.82732896952709
20
195.04394469311342
10
109.8273289695271
20
204.04394469311339
10
112.82732896952707
20
204.04394469311339
10
112.82732896952709
20
211.04394469311336
10
109.82732896952712
20
211.04394469311336
10
109.8273289695271
20
215.04394469311336
10
128.82732896952706
20
215.04394469311336
10
128.82732896952706
20
211.04394469311336
10
125.82732896952706
20
211.04394469311336
10
125.82732896952704
20
204.04394469311339
10
128.82732896952706
20
204.04394469311339
10
128.82732896952703
20
195.04394469311342
10
125.82732896952703
20
195.04394469311342
10
125.82732896952704
20
191.04394469311345
10
128.82732896952703
20
191.04394469311345
10
128.827328969527
20
183.04394469311347
10
125.82732896952703
20
183.04394469311347
10
125.82732896952703
20
179.04394469311347
10
128.827328969527
20
179.04394469311347
10
128.82732896952697
20
159.04394469311356
10
125.82732896952699
20
159.04394469311356
10
125.82732896952699
20
155.04394469311359
10
128.82732896952697
20
155.04394469311359
10
128.82732896952695
20
147.04394469311359
10
125.82732896952697
20
147.04394469311359
10
125.82732896952697
20
143.04394469311362
10
128.82732896952695
20
143.04394469311359
10
128.82732896952695
20
135.04394469311362
10
125.82732896952695
20
135.04394469311362
10
125.82732896952695
20
131.04394469311364
10
128.82732896952695
20
131.04394469311364
10
128.82732896952692
20
111.04394469311372
10
125.32732896952692
20
111.04394469311373
10
125.32732896952693
20
119.0439446931137
0
LWPOLYLINE
5
105
100
AcDbEntity
8
0
100
AcDbPolyline
90
4
70
1
43
0.0
10
165.22732896952701
20
204.5439446931135
10
165.22732896952701
20
210.54394469311347
10
162.22732896952704
20
210.54394469311345
10
162.22732896952706
20
204.54394469311347
0
LWPOLYLINE
5
106
100
AcDbEntity
8
0
100
AcDbPolyline
90
56
70
1
43
0.0
10
157.22732896952712
20
195.1689446931135
10
157.22732896952715
20
215.04394469311342
10
170.22732896952689
20
215.04394469311342
10
170.22732896952689
20
195.1689446931135
10
173.22732896952684
20
195.1689446931135
10
173.22732896952684
20
190.91894469311353
10
170.22732896952689
20
190.91894469311353
10
170.22732896952687
20
183.16894469311353
10
173.22732896952681
20
183.16894469311353
10
173.22732896952681
20
178.91894469311356
10
170.22732896952687
20
178.91894469311356
10
170.22732896952687
20
171.16894469311359
10
173.22732896952681
20
171.16894469311362
10
173.22732896952681
20
166.91894469311362
10
170.22732896952687
20
166.91894469311362
10
170.22732896952687
20
147.16894469311367
10
173.22732896952681
20
147.16894469311367
10
173.22732896952681
20
142.9189446931137
10
170.22732896952681
20
142.9189446931137
10
170.22732896952681
20
135.16894469311373
10
173.22732896952675
20
135.16894469311373
10
173.22732896952675
20
130.91894469311373
10
170.22732896952681
20
130.91894469311373
10
170.22732896952681
20
122.0439446931138
10
167.72732896952687
20
122.0439446931138
10
167.72732896952687
20
119.04394469311381
10
173.22732896952675
20
119.04394469311381
10
173.22732896952675
20
115.04394469311381
10
170.22732896952681
20
115.04394469311381
10
170.22732896952681
20
111.04394469311384
10
157.22732896952706
20
111.04394469311384
10
157.22732896952706
20
115.04394469311381
10
154.22732896952712
20
115.04394469311381
10
154.22732896952712
20
119.04394469311381
10
159.72732896952704
20
119.04394469311381
10
159.72732896952704
20
122.0439446931138
10
157.22732896952709
20
122.0439446931138
10
157.22732896952709
20
130.91894469311376
10
154.22732896952715
20
130.91894469311373
10
154.22732896952715
20
135.16894469311373
10
157.22732896952709
20
135.16894469311373
10
157.22732896952709
20
142.9189446931137
10
154.22732896952715
20
142.9189446931137
10
154.22732896952715
20
147.16894469311367
10
157.22732896952709
20
147.16894469311367
10
157.22732896952709
20
166.91894469311362
10
154.22732896952715
20
166.91894469311362
10
154.22732896952715
20
171.16894469311359
10
157.22732896952712
20
171.16894469311362
10
157.22732896952712
20
178.91894469311359
10
154.22732896952718
20
178.91894469311356
10
154.22732896952718
20
183.16894469311353
10
157.22732896952712
20
183.16894469311353
10
157.22732896952712
20
190.91894469311353
10
154.22732896952718
20
190.91894469311353
10
154.22732896952721
20
195.1689446931135
0
LWPOLYLINE
5
107
100
AcDbEntity
8
0
100
AcDbPolyline
90
12
70
1
43
0.0
10
215.87732896952696
20
161.42317799650488
10
215.87732896952696
20
166.92317799650488
10
202.87732896952693
20
166.92317799650488
10
202.87732896952696
20
161.42317799650488
10
199.87732896952696
20
161.42317799650488
10
199.87732896952696
20
157.91471138972244
10
198.62732896952696
20
159.1731779965049
10
198.62732896952696
20
168.17317799650488
10
220.12732896952696
20
168.17317799650488
10
220.12732896952696
20
159.16471138972241
10
218.87732896952696
20
157.91471138972241
10
218.87732896952696
20
161.42317799650488
0
LWPOLYLINE
5
108
100
AcDbEntity
8
0
100
AcDbPolyline
90
12
70
1
43
0.0
10
262.77732896952693
20
158.04394469311364
10
262.77732896952693
20
163.54394469311362
10
265.77732896952693
20
163.54394469311362
10
265.77732896952693
20
168.03547808633112
10
267.02732896952693
20
169.28547808633112
10
267.02732896952693
20
156.79394469311364
10
245.52732896952702
20
156.79394469311364
10
245.52732896952702
20
169.29394469311362
10
246.77732896952702
20
168.03547808633112
10
246.77732896952702
20
163.54394469311362
10
249.77732896952699
20
163.54394469311362
10
249.77732896952699
20
158.04394469311364
0
LWPOLYLINE
5
109
100
AcDbEntity
8
0
100
AcDbPolyline
90
4
70
1
43
0.0
10
42.1889596208336
20
-162.69518624307881
10
42.188959620833593
20
-154.29518624307883
10
30.188959620833657
20
-154.29518624307883
10
30.188959620833664
20
-162.69518624307881
0
LWPOLYLINE
5
110
100
AcDbEntity
8
0
100
AcDbPolyline
90
4
70
1
43
0.0
10
34.188959620833643
20
-165.74518624307882
10
34.188959620833643
20
-167.74518624307882
10
38.188959620833629
20
-167.74518624307882
10
38.188959620833621
20
-165.74518624307882
0
LWPOLYLINE
5
111
100
AcDbEntity
8
0
100
AcDbPolyline
90
4
70
1
43
0.0
10
45.438959620833586
20
-156.49518624307882
10
43.438959620833593
20
-156.49518624307882
10
43.438959620833593
20
-160.49518624307882
10
45.438959620833586
20
-160.49518624307882
0
LWPOLYLINE
5
112
100
AcDbEntity
8
0
100
AcDbPolyline
90
4
70
1
43
0.0
10
28.938959620833668
20
-160.49518624307882
10
28.938959620833664
20
-156.49518624307882
10
26.938959620833675
20
-156.49518624307885
10
26.938959620833678
20
-160.49518624307882
0
LWPOLYLINE
5
113
100
AcDbEntity
8
0
100
AcDbPolyline
90
16
70
1
43
0.0
10
29.688959620833657
20
-164.99518624307879
10
25.688959620833678
20
-164.99518624307879
10
25.688959620833678
20
-147.99518624307885
10
30.18895962083365
20
-147.99518624307885
10
30.188959620833657
20
-152.49510905268045
10
34.188959620833636
20
-152.49510905268045
10
34.188959620833629
20
-147.99518624307885
10
38.188959620833629
20
-147.99518624307885
10
38.188959620833629
20
-152.49510905268045
10
42.1889596208336
20
-152.49510905268045
10
42.188959620833614
20
-147.99518624307885
10
46.688959620833579
20
-147.99518624307885
10
46.688959620833586
20
-164.99518624307882
10
42.688959620833614
20
-164.99518624307882
10
42.688959620833614
20
-168.99518624307882
10
29.688959620833661
20
-168.99518624307876
0
LWPOLYLINE
5
114
100
AcDbEntity
8
0
100
AcDbPolyline
90
24
70
1
43
0.0
10
69.427406159923848
20
-236.83203122820964
10
70.427406159923848
20
-236.63203122820963
10
69.427406159923834
20
-234.83203122820964
10
69.427406159923848
20
-224.33203122820964
10
67.427328969525448
20
-224.33203122820959
10
67.427328969525448
20
-218.33203122820962
10
73.427328969525448
20
-218.33203122820962
10
73.427331254767523
20
-214.33203122820964
10
67.427328969525448
20
-214.33203122820964
10
67.427328969525448
20
-96.332031228209672
10
73.427406159923848
20
-96.332031228209672
10
73.427406159923848
20
-92.332031228209672
10
67.427328969525448
20
-92.332031228209672
10
67.427328969525448
20
-88.332031228209672
10
79.427328969525462
20
-88.332031228209672
10
79.427328969525462
20
-224.33203122820964
10
77.427406159923848
20
-224.33203122820964
10
77.427406159923834
20
-234.83203122820964
10
76.427406159923834
20
-236.63203122820963
10
77.427406159923848
20
-236.83203122820964
10
77.427406159923834
20
-237.83203122820962
10
76.927406159923848
20
-238.33203122820962
10
69.927406159923834
20
-238.33203122820964
10
69.427406159923834
20
-237.83203122820964
0
LWPOLYLINE
5
115
100
AcDbEntity
8
0
100
AcDbPolyline
90
24
70
1
43
0.0
10
106.82740615992392
20
-236.83203122820964
10
107.82740615992392
20
-236.63203122820963
10
106.82740615992392
20
-234.83203122820964
10
106.8274061599239
20
-224.33203122820964
10
104.82732896952552
20
-224.33203122820964
10
104.82732896952552
20
-218.33203122820962
10
110.82732896952552
20
-218.33203122820962
10
110.82733125476759
20
-214.33203122820964
10
104.82732896952552
20
-214.33203122820964
10
104.82732896952552
20
-96.332031228209672
10
110.82740615992392
20
-96.332031228209672
10
110.82740615992392
20
-92.332031228209672
10
104.82732896952552
20
-92.332031228209672
10
104.82732896952552
20
-88.332031228209672
10
116.82732896952555
20
-88.332031228209672
10
116.82732896952555
20
-224.33203122820964
10
114.82740615992392
20
-224.33203122820964
10
114.82740615992392
20
-234.83203122820964
10
113.82740615992392
20
-236.63203122820963
10
114.82740615992392
20
-236.83203122820964
10
114.82740615992395
20
-237.83203122820962
10
114.32740615992392
20
-238.33203122820962
10
107.32740615992392
20
-238.33203122820964
10
106.82740615992392
20
-237.83203122820964
0
LWPOLYLINE
5
116
100
AcDbEntity
8
0
100
AcDbPolyline
90
140
70
1
43
0.0
10
144.22740615992385
20
-236.83203122820964
10
145.22740615992385
20
-236.63203122820963
10
144.22740615992385
20
-234.83203122820964
10
144.22740615992385
20
-224.33203122820964
10
142.22732896952547
20
-224.33203122820964
10
142.22732896952547
20
-218.33203122820962
10
148.22732896952547
20
-218.33203122820962
10
148.22733125476753
20
-214.33203122820964
10
142.22732896952547
20
-214.33203122820964
10
142.22732896952547
20
-96.332031228209672
10
148.22740615992385
20
-96.332031228209672
10
148.22740615992385
20
-92.332031228209672
10
142.22732896952547
20
-92.332031228209672
10
142.22732896952547
20
-88.332031228209672
10
154.22732896952544
20
-88.332031228209672
10
154.22732896952547
20
-100.33203122820966
10
146.22732896952547
20
-100.33203122820966
10
146.22732896952547
20
-102.33203122820966
10
147.38202950790472
20
-102.33203122820966
10
146.22732896952547
20
-104.33203122820964
10
147.38202950790472
20
-104.33203122820964
10
146.22732896952547
20
-106.33203122820964
10
147.38202950790472
20
-106.33203122820964
10
146.22732896952547
20
-108.33203122820963
10
147.38202950790472
20
-108.33203122820963
10
146.22732896952547
20
-110.33203122820963
10
147.38202950790472
20
-110.33203122820963
10
146.22732896952547
20
-112.33203122820966
10
147.38202950790472
20
-112.33203122820966
10
146.22732896952547
20
-114.33203122820964
10
147.38202950790472
20
-114.33203122820964
10
146.22732896952547
20
-116.33203122820964
10
147.38202950790472
20
-116.33203122820964
10
146.22732896952547
20
-118.33203122820963
10
147.38202950790469
20
-118.33203122820963
10
146.22732896952547
20
-120.33203122820963
10
147.38202950790469
20
-120.33203122820963
10
146.22732896952547
20
-122.33203122820966
10
147.38202950790469
20
-122.33203122820966
10
146.22732896952547
20
-124.33203122820964
10
147.38202950790469
20
-124.33203122820964
10
146.22732896952547
20
-126.33203122820964
10
147.38202950790469
20
-126.33203122820964
10
146.22732896952547
20
-128.33203122820964
10
147.38202950790469
20
-128.33203122820964
10
146.22732896952547
20
-130.33203122820962
10
147.38202950790469
20
-130.33203122820962
10
146.22732896952547
20
-132.33203122820964
10
147.38202950790469
20
-132.33203122820964
10
146.22732896952547
20
-134.33203122820964
10
147.38202950790469
20
-134.33203122820964
10
146.22732896952547
20
-136.33203122820964
10
147.38202950790469
20
-136.33203122820964
10
146.22732896952547
20
-138.33203122820964
10
147.38202950790469
20
-138.33203122820964
10
146.22732896952547
20
-140.33203122820964
10
147.38202950790469
20
-140.33203122820964
10
146.22732896952547
20
-142.33203122820964
10
147.38202950790469
20
-142.33203122820964
10
146.22732896952547
20
-144.33203122820964
10
147.38202950790469
20
-144.33203122820964
10
146.22732896952547
20
-146.33203122820962
10
147.38202950790469
20
-146.33203122820964
10
146.22732896952547
20
-148.33203122820964
10
147.38202950790469
20
-148.33203122820964
10
146.22732896952547
20
-150.33203122820964
10
147.38202950790469
20
-150.33203122820964
10
146.22732896952547
20
-152.33203122820964
10
147.38202950790469
20
-152.33203122820964
10
146.22732896952547
20
-154.33203122820964
10
147.38202950790469
20
-154.33203122820964
10
146.22732896952547
20
-156.33203122820962
10
147.38202950790469
20
-156.33203122820964
10
146.22732896952547
20
-158.33203122820964
10
147.38202950790469
20
-158.33203122820964
10
146.22732896952547
20
-160.33203122820964
10
147.38202950790469
20
-160.33203122820964
10
146.22732896952547
20
-162.33203122820964
10
147.38202950790469
20
-162.33203122820964
10
146.22732896952547
20
-164.33203122820964
10
147.38202950790469
20
-164.33203122820964
10
146.22732896952547
20
-166.33203122820962
10
147.38202950790469
20
-166.33203122820962
10
146.22732896952547
20
-168.33203122820962
10
147.38202950790469
20
-168.33203122820964
10
146.22732896952547
20
-170.33203122820964
10
147.38202950790469
20
-170.33203122820964
10
146.22732896952547
20
-172.33203122820964
10
147.38202950790469
20
-172.33203122820964
10
146.22732896952547
20
-174.33203122820964
10
147.38202950790469
20
-174.33203122820964
10
146.22732896952547
20
-176.33203122820962
10
147.38202950790469
20
-176.33203122820962
10
146.22732896952547
20
-178.33203122820962
10
147.38202950790469
20
-178.33203122820964
10
146.22732896952547
20
-180.33203122820964
10
147.38202950790469
20
-180.33203122820964
10
146.22732896952547
20
-182.33203122820964
10
147.38202950790469
20
-182.33203122820964
10
146.22732896952547
20
-184.33203122820964
10
147.38202950790469
20
-184.33203122820964
10
146.22732896952547
20
-186.33203122820962
10
147.38202950790469
20
-186.33203122820962
10
146.22732896952547
20
-188.33203122820962
10
147.38202950790469
20
-188.33203122820964
10
146.22732896952547
20
-190.33203122820964
10
147.38202950790469
20
-190.33203122820964
10
146.22732896952547
20
-192.33203122820964
10
147.38202950790469
20
-192.33203122820964
10
146.22732896952547
20
-194.33203122820964
10
147.38202950790469
20
-194.33203122820964
10
146.22732896952547
20
-196.33203122820962
10
147.38202950790469
20
-196.33203122820962
10
146.22732896952547
20
-198.33203122820962
10
147.38202950790469
20
-198.33203122820964
10
146.22732896952547
20
-200.33203122820964
10
147.38202950790469
20
-200.33203122820964
10
146.22732896952547
20
-202.33203122820964
10
147.38202950790469
20
-202.33203122820964
10
146.22732896952547
20
-204.33203122820964
10
147.38202950790469
20
-204.33203122820964
10
146.22732896952547
20
-206.33203122820962
10
147.38202950790469
20
-206.33203122820962
10
146.22732896952547
20
-208.33203122820962
10
147.38202950790469
20
-208.33203122820964
10
146.22732896952544
20
-210.33203122820964
10
148.72732888756906
20
-210.33203122820962
10
148.89606138270952
20
-210.03977797373852
10
150.9212540328171
20
-210.0397779737385
10
152.7273289471737
20
-212.33203104939571
10
154.22732896952544
20
-212.33203122820964
10
154.22732896952544
20
-224.33203122820964
10
152.22740615992385
20
-224.33203122820964
10
152.22740615992385
20
-234.83203122820964
10
151.22740615992385
20
-236.63203122820963
10
152.22740615992385
20
-236.83203122820964
10
152.22740615992387
20
-237.83203122820962
10
151.72740615992385
20
-238.33203122820962
10
144.72740615992387
20
-238.33203122820964
10
144.22740615992385
20
-237.83203122820964
0
LWPOLYLINE
5
117
100
AcDbEntity
8
0
100
AcDbPolyline
90
23
70
1
43
0.0
10
184.78202950790487
20
-167.23228896701704
42
-0.41421356237307422
10
183.78202950790484
20
-166.23228896701704
10
183.78202950790481
20
-160.22978268557037
42
1.8633249580711218
10
182.28202950790484
20
-160.22978268557037
10
182.28202950790484
20
-166.73228896701704
42
0.4142135623730846
10
183.28202950790481
20
-167.73228896701707
10
190.82732896952564
20
-167.73228896701707
10
190.82732896952558
20
-173.93177348940225
10
188.12732896952559
20
-173.93177348940219
10
188.12732896952559
20
-172.21422902829141
42
1.1237800726980836
10
188.27732897335423
20
-170.93177348940225
10
179.62732896952559
20
-170.93177348940225
10
180.78202950790481
20
-168.93177348940225
10
180.78202950790478
20
-156.91381258884866
42
-0.17590670570358979
10
180.89848375485718
20
-156.59304373855437
10
183.97743350237158
20
-152.91152011672278
42
-0.22212236723872258
10
184.36097925541918
20
-152.73228896701707
10
188.12732896952559
20
-152.73228896701707
10
188.12732896952559
20
-160.73228896701707
10
191.12732896952562
20
-160.73228896701704
10
191.12732896952562
20
-163.73228896701704
10
188.12732896952559
20
-163.73228896701707
10
188.12732896952559
20
-167.23228896701704
0
LWPOLYLINE
5
118
100
AcDbEntity
8
0
100
AcDbPolyline
90
4
70
1
43
0.0
10
228.5273289695256
20
-160.83203122820962
10
228.5273289695256
20
-165.83203122820962
10
216.52732896952563
20
-165.83203122820962
10
216.52732896952563
20
-160.83203122820962
0
LWPOLYLINE
5
119
100
AcDbEntity
8
0
100
AcDbPolyline
90
4
70
1
43
0.0
10
265.92732896952549
20
-160.83199263301054
10
265.92732896952549
20
-165.83206982340886
10
253.9273289695256
20
-165.83206982340883
10
253.9273289695256
20
-160.83199263301051
0
ENDSEC
0
SECTION
2
OBJECTS
0
DICTIONARY
5
C
100
AcDbDictionary
3
ACAD_GROUP
350
D
3
ACAD_MLINESTYLE
350
17
0
DICTIONARY
5
D
100
AcDbDictionary
0
DICTIONARY
5
1A
330
C
100
AcDbDictionary
0
DICTIONARY
5
17
100
AcDbDictionary
0
ENDSEC
0
EOF
