0
SECTION
2
HEADER
9
$INSUNITS
70
4
9
$ACADVER
1
AC1014
9
$HANDSEED
5
FFFF
0
ENDSEC
0
SECTION
2
TABLES
0
TABLE
2
VPORT
5
8
100
AcDbSymbolTable
0
ENDTAB
0
TABLE
2
LTYPE
5
5
100
AcDbSymbolTable
0
LTYPE
5
14
100
AcDbSymbolTableRecord
100
AcDbLinetypeTableRecord
2
BYBLOCK
70
0
0
LTYPE
5
15
100
AcDbSymbolTableRecord
100
AcDbLinetypeTableRecord
2
BYLAYER
70
0
0
ENDTAB
0
TABLE
2
LAYER
5
2
100
AcDbSymbolTable
70
2
0
LAYER
5
50
100
AcDbSymbolTableRecord
100
AcDbLayerTableRecord
2
0
70
0
6
CONTINUOUS
0
ENDTAB
0
TABLE
2
STYLE
5
3
100
AcDbSymbolTable
70
1
0
STYLE
5
11
100
AcDbSymbolTableRecord
100
AcDbTextStyleTableRecord
2
STANDARD
70
0
0
ENDTAB
0
TABLE
2
VIEW
5
6
100
AcDbSymbolTable
70
0
0
ENDTAB
0
TABLE
2
UCS
5
7
100
AcDbSymbolTable
70
0
0
ENDTAB
0
TABLE
2
APPID
5
9
100
AcDbSymbolTable
70
2
0
APPID
5
12
100
AcDbSymbolTableRecord
100
AcDbRegAppTableRecord
2
ACAD
70
0
0
ENDTAB
0
TABLE
2
DIMSTYLE
5
A
100
AcDbSymbolTable
70
1
0
ENDTAB
0
TABLE
2
BLOCK_RECORD
5
1
100
AcDbSymbolTable
70
1
0
BLOCK_RECORD
5
1F
100
AcDbSymbolTableRecord
100
AcDbBlockTableRecord
2
*MODEL_SPACE
0
BLOCK_RECORD
5
1B
100
AcDbSymbolTableRecord
100
AcDbBlockTableRecord
2
*PAPER_SPACE
0
ENDTAB
0
ENDSEC
0
SECTION
2
BLOCKS
0
BLOCK
5
20
100
AcDbEntity
100
AcDbBlockBegin
2
*MODEL_SPACE
0
ENDBLK
5
21
100
AcDbEntity
100
AcDbBlockEnd
0
BLOCK
5
1C
100
AcDbEntity
100
AcDbBlockBegin
2
*PAPER_SPACE
0
ENDBLK
5
1D
100
AcDbEntity
100
AcDbBlockEnd
0
ENDSEC
0
SECTION
2
ENTITIES
0
LWPOLYLINE
5
100
100
AcDbEntity
8
0
100
AcDbPolyline
90
24
70
1
43
0.0
10
31.616592057119636
20
100.80156082452163
10
32.616592057119639
20
101.00156082452162
10
31.616592057119639
20
102.80156082452163
10
31.61659205711965
20
109.30156082452164
10
29.616514866721253
20
109.30156082452164
10
29.616514866721264
20
115.30156082452166
10
35.616514866721275
20
115.30156082452167
10
35.616517151963329
20
119.30156082452169
10
29.616514866721264
20
119.30156082452166
10
29.616514866721403
20
237.30156082452197
10
35.616592057119803
20
237.30156082452197
10
35.616592057119803
20
241.301560824522
10
29.616514866721403
20
241.301560824522
10
29.616514866721406
20
245.30156082452203
10
41.616514866721424
20
245.30156082452203
10
41.616514866721275
20
109.30156082452164
10
39.616592057119661
20
109.30156082452164
10
39.616592057119661
20
102.80156082452164
10
38.616592057119647
20
101.00156082452162
10
39.616592057119647
20
100.80156082452162
10
39.616592057119654
20
99.801560824521616
10
39.116592057119647
20
99.301560824521601
10
32.116592057119639
20
99.301560824521601
10
31.616592057119639
20
99.80156082452163
0
LWPOLYLINE
5
101
100
AcDbEntity
8
0
100
AcDbPolyline
90
140
70
1
43
0.0
10
69.016592057119425
20
100.80156082452211
10
70.016592057119425
20
101.0015608245221
10
69.016592057119425
20
102.8015608245221
10
69.016592057119425
20
109.30156082452208
10
67.016514866721039
20
109.30156082452208
10
67.016514866721039
20
115.30156082452208
10
73.016514866721053
20
115.30156082452208
10
73.016517151963114
20
119.30156082452207
10
67.016514866721039
20
119.30156082452211
10
67.016514866721138
20
237.30156082452191
10
73.016592057119553
20
237.30156082452191
10
73.016592057119553
20
241.30156082452189
10
67.016514866721153
20
241.30156082452189
10
67.016514866721153
20
245.30156082452186
10
79.016514866721181
20
245.30156082452186
10
79.016514866721167
20
233.30156082452191
10
71.016514866721138
20
233.30156082452189
10
71.016514866721138
20
231.30156082452189
10
72.171215405100398
20
231.30156082452191
10
71.016514866721138
20
229.30156082452191
10
72.171215405100398
20
229.30156082452189
10
71.016514866721138
20
227.30156082452191
10
72.171215405100398
20
227.30156082452194
10
71.016514866721138
20
225.30156082452194
10
72.171215405100398
20
225.30156082452194
10
71.016514866721138
20
223.30156082452194
10
72.171215405100384
20
223.30156082452194
10
71.016514866721138
20
221.30156082452191
10
72.171215405100384
20
221.30156082452191
10
71.016514866721138
20
219.30156082452191
10
72.171215405100384
20
219.30156082452191
10
71.016514866721138
20
217.30156082452194
10
72.171215405100384
20
217.30156082452194
10
71.016514866721138
20
215.30156082452194
10
72.171215405100384
20
215.30156082452197
10
71.016514866721124
20
213.30156082452197
10
72.171215405100384
20
213.30156082452197
10
71.016514866721124
20
211.30156082452197
10
72.171215405100384
20
211.30156082452191
10
71.016514866721124
20
209.30156082452191
10
72.171215405100384
20
209.30156082452197
10
71.016514866721124
20
207.30156082452197
10
72.171215405100384
20
207.30156082452194
10
71.016514866721124
20
205.30156082452194
10
72.171215405100384
20
205.30156082452197
10
71.016514866721124
20
203.30156082452197
10
72.171215405100384
20
203.30156082452197
10
71.016514866721124
20
201.30156082452197
10
72.171215405100369
20
201.30156082452197
10
71.016514866721124
20
199.30156082452197
10
72.171215405100369
20
199.30156082452197
10
71.016514866721124
20
197.30156082452197
10
72.171215405100369
20
197.30156082452197
10
71.016514866721124
20
195.30156082452197
10
72.171215405100369
20
195.30156082452197
10
71.016514866721124
20
193.30156082452197
10
72.171215405100369
20
193.30156082452194
10
71.01651486672111
20
191.30156082452197
10
72.171215405100369
20
191.30156082452197
10
71.01651486672111
20
189.30156082452197
10
72.171215405100369
20
189.30156082452197
10
71.01651486672111
20
187.30156082452197
10
72.171215405100369
20
187.30156082452197
10
71.01651486672111
20
185.30156082452197
10
72.171215405100369
20
185.30156082452197
10
71.016514866721096
20
183.30156082452197
10
72.171215405100369
20
183.30156082452197
10
71.016514866721096
20
181.301560824522
10
72.171215405100355
20
181.301560824522
10
71.016514866721096
20
179.301560824522
10
72.171215405100355
20
179.301560824522
10
71.016514866721096
20
177.301560824522
10
72.171215405100355
20
177.301560824522
10
71.016514866721096
20
175.30156082452203
10
72.171215405100355
20
175.30156082452197
10
71.016514866721096
20
173.30156082452197
10
72.171215405100355
20
173.30156082452197
10
71.016514866721096
20
171.301560824522
10
72.171215405100341
20
171.301560824522
10
71.016514866721096
20
169.301560824522
10
72.171215405100341
20
169.301560824522
10
71.016514866721096
20
167.301560824522
10
72.171215405100341
20
167.301560824522
10
71.016514866721096
20
165.30156082452203
10
72.171215405100341
20
165.30156082452203
10
71.016514866721096
20
163.30156082452203
10
72.171215405100341
20
163.30156082452203
10
71.016514866721081
20
161.30156082452203
10
72.171215405100341
20
161.30156082452203
10
71.016514866721081
20
159.30156082452203
10
72.171215405100341
20
159.30156082452203
10
71.016514866721081
20
157.30156082452203
10
72.171215405100341
20
157.30156082452203
10
71.016514866721081
20
155.30156082452203
10
72.171215405100341
20
155.30156082452203
10
71.016514866721081
20
153.30156082452203
10
72.171215405100341
20
153.30156082452203
10
71.016514866721081
20
151.30156082452203
10
72.171215405100341
20
151.30156082452203
10
71.016514866721081
20
149.30156082452203
10
72.171215405100327
20
149.30156082452203
10
71.016514866721081
20
147.30156082452203
10
72.171215405100327
20
147.30156082452203
10
71.016514866721081
20
145.30156082452203
10
72.171215405100327
20
145.30156082452203
10
71.016514866721081
20
143.30156082452203
10
72.171215405100327
20
143.30156082452203
10
71.016514866721081
20
141.30156082452206
10
72.171215405100327
20
141.30156082452203
10
71.016514866721067
20
139.30156082452203
10
72.171215405100327
20
139.30156082452203
10
71.016514866721067
20
137.30156082452203
10
72.171215405100327
20
137.30156082452203
10
71.016514866721067
20
135.30156082452206
10
72.171215405100327
20
135.30156082452206
10
71.016514866721067
20
133.30156082452206
10
72.171215405100327
20
133.30156082452206
10
71.016514866721067
20
131.30156082452206
10
72.171215405100327
20
131.30156082452206
10
71.016514866721067
20
129.30156082452206
10
72.171215405100313
20
129.30156082452206
10
71.016514866721053
20
127.30156082452206
10
72.171215405100313
20
127.30156082452206
10
71.016514866721053
20
125.30156082452207
10
72.171215405100313
20
125.30156082452207
10
71.016514866721053
20
123.30156082452207
10
73.516514784764681
20
123.30156082452207
10
73.685247279905127
20
123.59381407899319
10
75.710439930012711
20
123.59381407899319
10
77.516514844369325
20
121.30156100333599
10
79.016514866721067
20
121.30156082452206
10
79.016514866721067
20
109.30156082452208
10
77.016592057119453
20
109.30156082452208
10
77.016592057119453
20
102.8015608245221
10
76.016592057119439
20
101.0015608245221
10
77.016592057119439
20
100.80156082452211
10
77.016592057119453
20
99.801560824522113
10
76.516592057119439
20
99.301560824522113
10
69.516592057119425
20
99.301560824522085
10
69.016592057119425
20
99.801560824522099
0
LWPOLYLINE
5
102
100
AcDbEntity
8
0
100
AcDbPolyline
90
24
70
1
43
0.0
10
106.41659205711953
20
100.80156082452223
10
107.41659205711953
20
101.00156082452223
10
106.41659205711952
20
102.80156082452223
10
106.41659205711953
20
109.30156082452221
10
104.41651486672114
20
109.3015608245222
10
104.41651486672114
20
115.30156082452221
10
110.41651486672116
20
115.30156082452221
10
110.41651715196322
20
119.3015608245222
10
104.41651486672116
20
119.30156082452221
10
104.41651486672131
20
237.301560824522
10
110.41659205711971
20
237.301560824522
10
110.41659205711973
20
241.301560824522
10
104.41651486672131
20
241.30156082452203
10
104.41651486672134
20
245.30156082452203
10
116.41651486672134
20
245.30156082452203
10
116.41651486672116
20
109.30156082452221
10
114.41659205711956
20
109.30156082452221
10
114.41659205711952
20
102.80156082452223
10
113.41659205711952
20
101.00156082452223
10
114.41659205711952
20
100.80156082452221
10
114.41659205711954
20
99.801560824522241
10
113.91659205711953
20
99.301560824522227
10
106.91659205711952
20
99.301560824522213
10
106.41659205711952
20
99.801560824522227
0
LWPOLYLINE
5
103
100
AcDbEntity
8
0
100
AcDbPolyline
90
4
70
1
43
0.0
10
158.31651486672143
20
168.30156082452189
10
158.31651486672146
20
176.30156082452186
10
146.31651486672143
20
176.3015608245218
10
146.31651486672141
20
168.30156082452186
0
LWPOLYLINE
5
104
100
AcDbEntity
8
0
100
AcDbPolyline
90
4
70
1
43
0.0
10
150.31651486672141
20
165.05156082452186
10
150.31651486672141
20
163.05156082452186
10
154.31651486672143
20
163.05156082452186
10
154.31651486672141
20
165.05156082452186
0
LWPOLYLINE
5
105
100
AcDbEntity
8
0
100
AcDbPolyline
90
4
70
1
43
0.0
10
161.56651486672146
20
174.30156082452186
10
159.56651486672146
20
174.30156082452186
10
159.56651486672146
20
170.30156082452183
10
161.56651486672146
20
170.30156082452186
0
LWPOLYLINE
5
106
100
AcDbEntity
8
0
100
AcDbPolyline
90
4
70
1
43
0.0
10
145.06651486672141
20
170.30156082452183
10
145.06651486672141
20
174.30156082452183
10
143.06651486672141
20
174.30156082452183
10
143.06651486672141
20
170.30156082452183
0
LWPOLYLINE
5
107
100
AcDbEntity
8
0
100
AcDbPolyline
90
16
70
1
43
0.0
10
145.81651486672141
20
165.80156082452186
10
141.81651486672141
20
165.80156082452186
10
141.81651486672141
20
182.8015608245218
10
146.31651486672143
20
182.80156082452183
10
146.31651486672143
20
178.30163801492023
10
150.31651486672143
20
178.3016380149202
10
150.31651486672143
20
182.80156082452183
10
154.31651486672143
20
182.80156082452183
10
154.31651486672143
20
178.30163801492023
10
158.31651486672146
20
178.30163801492023
10
158.31651486672146
20
182.80156082452183
10
162.81651486672146
20
182.8015608245218
10
162.81651486672146
20
165.80156082452186
10
158.81651486672143
20
165.80156082452186
10
158.81651486672143
20
161.80156082452186
10
145.81651486672141
20
161.80156082452186
0
LWPOLYLINE
5
108
100
AcDbEntity
8
0
100
AcDbPolyline
90
20
70
1
43
0.0
10
192.56661939956732
20
182.42207193600908
42
-0.22212236723875786
10
192.95016515261494
20
182.60130308571479
10
196.71651486672133
20
182.60130308571479
10
196.71651486672133
20
174.60130308571482
10
199.71651486672133
20
174.60130308571482
10
199.71651486672133
20
171.60130308571482
10
192.37121540510057
20
171.60130308571482
10
192.3712154051006
20
175.10380936716149
42
1.8633249580709996
10
190.87121540510054
20
175.10380936716155
10
190.87121540510054
20
167.60130308571485
10
199.41651486672131
20
167.60130308571485
10
199.41651486672129
20
162.00181856332964
10
196.7165148667213
20
162.00181856332964
10
196.7165148667213
20
163.20181856332965
10
197.41651486672129
20
163.20181856332962
10
197.41651486672129
20
164.40181856332964
10
188.2165148667213
20
164.40181856332964
10
189.37121540510054
20
166.40181856332961
10
189.37121540510054
20
178.41977946388317
42
-0.17590670570351508
10
189.48766965205292
20
178.74054831417749
0
LWPOLYLINE
5
109
100
AcDbEntity
8
0
100
AcDbPolyline
90
4
70
1
43
0.0
10
237.11651486672156
20
174.80159941972121
10
237.11651486672156
20
169.80152222932281
10
225.11651486672153
20
169.80152222932281
10
225.11651486672153
20
174.80159941972121
0
LWPOLYLINE
5
110
100
AcDbEntity
8
0
100
AcDbPolyline
90
4
70
1
43
0.0
10
274.5165148667221
20
174.80156082452191
10
274.5165148667221
20
169.80156082452191
10
262.51651486672205
20
169.80156082452191
10
262.51651486672205
20
174.80156082452191
0
LWPOLYLINE
5
111
100
AcDbEntity
8
0
100
AcDbPolyline
90
40
70
1
43
0.0
10
33.298176439721146
20
-130.99895409192797
10
30.298176439721143
20
-130.99895409192797
10
30.298176439721146
20
-126.99895409192797
10
33.298176439721161
20
-126.99895409192797
10
33.298176439721175
20
-106.99895409192798
10
46.298176439721217
20
-106.99895409192798
10
46.298176439721189
20
-126.99895409192797
10
49.29817643972121
20
-126.99895409192797
10
49.298176439721203
20
-130.99895409192797
10
46.298176439721182
20
-130.99895409192797
10
46.298176439721175
20
-138.99895409192797
10
49.298176439721189
20
-138.99895409192797
10
49.298176439721182
20
-142.99895409192797
10
46.298176439721175
20
-142.99895409192797
10
46.298176439721168
20
-150.99895409192797
10
49.298176439721175
20
-150.99895409192794
10
49.298176439721161
20
-154.99895409192794
10
46.298176439721161
20
-154.99895409192797
10
46.298176439721132
20
-174.99895409192794
10
49.298176439721146
20
-174.99895409192794
10
49.298176439721139
20
-178.99895409192794
10
46.298176439721132
20
-178.99895409192794
10
46.298176439721118
20
-186.99895409192794
10
49.298176439721132
20
-186.998954091928
10
49.298176439721118
20
-190.99895409192797
10
46.298176439721111
20
-190.99895409192794
10
46.298176439721104
20
-199.99895409192791
10
43.798176439721097
20
-199.99895409192791
10
43.798176439721097
20
-202.99895409192794
10
49.298176439721104
20
-202.99895409192794
10
49.298176439721104
20
-206.99895409192791
10
46.298176439721104
20
-206.99895409192794
10
46.29817643972109
20
-210.99895409192794
10
30.298176439721054
20
-210.99895409192794
10
30.298176439721061
20
-202.99895409192794
10
32.298176439721061
20
-202.99895409192794
10
32.298176439721061
20
-199.99895409192791
10
30.298176439721068
20
-199.99895409192791
10
30.298176439721132
20
-138.99895409192797
10
33.298176439721139
20
-138.99895409192797
0
LWPOLYLINE
5
112
100
AcDbEntity
8
0
100
AcDbPolyline
90
40
70
1
43
0.0
10
77.130380281065726
20
-121.19038453120629
10
77.130380281065769
20
-101.19038453120639
10
90.13038028106557
20
-101.19038453120639
10
90.130380281065527
20
-121.19038453120629
10
93.130380281065456
20
-121.19038453120626
10
93.130380281065456
20
-125.19038453120626
10
90.130380281065513
20
-125.19038453120626
10
90.130380281065499
20
-133.19038453120623
10
93.130380281065442
20
-133.19038453120623
10
93.130380281065442
20
-137.19038453120621
10
90.130380281065499
20
-137.19038453120621
10
90.130380281065484
20
-145.19038453120618
10
93.130380281065413
20
-145.19038453120618
10
93.130380281065399
20
-149.19038453120612
10
90.13038028106547
20
-149.19038453120612
10
90.130380281065413
20
-169.19038453120604
10
93.130380281065356
20
-169.19038453120604
10
93.130380281065356
20
-173.19038453120601
10
90.130380281065413
20
-173.19038453120598
10
90.130380281065385
20
-181.19038453120598
10
93.130380281065328
20
-181.19038453120595
10
93.130380281065342
20
-185.19038453120595
10
90.130380281065385
20
-185.19038453120595
10
90.130380281065371
20
-194.19038453120589
10
87.630380281065385
20
-194.19038453120589
10
87.630380281065385
20
-197.19038453120586
10
93.130380281065314
20
-197.19038453120586
10
93.130380281065314
20
-201.19038453120584
10
90.130380281065342
20
-201.19038453120584
10
90.130380281065342
20
-205.19038453120584
10
74.130380281065598
20
-205.19038453120578
10
74.130380281065612
20
-197.19038453120586
10
76.130380281065584
20
-197.19038453120586
10
76.130380281065598
20
-194.19038453120589
10
74.130380281065626
20
-194.19038453120589
10
74.130380281065754
20
-133.19038453120623
10
77.130380281065698
20
-133.19038453120623
10
77.130380281065726
20
-125.19038453120626
10
74.130380281065754
20
-125.19038453120628
10
74.130380281065769
20
-121.19038453120629
0
LWPOLYLINE
5
113
100
AcDbEntity
8
0
100
AcDbPolyline
90
4
70
1
43
0.0
10
130.59817643972133
20
-113.99895409192824
10
130.59817643972133
20
-110.99895409192825
10
126.59817643972131
20
-110.99895409192824
10
126.59817643972131
20
-113.99895409192823
0
LWPOLYLINE
5
114
100
AcDbEntity
8
0
100
AcDbPolyline
90
52
70
1
43
0.0
10
119.09817643972134
20
-106.99895409192827
10
138.0981764397213
20
-106.99895409192827
10
138.09817643972127
20
-110.99895409192824
10
135.0981764397213
20
-110.99895409192824
10
135.0981764397213
20
-117.99895409192821
10
138.09817643972127
20
-117.99895409192821
10
138.09817643972127
20
-126.99895409192814
10
135.09817643972127
20
-126.99895409192817
10
135.09817643972127
20
-130.99895409192814
10
138.09817643972127
20
-130.99895409192814
10
138.09817643972124
20
-138.99895409192811
10
135.09817643972124
20
-138.99895409192811
10
135.09817643972124
20
-142.99895409192808
10
138.09817643972124
20
-142.99895409192808
10
138.09817643972121
20
-162.998954091928
10
135.09817643972121
20
-162.998954091928
10
135.09817643972121
20
-166.998954091928
10
138.09817643972121
20
-166.998954091928
10
138.09817643972121
20
-174.99895409192791
10
135.09817643972121
20
-174.99895409192794
10
135.09817643972121
20
-178.99895409192794
10
138.09817643972121
20
-178.99895409192794
10
138.09817643972119
20
-186.99895409192791
10
135.09817643972121
20
-186.99895409192791
10
135.09817643972121
20
-190.99895409192789
10
138.09817643972116
20
-190.99895409192789
10
138.09817643972116
20
-210.99895409192783
10
119.09817643972121
20
-210.99895409192783
10
119.09817643972124
20
-190.99895409192789
10
122.09817643972123
20
-190.99895409192789
10
122.09817643972123
20
-186.99895409192791
10
119.09817643972124
20
-186.99895409192791
10
119.09817643972126
20
-178.99895409192794
10
122.09817643972124
20
-178.99895409192794
10
122.09817643972124
20
-174.99895409192794
10
119.09817643972126
20
-174.99895409192794
10
119.09817643972127
20
-166.998954091928
10
122.09817643972127
20
-166.998954091928
10
122.09817643972127
20
-162.998954091928
10
119.09817643972127
20
-162.998954091928
10
119.0981764397213
20
-142.99895409192808
10
122.0981764397213
20
-142.99895409192811
10
122.0981764397213
20
-138.99895409192811
10
119.0981764397213
20
-138.99895409192811
10
119.09817643972131
20
-130.99895409192814
10
122.09817643972131
20
-130.99895409192814
10
122.09817643972131
20
-126.99895409192817
10
119.09817643972131
20
-126.99895409192817
10
119.09817643972133
20
-117.99895409192821
10
122.09817643972131
20
-117.99895409192821
10
122.09817643972133
20
-110.99895409192824
10
119.09817643972134
20
-110.99895409192825
0
LWPOLYLINE
5
115
100
AcDbEntity
8
0
100
AcDbPolyline
90
12
70
1
43
0.0
10
167.74817643972114
20
-158.49895409192786
10
167.74817643972114
20
-163.99895409192783
10
180.74817643972114
20
-163.99895409192783
10
180.74817643972114
20
-158.49895409192786
10
183.74817643972114
20
-158.49895409192786
10
183.74817643972114
20
-154.00742069871035
10
184.99817643972114
20
-152.7574206987104
10
184.99817643972111
20
-165.24895409192783
10
163.49817643972116
20
-165.24895409192783
10
163.49817643972116
20
-152.74895409192789
10
164.74817643972116
20
-154.00742069871035
10
164.74817643972114
20
-158.49895409192786
0
LWPOLYLINE
5
116
100
AcDbEntity
8
0
100
AcDbPolyline
90
20
70
1
43
0.0
10
211.64817643972134
20
-164.12818739531923
10
210.39817643972134
20
-162.86972078853671
10
210.3981764397214
20
-153.86972078853674
10
231.89817643972137
20
-153.86972078853677
10
231.89817643972134
20
-162.87818739531917
10
230.64817643972134
20
-164.12818739531917
10
230.64817643972137
20
-157.11972078853674
10
227.64817643972137
20
-157.11972078853674
10
227.64817643972134
20
-158.11972078853674
10
226.14817643972134
20
-158.11972078853674
10
226.14817643972134
20
-156.61972078853674
10
222.14817643972137
20
-156.61972078853671
10
222.14817643972137
20
-158.11972078853674
10
220.14817643972137
20
-158.11972078853674
10
220.14817643972137
20
-156.61972078853674
10
216.1481764397214
20
-156.61972078853671
10
216.14817643972134
20
-158.11972078853674
10
214.64817643972137
20
-158.11972078853674
10
214.6481764397214
20
-157.11972078853674
10
211.64817643972134
20
-157.11972078853671
0
LWPOLYLINE
5
117
100
AcDbEntity
8
0
100
AcDbPolyline
90
24
70
1
43
0.0
10
268.29817643972171
20
-172.49895409192789
10
268.29817643972171
20
-175.49895409192789
10
265.29817643972171
20
-175.49895409192789
10
265.29817643972171
20
-172.49895409192789
10
261.2981764397216
20
-172.49895409192789
10
261.29817643972166
20
-175.49895409192789
10
257.29817643972154
20
-175.49895409192789
10
257.2981764397216
20
-155.49895409192791
10
260.29817643972171
20
-155.49895409192794
10
260.29817643972166
20
-151.49895409192791
10
257.2981764397216
20
-151.49895409192791
10
257.29817643972171
20
-143.49895409192791
10
260.29817643972171
20
-143.49895409192791
10
260.29817643972171
20
-142.49895409192791
10
273.298176439722
20
-142.49895409192791
10
273.298176439722
20
-143.49895409192791
10
276.29817643972206
20
-143.49895409192791
10
276.29817643972206
20
-151.49895409192791
10
273.29817643972194
20
-151.49895409192791
10
273.29817643972194
20
-155.49895409192791
10
276.298176439722
20
-155.49895409192791
10
276.29817643972194
20
-175.49895409192789
10
272.29817643972183
20
-175.49895409192789
10
272.29817643972189
20
-172.49895409192789
0
ENDSEC
0
SECTION
2
OBJECTS
0
DICTIONARY
5
C
100
AcDbDictionary
3
ACAD_GROUP
350
D
3
ACAD_MLINESTYLE
350
17
0
DICTIONARY
5
D
100
AcDbDictionary
0
DICTIONARY
5
1A
330
C
100
AcDbDictionary
0
DICTIONARY
5
17
100
AcDbDictionary
0
ENDSEC
0
EOF
