  0
SECTION
  2
HEADER
  9
$ACADVER
  1
AC1027
  9
$ACADMAINTVER
 70
   125
  9
$DWGCODEPAGE
  3
ANSI_1252
  9
$LASTSAVEDBY
  1
Alumno
  9
$REQUIREDVERSIONS
160
                 0
  9
$INSBASE
 10
0.0
 20
0.0
 30
0.0
  9
$EXTMIN
 10
-5.226886930948296
 20
-794.8499880248191
 30
0.0
  9
$EXTMAX
 10
994.7731130690621
 20
-0.0000000000000613
 30
0.0
  9
$LIMMIN
 10
0.0
 20
0.0
  9
$LIMMAX
 10
12.0
 20
9.0
  9
$ORTHOMODE
 70
     0
  9
$REGENMODE
 70
     1
  9
$FILLMODE
 70
     1
  9
$QTEXTMODE
 70
     0
  9
$MIRRTEXT
 70
     0
  9
$LTSCALE
 40
1.0
  9
$ATTMODE
 70
     1
  9
$TEXTSIZE
 40
0.2
  9
$TRACEWID
 40
0.05
  9
$TEXTSTYLE
  7
STANDARD
  9
$CLAYER
  8
0
  9
$CELTYPE
  6
Continuous
  9
$CECOLOR
 62
   256
  9
$CELTSCALE
 40
1.0
  9
$DISPSILH
 70
     0
  9
$DIMSCALE
 40
1.0
  9
$DIMASZ
 40
0.18
  9
$DIMEXO
 40
0.0625
  9
$DIMDLI
 40
0.38
  9
$DIMRND
 40
0.0
  9
$DIMDLE
 40
0.0
  9
$DIMEXE
 40
0.18
  9
$DIMTP
 40
0.0
  9
$DIMTM
 40
0.0
  9
$DIMTXT
 40
0.18
  9
$DIMCEN
 40
0.09
  9
$DIMTSZ
 40
0.0
  9
$DIMTOL
 70
     0
  9
$DIMLIM
 70
     0
  9
$DIMTIH
 70
     1
  9
$DIMTOH
 70
     1
  9
$DIMSE1
 70
     0
  9
$DIMSE2
 70
     0
  9
$DIMTAD
 70
     0
  9
$DIMZIN
 70
     0
  9
$DIMBLK
  1

  9
$DIMASO
 70
     1
  9
$DIMSHO
 70
     1
  9
$DIMPOST
  1

  9
$DIMAPOST
  1

  9
$DIMALT
 70
     0
  9
$DIMALTD
 70
     2
  9
$DIMALTF
 40
25.4
  9
$DIMLFAC
 40
1.0
  9
$DIMTOFL
 70
     0
  9
$DIMTVP
 40
0.0
  9
$DIMTIX
 70
     0
  9
$DIMSOXD
 70
     0
  9
$DIMSAH
 70
     0
  9
$DIMBLK1
  1

  9
$DIMBLK2
  1

  9
$DIMSTYLE
  2
Standard
  9
$DIMCLRD
 70
     0
  9
$DIMCLRE
 70
     0
  9
$DIMCLRT
 70
     0
  9
$DIMTFAC
 40
1.0
  9
$DIMGAP
 40
0.09
  9
$DIMJUST
 70
     0
  9
$DIMSD1
 70
     0
  9
$DIMSD2
 70
     0
  9
$DIMTOLJ
 70
     1
  9
$DIMTZIN
 70
     0
  9
$DIMALTZ
 70
     0
  9
$DIMALTTZ
 70
     0
  9
$DIMUPT
 70
     0
  9
$DIMDEC
 70
     4
  9
$DIMTDEC
 70
     4
  9
$DIMALTU
 70
     2
  9
$DIMALTTD
 70
     2
  9
$DIMTXSTY
  7
STANDARD
  9
$DIMAUNIT
 70
     0
  9
$DIMADEC
 70
     0
  9
$DIMALTRND
 40
0.0
  9
$DIMAZIN
 70
     0
  9
$DIMDSEP
 70
    46
  9
$DIMATFIT
 70
     3
  9
$DIMFRAC
 70
     0
  9
$DIMLDRBLK
  1

  9
$DIMLUNIT
 70
     2
  9
$DIMLWD
 70
    -2
  9
$DIMLWE
 70
    -2
  9
$DIMTMOVE
 70
     0
  9
$DIMFXL
 40
1.0
  9
$DIMFXLON
 70
     0
  9
$DIMJOGANG
 40
0.7853981633974483
  9
$DIMTFILL
 70
     0
  9
$DIMTFILLCLR
 70
     0
  9
$DIMARCSYM
 70
     0
  9
$DIMLTYPE
  6

  9
$DIMLTEX1
  6

  9
$DIMLTEX2
  6

  9
$DIMTXTDIRECTION
 70
     0
  9
$LUNITS
 70
     2
  9
$LUPREC
 70
     4
  9
$SKETCHINC
 40
0.1
  9
$FILLETRAD
 40
0.0
  9
$AUNITS
 70
     0
  9
$AUPREC
 70
     0
  9
$MENU
  1
.
  9
$ELEVATION
 40
0.0
  9
$PELEVATION
 40
0.0
  9
$THICKNESS
 40
0.0
  9
$LIMCHECK
 70
     0
  9
$CHAMFERA
 40
0.0
  9
$CHAMFERB
 40
0.0
  9
$CHAMFERC
 40
0.0
  9
$CHAMFERD
 40
0.0
  9
$SKPOLY
 70
     0
  9
$TDCREATE
 40
2458178.873391204
  9
$TDUCREATE
 40
2458179.081724537
  9
$TDUPDATE
 40
2458178.888449074
  9
$TDUUPDATE
 40
2458179.096782407
  9
$TDINDWG
 40
0.0150578704
  9
$TDUSRTIMER
 40
0.0150578704
  9
$USRTIMER
 70
     1
  9
$ANGBASE
 50
0.0
  9
$ANGDIR
 70
     0
  9
$PDMODE
 70
     0
  9
$PDSIZE
 40
0.0
  9
$PLINEWID
 40
0.0
  9
$SPLFRAME
 70
     0
  9
$SPLINETYPE
 70
     6
  9
$SPLINESEGS
 70
     8
  9
$HANDSEED
  5
10098
  9
$SURFTAB1
 70
     6
  9
$SURFTAB2
 70
     6
  9
$SURFTYPE
 70
     6
  9
$SURFU
 70
     6
  9
$SURFV
 70
     6
  9
$UCSBASE
  2

  9
$UCSNAME
  2

  9
$UCSORG
 10
0.0
 20
0.0
 30
0.0
  9
$UCSXDIR
 10
1.0
 20
0.0
 30
0.0
  9
$UCSYDIR
 10
0.0
 20
1.0
 30
0.0
  9
$UCSORTHOREF
  2

  9
$UCSORTHOVIEW
 70
     0
  9
$UCSORGTOP
 10
0.0
 20
0.0
 30
0.0
  9
$UCSORGBOTTOM
 10
0.0
 20
0.0
 30
0.0
  9
$UCSORGLEFT
 10
0.0
 20
0.0
 30
0.0
  9
$UCSORGRIGHT
 10
0.0
 20
0.0
 30
0.0
  9
$UCSORGFRONT
 10
0.0
 20
0.0
 30
0.0
  9
$UCSORGBACK
 10
0.0
 20
0.0
 30
0.0
  9
$PUCSBASE
  2

  9
$PUCSNAME
  2

  9
$PUCSORG
 10
0.0
 20
0.0
 30
0.0
  9
$PUCSXDIR
 10
1.0
 20
0.0
 30
0.0
  9
$PUCSYDIR
 10
0.0
 20
1.0
 30
0.0
  9
$PUCSORTHOREF
  2

  9
$PUCSORTHOVIEW
 70
     0
  9
$PUCSORGTOP
 10
0.0
 20
0.0
 30
0.0
  9
$PUCSORGBOTTOM
 10
0.0
 20
0.0
 30
0.0
  9
$PUCSORGLEFT
 10
0.0
 20
0.0
 30
0.0
  9
$PUCSORGRIGHT
 10
0.0
 20
0.0
 30
0.0
  9
$PUCSORGFRONT
 10
0.0
 20
0.0
 30
0.0
  9
$PUCSORGBACK
 10
0.0
 20
0.0
 30
0.0
  9
$USERI1
 70
     0
  9
$USERI2
 70
     0
  9
$USERI3
 70
     0
  9
$USERI4
 70
     0
  9
$USERI5
 70
     0
  9
$USERR1
 40
0.0
  9
$USERR2
 40
0.0
  9
$USERR3
 40
0.0
  9
$USERR4
 40
0.0
  9
$USERR5
 40
0.0
  9
$WORLDVIEW
 70
     1
  9
$SHADEDGE
 70
     3
  9
$SHADEDIF
 70
    70
  9
$TILEMODE
 70
     1
  9
$MAXACTVP
 70
    64
  9
$PINSBASE
 10
0.0
 20
0.0
 30
0.0
  9
$PLIMCHECK
 70
     0
  9
$PEXTMIN
 10
1.000000000000000E+20
 20
1.000000000000000E+20
 30
1.000000000000000E+20
  9
$PEXTMAX
 10
-1.000000000000000E+20
 20
-1.000000000000000E+20
 30
-1.000000000000000E+20
  9
$PLIMMIN
 10
0.0
 20
0.0
  9
$PLIMMAX
 10
12.0
 20
9.0
  9
$UNITMODE
 70
     0
  9
$VISRETAIN
 70
     1
  9
$PLINEGEN
 70
     0
  9
$PSLTSCALE
 70
     1
  9
$TREEDEPTH
 70
  3020
  9
$CMLSTYLE
  2
Standard
  9
$CMLJUST
 70
     0
  9
$CMLSCALE
 40
1.0
  9
$PROXYGRAPHICS
 70
     1
  9
$MEASUREMENT
 70
     0
  9
$CELWEIGHT
370
    -1
  9
$ENDCAPS
280
     0
  9
$JOINSTYLE
280
     0
  9
$LWDISPLAY
290
     0
  9
$INSUNITS
 70
     4
  9
$HYPERLINKBASE
  1

  9
$STYLESHEET
  1

  9
$XEDIT
290
     1
  9
$CEPSNTYPE
380
     0
  9
$PSTYLEMODE
290
     1
  9
$FINGERPRINTGUID
  2
{C767C91E-6F6D-AC41-9BD4-48E412E3ED2C}
  9
$VERSIONGUID
  2
{1139C4FD-E9FB-3F46-9C02-F5F8160FE5F4}
  9
$EXTNAMES
290
     1
  9
$PSVPSCALE
 40
0.0
  9
$OLESTARTUP
290
     0
  9
$SORTENTS
280
   127
  9
$INDEXCTL
280
     0
  9
$HIDETEXT
280
     0
  9
$XCLIPFRAME
280
     2
  9
$HALOGAP
280
     0
  9
$OBSCOLOR
 70
   257
  9
$OBSLTYPE
280
     0
  9
$INTERSECTIONDISPLAY
280
     0
  9
$INTERSECTIONCOLOR
 70
   257
  9
$DIMASSOC
280
     1
  9
$PROJECTNAME
  1

  9
$CAMERADISPLAY
290
     0
  9
$LENSLENGTH
 40
50.0
  9
$CAMERAHEIGHT
 40
0.0
  9
$STEPSPERSEC
 40
2.0
  9
$STEPSIZE
 40
6.0
  9
$3DDWFPREC
 40
2.0
  9
$PSOLWIDTH
 40
0.25
  9
$PSOLHEIGHT
 40
4.0
  9
$LOFTANG1
 40
1.570796326794896
  9
$LOFTANG2
 40
1.570796326794896
  9
$LOFTMAG1
 40
0.0
  9
$LOFTMAG2
 40
0.0
  9
$LOFTPARAM
 70
     7
  9
$LOFTNORMALS
280
     1
  9
$LATITUDE
 40
37.795
  9
$LONGITUDE
 40
-122.394
  9
$NORTHDIRECTION
 40
0.0
  9
$TIMEZONE
 70
 -8000
  9
$LIGHTGLYPHDISPLAY
280
     1
  9
$TILEMODELIGHTSYNCH
280
     1
  9
$CMATERIAL
347
10005
  9
$SOLIDHIST
280
     0
  9
$SHOWHIST
280
     1
  9
$DWFFRAME
280
     2
  9
$DGNFRAME
280
     0
  9
$REALWORLDSCALE
290
     1
  9
$INTERFERECOLOR
 62
     1
  9
$INTERFEREOBJVS
345
10027
  9
$INTERFEREVPVS
346
10024
  9
$CSHADOW
280
     0
  9
$SHADOWPLANELOCATION
 40
0.0
  0
ENDSEC
  0
SECTION
  2
CLASSES
  0
CLASS
  1
ACDBDICTIONARYWDFLT
  2
AcDbDictionaryWithDefault
  3
ObjectDBX Classes
 90
        0
 91
        1
280
     0
281
     0
  0
CLASS
  1
MATERIAL
  2
AcDbMaterial
  3
ObjectDBX Classes
 90
     1153
 91
        3
280
     0
281
     0
  0
CLASS
  1
VISUALSTYLE
  2
AcDbVisualStyle
  3
ObjectDBX Classes
 90
     4095
 91
       24
280
     0
281
     0
  0
CLASS
  1
TABLESTYLE
  2
AcDbTableStyle
  3
ObjectDBX Classes
 90
     4095
 91
        1
280
     0
281
     0
  0
CLASS
  1
SCALE
  2
AcDbScale
  3
ObjectDBX Classes
 90
     1153
 91
       17
280
     0
281
     0
  0
CLASS
  1
MLEADERSTYLE
  2
AcDbMLeaderStyle
  3
ACDB_MLEADERSTYLE_CLASS
 90
     4095
 91
        1
280
     0
281
     0
  0
CLASS
  1
ACDBSECTIONVIEWSTYLE
  2
AcDbSectionViewStyle
  3
ObjectDBX Classes
 90
     1025
 91
        1
280
     0
281
     0
  0
CLASS
  1
ACDBDETAILVIEWSTYLE
  2
AcDbDetailViewStyle
  3
ObjectDBX Classes
 90
     1025
 91
        1
280
     0
281
     0
  0
CLASS
  1
DICTIONARYVAR
  2
AcDbDictionaryVar
  3
ObjectDBX Classes
 90
        0
 91
       18
280
     0
281
     0
  0
CLASS
  1
CELLSTYLEMAP
  2
AcDbCellStyleMap
  3
ObjectDBX Classes
 90
     1152
 91
        2
280
     0
281
     0
  0
ENDSEC
  0
SECTION
  2
TABLES
  0
TABLE
  2
VPORT
  5
8
330
0
100
AcDbSymbolTable
 70
     1
1001
ACAD
1000
DbSaveVer
1071
       51
  0
VPORT
  5
10059
330
8
100
AcDbSymbolTableRecord
100
AcDbViewportTableRecord
  2
*Active
 70
     0
 10
0.0
 20
0.0
 11
1.0
 21
1.0
 12
534.2426014782567
 22
-355.055818069477
 13
0.0
 23
0.0
 14
1.0
 24
1.0
 15
0.0
 25
0.0
 16
0.0
 26
0.0
 36
1.0
 17
0.0
 27
0.0
 37
0.0
 40
1150.858761889321
 41
2.318681318681318
 42
50.0
 43
0.0
 44
0.0
 50
0.0
 51
0.0
 71
     0
 72
  1000
 73
     1
 74
     3
 75
     0
 76
     0
 77
     0
 78
     0
281
     0
 65
     1
110
0.0
120
0.0
130
0.0
111
1.0
121
0.0
131
0.0
112
0.0
122
1.0
132
0.0
 79
     0
146
0.0
348
10023
 60
     3
 61
     5
292
     1
282
     1
141
0.0
142
0.0
 63
   250
421
  3355443
1001
ACAD_NAV_VCDISPLAY
1070
     1
  0
ENDTAB
  0
TABLE
  2
LTYPE
  5
5
330
0
100
AcDbSymbolTable
 70
     2
  0
LTYPE
  5
14
330
5
100
AcDbSymbolTableRecord
100
AcDbLinetypeTableRecord
  2
BYBLOCK
 70
     0
  3

 72
    65
 73
     0
 40
0.0
  0
LTYPE
  5
15
330
5
100
AcDbSymbolTableRecord
100
AcDbLinetypeTableRecord
  2
BYLAYER
 70
     0
  3

 72
    65
 73
     0
 40
0.0
  0
LTYPE
  5
10001
330
5
100
AcDbSymbolTableRecord
100
AcDbLinetypeTableRecord
  2
Continuous
 70
     0
  3
Solid line
 72
    65
 73
     0
 40
0.0
  0
ENDTAB
  0
TABLE
  2
LAYER
  5
2
102
{ACAD_XDICTIONARY
360
10083
102
}
330
0
100
AcDbSymbolTable
 70
     1
  0
LAYER
  5
50
102
{ACAD_XDICTIONARY
360
1006D
102
}
330
2
100
AcDbSymbolTableRecord
100
AcDbLayerTableRecord
  2
0
 70
     0
 62
     7
  6
Continuous
370
    -3
390
10003
347
10015
348
0
  0
ENDTAB
  0
TABLE
  2
STYLE
  5
3
330
0
100
AcDbSymbolTable
 70
     1
  0
STYLE
  5
11
330
3
100
AcDbSymbolTableRecord
100
AcDbTextStyleTableRecord
  2
STANDARD
 70
     0
 40
0.0
 41
1.0
 50
0.0
 71
     0
 42
0.2
  3

  4

  0
ENDTAB
  0
TABLE
  2
VIEW
  5
6
330
0
100
AcDbSymbolTable
 70
     1
  0
ENDTAB
  0
TABLE
  2
UCS
  5
7
330
0
100
AcDbSymbolTable
 70
     0
  0
ENDTAB
  0
TABLE
  2
APPID
  5
9
330
0
100
AcDbSymbolTable
 70
     3
  0
APPID
  5
12
330
9
100
AcDbSymbolTableRecord
100
AcDbRegAppTableRecord
  2
ACAD
 70
     0
  0
APPID
  5
10058
330
9
100
AcDbSymbolTableRecord
100
AcDbRegAppTableRecord
  2
ACAD_NAV_VCDISPLAY
 70
     0
  0
APPID
  5
1005B
330
9
100
AcDbSymbolTableRecord
100
AcDbRegAppTableRecord
  2
ACAD_EXEMPT_FROM_CAD_STANDARDS
 70
     0
  0
ENDTAB
  0
TABLE
  2
DIMSTYLE
  5
A
330
0
100
AcDbSymbolTable
 70
     2
100
AcDbDimStyleTable
 71
     1
340
10053
  0
DIMSTYLE
105
10053
330
A
100
AcDbSymbolTableRecord
100
AcDbDimStyleTableRecord
  2
Standard
 70
     0
340
11
  0
ENDTAB
  0
TABLE
  2
BLOCK_RECORD
  5
1
330
0
100
AcDbSymbolTable
 70
     1
  0
BLOCK_RECORD
  5
1F
330
1
100
AcDbSymbolTableRecord
100
AcDbBlockTableRecord
  2
*MODEL_SPACE
340
10055
 70
     0
280
     1
281
     0
  0
BLOCK_RECORD
  5
1B
330
1
100
AcDbSymbolTableRecord
100
AcDbBlockTableRecord
  2
*PAPER_SPACE
340
10056
 70
     0
280
     1
281
     0
  0
ENDTAB
  0
ENDSEC
  0
SECTION
  2
BLOCKS
  0
BLOCK
  5
20
330
1F
100
AcDbEntity
  8
0
100
AcDbBlockBegin
  2
*MODEL_SPACE
 70
     0
 10
0.0
 20
0.0
 30
0.0
  3
*MODEL_SPACE
  1

  0
ENDBLK
  5
21
330
1F
100
AcDbEntity
  8
0
100
AcDbBlockEnd
  0
BLOCK
  5
1C
330
1B
100
AcDbEntity
 67
     1
  8
0
100
AcDbBlockBegin
  2
*PAPER_SPACE
 70
     0
 10
0.0
 20
0.0
 30
0.0
  3
*PAPER_SPACE
  1

  0
ENDBLK
  5
1D
330
1B
100
AcDbEntity
 67
     1
  8
0
100
AcDbBlockEnd
  0
ENDSEC
  0
SECTION
  2
ENTITIES
  0
LWPOLYLINE
  5
100
330
1F
100
AcDbEntity
  8
0
100
AcDbPolyline
 90
       84
 70
     1
 43
0.0
 10
27.35652927074091
 20
-529.689171729095
 10
27.35652927074091
 20
-541.8891717290951
 10
55.82434034136134
 20
-541.8891717290951
 42
0.1316524975873937
 10
65.82434034136134
 20
-539.2096798047839
 10
82.69627523289647
 20
-529.4686636534063
 42
-0.1316524975873964
 10
92.69627523289647
 20
-526.7891717290951
 10
152.0167833085853
 20
-526.7891717290953
 42
-0.1316524975873931
 10
162.0167833085849
 20
-529.4686636534063
 10
178.8887182001202
 20
-539.2096798047838
 42
0.1316524975873928
 10
188.88871820012
 20
-541.8891717290951
 10
217.3565292707407
 20
-541.8891717290951
 10
217.3565292707407
 20
-529.689171729095
 10
213.3565292707404
 20
-529.689171729095
 10
213.3565292707404
 20
-517.8891717290952
 10
217.3565292707407
 20
-517.8891717290952
 10
217.3565292707407
 20
-505.6891717290951
 10
213.3565292707404
 20
-505.6891717290953
 10
213.3565292707404
 20
-497.8891717290953
 10
219.525291551926
 20
-497.8891717290953
 10
225.3565292707407
 20
-487.7891717290952
 10
225.3565292707407
 20
-485.7891717290953
 10
229.4565292707406
 20
-485.7891717290953
 10
229.4565292707406
 20
-484.3066717290953
 10
233.4565292707406
 20
-484.3066717290953
 10
233.4565292707406
 20
-485.7891717290953
 10
236.3565292707407
 20
-485.7891717290953
 42
0.4142135623731055
 10
237.3565292707407
 20
-484.7891717290953
 10
237.3565292707407
 20
-478.7891717290952
 42
0.4142135623731055
 10
236.3565292707407
 20
-477.7891717290953
 10
233.4565292707406
 20
-477.7891717290953
 10
233.4565292707406
 20
-479.2716717290952
 10
229.4565292707406
 20
-479.2716717290952
 10
229.4565292707406
 20
-477.7891717290953
 10
225.3565292707407
 20
-477.7891717290954
 10
225.3565292707407
 20
-475.7891717290954
 10
224.2018287323614
 20
-473.7891717290954
 10
212.3390292707408
 20
-473.7891717290954
 10
212.3390292707408
 20
-481.7891717290953
 10
208.3740292707404
 20
-481.7891717290953
 10
208.3740292707404
 20
-473.7891717290954
 10
177.3390292707407
 20
-473.7891717290954
 10
177.3390292707407
 20
-481.7891717290953
 10
173.3740292707404
 20
-481.7891717290953
 10
173.3740292707406
 20
-473.7891717290954
 10
142.3390292707409
 20
-473.7891717290954
 10
142.3390292707409
 20
-481.7891717290953
 10
138.3740292707406
 20
-481.7891717290953
 10
138.3740292707406
 20
-473.7891717290954
 10
106.339029270741
 20
-473.7891717290954
 10
106.339029270741
 20
-481.7891717290953
 10
102.3740292707406
 20
-481.7891717290953
 10
102.3740292707406
 20
-473.7891717290954
 10
71.33902927074098
 20
-473.7891717290954
 10
71.33902927074098
 20
-481.7891717290953
 10
67.37402927074061
 20
-481.7891717290953
 10
67.37402927074061
 20
-473.7891717290954
 10
36.33902927074098
 20
-473.7891717290954
 10
36.33902927074098
 20
-481.7891717290953
 10
32.37402927074106
 20
-481.7891717290953
 10
32.37402927074106
 20
-473.7891717290954
 10
20.51122980912021
 20
-473.7891717290954
 10
19.35652927074091
 20
-475.7891717290952
 10
19.35652927074091
 20
-477.7891717290953
 10
15.256529270741
 20
-477.7891717290953
 10
15.256529270741
 20
-479.2716717290952
 10
11.25652927074077
 20
-479.2716717290952
 10
11.256529270741
 20
-477.7891717290953
 10
8.356529270740907
 20
-477.7891717290954
 42
0.4142135623732511
 10
7.356529270740907
 20
-478.7891717290952
 10
7.356529270740907
 20
-484.7891717290952
 42
0.4142135623732511
 10
8.356529270740907
 20
-485.7891717290953
 10
11.256529270741
 20
-485.7891717290953
 10
11.25652927074077
 20
-484.3066717290953
 10
15.256529270741
 20
-484.3066717290953
 10
15.256529270741
 20
-485.7891717290953
 10
19.35652927074091
 20
-485.7891717290953
 10
19.35652927074091
 20
-487.7891717290952
 10
25.18776698955628
 20
-497.8891717290953
 10
31.35652927074091
 20
-497.8891717290952
 10
31.35652927074091
 20
-505.6891717290951
 10
27.35652927074091
 20
-505.6891717290952
 10
27.35652927074091
 20
-517.8891717290952
 10
31.35652927074091
 20
-517.8891717290952
 10
31.35652927074091
 20
-529.689171729095
  0
LWPOLYLINE
  5
101
330
1F
100
AcDbEntity
  8
0
100
AcDbPolyline
 90
        8
 70
     1
 43
0.0
 10
702.773113069051
 20
-261.442724450449
 42
-0.4142135623730894
 10
682.7731130690509
 20
-281.4427244504488
 10
352.7731130690516
 20
-281.4427244504488
 42
-0.4142135623730872
 10
332.7731130690517
 20
-261.4427244504489
 10
332.7731130690513
 20
-26.44272445045004
 42
-0.4142135623730887
 10
352.7731130690513
 20
-6.442724450450152
 10
682.7731130690509
 20
-6.442724450450238
 42
-0.4142135623730868
 10
702.7731130690504
 20
-26.44272445045008
  0
LWPOLYLINE
  5
102
330
1F
100
AcDbEntity
  8
0
100
AcDbPolyline
 90
       10
 70
     1
 43
0.0
 10
123.3861934563975
 20
-541.5914475860948
 10
123.3861934563975
 20
-564.5914475860947
 10
133.1861934563977
 20
-564.5914475860947
 10
133.1861934563979
 20
-560.5914475860948
 10
153.386193456398
 20
-560.5914475860948
 10
153.3861934563975
 20
-564.5914475860947
 10
163.1861934563977
 20
-564.5914475860947
 10
163.1861934563979
 20
-541.5914475860948
 42
0.414213562373109
 10
157.1861934563977
 20
-535.5914475860948
 10
129.386193456398
 20
-535.591447586095
 42
0.4142135623730934
  0
LWPOLYLINE
  5
103
330
1F
100
AcDbEntity
  8
0
100
AcDbPolyline
 90
       10
 70
     1
 43
0.0
 10
79.38619345639688
 20
-541.5914475860948
 10
79.38619345639688
 20
-564.5914475860945
 10
89.18619345639706
 20
-564.5914475860945
 10
89.18619345639706
 20
-560.5914475860945
 10
109.3861934563969
 20
-560.5914475860945
 10
109.3861934563969
 20
-564.5914475860945
 10
119.186193456397
 20
-564.5914475860945
 10
119.1861934563968
 20
-541.5914475860948
 42
0.414213562373109
 10
113.1861934563968
 20
-535.5914475860948
 10
85.38619345639688
 20
-535.591447586095
 42
0.4142135623730934
  0
LWPOLYLINE
  5
104
330
1F
100
AcDbEntity
  8
0
100
AcDbPolyline
 90
       56
 70
     1
 43
0.0
 10
1.002400816731437
 20
-313.8455341269685
 10
21.20240081673149
 20
-313.8455341269686
 10
21.20240081673171
 20
-309.8455341269686
 10
81.00240081673144
 20
-309.8455341269686
 10
81.00240081673144
 20
-313.8455341269686
 10
101.2024008167312
 20
-313.8455341269687
 10
101.202400816731
 20
-309.8455341269687
 10
166.002400816731
 20
-309.8455341269688
 10
166.0024008167316
 20
-313.8455341269688
 10
186.2024008167312
 20
-313.8455341269688
 10
186.202400816731
 20
-309.8455341269688
 10
246.002400816731
 20
-309.8455341269689
 10
246.002400816731
 20
-313.8455341269689
 10
266.202400816731
 20
-313.8455341269689
 10
266.2024008167306
 20
-304.945534126969
 10
270.1024008167309
 20
-304.945534126969
 10
270.1024008167309
 20
-299.745534126969
 10
266.202400816731
 20
-299.745534126969
 10
266.202400816731
 20
-293.4208895319792
 10
261.1628837172931
 20
-289.6233410111355
 10
257.1549745686817
 20
-294.9420160923254
 42
-0.0320360375585773
 10
255.4781167090397
 20
-296.8936227009935
 10
258.6263339009637
 20
-300.6455218497363
 10
255.5889676839976
 20
-303.194174722148
 10
252.4407504920704
 20
-299.4422755734017
 42
-0.3089742911339997
 10
229.7640511413919
 20
-299.4422755734016
 10
226.6158339494647
 20
-303.1941747221479
 10
223.5784677324988
 20
-300.6455218497361
 10
226.726684924423
 20
-296.8936227009935
 42
-0.1443731444217089
 10
221.404431378233
 20
-286.845534126969
 10
145.4871771275819
 20
-286.8455341269688
 42
0.1989123673796708
 10
142.6587500028353
 20
-288.0171070022226
 10
133.46636184741
 20
-297.2094951576474
 42
-0.6681786379193046
 10
118.1024008167313
 20
-290.8455341269688
 10
118.1024008167313
 20
-287.8455341269688
 42
0.4142135623729553
 10
117.1024008167313
 20
-286.8455341269688
 10
113.4871771275817
 20
-286.8455341269688
 42
0.1989123673796711
 10
110.6587500028357
 20
-288.0171070022226
 10
101.4663618474102
 20
-297.2094951576476
 42
-0.6681786379193046
 10
86.10240081673135
 20
-290.8455341269688
 10
86.10240081673088
 20
-287.8455341269687
 42
0.4142135623729962
 10
85.10240081673135
 20
-286.8455341269688
 10
81.4871771275815
 20
-286.8455341269688
 42
0.1989123673796213
 10
78.65875000283551
 20
-288.0171070022225
 10
69.46636184741021
 20
-297.2094951576474
 42
-0.6681786379193047
 10
54.10240081673134
 20
-290.8455341269688
 10
54.10240081673134
 20
-287.8455341269687
 42
0.4142135623731932
 10
53.10240081673135
 20
-286.8455341269688
 10
49.48717712758195
 20
-286.8455341269688
 42
0.1989123673796597
 10
46.65875000283574
 20
-288.0171070022225
 10
37.46636184741067
 20
-297.2094951576477
 42
-0.6681786379192985
 10
22.10240081673135
 20
-290.8455341269688
 10
22.10240081673135
 20
-287.8455341269687
 42
0.4142135623730672
 10
21.10240081673135
 20
-286.8455341269687
 10
5.002400816731665
 20
-286.8455341269686
 42
0.4142135623730952
 10
1.002400816731437
 20
-290.8455341269686
  0
LWPOLYLINE
  5
105
330
1F
100
AcDbEntity
  8
0
100
AcDbPolyline
 90
       56
 70
     1
 43
0.0
 10
21.83666417750203
 20
-317.478373656329
 10
5.73666417750212
 20
-317.478373656329
 42
0.4142135623730951
 10
1.73666417750212
 20
-321.478373656329
 10
1.73666417750212
 20
-344.4783736563289
 10
21.93666417750194
 20
-344.4783736563289
 10
21.93666417750194
 20
-340.4783736563289
 10
81.73666417750212
 20
-340.478373656329
 10
81.73666417750212
 20
-344.478373656329
 10
101.9366641775017
 20
-344.478373656329
 10
101.9366641775012
 20
-340.478373656329
 10
166.7366641775014
 20
-340.4783736563292
 10
166.7366641775019
 20
-344.4783736563291
 10
186.9366641775019
 20
-344.4783736563291
 10
186.9366641775012
 20
-340.4783736563292
 10
246.7366641775015
 20
-340.4783736563293
 10
246.7366641775015
 20
-344.4783736563293
 10
266.9366641775013
 20
-344.4783736563293
 10
266.9366641775006
 20
-335.5783736563294
 10
270.8366641775013
 20
-335.5783736563294
 10
270.8366641775016
 20
-330.3783736563294
 10
266.8366641775013
 20
-330.3783736563294
 10
266.8366641775013
 20
-323.9783736563294
 10
261.8971470780633
 20
-320.2561805404959
 10
257.8892379294522
 20
-325.5748556216856
 42
-0.0320360375585802
 10
256.2123800698099
 20
-327.526462230354
 10
259.3605972617341
 20
-331.2783613790967
 10
256.323231044768
 20
-333.8270142515083
 10
253.1750138528406
 20
-330.0751151027621
 42
-0.3089742911339993
 10
230.4983145021621
 20
-330.0751151027621
 10
227.3500973102349
 20
-333.8270142515083
 10
224.312731093269
 20
-331.2783613790966
 10
227.4609482851935
 20
-327.5264622303539
 42
-0.1443731444217094
 10
222.1386947390036
 20
-317.4783736563293
 10
146.2214404883522
 20
-317.4783736563293
 42
0.1989123673795989
 10
143.3930133636057
 20
-318.6499465315831
 10
134.2006252081802
 20
-327.8423346870078
 42
-0.6681786379193046
 10
118.8366641775016
 20
-321.4783736563293
 10
118.8366641775016
 20
-318.4783736563292
 42
0.414213562372952
 10
117.836664177502
 20
-317.4783736563292
 10
114.2214404883522
 20
-317.4783736563292
 42
0.1989123673796679
 10
111.393013363606
 20
-318.649946531583
 10
102.2006252081811
 20
-327.842334687008
 42
-0.6681786379193046
 10
86.83666417750202
 20
-321.4783736563292
 10
86.83666417750202
 20
-318.4783736563292
 42
0.4142135623729571
 10
85.83666417750203
 20
-317.4783736563292
 10
82.22144048835218
 20
-317.4783736563292
 42
0.198912367379622
 10
79.39301336360575
 20
-318.6499465315829
 10
70.20062520818067
 20
-327.8423346870078
 42
-0.6681786379193043
 10
54.83666417750203
 20
-321.4783736563291
 10
54.83666417750203
 20
-318.4783736563291
 42
0.4142135623731939
 10
53.83666417750203
 20
-317.4783736563291
 10
50.22144048835219
 20
-317.4783736563291
 42
0.1989123673796582
 10
47.3930133636062
 20
-318.6499465315829
 10
38.20062520818112
 20
-327.8423346870081
 42
-0.6681786379192982
 10
22.83666417750203
 20
-321.4783736563291
 10
22.83666417750203
 20
-318.478373656329
 42
0.4142135623730639
  0
LWPOLYLINE
  5
106
330
1F
100
AcDbEntity
  8
0
100
AcDbPolyline
 90
        6
 70
     1
 43
0.0
 10
34.33451051306326
 20
-555.2762109328383
 10
44.53451051306331
 20
-555.2762109328383
 42
0.4142135623730951
 10
49.53451051306331
 20
-550.2762109328383
 10
49.53451051306354
 20
-545.2762109328384
 10
29.33451051306326
 20
-545.2762109328384
 10
29.33451051306349
 20
-550.2762109328383
 42
0.4142135623730868
  0
LWPOLYLINE
  5
107
330
1F
100
AcDbEntity
  8
0
100
AcDbPolyline
 90
        6
 70
     1
 43
0.0
 10
239.3345105130628
 20
-545.2762109328384
 10
239.3345105130628
 20
-550.2762109328383
 42
0.4142135623730951
 10
244.3345105130628
 20
-555.2762109328383
 10
254.5345105130628
 20
-555.2762109328382
 42
0.4142135623730951
 10
259.5345105130629
 20
-550.2762109328383
 10
259.5345105130629
 20
-545.2762109328384
  0
LWPOLYLINE
  5
108
330
1F
100
AcDbEntity
  8
0
100
AcDbPolyline
 90
        4
 70
     1
 43
0.0
 10
994.7731130690501
 20
-0.0000000000001837
 10
994.773113069051
 20
-609.9999999999972
 10
-5.2268869309475
 20
-609.9999999999972
 10
-5.226886930948239
 20
-0.0000000000000613
  0
LWPOLYLINE
  5
109
330
1F
100
AcDbEntity
  8
0
100
AcDbPolyline
 90
       24
 70
     1
 43
0.0
 10
35.75281691169232
 20
-428.1052590782381
 10
35.75281691169232
 20
-432.1052590782382
 10
60.95281691169214
 20
-432.1052590782382
 10
60.95281691169214
 20
-428.1052590782381
 10
100.7528169116923
 20
-428.1052590782381
 10
100.7528169116921
 20
-432.1052590782382
 10
125.9528169116921
 20
-432.1052590782382
 10
125.9528169116921
 20
-428.1052590782381
 10
165.7528169116918
 20
-428.1052590782381
 10
165.7528169116923
 20
-432.1052590782382
 10
190.9528169116919
 20
-432.1052590782382
 10
190.9528169116919
 20
-428.1052590782381
 10
220.352816911692
 20
-428.1052590782382
 10
220.352816911692
 20
-423.0052590782382
 10
216.352816911692
 20
-423.0052590782382
 10
216.352816911692
 20
-418.2052590782382
 10
220.352816911692
 20
-418.2052590782382
 10
220.352816911692
 20
-413.1052590782383
 10
6.352816911692229
 20
-413.1052590782382
 10
6.352816911692457
 20
-418.2052590782375
 10
10.35281691168995
 20
-418.2052590782375
 10
10.35281691168995
 20
-423.0052590782374
 10
6.352816911692457
 20
-423.0052590782374
 10
6.352816911692457
 20
-428.1052590782381
  0
LWPOLYLINE
  5
110
330
1F
100
AcDbEntity
  8
0
100
AcDbPolyline
 90
       60
 70
     1
 43
0.0
 10
225.387458971548
 20
-449.865762930357
 10
225.387458971548
 20
-447.8657629303572
 10
224.2327584331684
 20
-445.8657629303571
 10
212.3699589715478
 20
-445.8657629303571
 10
212.3699589715478
 20
-453.865762930357
 10
208.4049589715477
 20
-453.865762930357
 10
208.4049589715477
 20
-445.8657629303571
 10
177.3699589715478
 20
-445.8657629303571
 10
177.3699589715478
 20
-453.865762930357
 10
173.4049589715477
 20
-453.865762930357
 10
173.4049589715479
 20
-445.8657629303571
 10
142.369958971548
 20
-445.8657629303571
 10
142.369958971548
 20
-453.865762930357
 10
138.4049589715476
 20
-453.865762930357
 10
138.4049589715476
 20
-445.8657629303571
 10
106.369958971548
 20
-445.8657629303571
 10
106.369958971548
 20
-453.865762930357
 10
102.4049589715476
 20
-453.865762930357
 10
102.4049589715476
 20
-445.8657629303571
 10
71.36995897154804
 20
-445.8657629303571
 10
71.36995897154804
 20
-453.865762930357
 10
67.40495897154767
 20
-453.865762930357
 10
67.40495897154767
 20
-445.8657629303571
 10
36.36995897154804
 20
-445.8657629303571
 10
36.36995897154804
 20
-453.865762930357
 10
32.40495897154813
 20
-453.865762930357
 10
32.40495897154813
 20
-445.8657629303571
 10
20.54215950992727
 20
-445.8657629303571
 10
19.38745897154797
 20
-447.8657629303571
 10
19.38745897154797
 20
-449.865762930357
 10
15.28745897154806
 20
-449.865762930357
 10
15.28745897154806
 20
-451.348262930357
 10
11.28745897154806
 20
-451.348262930357
 10
11.28745897154806
 20
-449.865762930357
 10
8.387458971547971
 20
-449.8657629303571
 42
0.4142135623732511
 10
7.387458971547971
 20
-450.8657629303571
 10
7.387458971547971
 20
-456.865762930357
 42
0.4142135623732511
 10
8.387458971547971
 20
-457.865762930357
 10
11.28745897154806
 20
-457.865762930357
 10
11.28745897154806
 20
-456.383262930357
 10
15.28745897154806
 20
-456.383262930357
 10
15.28745897154806
 20
-457.865762930357
 10
19.38745897154797
 20
-457.865762930357
 10
19.38745897154797
 20
-459.865762930357
 10
20.54215950992705
 20
-461.8657629303568
 10
224.2327584331684
 20
-461.8657629303569
 10
225.387458971548
 20
-459.865762930357
 10
225.387458971548
 20
-457.865762930357
 10
229.4874589715479
 20
-457.865762930357
 10
229.4874589715479
 20
-456.383262930357
 10
233.4874589715477
 20
-456.383262930357
 10
233.4874589715477
 20
-457.865762930357
 10
236.387458971548
 20
-457.865762930357
 42
0.4142135623730639
 10
237.3874589715475
 20
-456.865762930357
 10
237.3874589715475
 20
-450.8657629303571
 42
0.4142135623730639
 10
236.387458971548
 20
-449.865762930357
 10
233.4874589715477
 20
-449.865762930357
 10
233.4874589715477
 20
-451.3482629303571
 10
229.4874589715479
 20
-451.3482629303571
 10
229.4874589715479
 20
-449.865762930357
  0
LWPOLYLINE
  5
111
330
1F
100
AcDbEntity
  8
0
100
AcDbPolyline
 90
       12
 70
     1
 43
0.0
 10
531.8607354546529
 20
-303.7091788183559
 10
523.8607354546534
 20
-303.7091788183559
 10
523.8607354546534
 20
-295.7441788183558
 10
531.8607354546533
 20
-295.7441788183558
 10
531.8607354546533
 20
-289.7266788183558
 42
0.4142135623730013
 10
529.8607354546533
 20
-287.7266788183558
 10
517.8607354546535
 20
-287.7266788183558
 42
0.4142135623730222
 10
515.8607354546535
 20
-289.7266788183558
 10
515.8607354546534
 20
-309.7266788183211
 42
0.4142135623773093
 10
517.8607354546825
 20
-311.7266788183213
 10
529.8607354546824
 20
-311.7266788181459
 42
0.4142135623688392
 10
531.8607354546529
 20
-309.7266788181459
  0
LWPOLYLINE
  5
112
330
1F
100
AcDbEntity
  8
0
100
AcDbPolyline
 90
       12
 70
     1
 43
0.0
 10
471.860735454654
 20
-303.7091788183561
 10
463.8607354546544
 20
-303.7091788183561
 10
463.8607354546542
 20
-295.7441788183561
 10
471.860735454654
 20
-295.7441788183561
 10
471.860735454654
 20
-289.7266788183562
 42
0.4142135623730744
 10
469.8607354546539
 20
-287.7266788183561
 10
457.8607354546542
 20
-287.7266788183561
 42
0.4142135623730222
 10
455.8607354546542
 20
-289.7266788183561
 10
455.8607354546539
 20
-309.7266788183215
 42
0.4142135623773302
 10
457.8607354546833
 20
-311.7266788183215
 10
469.860735454683
 20
-311.7266788181462
 42
0.4142135623688183
 10
471.8607354546539
 20
-309.7266788181463
  0
LWPOLYLINE
  5
113
330
1F
100
AcDbEntity
  8
0
100
AcDbPolyline
 90
       17
 70
     1
 43
0.0
 10
302.5100107158601
 20
-369.0052497247352
 10
302.5100107158601
 20
-373.0052497247352
 10
314.7100107158599
 20
-373.0052497247352
 10
314.7100107158599
 20
-369.0052497247352
 10
320.61001071586
 20
-369.0052497247352
 10
320.61001071586
 20
-359.9890187160924
 42
0.2291798938180532
 10
320.2307136569142
 20
-359.2049728890091
 10
317.1200687234374
 20
-356.7423790047121
 42
0.38755373201615
 10
315.7755717300286
 20
-356.8364087669278
 42
-0.1530969368301433
 10
310.5925107158601
 20
-359.7047184389007
 10
310.5925107158601
 20
-365.1052497247351
 10
306.6275107158602
 20
-365.1052497247353
 10
306.6275107158602
 20
-359.958805539657
 10
300.8627323189193
 20
-360.1052497247353
 10
297.61001071586
 20
-360.1052497247351
 42
0.4142135623730534
 10
296.61001071586
 20
-361.1052497247351
 10
296.61001071586
 20
-369.0052497247352
  0
CIRCLE
  5
114
330
1F
100
AcDbEntity
  8
0
100
AcDbCircle
 10
403.9607354546554
 20
-299.7266788183529
 30
0.0
 40
8.899999999999963
  0
LWPOLYLINE
  5
115
330
1F
100
AcDbEntity
  8
0
100
AcDbPolyline
 90
        4
 70
     1
 43
0.0
 10
197.5359121039702
 20
-548.9208122157593
 10
185.5359121039701
 20
-548.9208122157593
 10
185.5359121039699
 20
-553.1208122157591
 10
197.5359121039701
 20
-553.1208122157591
  0
LWPOLYLINE
  5
116
330
1F
100
AcDbEntity
  8
0
100
AcDbPolyline
 90
       12
 70
     1
 43
0.0
 10
451.8607354546547
 20
-303.7091788183558
 10
443.8607354546548
 20
-303.7091788183558
 10
443.8607354546548
 20
-295.7441788183558
 10
451.8607354546547
 20
-295.7441788183558
 10
451.8607354546547
 20
-289.7266788183558
 42
0.4142135623730534
 10
449.8607354546548
 20
-287.7266788183558
 10
437.8607354546549
 20
-287.7266788183558
 42
0.4142135623730744
 10
435.8607354546548
 20
-289.7266788183558
 10
435.8607354546546
 20
-309.7266788183211
 42
0.414213562377351
 10
437.8607354546838
 20
-311.7266788183211
 10
449.8607354546837
 20
-311.7266788181459
 42
0.4142135623688183
 10
451.8607354546544
 20
-309.7266788181459
  0
LWPOLYLINE
  5
117
330
1F
100
AcDbEntity
  8
0
100
AcDbPolyline
 90
       14
 70
     1
 43
0.0
 10
632.6326740646622
 20
-309.3449662311325
 10
632.6326740646622
 20
-301.2447149732652
 10
636.5976740646621
 20
-301.2447149732653
 10
636.5976740646621
 20
-309.3449662311327
 10
642.6151740646623
 20
-309.3449662311327
 10
642.6151740646623
 20
-293.3449662311326
 42
0.4142135623730898
 10
638.6151740646623
 20
-289.3449662311327
 10
636.5976740646621
 20
-289.3449662311327
 10
636.5976740646621
 20
-296.8449662311325
 10
632.6326740646622
 20
-296.8449662311325
 10
632.6326740646618
 20
-289.3449662311327
 10
630.6151740646619
 20
-289.3449662311327
 42
0.414213562373069
 10
626.6151740646621
 20
-293.3449662311326
 10
626.6151740646621
 20
-309.3449662311327
  0
LWPOLYLINE
  5
118
330
1F
100
AcDbEntity
  8
0
100
AcDbPolyline
 90
       18
 70
     1
 43
0.0
 10
377.725580374233
 20
-350.7991776122258
 42
-0.1763269807084642
 10
375.7972175451731
 20
-350.0973109415828
 10
373.2866082041787
 20
-347.9906595695243
 10
382.0286812013597
 20
-337.572262668413
 10
378.991314984393
 20
-335.023609796006
 10
370.2492419872121
 20
-345.442006697117
 10
368.703747323218
 20
-344.1451826945731
 42
-0.4142135623731005
 10
368.3339768229207
 20
-339.9186865361567
 10
383.1180918457111
 20
-322.2996643444203
 42
-0.466307658155002
 10
393.8427140493768
 20
-322.2996643444203
 10
408.6268290721671
 20
-339.9186865361567
 42
-0.41421356237312
 10
408.2570585718698
 20
-344.1451826945733
 10
406.7115639078759
 20
-345.4420066971172
 10
397.9694909106947
 20
-335.023609796006
 10
394.9321246937282
 20
-337.572262668413
 10
403.674197690909
 20
-347.9906595695243
 10
401.1635883499145
 20
-350.0973109415829
 42
-0.1763269807084888
 10
399.2352255208548
 20
-350.7991776122258
  0
LWPOLYLINE
  5
119
330
1F
100
AcDbEntity
  8
0
100
AcDbPolyline
 90
       18
 70
     1
 43
0.0
 10
423.4221659647642
 20
-350.799177612226
 42
-0.1763269807085016
 10
421.4938031357044
 20
-350.0973109415829
 10
418.9831937947101
 20
-347.9906595695243
 10
427.7252667918912
 20
-337.572262668413
 10
424.6879005749242
 20
-335.023609796006
 10
415.9458275777431
 20
-345.442006697117
 10
414.4003329137493
 20
-344.1451826945733
 42
-0.4142135623731146
 10
414.0305624134519
 20
-339.9186865361567
 10
428.8146774362425
 20
-322.2996643444203
 42
-0.466307658154998
 10
439.539299639908
 20
-322.2996643444203
 10
454.3234146626982
 20
-339.9186865361569
 42
-0.4142135623730915
 10
453.9536441624009
 20
-344.1451826945736
 10
452.408149498407
 20
-345.4420066971172
 10
443.666076501226
 20
-335.023609796006
 10
440.6287102842594
 20
-337.572262668413
 10
449.3707832814403
 20
-347.9906595695243
 10
446.8601739404459
 20
-350.097310941583
 42
-0.1763269807084648
 10
444.9318111113861
 20
-350.799177612226
  0
LWPOLYLINE
  5
120
330
1F
100
AcDbEntity
  8
0
100
AcDbPolyline
 90
       14
 70
     1
 43
0.0
 10
536.3818731981016
 20
-335.0765719642177
 10
533.9956766313028
 20
-331.909982166881
 10
540.384760711681
 20
-327.0954619816647
 10
536.9854248286567
 20
-322.5843909011488
 10
526.7579509728419
 20
-322.5843909011487
 10
525.0551852617454
 20
-323.4147899034731
 10
528.5618292440325
 20
-330.6053008715121
 10
524.9980322454981
 20
-332.3432812952331
 10
521.4913882632112
 20
-325.152770327194
 10
519.7886225521139
 20
-325.9831693295185
 10
520.7891740122411
 20
-338.3123742855266
 42
0.6236717258008281
 10
535.8332809338762
 20
-344.2260333202387
 10
546.1702931615011
 20
-334.7731228595196
 10
542.770957278478
 20
-330.2620517790027
  0
LWPOLYLINE
  5
121
330
1F
100
AcDbEntity
  8
0
100
AcDbPolyline
 90
        8
 70
     1
 43
0.0
 10
-1.226886930948239
 20
-24.4427244504505
 42
-0.4142135623730927
 10
18.77311306905176
 20
-4.442724450450589
 10
308.7731130690511
 20
-4.442724450450527
 42
-0.4142135623730868
 10
328.7731130690509
 20
-24.4427244504504
 10
328.7731130690515
 20
-263.4427244504493
 42
-0.4142135623730894
 10
308.7731130690515
 20
-283.4427244504493
 10
18.77311306905198
 20
-283.4427244504492
 42
-0.4142135623730935
 10
-1.226886930947955
 20
-263.4427244504493
  0
LWPOLYLINE
  5
122
330
1F
100
AcDbEntity
  8
0
100
AcDbPolyline
 90
       14
 70
     1
 43
0.0
 10
592.6326740646618
 20
-297.4452174890004
 10
592.6326740646618
 20
-289.3449662311332
 10
586.6151740646617
 20
-289.3449662311332
 10
586.6151740646617
 20
-305.344966231133
 42
0.4142135623730744
 10
590.6151740646617
 20
-309.3449662311331
 10
592.6326740646618
 20
-309.3449662311329
 10
592.6326740646617
 20
-301.8449662311331
 10
596.5976740646617
 20
-301.8449662311332
 10
596.5976740646617
 20
-309.3449662311331
 10
598.6151740646617
 20
-309.3449662311331
 42
0.4142135623730744
 10
602.6151740646617
 20
-305.3449662311331
 10
602.6151740646617
 20
-289.3449662311332
 10
596.5976740646617
 20
-289.3449662311332
 10
596.5976740646617
 20
-297.4452174890004
  0
LWPOLYLINE
  5
123
330
1F
100
AcDbEntity
  8
0
100
AcDbPolyline
 90
       33
 70
     1
 43
0.0
 10
4.73068152361418
 20
-382.6820808216679
 10
4.73068152361418
 20
-394.4820808216678
 10
6.830681523614089
 20
-398.6820808216679
 10
22.83068152361432
 20
-398.6820808216679
 10
24.56273233118293
 20
-395.6820808216679
 10
87.68925309507096
 20
-395.6820808216681
 42
-0.0376418391917664
 10
88.81947607843484
 20
-394.6904971803712
 10
87.0748689444589
 20
-391.113111852651
 10
90.49036165427798
 20
-389.4474559610645
 10
92.2349687882537
 20
-393.0248412887846
 42
-0.2543942659525968
 10
101.528109356893
 20
-395.2561492021324
 10
104.7067729801475
 20
-392.8608543549148
 10
106.9936700681254
 20
-395.8956692930946
 10
103.7991280279362
 20
-398.3029293857028
 10
110.1132715289321
 20
-406.682080821668
 10
178.930681523614
 20
-406.682080821668
 10
178.930681523614
 20
-382.6820808216681
 10
158.7306815236142
 20
-382.6820808216681
 10
158.7306815236142
 20
-386.6820808216681
 10
140.4306815236142
 20
-386.6820808216681
 10
140.4306815236142
 20
-382.6820808216681
 10
120.2306815236142
 20
-382.682080821668
 10
120.2306815236142
 20
-386.682080821668
 10
101.930681523614
 20
-386.682080821668
 10
101.930681523614
 20
-382.682080821668
 10
81.73068152361418
 20
-382.682080821668
 10
81.73068152361418
 20
-386.682080821668
 10
63.430681523614
 20
-386.682080821668
 10
63.430681523614
 20
-382.682080821668
 10
43.23068152361417
 20
-382.682080821668
 10
43.23068152361417
 20
-386.682080821668
 10
24.93068152361423
 20
-386.682080821668
 10
24.93068152361423
 20
-382.682080821668
  0
LWPOLYLINE
  5
124
330
1F
100
AcDbEntity
  8
0
100
AcDbPolyline
 90
       12
 70
     1
 43
0.0
 10
632.3166429104645
 20
-326.7764924178576
 10
632.3166429104645
 20
-323.7764924178577
 10
636.2816429104647
 20
-323.7764924178577
 10
636.2816429104647
 20
-326.7764924178578
 10
642.2991429104646
 20
-326.7764924178576
 10
642.2991429104648
 20
-317.7764924178577
 10
636.2816429104647
 20
-317.7764924178575
 10
636.2816429104647
 20
-319.7764924178577
 10
632.3166429104645
 20
-319.7764924178579
 10
632.3166429104645
 20
-317.7764924178577
 10
626.2991429104649
 20
-317.7764924178577
 10
626.2991429104649
 20
-326.7764924178576
  0
LWPOLYLINE
  5
125
330
1F
100
AcDbEntity
  8
0
100
AcDbPolyline
 90
       12
 70
     1
 43
0.0
 10
612.3166429104643
 20
-320.2764924178571
 10
612.3166429104643
 20
-317.2764924178571
 10
606.2991429104644
 20
-317.2764924178572
 10
606.2991429104644
 20
-327.2764924178572
 10
612.3166429104643
 20
-327.2764924178571
 10
612.3166429104643
 20
-324.2764924178572
 10
616.2816429104642
 20
-324.2764924178572
 10
616.2816429104642
 20
-327.2764924178571
 10
622.2991429104644
 20
-327.2764924178572
 10
622.2991429104644
 20
-317.2764924178572
 10
616.2816429104642
 20
-317.2764924178571
 10
616.2816429104642
 20
-320.2764924178571
  0
CIRCLE
  5
126
330
1F
100
AcDbEntity
  8
0
100
AcDbCircle
 10
341.7107354546579
 20
-299.7266788183535
 30
0.0
 40
3.949999999999981
  0
CIRCLE
  5
127
330
1F
100
AcDbEntity
  8
0
100
AcDbCircle
 10
353.5607354546568
 20
-299.7266788183534
 30
0.0
 40
3.899999999999985
  0
CIRCLE
  5
128
330
1F
100
AcDbEntity
  8
0
100
AcDbCircle
 10
294.3107354546581
 20
-299.7266788183534
 30
0.0
 40
3.949999999999981
  0
LWPOLYLINE
  5
129
330
1F
100
AcDbEntity
  8
0
100
AcDbPolyline
 90
       14
 70
     1
 43
0.0
 10
506.0002025887151
 20
-335.0765719642175
 10
503.614006021916
 20
-331.9099821668809
 10
510.0030901022944
 20
-327.0954619816646
 10
506.6037542192702
 20
-322.5843909011487
 10
496.3762803634558
 20
-322.5843909011486
 10
494.6735146523592
 20
-323.4147899034728
 10
498.1801586346461
 20
-330.605300871512
 10
494.6163616361118
 20
-332.3432812952328
 10
491.1097176538247
 20
-325.1527703271937
 10
489.4069519427275
 20
-325.9831693295182
 10
490.4075034028549
 20
-338.3123742855264
 42
0.6236717258008326
 10
505.45161032449
 20
-344.2260333202384
 10
515.7886225521151
 20
-334.7731228595196
 10
512.3892866690916
 20
-330.2620517790025
  0
LWPOLYLINE
  5
130
330
1F
100
AcDbEntity
  8
0
100
AcDbPolyline
 90
       14
 70
     1
 43
0.0
 10
228.4253297878439
 20
-495.3112973131474
 10
228.4253297878439
 20
-507.3112973131473
 42
1.0
 10
268.6253297878437
 20
-507.3112973131474
 10
268.6253297878439
 20
-490.5970115988615
 10
262.931593895915
 20
-474.3291947647788
 42
0.3187078456301728
 10
257.2684437577192
 20
-470.3112973131474
 10
253.4253297878439
 20
-470.3112973131474
 10
253.4253297878439
 20
-486.2112973131473
 10
259.5253297878441
 20
-486.2112973131474
 10
259.5253297878441
 20
-490.4112973131474
 10
253.4253297878439
 20
-490.4112973131474
 10
253.4253297878439
 20
-499.3112973131473
 10
243.6253297878437
 20
-499.3112973131473
 10
243.6253297878437
 20
-495.3112973131474
  0
LWPOLYLINE
  5
131
330
1F
100
AcDbEntity
  8
0
100
AcDbPolyline
 90
       11
 70
     1
 43
0.0
 10
186.8367322307393
 20
-355.3401646214588
 42
-0.4142135623731081
 10
188.8367322307389
 20
-353.3401646214588
 10
250.5881839796149
 20
-353.3401646214591
 42
-1.581733740912055
 10
258.5856039250781
 20
-369.1370040546516
 10
250.5881839796149
 20
-369.340164621459
 10
188.8367322307389
 20
-369.3401646214589
 42
-0.414213562373069
 10
186.8367322307393
 20
-367.3401646214589
 10
186.8367322307393
 20
-363.3226646214588
 10
194.3367322307393
 20
-363.3226646214588
 10
194.3367322307393
 20
-359.3576646214589
 10
186.8367322307393
 20
-359.3576646214589
  0
LWPOLYLINE
  5
132
330
1F
100
AcDbEntity
  8
0
100
AcDbPolyline
 90
       14
 70
     1
 43
0.0
 10
259.8450043411966
 20
-407.8616067010041
 10
247.8450043411966
 20
-407.8616067010042
 42
1.0
 10
247.8450043411966
 20
-448.0616067010039
 10
264.5592900554819
 20
-448.0616067010039
 10
280.8271068895653
 20
-442.367870809075
 42
0.3187078456302189
 10
284.8450043411966
 20
-436.7047206708789
 10
284.8450043411964
 20
-432.8616067010041
 10
268.9450043411963
 20
-432.8616067010041
 10
268.9450043411965
 20
-438.961606701004
 10
264.7450043411967
 20
-438.961606701004
 10
264.7450043411967
 20
-432.8616067010041
 10
255.8450043411966
 20
-432.8616067010041
 10
255.8450043411966
 20
-423.0616067010037
 10
259.8450043411966
 20
-423.0616067010037
  0
LWPOLYLINE
  5
133
330
1F
100
AcDbEntity
  8
0
100
AcDbPolyline
 90
       33
 70
     1
 43
0.0
 10
6.642455343060987
 20
-366.6474836812462
 10
22.64245534306099
 20
-366.6474836812462
 10
24.37450615063005
 20
-363.6474836812462
 10
87.50102691451809
 20
-363.6474836812464
 42
-0.0376418391917664
 10
88.63124989788127
 20
-362.6559000399495
 10
86.88664276390511
 20
-359.0785147122293
 10
90.3021354737242
 20
-357.4128588206427
 10
92.04674260770014
 20
-360.9902441483629
 42
-0.2543942659525968
 10
101.3398831763401
 20
-363.2215520617107
 10
104.5185467995942
 20
-360.8262572144931
 10
106.8054438875721
 20
-363.8610721526729
 10
103.6109018473829
 20
-366.2683322452811
 10
109.9250453483788
 20
-374.6474836812462
 10
178.7424553430602
 20
-374.6474836812463
 10
178.7424553430602
 20
-350.6474836812464
 10
158.5424553430606
 20
-350.6474836812464
 10
158.5424553430608
 20
-354.6474836812464
 10
140.2424553430609
 20
-354.6474836812464
 10
140.2424553430609
 20
-350.6474836812464
 10
120.0424553430608
 20
-350.6474836812464
 10
120.0424553430608
 20
-354.6474836812464
 10
101.7424553430609
 20
-354.6474836812463
 10
101.7424553430609
 20
-350.6474836812463
 10
81.54245534306085
 20
-350.6474836812463
 10
81.54245534306085
 20
-354.6474836812463
 10
63.2424553430609
 20
-354.6474836812463
 10
63.2424553430609
 20
-350.6474836812463
 10
43.04245534306085
 20
-350.6474836812463
 10
43.04245534306085
 20
-354.6474836812463
 10
24.7424553430609
 20
-354.6474836812462
 10
24.7424553430609
 20
-350.6474836812463
 10
4.542455343060851
 20
-350.6474836812463
 10
4.542455343060851
 20
-362.4474836812461
  0
LWPOLYLINE
  5
134
330
1F
100
AcDbEntity
  8
0
100
AcDbPolyline
 90
       14
 70
     1
 43
0.0
 10
276.6100107158611
 20
-365.604843321039
 42
-0.1316524975874655
 10
276.7439853120764
 20
-365.104843321039
 10
279.3213355812662
 20
-360.6407417059013
 42
-0.2679491924310393
 10
280.1873609850506
 20
-360.1407417059015
 10
289.0326604466713
 20
-360.1407417059015
 42
-0.2679491924309847
 10
289.8986858504557
 20
-360.6407417059015
 10
292.4760361196454
 20
-365.104843321039
 42
-0.1316524975872523
 10
292.6100107158607
 20
-365.6048433210389
 10
292.6100107158607
 20
-369.0407417059013
 10
286.5925107158609
 20
-369.0407417059013
 10
286.5925107158609
 20
-365.1407417059015
 10
282.627510715861
 20
-365.1407417059015
 10
282.627510715861
 20
-369.0407417059013
 10
276.6100107158608
 20
-369.0407417059013
  0
LWPOLYLINE
  5
135
330
1F
100
AcDbEntity
  8
0
100
AcDbPolyline
 90
       14
 70
     1
 43
0.0
 10
475.6185319793275
 20
-335.0765719642175
 10
473.2323354125287
 20
-331.9099821668809
 10
479.6214194929067
 20
-327.0954619816647
 10
476.2220836098828
 20
-322.5843909011488
 10
465.9946097540681
 20
-322.5843909011487
 10
464.2918440429716
 20
-323.4147899034731
 10
467.7984880252587
 20
-330.6053008715121
 10
464.2346910267243
 20
-332.3432812952331
 10
460.728047044437
 20
-325.152770327194
 10
459.0252813333401
 20
-325.9831693295185
 10
460.0258327934672
 20
-338.3123742855266
 42
0.6236717258008281
 10
475.0699397151022
 20
-344.2260333202387
 10
485.406951942727
 20
-334.7731228595196
 10
482.007616059704
 20
-330.2620517790026
  0
LWPOLYLINE
  5
136
330
1F
100
AcDbEntity
  8
0
100
AcDbPolyline
 90
       18
 70
     1
 43
0.0
 10
286.3324091931683
 20
-350.799177612226
 42
-0.1763269807084565
 10
284.4040463641086
 20
-350.0973109415829
 10
281.8934370231142
 20
-347.9906595695243
 10
290.6355100202951
 20
-337.572262668413
 10
287.5981438033282
 20
-335.023609796006
 10
278.8560708061475
 20
-345.442006697117
 10
277.3105761421533
 20
-344.1451826945733
 42
-0.4142135623731005
 10
276.9408056418559
 20
-339.9186865361567
 10
291.7249206646464
 20
-322.2996643444203
 42
-0.4663076581550041
 10
302.4495428683123
 20
-322.2996643444203
 10
317.2336578911024
 20
-339.9186865361567
 42
-0.4142135623731005
 10
316.8638873908051
 20
-344.1451826945735
 10
315.3183927268111
 20
-345.4420066971172
 10
306.5763197296302
 20
-335.0236097960062
 10
303.5389535126634
 20
-337.5722626684131
 10
312.2810265098443
 20
-347.9906595695243
 10
309.7704171688498
 20
-350.0973109415829
 42
-0.1763269807084835
 10
307.8420543397904
 20
-350.799177612226
  0
LWPOLYLINE
  5
137
330
1F
100
AcDbEntity
  8
0
100
AcDbPolyline
 90
       14
 70
     1
 43
0.0
 10
340.4760361196459
 20
-365.104843321039
 42
-0.1316524975873172
 10
340.6100107158617
 20
-365.6048433210391
 10
340.6100107158617
 20
-369.0407417059014
 10
334.5925107158618
 20
-369.0407417059014
 10
334.5925107158618
 20
-365.1407417059015
 10
330.6275107158619
 20
-365.1407417059015
 10
330.6275107158619
 20
-369.0407417059014
 10
324.6100107158617
 20
-369.0407417059014
 10
324.6100107158617
 20
-365.6048433210391
 42
-0.1316524975873557
 10
324.7439853120775
 20
-365.1048433210391
 10
327.3213355812672
 20
-360.6407417059015
 42
-0.2679491924310393
 10
328.1873609850517
 20
-360.1407417059017
 10
337.0326604466722
 20
-360.1407417059017
 42
-0.2679491924310342
 10
337.8986858504566
 20
-360.6407417059017
  0
CIRCLE
  5
138
330
1F
100
AcDbEntity
  8
0
100
AcDbCircle
 10
306.1607354546567
 20
-299.7266788183532
 30
0.0
 40
3.899999999999985
  0
LWPOLYLINE
  5
139
330
1F
100
AcDbEntity
  8
0
100
AcDbPolyline
 90
       11
 70
     1
 43
0.0
 10
188.5377410756726
 20
-380.5146669475693
 42
-0.4142135623731939
 10
190.5377410756722
 20
-378.5146669475693
 10
252.2891928245484
 20
-378.5146669475694
 42
-1.581733740912068
 10
260.2866127700116
 20
-394.3115063807622
 10
252.289192824548
 20
-394.5146669475695
 10
190.5377410756722
 20
-394.5146669475694
 42
-0.4142135623731523
 10
188.5377410756726
 20
-392.5146669475694
 10
188.5377410756726
 20
-388.4971669475693
 10
196.0377410756726
 20
-388.4971669475693
 10
196.0377410756722
 20
-384.5321669475694
 10
188.5377410756722
 20
-384.5321669475694
  0
LWPOLYLINE
  5
140
330
1F
100
AcDbEntity
  8
0
100
AcDbPolyline
 90
       14
 70
     1
 43
0.0
 10
566.763543807489
 20
-335.0765719642175
 10
564.3773472406898
 20
-331.9099821668809
 10
570.7664313210683
 20
-327.0954619816646
 10
567.3670954380444
 20
-322.5843909011487
 10
557.1396215822294
 20
-322.5843909011487
 10
555.4368558711329
 20
-323.4147899034728
 10
558.94349985342
 20
-330.605300871512
 10
555.3797028548856
 20
-332.3432812952331
 10
551.8730588725985
 20
-325.152770327194
 10
550.1702931615013
 20
-325.9831693295185
 10
551.1708446216287
 20
-338.3123742855264
 42
0.6236717258008122
 10
566.2149515432636
 20
-344.2260333202387
 10
576.5519637708887
 20
-334.7731228595196
 10
573.1526278878654
 20
-330.2620517790026
  0
LWPOLYLINE
  5
141
330
1F
100
AcDbEntity
  8
0
100
AcDbPolyline
 90
       12
 70
     1
 43
0.0
 10
551.8607354546528
 20
-303.7091788183559
 10
543.860735454653
 20
-303.7091788183559
 10
543.860735454653
 20
-295.7441788183558
 10
551.8607354546528
 20
-295.7441788183558
 10
551.8607354546528
 20
-289.7266788183558
 42
0.4142135623730013
 10
549.8607354546529
 20
-287.7266788183558
 10
537.8607354546533
 20
-287.7266788183558
 42
0.4142135623730744
 10
535.8607354546533
 20
-289.7266788183558
 10
535.8607354546533
 20
-309.7266788183211
 42
0.4142135623773405
 10
537.860735454682
 20
-311.7266788183213
 10
549.8607354546819
 20
-311.7266788181459
 42
0.4142135623688183
 10
551.8607354546528
 20
-309.7266788181459
  0
CIRCLE
  5
142
330
1F
100
AcDbEntity
  8
0
100
AcDbCircle
 10
317.9607354546573
 20
-299.7266788183533
 30
0.0
 40
3.899999999999985
  0
LWPOLYLINE
  5
143
330
1F
100
AcDbEntity
  8
0
100
AcDbPolyline
 90
        4
 70
     1
 43
0.0
 10
169.5359121039695
 20
-553.1208122157566
 10
181.5359121039696
 20
-553.1208122157566
 10
181.5359121039697
 20
-548.9208122157566
 10
169.5359121039696
 20
-548.9208122157566
  0
CIRCLE
  5
144
330
1F
100
AcDbEntity
  8
0
100
AcDbCircle
 10
282.410735454658
 20
-299.7266788183538
 30
0.0
 40
3.949999999999981
  0
LWPOLYLINE
  5
145
330
1F
100
AcDbEntity
  8
0
100
AcDbPolyline
 90
       14
 70
     1
 43
0.0
 10
431.8607354546553
 20
-306.2266788183531
 42
-0.4142135623730744
 10
429.8607354546553
 20
-308.2266788183531
 10
428.3166163917204
 20
-308.2266788183531
 10
426.8432354546555
 20
-304.1785979635131
 10
426.8432354546555
 20
-296.2266788183531
 10
421.8782354546557
 20
-296.2266788183531
 10
421.8782354546557
 20
-304.1785979635126
 10
420.4048545175909
 20
-308.2266788183531
 10
418.8607354546555
 20
-308.2266788183531
 42
-0.4142135623730744
 10
416.8607354546556
 20
-306.2266788183531
 10
416.8607354546556
 20
-293.2266788183531
 42
-0.4142135623731106
 10
418.8607354546559
 20
-291.2266788183531
 10
429.8607354546556
 20
-291.2266788183531
 42
-0.4142135623730639
 10
431.8607354546553
 20
-293.2266788183531
  0
LWPOLYLINE
  5
146
330
1F
100
AcDbEntity
  8
0
100
AcDbPolyline
 90
       14
 70
     1
 43
0.0
 10
616.5976740646641
 20
-289.3449662311328
 10
616.5976740646641
 20
-297.4452174890002
 10
612.6326740646638
 20
-297.4452174890002
 10
612.6326740646638
 20
-289.3449662311328
 10
606.6151740646642
 20
-289.3449662311328
 10
606.6151740646642
 20
-305.3449662311328
 42
0.4142135623730586
 10
610.6151740646642
 20
-309.3449662311329
 10
612.6326740646638
 20
-309.3449662311327
 10
612.6326740646638
 20
-301.8449662311328
 10
616.5976740646641
 20
-301.8449662311328
 10
616.5976740646641
 20
-309.3449662311329
 10
618.6151740646642
 20
-309.3449662311329
 42
0.4142135623730586
 10
622.6151740646642
 20
-305.3449662311327
 10
622.6151740646638
 20
-289.3449662311328
  0
LWPOLYLINE
  5
147
330
1F
100
AcDbEntity
  8
0
100
AcDbPolyline
 90
       14
 70
     1
 43
0.0
 10
570.8607354546519
 20
-306.2266788183531
 42
-0.4142135623730431
 10
568.8607354546519
 20
-308.2266788183531
 10
567.316616391717
 20
-308.2266788183531
 10
565.843235454652
 20
-304.1785979635131
 10
565.843235454652
 20
-296.2266788183531
 10
560.8782354546522
 20
-296.2266788183532
 10
560.8782354546522
 20
-304.1785979635126
 10
559.4048545175874
 20
-308.2266788183531
 10
557.860735454652
 20
-308.2266788183531
 42
-0.4142135623730744
 10
555.860735454652
 20
-306.2266788183531
 10
555.860735454652
 20
-293.2266788183532
 42
-0.4142135623731106
 10
557.860735454652
 20
-291.2266788183532
 10
568.8607354546519
 20
-291.2266788183531
 42
-0.4142135623730326
 10
570.8607354546519
 20
-293.2266788183532
  0
CIRCLE
  5
148
330
1F
100
AcDbEntity
  8
0
100
AcDbCircle
 10
382.160735454656
 20
-299.7266788183531
 30
0.0
 40
8.899999999999963
  0
LWPOLYLINE
  5
149
330
1F
100
AcDbEntity
  8
0
100
AcDbPolyline
 90
       12
 70
     1
 43
0.0
 10
596.2816429104645
 20
-317.2764924178575
 10
596.2816429104645
 20
-320.2764924178575
 10
592.3166429104643
 20
-320.2764924178576
 10
592.3166429104646
 20
-317.2764924178578
 10
586.2991429104646
 20
-317.2764924178578
 10
586.2991429104644
 20
-327.2764924178578
 10
592.3166429104646
 20
-327.2764924178578
 10
592.3166429104646
 20
-324.2764924178576
 10
596.2816429104645
 20
-324.2764924178576
 10
596.2816429104647
 20
-327.2764924178578
 10
602.2991429104646
 20
-327.2764924178578
 10
602.2991429104644
 20
-317.2764924178578
  0
LWPOLYLINE
  5
150
330
1F
100
AcDbEntity
  8
0
100
AcDbPolyline
 90
       14
 70
     1
 43
0.0
 10
656.5976740646634
 20
-301.244714973266
 10
656.5976740646634
 20
-309.3449662311333
 10
662.6151740646633
 20
-309.3449662311333
 10
662.6151740646636
 20
-293.3449662311334
 42
0.4142135623730793
 10
658.6151740646633
 20
-289.3449662311334
 10
656.5976740646634
 20
-289.3449662311334
 10
656.5976740646634
 20
-296.8449662311333
 10
652.6326740646632
 20
-296.8449662311333
 10
652.6326740646632
 20
-289.3449662311334
 10
650.6151740646632
 20
-289.3449662311334
 42
0.4142135623730898
 10
646.6151740646633
 20
-293.3449662311334
 10
646.6151740646633
 20
-309.3449662311333
 10
652.6326740646632
 20
-309.3449662311332
 10
652.6326740646632
 20
-301.2447149732659
  0
LWPOLYLINE
  5
151
330
1F
100
AcDbEntity
  8
0
100
AcDbPolyline
 90
       17
 70
     1
 43
0.0
 10
350.5100107158585
 20
-369.0052497247354
 10
350.5100107158585
 20
-373.0052497247352
 10
362.7100107158587
 20
-373.0052497247352
 10
362.7100107158587
 20
-369.0052497247354
 10
368.6100107158586
 20
-369.0052497247354
 10
368.6100107158586
 20
-359.9890187160924
 42
0.2291798938181261
 10
368.2307136569126
 20
-359.2049728890092
 10
365.1200687234358
 20
-356.7423790047121
 42
0.3875537320160489
 10
363.7755717300269
 20
-356.8364087669278
 42
-0.1530969368301472
 10
358.5925107158584
 20
-359.7047184389007
 10
358.5925107158585
 20
-365.1052497247351
 10
354.6275107158586
 20
-365.1052497247353
 10
354.6275107158586
 20
-359.958805539657
 10
348.8627323189178
 20
-360.1052497247353
 10
345.6100107158586
 20
-360.1052497247353
 42
0.4142135623731991
 10
344.6100107158585
 20
-361.1052497247353
 10
344.6100107158585
 20
-369.0052497247354
  0
LWPOLYLINE
  5
152
330
1F
100
AcDbEntity
  8
0
100
AcDbPolyline
 90
       12
 70
     1
 43
0.0
 10
511.8607354546535
 20
-303.7091788183559
 10
503.8607354546538
 20
-303.7091788183559
 10
503.860735454654
 20
-295.7441788183558
 10
511.8607354546538
 20
-295.7441788183558
 10
511.8607354546539
 20
-289.7266788183558
 42
0.4142135623730744
 10
509.860735454654
 20
-287.7266788183558
 10
497.8607354546539
 20
-287.7266788183558
 42
0.4142135623730744
 10
495.8607354546542
 20
-289.7266788183558
 10
495.860735454654
 20
-309.7266788183211
 42
0.4142135623773613
 10
497.8607354546832
 20
-311.7266788183213
 10
509.8607354546829
 20
-311.7266788181459
 42
0.4142135623688392
 10
511.8607354546538
 20
-309.7266788181459
  0
LWPOLYLINE
  5
153
330
1F
100
AcDbEntity
  8
0
100
AcDbPolyline
 90
       12
 70
     1
 43
0.0
 10
491.8607354546535
 20
-303.7091788183559
 10
483.8607354546542
 20
-303.7091788183559
 10
483.860735454654
 20
-295.7441788183558
 10
491.8607354546538
 20
-295.7441788183558
 10
491.8607354546535
 20
-289.7266788183558
 42
0.4142135623730744
 10
489.8607354546535
 20
-287.7266788183558
 10
477.8607354546539
 20
-287.7266788183558
 42
0.4142135623730222
 10
475.8607354546539
 20
-289.7266788183558
 10
475.8607354546539
 20
-309.7266788183211
 42
0.4142135623773302
 10
477.8607354546831
 20
-311.7266788183213
 10
489.8607354546827
 20
-311.7266788181459
 42
0.4142135623688183
 10
491.8607354546534
 20
-309.7266788181459
  0
CIRCLE
  5
154
330
1F
100
AcDbEntity
  8
0
100
AcDbCircle
 10
329.8107354546583
 20
-299.7266788183535
 30
0.0
 40
3.949999999999981
  0
LWPOLYLINE
  5
155
330
1F
100
AcDbEntity
  8
0
100
AcDbPolyline
 90
        4
 70
     1
 43
0.0
 10
213.5359121039712
 20
-548.9208122157588
 10
201.5359121039712
 20
-548.9208122157588
 10
201.5359121039712
 20
-553.1208122157588
 10
213.5359121039712
 20
-553.1208122157588
  0
LWPOLYLINE
  5
156
330
1F
100
AcDbEntity
  8
0
100
AcDbPolyline
 90
       18
 70
     1
 43
0.0
 10
332.0289947837008
 20
-350.7991776122262
 42
-0.1763269807084419
 10
330.100631954641
 20
-350.0973109415832
 10
327.5900226136467
 20
-347.9906595695245
 10
336.3320956108274
 20
-337.5722626684134
 10
333.2947293938608
 20
-335.0236097960062
 10
324.5526563966798
 20
-345.4420066971175
 10
323.0071617326859
 20
-344.1451826945736
 42
-0.4142135623731005
 10
322.6373912323884
 20
-339.9186865361571
 10
337.4215062551789
 20
-322.2996643444208
 42
-0.4663076581549945
 10
348.1461284588446
 20
-322.2996643444208
 10
362.9302434816349
 20
-339.9186865361571
 42
-0.4142135623731005
 10
362.5604729813375
 20
-344.1451826945736
 10
361.0149783173433
 20
-345.4420066971175
 10
352.2729053201626
 20
-335.0236097960063
 10
349.2355391031957
 20
-337.5722626684134
 10
357.9776121003768
 20
-347.9906595695245
 10
355.4670027593823
 20
-350.0973109415832
 42
-0.1763269807084881
 10
353.5386399303228
 20
-350.7991776122262
  0
LWPOLYLINE
  5
157
330
1F
100
AcDbEntity
  8
0
100
AcDbPolyline
 90
        4
 70
     1
 43
0.0
 10
217.5359121039711
 20
-553.1208122157566
 10
229.5359121039709
 20
-553.1208122157566
 10
229.5359121039709
 20
-548.9208122157566
 10
217.5359121039711
 20
-548.9208122157566
  0
LWPOLYLINE
  5
158
330
1F
100
AcDbEntity
  8
0
100
AcDbPolyline
 90
       12
 70
     1
 43
0.0
 10
656.2816429104647
 20
-323.776492417858
 10
656.2816429104647
 20
-326.776492417858
 10
662.2991429104644
 20
-326.776492417858
 10
662.2991429104648
 20
-317.776492417858
 10
656.2816429104647
 20
-317.7764924178579
 10
656.2816429104647
 20
-319.7764924178581
 10
652.3166429104645
 20
-319.7764924178582
 10
652.3166429104643
 20
-317.776492417858
 10
646.2991429104643
 20
-317.776492417858
 10
646.2991429104646
 20
-326.776492417858
 10
652.3166429104645
 20
-326.776492417858
 10
652.3166429104645
 20
-323.776492417858
  0
CIRCLE
  5
159
330
1F
100
AcDbEntity
  8
0
100
AcDbCircle
 10
365.3607354546561
 20
-299.7266788183534
 30
0.0
 40
3.899999999999985
  0
LWPOLYLINE
  5
160
330
1F
100
AcDbEntity
  8
0
100
AcDbPolyline
 90
        4
 70
     1
 43
0.0
 10
-5.226886930944544
 20
-0.0000000000000613
 10
-5.226886930943749
 20
-610.0000000000001
 10
994.7731130690621
 20
-610.0000000000002
 10
994.7731130690611
 20
-0.0000000000001838
  0
LWPOLYLINE
  5
161
330
1F
100
AcDbEntity
  8
0
100
AcDbPolyline
 90
        4
 70
     1
 43
0.0
 10
56.77311306905176
 20
-9.542724450450743
 10
60.77311306905176
 20
-9.542724450450746
 10
60.77311306905187
 20
-29.34272445045066
 10
56.77311306905187
 20
-29.34272445045069
  0
LINE
  5
162
330
1F
100
AcDbEntity
  8
0
100
AcDbLine
 10
60.77311306905176
 20
-109.3427244504503
 30
0.0
 11
60.77311306905187
 21
-89.54272445045036
 31
0.0
  0
LWPOLYLINE
  5
163
330
1F
100
AcDbEntity
  8
0
100
AcDbPolyline
 90
        4
 70
     1
 43
0.0
 10
56.77311306905187
 20
-89.54272445045036
 10
60.77311306905187
 20
-89.54272445045036
 10
60.77311306905187
 20
-109.3427244504503
 10
56.77311306905153
 20
-109.3427244504502
  0
LWPOLYLINE
  5
164
330
1F
100
AcDbEntity
  8
0
100
AcDbPolyline
 90
        4
 70
     1
 43
0.0
 10
72.77311306905176
 20
-113.5427245545942
 10
68.77311306905176
 20
-113.5427245545942
 10
68.77311306905188
 20
-125.3427245545941
 10
72.77311306905176
 20
-125.3427245545941
  0
LWPOLYLINE
  5
165
330
1F
100
AcDbEntity
  8
0
100
AcDbPolyline
 90
        4
 70
     1
 43
0.0
 10
258.7731130690511
 20
-125.3427245545942
 10
258.7731130690511
 20
-113.5427245545942
 10
254.7731130690511
 20
-113.5427245545942
 10
254.7731130690511
 20
-125.3427245545942
  0
LWPOLYLINE
  5
166
330
1F
100
AcDbEntity
  8
0
100
AcDbPolyline
 90
        4
 70
     1
 43
0.0
 10
176.1731130690518
 20
-274.4427244504493
 10
151.3731130690519
 20
-274.4427244504493
 10
151.3731130690519
 20
-278.4427244504493
 10
176.1731130690518
 20
-278.4427244504493
  0
LWPOLYLINE
  5
167
330
1F
100
AcDbEntity
  8
0
100
AcDbPolyline
 90
        4
 70
     1
 43
0.0
 10
86.37311306905189
 20
-274.4427244504493
 10
86.37311306905189
 20
-278.4427244504493
 10
111.1731130690518
 20
-278.4427244504493
 10
111.1731130690518
 20
-274.4427244504493
  0
LWPOLYLINE
  5
168
330
1F
100
AcDbEntity
  8
0
100
AcDbPolyline
 90
        4
 70
     1
 43
0.0
 10
241.1731130690516
 20
-274.4427244504493
 10
216.3731130690519
 20
-274.4427244504493
 10
216.3731130690518
 20
-278.4427244504493
 10
241.1731130690516
 20
-278.4427244504493
  0
LWPOLYLINE
  5
169
330
1F
100
AcDbEntity
  8
0
100
AcDbPolyline
 90
        4
 70
     1
 43
0.0
 10
56.77311306905199
 20
-254.5427244504494
 10
56.77311306905199
 20
-274.3427244504494
 10
60.77311306905187
 20
-274.3427244504494
 10
60.77311306905198
 20
-254.5427244504494
  0
LWPOLYLINE
  5
170
330
1F
100
AcDbEntity
  8
0
100
AcDbPolyline
 90
        4
 70
     1
 43
0.0
 10
60.77311306905176
 20
-109.3427244504502
 10
60.77311306905176
 20
-89.54272445045036
 10
56.77311306905187
 20
-89.54272445045036
 10
56.77311306905153
 20
-109.3427244504503
  0
LWPOLYLINE
  5
171
330
1F
100
AcDbEntity
  8
0
100
AcDbPolyline
 90
        4
 70
     1
 43
0.0
 10
60.77311306905187
 20
-194.3427244504497
 10
60.77311306905187
 20
-174.5427244504499
 10
56.77311306905199
 20
-174.5427244504499
 10
56.77311306905187
 20
-194.3427244504497
  0
LWPOLYLINE
  5
172
330
1F
100
AcDbEntity
  8
0
100
AcDbPolyline
 90
        4
 70
     1
 43
0.0
 10
60.77311306905153
 20
-29.34272445045066
 10
60.77311306905153
 20
-9.542724450450746
 10
56.77311306905187
 20
-9.542724450450748
 10
56.77311306905176
 20
-29.34272445045069
  0
LWPOLYLINE
  5
173
330
1F
100
AcDbEntity
  8
0
100
AcDbPolyline
 90
        4
 70
     1
 43
0.0
 10
270.7731130690516
 20
-274.3427244504493
 10
270.7731130690516
 20
-254.5427244504494
 10
266.7731130690516
 20
-254.5427244504494
 10
266.7731130690516
 20
-274.3427244504493
  0
LWPOLYLINE
  5
174
330
1F
100
AcDbEntity
  8
0
100
AcDbPolyline
 90
        4
 70
     1
 43
0.0
 10
270.7731130690516
 20
-194.3427244504497
 10
270.7731130690515
 20
-174.5427244504499
 10
266.7731130690516
 20
-174.5427244504499
 10
266.7731130690516
 20
-194.3427244504497
  0
LWPOLYLINE
  5
175
330
1F
100
AcDbEntity
  8
0
100
AcDbPolyline
 90
        4
 70
     1
 43
0.0
 10
270.7731130690515
 20
-109.3427244504503
 10
270.7731130690513
 20
-89.5427244504504
 10
266.7731130690516
 20
-89.5427244504504
 10
266.7731130690516
 20
-109.3427244504503
  0
LWPOLYLINE
  5
176
330
1F
100
AcDbEntity
  8
0
100
AcDbPolyline
 90
        4
 70
     1
 43
0.0
 10
270.7731130690511
 20
-29.34272445045072
 10
270.7731130690511
 20
-9.542724450450773
 10
266.7731130690511
 20
-9.542724450450775
 10
266.7731130690511
 20
-29.34272445045068
  0
LWPOLYLINE
  5
177
330
1F
100
AcDbEntity
  8
0
100
AcDbPolyline
 90
        8
 70
     1
 43
0.0
 10
18.77311306905198
 20
-283.4427244504492
 42
-0.4142135623730951
 10
-1.226886930947955
 20
-263.4427244504493
 10
-1.226886930948239
 20
-24.44272445045048
 42
-0.4142135623730927
 10
18.77311306905153
 20
-4.44272445045059
 10
308.7731130690508
 20
-4.442724450450243
 42
-0.4142135623730952
 10
328.7731130690511
 20
-24.4427244504504
 10
328.7731130690511
 20
-263.4427244504493
 42
-0.414213562373093
 10
308.7731130690515
 20
-283.4427244504493
  0
LWPOLYLINE
  5
178
330
1F
100
AcDbEntity
  8
0
100
AcDbPolyline
 90
        4
 70
     1
 43
0.0
 10
422.7731130481897
 20
-166.8427244504493
 10
426.7731130690515
 20
-166.8427244504493
 10
426.7731130690515
 20
-147.0427244504495
 10
422.773108917588
 20
-147.0427244504495
  0
LWPOLYLINE
  5
179
330
1F
100
AcDbEntity
  8
0
100
AcDbPolyline
 90
        4
 70
     1
 43
0.0
 10
422.7731130481895
 20
-128.3427244504495
 10
426.7731130690515
 20
-128.3427244504495
 10
426.7731130690515
 20
-108.5427244504496
 10
422.7731089175878
 20
-108.5427244504497
  0
LWPOLYLINE
  5
180
330
1F
100
AcDbEntity
  8
0
100
AcDbPolyline
 90
        4
 70
     1
 43
0.0
 10
422.7731130481897
 20
-205.3427244504492
 10
426.7731130690515
 20
-205.3427244504492
 10
426.7731130690515
 20
-185.5427244504493
 10
422.773108917588
 20
-185.5427244504493
  0
LWPOLYLINE
  5
181
330
1F
100
AcDbEntity
  8
0
100
AcDbPolyline
 90
        4
 70
     1
 43
0.0
 10
422.7731130481895
 20
-89.84272445044977
 10
426.7731130690515
 20
-89.84272445044977
 10
426.7731130690515
 20
-70.04272445044986
 10
422.7731089175878
 20
-70.04272445044986
  0
LINE
  5
182
330
1F
100
AcDbEntity
  8
0
100
AcDbLine
 10
422.7731093139588
 20
-33.4427244504508
 30
0.0
 11
422.7731089175878
 21
-31.54272445045004
 31
0.0
  0
LINE
  5
183
330
1F
100
AcDbEntity
  8
0
100
AcDbLine
 10
422.7731089175878
 20
-31.54272445045004
 30
0.0
 11
426.7731130690511
 21
-31.54272445045004
 31
0.0
  0
LINE
  5
184
330
1F
100
AcDbEntity
  8
0
100
AcDbLine
 10
426.7731130690511
 20
-31.54272445045004
 30
0.0
 11
426.7731130690511
 21
-51.34272445044996
 31
0.0
  0
LINE
  5
185
330
1F
100
AcDbEntity
  8
0
100
AcDbLine
 10
426.7731130690511
 20
-51.34272445044996
 30
0.0
 11
422.7731130481893
 21
-51.34272445044996
 31
0.0
  0
LINE
  5
186
330
1F
100
AcDbEntity
  8
0
100
AcDbLine
 10
422.7731130481893
 20
-51.34272445044996
 30
0.0
 11
422.7731130690515
 21
-49.44272445044996
 31
0.0
  0
LINE
  5
187
330
1F
100
AcDbEntity
  8
0
100
AcDbLine
 10
422.7731130690515
 20
-49.44272445044996
 30
0.0
 11
422.7731130690515
 21
-33.44272445045081
 31
0.0
  0
LWPOLYLINE
  5
188
330
1F
100
AcDbEntity
  8
0
100
AcDbPolyline
 90
        4
 70
     1
 43
0.0
 10
612.7731130899125
 20
-89.84272445044979
 10
612.7731172205145
 20
-70.04272445044988
 10
608.7731130690509
 20
-70.04272445044988
 10
608.7731130690509
 20
-89.84272445044979
  0
LWPOLYLINE
  5
189
330
1F
100
AcDbEntity
  8
0
100
AcDbPolyline
 90
        4
 70
     1
 43
0.0
 10
612.7731130899125
 20
-166.8427244504494
 10
612.7731172205145
 20
-147.0427244504495
 10
608.7731130690509
 20
-147.0427244504495
 10
608.7731130690512
 20
-166.8427244504494
  0
LWPOLYLINE
  5
190
330
1F
100
AcDbEntity
  8
0
100
AcDbPolyline
 90
        4
 70
     1
 43
0.0
 10
612.7731130899125
 20
-205.3427244504492
 10
612.7731172205145
 20
-185.5427244504493
 10
608.7731130690509
 20
-185.5427244504493
 10
608.7731130690512
 20
-205.3427244504493
  0
LWPOLYLINE
  5
191
330
1F
100
AcDbEntity
  8
0
100
AcDbPolyline
 90
        4
 70
     1
 43
0.0
 10
612.7731130899125
 20
-128.3427244504495
 10
612.7731172205145
 20
-108.5427244504497
 10
608.7731130690509
 20
-108.5427244504497
 10
608.7731130690509
 20
-128.3427244504495
  0
LWPOLYLINE
  5
192
330
1F
100
AcDbEntity
  8
0
100
AcDbPolyline
 90
        4
 70
     1
 43
0.0
 10
612.7731130899125
 20
-51.34272445044999
 10
612.7731172205145
 20
-31.54272445045006
 10
608.7731130690509
 20
-31.54272445045006
 10
608.7731130690509
 20
-51.34272445044999
  0
LWPOLYLINE
  5
193
330
1F
100
AcDbEntity
  8
0
100
AcDbPolyline
 90
        4
 70
     1
 43
0.0
 10
392.8731130690518
 20
-256.442724450449
 10
402.6731130690515
 20
-256.442724450449
 10
402.6731130690517
 20
-252.442724450449
 10
392.8731130690518
 20
-252.442724450449
  0
LWPOLYLINE
  5
194
330
1F
100
AcDbEntity
  8
0
100
AcDbPolyline
 90
        4
 70
     1
 43
0.0
 10
414.7731130690516
 20
-256.542724450449
 10
410.7731130690515
 20
-256.542724450449
 10
410.7731130690516
 20
-271.3427244504489
 10
414.7731130690517
 20
-271.3427244504489
  0
LWPOLYLINE
  5
195
330
1F
100
AcDbEntity
  8
0
100
AcDbPolyline
 90
        4
 70
     1
 43
0.0
 10
414.7731130690516
 20
-246.342724450449
 10
414.7731130690516
 20
-231.5427244504491
 10
410.7731130690515
 20
-231.5427244504491
 10
410.7731130690516
 20
-246.342724450449
  0
LWPOLYLINE
  5
196
330
1F
100
AcDbEntity
  8
0
100
AcDbPolyline
 90
        4
 70
     1
 43
0.0
 10
432.6731130690514
 20
-256.4427244504489
 10
432.6731130690514
 20
-252.442724450449
 10
422.8731130690517
 20
-252.442724450449
 10
422.8731130690517
 20
-256.442724450449
  0
LWPOLYLINE
  5
197
330
1F
100
AcDbEntity
  8
0
100
AcDbPolyline
 90
        4
 70
     1
 43
0.0
 10
642.6731130690511
 20
-252.442724450449
 10
632.8731130690511
 20
-252.442724450449
 10
632.8731130690511
 20
-256.442724450449
 10
642.6731130690511
 20
-256.4427244504489
  0
LWPOLYLINE
  5
198
330
1F
100
AcDbEntity
  8
0
100
AcDbPolyline
 90
        4
 70
     1
 43
0.0
 10
620.7731130690509
 20
-271.3427244504489
 10
624.7731130690509
 20
-271.3427244504489
 10
624.7731130690509
 20
-256.542724450449
 10
620.7731130690509
 20
-256.542724450449
  0
LWPOLYLINE
  5
199
330
1F
100
AcDbEntity
  8
0
100
AcDbPolyline
 90
        4
 70
     1
 43
0.0
 10
624.7731130690509
 20
-246.342724450449
 10
624.7731130690509
 20
-231.5427244504491
 10
620.7731130690509
 20
-231.5427244504491
 10
620.7731130690509
 20
-246.342724450449
  0
LWPOLYLINE
  5
200
330
1F
100
AcDbEntity
  8
0
100
AcDbPolyline
 90
        4
 70
     1
 43
0.0
 10
612.6731130690513
 20
-256.4427244504489
 10
612.6731130690513
 20
-252.442724450449
 10
602.8731130690511
 20
-252.442724450449
 10
602.8731130690513
 20
-256.442724450449
  0
LWPOLYLINE
  5
201
330
1F
100
AcDbEntity
  8
0
100
AcDbPolyline
 90
        8
 70
     1
 43
0.0
 10
702.773113069051
 20
-261.442724450449
 42
-0.4142135623730951
 10
682.7731130690509
 20
-281.4427244504488
 10
352.7731130690516
 20
-281.4427244504491
 42
-0.4142135623730951
 10
332.7731130690517
 20
-261.4427244504489
 10
332.7731130690515
 20
-26.44272445045005
 42
-0.4142135623730951
 10
352.7731130690513
 20
-6.442724450450152
 10
682.7731130690505
 20
-6.442724450449953
 42
-0.4142135623730949
 10
702.773113069051
 20
-26.44272445045008
  0
CIRCLE
  5
202
330
1F
100
AcDbEntity
  8
0
100
AcDbCircle
 10
297.0872317664793
 20
-326.799177612226
 30
0.0
 40
3.99999999999998
  0
LWPOLYLINE
  5
203
330
1F
100
AcDbEntity
  8
0
100
AcDbPolyline
 90
       18
 70
     1
 43
0.0
 10
317.2336578911024
 20
-339.9186865361567
 42
-0.4142135623730951
 10
316.8638873908051
 20
-344.1451826945735
 10
315.3183927268111
 20
-345.442006697117
 10
306.5763197296302
 20
-335.023609796006
 10
303.5389535126635
 20
-337.572262668413
 10
312.2810265098443
 20
-347.9906595695243
 10
309.77041716885
 20
-350.0973109415829
 42
-0.1763269807084635
 10
307.8420543397904
 20
-350.799177612226
 10
286.3324091931683
 20
-350.799177612226
 42
-0.1763269807084682
 10
284.4040463641086
 20
-350.0973109415829
 10
281.8934370231141
 20
-347.9906595695243
 10
290.6355100202951
 20
-337.572262668413
 10
287.5981438033283
 20
-335.023609796006
 10
278.8560708061474
 20
-345.4420066971172
 10
277.3105761421533
 20
-344.1451826945731
 42
-0.4142135623730995
 10
276.9408056418561
 20
-339.9186865361567
 10
291.7249206646464
 20
-322.2996643444203
 42
-0.466307658155002
 10
302.449542868312
 20
-322.2996643444203
  0
LWPOLYLINE
  5
204
330
1F
100
AcDbEntity
  8
0
100
AcDbPolyline
 90
       18
 70
     1
 43
0.0
 10
362.9302434816349
 20
-339.9186865361571
 42
-0.4142135623731048
 10
362.5604729813375
 20
-344.1451826945736
 10
361.0149783173433
 20
-345.4420066971175
 10
352.2729053201626
 20
-335.0236097960063
 10
349.2355391031958
 20
-337.5722626684134
 10
357.977612100377
 20
-347.9906595695245
 10
355.4670027593823
 20
-350.0973109415832
 42
-0.1763269807084638
 10
353.5386399303228
 20
-350.7991776122262
 10
332.0289947837008
 20
-350.7991776122262
 42
-0.1763269807084636
 10
330.100631954641
 20
-350.0973109415832
 10
327.5900226136465
 20
-347.9906595695245
 10
336.3320956108276
 20
-337.5722626684134
 10
333.2947293938608
 20
-335.0236097960063
 10
324.5526563966798
 20
-345.4420066971175
 10
323.0071617326859
 20
-344.1451826945736
 42
-0.4142135623731288
 10
322.6373912323885
 20
-339.9186865361571
 10
337.4215062551789
 20
-322.2996643444208
 42
-0.4663076581549907
 10
348.1461284588445
 20
-322.2996643444208
  0
CIRCLE
  5
205
330
1F
100
AcDbEntity
  8
0
100
AcDbCircle
 10
342.7838173570116
 20
-326.7991776122266
 30
0.0
 40
3.99999999999998
  0
CIRCLE
  5
206
330
1F
100
AcDbEntity
  8
0
100
AcDbCircle
 10
388.4804029475438
 20
-326.799177612226
 30
0.0
 40
3.99999999999998
  0
LWPOLYLINE
  5
207
330
1F
100
AcDbEntity
  8
0
100
AcDbPolyline
 90
       18
 70
     1
 43
0.0
 10
408.6268290721671
 20
-339.9186865361567
 42
-0.4142135623730951
 10
408.2570585718698
 20
-344.1451826945733
 10
406.7115639078759
 20
-345.442006697117
 10
397.9694909106947
 20
-335.023609796006
 10
394.9321246937282
 20
-337.572262668413
 10
403.674197690909
 20
-347.9906595695243
 10
401.1635883499145
 20
-350.0973109415829
 42
-0.1763269807084635
 10
399.2352255208548
 20
-350.799177612226
 10
377.725580374233
 20
-350.7991776122258
 42
-0.1763269807084682
 10
375.7972175451731
 20
-350.0973109415828
 10
373.2866082041787
 20
-347.9906595695242
 10
382.0286812013597
 20
-337.572262668413
 10
378.9913149843932
 20
-335.023609796006
 10
370.2492419872123
 20
-345.442006697117
 10
368.703747323218
 20
-344.1451826945731
 42
-0.4142135623731049
 10
368.3339768229207
 20
-339.9186865361567
 10
383.1180918457111
 20
-322.2996643444203
 42
-0.4663076581550046
 10
393.8427140493768
 20
-322.2996643444203
  0
LINE
  5
208
330
1F
100
AcDbEntity
  8
0
100
AcDbLine
 10
444.9318111113861
 20
-350.799177612226
 30
0.0
 11
423.4221659647642
 21
-350.799177612226
 31
0.0
  0
LWPOLYLINE
  5
209
330
1F
100
AcDbEntity
  8
0
100
AcDbPolyline
 90
       18
 70
     1
 43
0.0
 10
454.3234146626982
 20
-339.9186865361569
 42
-0.4142135623731146
 10
453.9536441624009
 20
-344.1451826945736
 10
452.408149498407
 20
-345.442006697117
 10
443.6660765012262
 20
-335.023609796006
 10
440.6287102842592
 20
-337.572262668413
 10
449.3707832814403
 20
-347.9906595695243
 10
446.8601739404459
 20
-350.0973109415829
 42
-0.176326980708445
 10
444.9318111113861
 20
-350.799177612226
 10
423.4221659647642
 20
-350.799177612226
 42
-0.1763269807085016
 10
421.4938031357044
 20
-350.0973109415829
 10
418.9831937947102
 20
-347.9906595695243
 10
427.7252667918912
 20
-337.572262668413
 10
424.6879005749242
 20
-335.023609796006
 10
415.9458275777433
 20
-345.442006697117
 10
414.4003329137493
 20
-344.1451826945733
 42
-0.4142135623731146
 10
414.0305624134519
 20
-339.9186865361567
 10
428.8146774362425
 20
-322.2996643444203
 42
-0.4663076581549965
 10
439.5392996399079
 20
-322.2996643444203
  0
CIRCLE
  5
210
330
1F
100
AcDbEntity
  8
0
100
AcDbCircle
 10
434.1769885380754
 20
-326.799177612226
 30
0.0
 40
3.99999999999998
  0
CIRCLE
  5
211
330
1F
100
AcDbEntity
  8
0
100
AcDbCircle
 10
468.9963422657362
 20
-337.5843909011487
 30
0.0
 40
3.999999999999965
  0
LWPOLYLINE
  5
212
330
1F
100
AcDbEntity
  8
0
100
AcDbPolyline
 90
       14
 70
     1
 43
0.0
 10
475.6185319793274
 20
-335.0765719642177
 10
482.007616059704
 20
-330.2620517790027
 10
485.406951942727
 20
-334.7731228595196
 10
475.0699397151018
 20
-344.2260333202387
 42
-0.6236717258008165
 10
460.0258327934673
 20
-338.3123742855266
 10
459.0252813333401
 20
-325.9831693295185
 10
460.728047044437
 20
-325.152770327194
 10
464.2346910267242
 20
-332.3432812952331
 10
467.7984880252587
 20
-330.6053008715121
 10
464.2918440429716
 20
-323.4147899034731
 10
465.9946097540678
 20
-322.5843909011487
 10
476.2220836098825
 20
-322.5843909011488
 10
479.621419492907
 20
-327.0954619816647
 10
473.2323354125282
 20
-331.909982166881
  0
CIRCLE
  5
213
330
1F
100
AcDbEntity
  8
0
100
AcDbCircle
 10
499.3780128751239
 20
-337.5843909011486
 30
0.0
 40
3.999999999999965
  0
LWPOLYLINE
  5
214
330
1F
100
AcDbEntity
  8
0
100
AcDbPolyline
 90
       14
 70
     1
 43
0.0
 10
506.0002025887151
 20
-335.0765719642175
 10
512.3892866690917
 20
-330.2620517790025
 10
515.7886225521147
 20
-334.7731228595196
 10
505.4516103244898
 20
-344.2260333202384
 42
-0.623671725800817
 10
490.4075034028549
 20
-338.3123742855264
 10
489.4069519427275
 20
-325.9831693295182
 10
491.1097176538247
 20
-325.152770327194
 10
494.6163616361118
 20
-332.3432812952328
 10
498.1801586346461
 20
-330.6053008715119
 10
494.6735146523591
 20
-323.4147899034728
 10
496.3762803634556
 20
-322.5843909011486
 10
506.6037542192702
 20
-322.5843909011487
 10
510.0030901022944
 20
-327.0954619816646
 10
503.614006021916
 20
-331.9099821668807
  0
CIRCLE
  5
215
330
1F
100
AcDbEntity
  8
0
100
AcDbCircle
 10
529.7596834845103
 20
-337.5843909011487
 30
0.0
 40
3.999999999999965
  0
LWPOLYLINE
  5
216
330
1F
100
AcDbEntity
  8
0
100
AcDbPolyline
 90
       14
 70
     1
 43
0.0
 10
536.3818731981016
 20
-335.0765719642177
 10
542.770957278478
 20
-330.2620517790027
 10
546.1702931615014
 20
-334.7731228595196
 10
535.8332809338761
 20
-344.2260333202387
 42
-0.6236717258008165
 10
520.7891740122414
 20
-338.3123742855266
 10
519.7886225521139
 20
-325.9831693295185
 10
521.4913882632109
 20
-325.152770327194
 10
524.9980322454981
 20
-332.3432812952333
 10
528.5618292440325
 20
-330.6053008715121
 10
525.0551852617454
 20
-323.4147899034731
 10
526.7579509728421
 20
-322.5843909011487
 10
536.9854248286567
 20
-322.5843909011488
 10
540.384760711681
 20
-327.0954619816647
 10
533.9956766313028
 20
-331.909982166881
  0
CIRCLE
  5
217
330
1F
100
AcDbEntity
  8
0
100
AcDbCircle
 10
560.1413540938978
 20
-337.5843909011487
 30
0.0
 40
3.999999999999965
  0
LWPOLYLINE
  5
218
330
1F
100
AcDbEntity
  8
0
100
AcDbPolyline
 90
       14
 70
     1
 43
0.0
 10
566.763543807489
 20
-335.0765719642175
 10
573.1526278878655
 20
-330.2620517790026
 10
576.5519637708887
 20
-334.7731228595196
 10
566.2149515432636
 20
-344.2260333202387
 42
-0.6236717258008141
 10
551.1708446216287
 20
-338.3123742855266
 10
550.1702931615013
 20
-325.9831693295185
 10
551.8730588725985
 20
-325.152770327194
 10
555.3797028548856
 20
-332.3432812952331
 10
558.94349985342
 20
-330.605300871512
 10
555.436855871133
 20
-323.4147899034728
 10
557.1396215822294
 20
-322.5843909011487
 10
567.3670954380441
 20
-322.5843909011487
 10
570.7664313210683
 20
-327.0954619816646
 10
564.3773472406898
 20
-331.9099821668808
  0
LWPOLYLINE
  5
219
330
1F
100
AcDbEntity
  8
0
100
AcDbPolyline
 90
        4
 70
     1
 43
0.0
 10
280.510735454658
 20
-297.8266788183537
 10
280.510735454658
 20
-301.6266788183539
 10
284.3107354546579
 20
-301.6266788183539
 10
284.3107354546579
 20
-297.8266788183537
  0
CIRCLE
  5
220
330
1F
100
AcDbEntity
  8
0
100
AcDbCircle
 10
282.410735454658
 20
-299.7266788183538
 30
0.0
 40
3.949999999999981
  0
LWPOLYLINE
  5
221
330
1F
100
AcDbEntity
  8
0
100
AcDbPolyline
 90
        4
 70
     1
 43
0.0
 10
292.410735454658
 20
-297.8266788183534
 10
292.410735454658
 20
-301.6266788183534
 10
296.2107354546581
 20
-301.6266788183534
 10
296.2107354546581
 20
-297.8266788183534
  0
CIRCLE
  5
222
330
1F
100
AcDbEntity
  8
0
100
AcDbCircle
 10
294.3107354546581
 20
-299.7266788183534
 30
0.0
 40
3.949999999999981
  0
LINE
  5
223
330
1F
100
AcDbEntity
  8
0
100
AcDbLine
 10
308.0607354546563
 20
-301.6266788183533
 30
0.0
 11
308.0607354546563
 21
-297.8266788183531
 31
0.0
  0
LWPOLYLINE
  5
224
330
1F
100
AcDbEntity
  8
0
100
AcDbPolyline
 90
        4
 70
     1
 43
0.0
 10
316.0607354546571
 20
-297.8266788183532
 10
316.0607354546571
 20
-301.6266788183533
 10
319.8607354546571
 20
-301.6266788183533
 10
319.8607354546571
 20
-297.8266788183532
  0
CIRCLE
  5
225
330
1F
100
AcDbEntity
  8
0
100
AcDbCircle
 10
317.9607354546573
 20
-299.7266788183533
 30
0.0
 40
3.899999999999985
  0
LWPOLYLINE
  5
226
330
1F
100
AcDbEntity
  8
0
100
AcDbPolyline
 90
        4
 70
     1
 43
0.0
 10
327.910735454658
 20
-297.8266788183534
 10
327.910735454658
 20
-301.6266788183536
 10
331.7107354546582
 20
-301.6266788183536
 10
331.7107354546581
 20
-297.8266788183534
  0
CIRCLE
  5
227
330
1F
100
AcDbEntity
  8
0
100
AcDbCircle
 10
329.8107354546583
 20
-299.7266788183535
 30
0.0
 40
3.949999999999981
  0
LWPOLYLINE
  5
228
330
1F
100
AcDbEntity
  8
0
100
AcDbPolyline
 90
        4
 70
     1
 43
0.0
 10
339.8107354546579
 20
-297.8266788183534
 10
339.8107354546579
 20
-301.6266788183536
 10
343.6107354546579
 20
-301.6266788183536
 10
343.6107354546579
 20
-297.8266788183534
  0
CIRCLE
  5
229
330
1F
100
AcDbEntity
  8
0
100
AcDbCircle
 10
341.7107354546579
 20
-299.7266788183535
 30
0.0
 40
3.949999999999981
  0
LWPOLYLINE
  5
230
330
1F
100
AcDbEntity
  8
0
100
AcDbPolyline
 90
        4
 70
     1
 43
0.0
 10
351.6607354546567
 20
-297.8266788183534
 10
351.6607354546567
 20
-301.6266788183534
 10
355.4607354546566
 20
-301.6266788183534
 10
355.4607354546566
 20
-297.8266788183534
  0
CIRCLE
  5
231
330
1F
100
AcDbEntity
  8
0
100
AcDbCircle
 10
353.5607354546568
 20
-299.7266788183534
 30
0.0
 40
3.899999999999985
  0
LWPOLYLINE
  5
232
330
1F
100
AcDbEntity
  8
0
100
AcDbPolyline
 90
        4
 70
     1
 43
0.0
 10
363.4607354546558
 20
-297.8266788183534
 10
363.4607354546558
 20
-301.6266788183534
 10
367.2607354546561
 20
-301.6266788183534
 10
367.2607354546559
 20
-297.8266788183534
  0
CIRCLE
  5
233
330
1F
100
AcDbEntity
  8
0
100
AcDbCircle
 10
365.3607354546561
 20
-299.7266788183534
 30
0.0
 40
3.899999999999985
  0
LWPOLYLINE
  5
234
330
1F
100
AcDbEntity
  8
0
100
AcDbPolyline
 90
        4
 70
     1
 43
0.0
 10
378.2607354546559
 20
-295.8266818701088
 10
378.2607354546559
 20
-303.6266757665976
 10
386.0607354546557
 20
-303.6266757665976
 10
386.0607354546557
 20
-295.8266818701088
  0
CIRCLE
  5
235
330
1F
100
AcDbEntity
  8
0
100
AcDbCircle
 10
382.160735454656
 20
-299.7266788183531
 30
0.0
 40
8.899999999999963
  0
LWPOLYLINE
  5
236
330
1F
100
AcDbEntity
  8
0
100
AcDbPolyline
 90
        4
 70
     1
 43
0.0
 10
400.0607354546552
 20
-295.8266818701087
 10
400.0607354546552
 20
-303.6266757665974
 10
407.8607354546553
 20
-303.6266757665972
 10
407.8607354546552
 20
-295.8266818701087
  0
CIRCLE
  5
237
330
1F
100
AcDbEntity
  8
0
100
AcDbCircle
 10
403.9607354546554
 20
-299.7266788183529
 30
0.0
 40
8.899999999999963
  0
LWPOLYLINE
  5
238
330
1F
100
AcDbEntity
  8
0
100
AcDbPolyline
 90
        4
 70
     1
 43
0.0
 10
-5.2268869309475
 20
-609.9999999999972
 10
994.773113069051
 20
-609.9999999999972
 10
994.7731130690494
 20
-0.0000000000001838
 10
-5.226886930948296
 20
-0.0000000000000613
  0
LWPOLYLINE
  5
239
330
1F
100
AcDbEntity
  8
0
100
AcDbPolyline
 90
       10
 70
     1
 43
0.0
 10
113.1861934563968
 20
-535.591447586095
 42
-0.4142135623730951
 10
119.1861934563968
 20
-541.5914475860948
 10
119.186193456397
 20
-564.5914475860945
 10
109.3861934563969
 20
-564.5914475860945
 10
109.3861934563969
 20
-560.5914475860945
 10
89.18619345639706
 20
-560.5914475860945
 10
89.18619345639706
 20
-564.5914475860945
 10
79.38619345639688
 20
-564.5914475860945
 10
79.38619345639688
 20
-541.5914475860948
 42
-0.414213562373109
 10
85.38619345639688
 20
-535.5914475860949
  0
LWPOLYLINE
  5
240
330
1F
100
AcDbEntity
  8
0
100
AcDbPolyline
 90
        4
 70
     1
 43
0.0
 10
89.38619345639688
 20
-555.5914475860946
 10
109.186193456397
 20
-555.5914475860946
 10
109.186193456397
 20
-551.5914475860946
 10
89.38619345639688
 20
-551.5914475860947
  0
LWPOLYLINE
  5
241
330
1F
100
AcDbEntity
  8
0
100
AcDbPolyline
 90
       10
 70
     1
 43
0.0
 10
157.1861934563979
 20
-535.591447586095
 42
-0.4142135623730951
 10
163.1861934563979
 20
-541.5914475860948
 10
163.1861934563979
 20
-564.5914475860947
 10
153.386193456398
 20
-564.5914475860947
 10
153.3861934563975
 20
-560.5914475860948
 10
133.1861934563977
 20
-560.5914475860948
 10
133.1861934563977
 20
-564.5914475860947
 10
123.3861934563975
 20
-564.5914475860947
 10
123.386193456398
 20
-541.5914475860948
 42
-0.414213562373109
 10
129.386193456398
 20
-535.5914475860949
  0
LWPOLYLINE
  5
242
330
1F
100
AcDbEntity
  8
0
100
AcDbPolyline
 90
        4
 70
     1
 43
0.0
 10
153.1861934563979
 20
-555.5914475860947
 10
153.1861934563979
 20
-551.5914475860947
 10
133.3861934563975
 20
-551.5914475860949
 10
133.386193456398
 20
-555.5914475860947
  0
LWPOLYLINE
  5
243
330
1F
100
AcDbEntity
  8
0
100
AcDbPolyline
 90
        4
 70
     1
 43
0.0
 10
246.6253293110068
 20
-509.3112972535427
 10
250.4253302646811
 20
-509.3112972535427
 10
250.4253302646811
 20
-505.311297372752
 10
246.6253293110068
 20
-505.311297372752
  0
LWPOLYLINE
  5
244
330
1F
100
AcDbEntity
  8
0
100
AcDbPolyline
 90
       14
 70
     1
 43
0.0
 10
253.4253297878439
 20
-490.4112973131474
 10
259.5253297878441
 20
-490.4112973131474
 10
259.5253297878441
 20
-486.2112973131473
 10
253.4253297878439
 20
-486.2112973131473
 10
253.4253297878439
 20
-470.3112973131474
 10
257.2684437577192
 20
-470.3112973131478
 42
-0.3187078456301942
 10
262.931593895915
 20
-474.3291947647788
 10
268.6253297878437
 20
-490.5970115988615
 10
268.6253297878439
 20
-507.3112973131473
 42
-1.0
 10
228.4253297878439
 20
-507.3112973131473
 10
228.4253297878439
 20
-495.3112973131474
 10
243.6253297878437
 20
-495.3112973131474
 10
243.6253297878437
 20
-499.3112973131473
 10
253.4253297878439
 20
-499.3112973131473
  0
LWPOLYLINE
  5
245
330
1F
100
AcDbEntity
  8
0
100
AcDbPolyline
 90
        4
 70
     1
 43
0.0
 10
245.8450044008015
 20
-426.0616062241669
 10
245.8450044008015
 20
-429.8616071778411
 10
249.8450042815922
 20
-429.8616071778411
 10
249.8450042815922
 20
-426.0616062241669
  0
LWPOLYLINE
  5
246
330
1F
100
AcDbEntity
  8
0
100
AcDbPolyline
 90
       14
 70
     1
 43
0.0
 10
264.7450043411967
 20
-432.8616067010041
 10
264.7450043411967
 20
-438.961606701004
 10
268.9450043411963
 20
-438.961606701004
 10
268.9450043411965
 20
-432.8616067010041
 10
284.8450043411966
 20
-432.8616067010041
 10
284.8450043411964
 20
-436.704720670879
 42
-0.318707845630185
 10
280.8271068895653
 20
-442.367870809075
 10
264.5592900554821
 20
-448.0616067010039
 10
247.8450043411966
 20
-448.0616067010039
 42
-1.0
 10
247.8450043411966
 20
-407.8616067010041
 10
259.8450043411966
 20
-407.8616067010041
 10
259.8450043411966
 20
-423.0616067010037
 10
255.8450043411966
 20
-423.0616067010037
 10
255.8450043411966
 20
-432.8616067010041
  0
LWPOLYLINE
  5
247
330
1F
100
AcDbEntity
  8
0
100
AcDbPolyline
 90
       11
 70
     1
 43
0.0
 10
190.5377410756722
 20
-394.5146669475692
 42
-0.4142135623730951
 10
188.5377410756726
 20
-392.5146669475694
 10
188.5377410756722
 20
-388.4971669475693
 10
196.0377410756722
 20
-388.4971669475693
 10
196.0377410756726
 20
-384.5321669475694
 10
188.5377410756726
 20
-384.5321669475694
 10
188.5377410756726
 20
-380.5146669475693
 42
-0.4142135623730534
 10
190.5377410756722
 20
-378.5146669475693
 10
252.2891928245484
 20
-378.5146669475695
 42
-1.581733740912074
 10
260.2866127700116
 20
-394.3115063807622
 10
252.2891928245484
 20
-394.5146669475695
  0
LWPOLYLINE
  5
248
330
1F
100
AcDbEntity
  8
0
100
AcDbPolyline
 90
        4
 70
     1
 43
0.0
 10
228.1377410756698
 20
-384.5146669475702
 10
228.1377410756698
 20
-388.51466694757
 10
239.9377410756705
 20
-388.5146669475701
 10
239.9377410756705
 20
-384.5146669475702
  0
LWPOLYLINE
  5
249
330
1F
100
AcDbEntity
  8
0
100
AcDbPolyline
 90
        4
 70
     1
 43
0.0
 10
215.9377395656878
 20
-388.5146674508976
 10
215.9377395656878
 20
-384.5146669475694
 10
204.1377395656876
 20
-384.5146669475694
 10
204.1377395656876
 20
-388.5146674508975
  0
LWPOLYLINE
  5
250
330
1F
100
AcDbEntity
  8
0
100
AcDbPolyline
 90
        4
 70
     1
 43
0.0
 10
258.1377410756721
 20
-382.5146669475696
 10
258.1377410756721
 20
-386.5146669475696
 10
261.9377410756723
 20
-386.5146669475696
 10
261.9377410756723
 20
-382.5146669475696
  0
LWPOLYLINE
  5
251
330
1F
100
AcDbEntity
  8
0
100
AcDbPolyline
 90
       11
 70
     1
 43
0.0
 10
188.8367322307389
 20
-369.3401646214589
 42
-0.4142135623731106
 10
186.8367322307393
 20
-367.3401646214589
 10
186.8367322307393
 20
-363.3226646214588
 10
194.3367322307393
 20
-363.3226646214588
 10
194.3367322307393
 20
-359.3576646214589
 10
186.8367322307393
 20
-359.3576646214589
 10
186.8367322307393
 20
-355.3401646214588
 42
-0.4142135623730665
 10
188.8367322307389
 20
-353.3401646214588
 10
250.5881839796149
 20
-353.3401646214591
 42
-1.581733740912074
 10
258.5856039250781
 20
-369.1370040546516
 10
250.5881839796149
 20
-369.340164621459
  0
LWPOLYLINE
  5
252
330
1F
100
AcDbEntity
  8
0
100
AcDbPolyline
 90
        4
 70
     1
 43
0.0
 10
256.4367322307388
 20
-357.3401646214592
 10
256.4367322307388
 20
-361.3401646214591
 10
260.2367322307387
 20
-361.3401646214591
 10
260.2367322307387
 20
-357.3401646214592
  0
LWPOLYLINE
  5
253
330
1F
100
AcDbEntity
  8
0
100
AcDbPolyline
 90
        4
 70
     1
 43
0.0
 10
214.2367307207545
 20
-363.3401651247871
 10
214.2367307207545
 20
-359.3401646214589
 10
202.4367307207541
 20
-359.3401646214589
 10
202.4367307207541
 20
-363.3401651247871
  0
LWPOLYLINE
  5
254
330
1F
100
AcDbEntity
  8
0
100
AcDbPolyline
 90
        4
 70
     1
 43
0.0
 10
226.4367322307368
 20
-359.3401646214597
 10
226.4367322307368
 20
-363.3401646214596
 10
238.236732230737
 20
-363.3401646214596
 10
238.236732230737
 20
-359.3401646214596
  0
ENDSEC
  0
SECTION
  2
OBJECTS
  0
DICTIONARY
  5
C
330
0
100
AcDbDictionary
281
     1
  3
ACAD_CIP_PREVIOUS_PRODUCT_INFO
350
1005A
  3
ACAD_COLOR
350
10036
  3
ACAD_DETAILVIEWSTYLE
350
10051
  3
ACAD_GROUP
350
D
  3
ACAD_LAYOUT
350
10037
  3
ACAD_MATERIAL
350
10004
  3
ACAD_MLEADERSTYLE
350
1004D
  3
ACAD_MLINESTYLE
350
17
  3
ACAD_PLOTSETTINGS
350
10054
  3
ACAD_PLOTSTYLENAME
350
10002
  3
ACAD_SCALELIST
350
1003B
  3
ACAD_SECTIONVIEWSTYLE
350
1004F
  3
ACAD_TABLESTYLE
350
10038
  3
ACAD_VISUALSTYLE
350
1001D
  3
ACDB_RECOMPOSE_DATA
350
1008B
  3
AcDbVariableDictionary
350
1006F
  3
AcDsDecomposeData
350
10091
  0
DICTIONARY
  5
10083
330
2
100
AcDbDictionary
280
     1
281
     1
  3
ACAD_LAYERSTATES
360
10084
  0
DICTIONARY
  5
1006D
330
50
100
AcDbDictionary
280
     1
281
     1
  3
ADSK_XREC_LAYER_RECONCILED
360
1006E
  0
XRECORD
  5
1005A
102
{ACAD_REACTORS
330
C
102
}
330
C
100
AcDbXrecord
280
     1
300
ACD
300
2018
300
ACD_F_S
  0
DICTIONARY
  5
10036
102
{ACAD_REACTORS
330
C
102
}
330
C
100
AcDbDictionary
281
     1
  0
DICTIONARY
  5
10051
102
{ACAD_REACTORS
330
C
102
}
330
C
100
AcDbDictionary
281
     1
  3
Imperial24
350
10052
  0
DICTIONARY
  5
D
330
C
100
AcDbDictionary
281
     1
  0
DICTIONARY
  5
10037
102
{ACAD_REACTORS
330
C
102
}
330
C
100
AcDbDictionary
281
     1
  3
Model
350
10055
  3
Presentacin1
350
10056
  0
DICTIONARY
  5
10004
102
{ACAD_REACTORS
330
C
102
}
330
C
100
AcDbDictionary
281
     1
  3
ByBlock
350
1000D
  3
ByLayer
350
10005
  3
Global
350
10015
  0
DICTIONARY
  5
1004D
102
{ACAD_REACTORS
330
C
102
}
330
C
100
AcDbDictionary
281
     1
  3
Standard
350
1004E
  0
DICTIONARY
  5
17
330
C
100
AcDbDictionary
281
     1
  3
Standard
350
1003A
  0
DICTIONARY
  5
10054
102
{ACAD_REACTORS
330
C
102
}
330
C
100
AcDbDictionary
281
     1
  0
ACDBDICTIONARYWDFLT
  5
10002
102
{ACAD_REACTORS
330
C
102
}
330
C
100
AcDbDictionary
281
     1
  3
Normal
350
10003
100
AcDbDictionaryWithDefault
340
10003
  0
DICTIONARY
  5
1003B
102
{ACAD_REACTORS
330
C
102
}
330
C
100
AcDbDictionary
281
     1
  3
A0
350
1003C
  3
A1
350
1003D
  3
A2
350
1003E
  3
A3
350
1003F
  3
A4
350
10040
  3
A5
350
10041
  3
A6
350
10042
  3
A7
350
10043
  3
A8
350
10044
  3
A9
350
10045
  3
B0
350
10046
  3
B1
350
10047
  3
B2
350
10048
  3
B3
350
10049
  3
B4
350
1004A
  3
B5
350
1004B
  3
B6
350
1004C
  0
DICTIONARY
  5
1004F
102
{ACAD_REACTORS
330
C
102
}
330
C
100
AcDbDictionary
281
     1
  3
Imperial24
350
10050
  0
DICTIONARY
  5
10038
102
{ACAD_REACTORS
330
C
102
}
330
C
100
AcDbDictionary
281
     1
  3
Standard
350
10039
  0
DICTIONARY
  5
1001D
102
{ACAD_REACTORS
330
C
102
}
330
C
100
AcDbDictionary
281
     1
  3
2dWireframe
350
10023
  3
Basic
350
10022
  3
Brighten
350
10029
  3
ColorChange
350
1002D
  3
Conceptual
350
10026
  3
Dim
350
10028
  3
EdgeColorOff
350
10035
  3
Facepattern
350
1002C
  3
Flat
350
1001E
  3
FlatWithEdges
350
1001F
  3
Gouraud
350
10020
  3
GouraudWithEdges
350
10021
  3
Hidden
350
10025
  3
JitterOff
350
10033
  3
Linepattern
350
1002B
  3
OverhangOff
350
10034
  3
Realistic
350
10027
  3
Shaded
350
10032
  3
Shaded with edges
350
10031
  3
Shades of Gray
350
1002E
  3
Sketchy
350
1002F
  3
Thicken
350
1002A
  3
Wireframe
350
10024
  3
X-Ray
350
10030
  0
XRECORD
  5
1008B
102
{ACAD_REACTORS
330
C
102
}
330
C
100
AcDbXrecord
280
     1
 90
        1
330
10039
  0
DICTIONARY
  5
1006F
102
{ACAD_REACTORS
330
C
102
}
330
C
100
AcDbDictionary
281
     1
  3
CANNOSCALE
350
10075
  3
CMLEADERSTYLE
350
10071
  3
CTABLESTYLE
350
10070
  3
CVIEWDETAILSTYLE
350
10072
  3
CVIEWSECTIONSTYLE
350
10073
  3
LAYEREVAL
350
10077
  3
LAYERNOTIFY
350
10078
  3
LIGHTINGUNITS
350
10076
  3
MSLTSCALE
350
10074
  0
DICTIONARY
  5
10091
102
{ACAD_REACTORS
330
C
102
}
330
C
100
AcDbDictionary
281
     1
  3
AcDsRecords
350
10093
  3
AcDsSchemas
350
10092
1001
ACAD
1070
     2
  0
DICTIONARY
  5
10084
102
{ACAD_REACTORS
330
10083
102
}
330
10083
100
AcDbDictionary
281
     1
  0
XRECORD
  5
1006E
102
{ACAD_REACTORS
330
1006D
102
}
330
1006D
100
AcDbXrecord
280
     1
290
     1
  0
ACDBDETAILVIEWSTYLE
  5
10052
102
{ACAD_XDICTIONARY
360
10096
102
}
102
{ACAD_REACTORS
330
10051
102
}
330
10051
100
AcDbModelDocViewStyle
 70
     0
  3
Imperial24
290
     0
100
AcDbDetailViewStyle
 70
     0
 71
     0
 90
        3
 71
     1
340
11
 62
   256
 40
0.24
340
0
 62
   256
 40
0.24
300

 40
0.36
280
     3
 71
     2
340
0
 90
       25
 62
   256
 71
     3
340
11
 62
   256
 40
0.24
 90
        1
 40
0.75
 90
        1
300
%<\AcVar ViewType \f "%tc1">% %<\AcVar ViewDetailId>%\PESCALA %<\AcVar ViewScale \f "%sn">%
 71
     4
340
0
 90
       25
 62
   256
340
0
 90
       25
 62
   256
280
     0
  0
LAYOUT
  5
10055
102
{ACAD_REACTORS
330
10037
102
}
330
10037
100
AcDbPlotSettings
  1

  2
NPI4746F2 (HP LaserJet M1536dnf MFP)
  4

  6

 40
0.0
 41
0.0
 42
0.0
 43
0.0
 44
0.0
 45
0.0
 46
0.0
 47
0.0
 48
0.0
 49
0.0
140
0.0
141
0.0
142
1.0
143
1.0
 70
  1712
 72
     0
 73
     0
 74
     0
  7

 75
     0
147
1.0
 76
     0
 77
     2
 78
   300
148
0.0
149
0.0
100
AcDbLayout
  1
Model
 70
     1
 71
     0
 10
0.0
 20
0.0
 11
12.0
 21
9.0
 12
0.0
 22
0.0
 32
0.0
 14
0.0
 24
0.0
 34
0.0
 15
0.0
 25
0.0
 35
0.0
146
0.0
 13
0.0
 23
0.0
 33
0.0
 16
1.0
 26
0.0
 36
0.0
 17
0.0
 27
1.0
 37
0.0
 76
     0
330
1F
331
10059
  0
LAYOUT
  5
10056
102
{ACAD_REACTORS
330
10037
102
}
330
10037
100
AcDbPlotSettings
  1

  2
NPI4746F2 (HP LaserJet M1536dnf MFP)
  4

  6

 40
0.0
 41
0.0
 42
0.0
 43
0.0
 44
0.0
 45
0.0
 46
0.0
 47
0.0
 48
0.0
 49
0.0
140
0.0
141
0.0
142
1.0
143
1.0
 70
   688
 72
     0
 73
     0
 74
     5
  7

 75
    16
147
1.0
 76
     0
 77
     2
 78
   300
148
0.0
149
0.0
100
AcDbLayout
  1
Presentacin1
 70
     1
 71
     1
 10
0.0
 20
0.0
 11
12.0
 21
9.0
 12
0.0
 22
0.0
 32
0.0
 14
1.000000000000000E+20
 24
1.000000000000000E+20
 34
1.000000000000000E+20
 15
-1.000000000000000E+20
 25
-1.000000000000000E+20
 35
-1.000000000000000E+20
146
0.0
 13
0.0
 23
0.0
 33
0.0
 16
1.0
 26
0.0
 36
0.0
 17
0.0
 27
1.0
 37
0.0
 76
     0
330
1B
  0
MATERIAL
  5
1000D
102
{ACAD_XDICTIONARY
360
1000E
102
}
102
{ACAD_REACTORS
330
10004
102
}
330
10004
100
AcDbMaterial
  1
ByBlock
 72
     0
 43
0.0008202099737533
 43
0.0
 43
0.0
 43
0.0
 43
0.0
 43
0.0008202099737533
 43
0.0
 43
0.0
 43
0.0
 43
0.0
 43
1.0
 43
0.0
 43
0.0
 43
0.0
 43
0.0
 43
1.0
 77
     0
 47
0.0008202099737533
 47
0.0
 47
0.0
 47
0.0
 47
0.0
 47
0.0008202099737533
 47
0.0
 47
0.0
 47
0.0
 47
0.0
 47
1.0
 47
0.0
 47
0.0
 47
0.0
 47
0.0
 47
1.0
171
     0
 49
0.0008202099737533
 49
0.0
 49
0.0
 49
0.0
 49
0.0
 49
0.0008202099737533
 49
0.0
 49
0.0
 49
0.0
 49
0.0
 49
1.0
 49
0.0
 49
0.0
 49
0.0
 49
0.0
 49
1.0
175
     0
142
0.0008202099737533
142
0.0
142
0.0
142
0.0
142
0.0
142
0.0008202099737533
142
0.0
142
0.0
142
0.0
142
0.0
142
1.0
142
0.0
142
0.0
142
0.0
142
0.0
142
1.0
179
     0
144
0.0008202099737533
144
0.0
144
0.0
144
0.0
144
0.0
144
0.0008202099737533
144
0.0
144
0.0
144
0.0
144
0.0
144
1.0
144
0.0
144
0.0
144
0.0
144
0.0
144
1.0
147
0.0008202099737533
147
0.0
147
0.0
147
0.0
147
0.0
147
0.0008202099737533
147
0.0
147
0.0
147
0.0
147
0.0
147
1.0
147
0.0
147
0.0
147
0.0
147
0.0
147
1.0
  0
MATERIAL
  5
10005
102
{ACAD_XDICTIONARY
360
10006
102
}
102
{ACAD_REACTORS
330
10004
102
}
330
10004
100
AcDbMaterial
  1
ByLayer
 72
     0
 43
0.0008202099737533
 43
0.0
 43
0.0
 43
0.0
 43
0.0
 43
0.0008202099737533
 43
0.0
 43
0.0
 43
0.0
 43
0.0
 43
1.0
 43
0.0
 43
0.0
 43
0.0
 43
0.0
 43
1.0
 77
     0
 47
0.0008202099737533
 47
0.0
 47
0.0
 47
0.0
 47
0.0
 47
0.0008202099737533
 47
0.0
 47
0.0
 47
0.0
 47
0.0
 47
1.0
 47
0.0
 47
0.0
 47
0.0
 47
0.0
 47
1.0
171
     0
 49
0.0008202099737533
 49
0.0
 49
0.0
 49
0.0
 49
0.0
 49
0.0008202099737533
 49
0.0
 49
0.0
 49
0.0
 49
0.0
 49
1.0
 49
0.0
 49
0.0
 49
0.0
 49
0.0
 49
1.0
175
     0
142
0.0008202099737533
142
0.0
142
0.0
142
0.0
142
0.0
142
0.0008202099737533
142
0.0
142
0.0
142
0.0
142
0.0
142
1.0
142
0.0
142
0.0
142
0.0
142
0.0
142
1.0
179
     0
144
0.0008202099737533
144
0.0
144
0.0
144
0.0
144
0.0
144
0.0008202099737533
144
0.0
144
0.0
144
0.0
144
0.0
144
1.0
144
0.0
144
0.0
144
0.0
144
0.0
144
1.0
147
0.0008202099737533
147
0.0
147
0.0
147
0.0
147
0.0
147
0.0008202099737533
147
0.0
147
0.0
147
0.0
147
0.0
147
1.0
147
0.0
147
0.0
147
0.0
147
0.0
147
1.0
  0
MATERIAL
  5
10015
102
{ACAD_XDICTIONARY
360
10016
102
}
102
{ACAD_REACTORS
330
10004
102
}
330
10004
100
AcDbMaterial
  1
Global
 72
     0
 43
0.0008202099737533
 43
0.0
 43
0.0
 43
0.0
 43
0.0
 43
0.0008202099737533
 43
0.0
 43
0.0
 43
0.0
 43
0.0
 43
1.0
 43
0.0
 43
0.0
 43
0.0
 43
0.0
 43
1.0
 77
     0
 47
0.0008202099737533
 47
0.0
 47
0.0
 47
0.0
 47
0.0
 47
0.0008202099737533
 47
0.0
 47
0.0
 47
0.0
 47
0.0
 47
1.0
 47
0.0
 47
0.0
 47
0.0
 47
0.0
 47
1.0
171
     0
 49
0.0008202099737533
 49
0.0
 49
0.0
 49
0.0
 49
0.0
 49
0.0008202099737533
 49
0.0
 49
0.0
 49
0.0
 49
0.0
 49
1.0
 49
0.0
 49
0.0
 49
0.0
 49
0.0
 49
1.0
175
     0
142
0.0008202099737533
142
0.0
142
0.0
142
0.0
142
0.0
142
0.0008202099737533
142
0.0
142
0.0
142
0.0
142
0.0
142
1.0
142
0.0
142
0.0
142
0.0
142
0.0
142
1.0
179
     0
144
0.0008202099737533
144
0.0
144
0.0
144
0.0
144
0.0
144
0.0008202099737533
144
0.0
144
0.0
144
0.0
144
0.0
144
1.0
144
0.0
144
0.0
144
0.0
144
0.0
144
1.0
147
0.0008202099737533
147
0.0
147
0.0
147
0.0
147
0.0
147
0.0008202099737533
147
0.0
147
0.0
147
0.0
147
0.0
147
1.0
147
0.0
147
0.0
147
0.0
147
0.0
147
1.0
  0
MLEADERSTYLE
  5
1004E
102
{ACAD_REACTORS
330
1004D
102
}
330
1004D
100
AcDbMLeaderStyle
179
     2
170
     2
171
     1
172
     0
 90
        2
 40
0.0
 41
0.0
173
     1
 91
-1056964608
340
14
 92
       -2
290
     1
 42
0.09
291
     1
 43
0.36
  3
Standard
 44
0.18
300

342
11
174
     1
178
     6
175
     1
176
     0
 93
-1056964608
 45
0.18
292
     0
297
     0
 46
0.18
 94
-1056964608
 47
1.0
 49
1.0
140
1.0
293
     1
141
0.0
294
     1
177
     0
142
1.0
295
     0
296
     0
143
0.125
271
     0
272
     9
273
     9
298
     0
  0
MLINESTYLE
  5
1003A
102
{ACAD_REACTORS
330
17
102
}
330
17
100
AcDbMlineStyle
  2
STANDARD
 70
     0
  3

 62
   256
 51
90.0
 52
90.0
 71
     2
 49
0.5
 62
   256
  6
BYLAYER
 49
-0.5
 62
   256
  6
BYLAYER
  0
ACDBPLACEHOLDER
  5
10003
102
{ACAD_REACTORS
330
10002
102
}
330
10002
  0
SCALE
  5
1003C
102
{ACAD_REACTORS
330
1003B
102
}
330
1003B
100
AcDbScale
 70
     0
300
1:1
140
1.0
141
1.0
290
     1
  0
SCALE
  5
1003D
102
{ACAD_REACTORS
330
1003B
102
}
330
1003B
100
AcDbScale
 70
     0
300
1/128" = 1'-0"
140
0.0078125
141
12.0
290
     0
  0
SCALE
  5
1003E
102
{ACAD_REACTORS
330
1003B
102
}
330
1003B
100
AcDbScale
 70
     0
300
1/64" = 1'-0"
140
0.015625
141
12.0
290
     0
  0
SCALE
  5
1003F
102
{ACAD_REACTORS
330
1003B
102
}
330
1003B
100
AcDbScale
 70
     0
300
1/32" = 1'-0"
140
0.03125
141
12.0
290
     0
  0
SCALE
  5
10040
102
{ACAD_REACTORS
330
1003B
102
}
330
1003B
100
AcDbScale
 70
     0
300
1/16" = 1'-0"
140
0.0625
141
12.0
290
     0
  0
SCALE
  5
10041
102
{ACAD_REACTORS
330
1003B
102
}
330
1003B
100
AcDbScale
 70
     0
300
3/32" = 1'-0"
140
0.09375
141
12.0
290
     0
  0
SCALE
  5
10042
102
{ACAD_REACTORS
330
1003B
102
}
330
1003B
100
AcDbScale
 70
     0
300
1/8" = 1'-0"
140
0.125
141
12.0
290
     0
  0
SCALE
  5
10043
102
{ACAD_REACTORS
330
1003B
102
}
330
1003B
100
AcDbScale
 70
     0
300
3/16" = 1'-0"
140
0.1875
141
12.0
290
     0
  0
SCALE
  5
10044
102
{ACAD_REACTORS
330
1003B
102
}
330
1003B
100
AcDbScale
 70
     0
300
1/4" = 1'-0"
140
0.25
141
12.0
290
     0
  0
SCALE
  5
10045
102
{ACAD_REACTORS
330
1003B
102
}
330
1003B
100
AcDbScale
 70
     0
300
3/8" = 1'-0"
140
0.375
141
12.0
290
     0
  0
SCALE
  5
10046
102
{ACAD_REACTORS
330
1003B
102
}
330
1003B
100
AcDbScale
 70
     0
300
1/2" = 1'-0"
140
0.5
141
12.0
290
     0
  0
SCALE
  5
10047
102
{ACAD_REACTORS
330
1003B
102
}
330
1003B
100
AcDbScale
 70
     0
300
3/4" = 1'-0"
140
0.75
141
12.0
290
     0
  0
SCALE
  5
10048
102
{ACAD_REACTORS
330
1003B
102
}
330
1003B
100
AcDbScale
 70
     0
300
1" = 1'-0"
140
1.0
141
12.0
290
     0
  0
SCALE
  5
10049
102
{ACAD_REACTORS
330
1003B
102
}
330
1003B
100
AcDbScale
 70
     0
300
1-1/2" = 1'-0"
140
1.5
141
12.0
290
     0
  0
SCALE
  5
1004A
102
{ACAD_REACTORS
330
1003B
102
}
330
1003B
100
AcDbScale
 70
     0
300
3" = 1'-0"
140
3.0
141
12.0
290
     0
  0
SCALE
  5
1004B
102
{ACAD_REACTORS
330
1003B
102
}
330
1003B
100
AcDbScale
 70
     0
300
6" = 1'-0"
140
6.0
141
12.0
290
     0
  0
SCALE
  5
1004C
102
{ACAD_REACTORS
330
1003B
102
}
330
1003B
100
AcDbScale
 70
     0
300
1'-0" = 1'-0"
140
12.0
141
12.0
290
     0
  0
ACDBSECTIONVIEWSTYLE
  5
10050
102
{ACAD_XDICTIONARY
360
10094
102
}
102
{ACAD_REACTORS
330
1004F
102
}
330
1004F
100
AcDbModelDocViewStyle
 70
     0
  3
Imperial24
290
     0
100
AcDbSectionViewStyle
 70
     0
 71
     0
 90
       78
 71
     1
340
11
 62
   256
 40
0.24
340
0
340
0
 62
   256
 40
0.24
300
I, O, Q, S, X, Z
 40
0.48
 90
        3
 40
0.18
 90
        1
 71
     2
340
0
 90
       25
 62
   256
340
0
 90
       50
 62
   256
 40
0.24
 40
0.0
 40
0.24
 71
     3
340
11
 62
   256
 40
0.24
 90
        1
 40
0.75
 90
        1
300
%<\AcVar ViewType \f "%tc1">% %<\AcVar ViewSectionStartId>%-%<\AcVar ViewSectionEndId>%\PESCALA %<\AcVar ViewScale \f "%sn">%
 71
     4
 62
   256
 62
   257
300
ANSI31
 40
1.0
 90
        0
290
     0
290
     0
 90
        6
 40
0.0
 40
1.570796326794896
 40
0.2617993877991494
 40
1.308996938995747
 40
-0.2617993877991494
 40
1.832595714594046
  0
TABLESTYLE
  5
10039
102
{ACAD_XDICTIONARY
360
10089
102
}
102
{ACAD_REACTORS
330
10038
102
}
330
10038
100
AcDbTableStyle
280
     0
  3
Standard
 70
     0
 71
     0
 40
0.06
 41
0.06
280
     0
281
     0
  7
STANDARD
140
0.18
170
     2
 62
     0
 63
     7
283
     0
 90
      512
 91
        0
  1

274
    -2
284
     1
 64
     0
275
    -2
285
     1
 65
     0
276
    -2
286
     1
 66
     0
277
    -2
287
     1
 67
     0
278
    -2
288
     1
 68
     0
279
    -2
289
     1
 69
     0
  7
STANDARD
140
0.25
170
     5
 62
     0
 63
     7
283
     0
 90
      512
 91
        0
  1

274
    -2
284
     1
 64
     0
275
    -2
285
     1
 65
     0
276
    -2
286
     1
 66
     0
277
    -2
287
     1
 67
     0
278
    -2
288
     1
 68
     0
279
    -2
289
     1
 69
     0
  7
STANDARD
140
0.18
170
     5
 62
     0
 63
     7
283
     0
 90
      512
 91
        0
  1

274
    -2
284
     1
 64
     0
275
    -2
285
     1
 65
     0
276
    -2
286
     1
 66
     0
277
    -2
287
     1
 67
     0
278
    -2
288
     1
 68
     0
279
    -2
289
     1
 69
     0
  0
VISUALSTYLE
  5
10023
102
{ACAD_REACTORS
330
1001D
102
}
330
1001D
100
AcDbVisualStyle
  2
2dWireframe
 70
     4
177
     3
291
     0
 70
    58
 90
        0
176
     1
 90
        2
176
     1
 90
        0
176
     1
 90
        0
176
     1
 40
0.6
176
     1
 40
30.0
176
     1
 62
     7
420
 16777215
176
     1
 90
        1
176
     1
 90
        4
176
     1
 62
     7
176
     1
 62
   257
176
     1
 90
        1
176
     1
 90
        1
176
     1
 40
1.0
176
     1
 90
        0
176
     1
 62
   257
176
     1
 40
1.0
176
     1
 90
        1
176
     1
 90
        6
176
     1
 90
        2
176
     1
 62
     7
176
     1
 90
        5
176
     1
 90
        0
176
     1
 90
        0
176
     1
290
     0
176
     1
 90
        1
176
     1
 40
0.0
176
     1
 90
        0
176
     1
290
     1
176
     1
290
     1
176
     1
290
     0
176
     1
290
     0
176
     1
290
     0
176
     1
290
     0
176
     1
290
     0
176
     1
290
     0
176
     1
290
     0
176
     1
 90
       50
176
     1
 40
0.0
176
     1
 40
1.0
176
     1
 90
        0
176
     1
 62
    18
420
        0
176
     1
 90
       50
176
     1
 90
        3
176
     1
 62
     5
420
      255
176
     1
290
     0
176
     1
 90
       50
176
     1
 90
       50
176
     1
 90
       50
176
     1
290
     0
176
     1
 90
       50
176
     1
 62
   256
176
     0
 40
1.0
176
     0
 90
        2
176
     1
  1
strokes_ogs.tif
176
     1
290
     0
176
     1
 40
1.0
176
     1
 40
1.0
176
     1
1001
ACAD
1000
AcDbSavedByObjectVersion
1070
     0
  0
VISUALSTYLE
  5
10022
102
{ACAD_REACTORS
330
1001D
102
}
330
1001D
100
AcDbVisualStyle
  2
Basic
 70
     7
177
     3
291
     1
 70
    58
 90
        1
176
     1
 90
        0
176
     1
 90
        1
176
     1
 90
        0
176
     1
 40
0.6
176
     1
 40
30.0
176
     1
 62
     7
420
 16777215
176
     1
 90
        0
176
     1
 90
        4
176
     1
 62
     7
176
     1
 62
   257
176
     1
 90
        1
176
     1
 90
        1
176
     1
 40
1.0
176
     1
 90
        8
176
     1
 62
     7
176
     1
 40
1.0
176
     1
 90
        1
176
     1
 90
        6
176
     1
 90
        2
176
     1
 62
     7
176
     1
 90
        5
176
     1
 90
        0
176
     1
 90
        0
176
     1
290
     0
176
     1
 90
        1
176
     1
 40
0.0
176
     1
 90
        0
176
     1
290
     0
176
     1
290
     1
176
     1
290
     1
176
     1
290
     0
176
     1
290
     0
176
     1
290
     0
176
     1
290
     0
176
     1
290
     0
176
     1
290
     0
176
     1
 90
       50
176
     1
 40
0.0
176
     1
 40
1.0
176
     1
 90
        0
176
     1
 62
    18
420
        0
176
     1
 90
       50
176
     1
 90
        3
176
     1
 62
     5
420
      255
176
     1
290
     0
176
     1
 90
       50
176
     1
 90
       50
176
     1
 90
       50
176
     1
290
     0
176
     1
 90
       50
176
     1
 62
   256
176
     0
 40
1.0
176
     0
 90
        2
176
     1
  1
strokes_ogs.tif
176
     1
290
     0
176
     1
 40
1.0
176
     1
 40
1.0
176
     1
1001
ACAD
1000
AcDbSavedByObjectVersion
1070
     0
  0
VISUALSTYLE
  5
10029
102
{ACAD_REACTORS
330
1001D
102
}
330
1001D
100
AcDbVisualStyle
  2
Brighten
 70
    12
177
     3
291
     1
 70
    58
 90
        2
176
     1
 90
        2
176
     1
 90
        0
176
     1
 90
        0
176
     1
 40
0.6
176
     1
 40
30.0
176
     1
 62
     7
420
 16777215
176
     1
 90
        1
176
     1
 90
        4
176
     1
 62
     7
176
     1
 62
   257
176
     1
 90
        1
176
     1
 90
        1
176
     1
 40
1.0
176
     1
 90
        8
176
     1
 62
     7
176
     1
 40
1.0
176
     1
 90
        1
176
     1
 90
        6
176
     1
 90
        2
176
     1
 62
     7
176
     1
 90
        5
176
     1
 90
        0
176
     1
 90
        0
176
     1
290
     0
176
     1
 90
        1
176
     1
 40
50.0
176
     1
 90
        0
176
     1
290
     0
176
     1
290
     1
176
     1
290
     1
176
     1
290
     0
176
     1
290
     0
176
     1
290
     0
176
     1
290
     0
176
     1
290
     0
176
     1
290
     0
176
     1
 90
       50
176
     1
 40
0.0
176
     1
 40
1.0
176
     1
 90
        0
176
     1
 62
    18
420
        0
176
     1
 90
       50
176
     1
 90
        3
176
     1
 62
     5
420
      255
176
     1
290
     0
176
     1
 90
       50
176
     1
 90
       50
176
     1
 90
       50
176
     1
290
     0
176
     1
 90
       50
176
     1
 62
   256
176
     0
 40
1.0
176
     0
 90
        2
176
     1
  1
strokes_ogs.tif
176
     1
290
     0
176
     1
 40
1.0
176
     1
 40
1.0
176
     1
1001
ACAD
1000
AcDbSavedByObjectVersion
1070
     0
  0
VISUALSTYLE
  5
1002D
102
{ACAD_REACTORS
330
1001D
102
}
330
1001D
100
AcDbVisualStyle
  2
ColorChange
 70
    16
177
     3
291
     1
 70
    58
 90
        2
176
     1
 90
        2
176
     1
 90
        3
176
     1
 90
        0
176
     1
 40
0.6
176
     1
 40
30.0
176
     1
 62
     8
420
  8421504
176
     1
 90
        1
176
     1
 90
        4
176
     1
 62
     7
176
     1
 62
   257
176
     1
 90
        1
176
     1
 90
        1
176
     1
 40
1.0
176
     1
 90
        8
176
     1
 62
     8
420
  8421504
176
     1
 40
1.0
176
     1
 90
        1
176
     1
 90
        6
176
     1
 90
        2
176
     1
 62
     7
176
     1
 90
        5
176
     1
 90
        0
176
     1
 90
        0
176
     1
290
     0
176
     1
 90
        1
176
     1
 40
0.0
176
     1
 90
        0
176
     1
290
     0
176
     1
290
     1
176
     1
290
     1
176
     1
290
     0
176
     1
290
     0
176
     1
290
     0
176
     1
290
     0
176
     1
290
     0
176
     1
290
     0
176
     1
 90
       50
176
     1
 40
0.0
176
     1
 40
1.0
176
     1
 90
        0
176
     1
 62
    18
420
        0
176
     1
 90
       50
176
     1
 90
        3
176
     1
 62
     5
420
      255
176
     1
290
     0
176
     1
 90
       50
176
     1
 90
       50
176
     1
 90
       50
176
     1
290
     0
176
     1
 90
       50
176
     1
 62
   256
176
     0
 40
1.0
176
     0
 90
        2
176
     1
  1
strokes_ogs.tif
176
     1
290
     0
176
     1
 40
1.0
176
     1
 40
1.0
176
     1
1001
ACAD
1000
AcDbSavedByObjectVersion
1070
     0
  0
VISUALSTYLE
  5
10026
102
{ACAD_REACTORS
330
1001D
102
}
330
1001D
100
AcDbVisualStyle
  2
Conceptual
 70
     9
177
     3
291
     0
 70
    58
 90
        3
176
     1
 90
        2
176
     1
 90
        0
176
     1
 90
        0
176
     1
 40
0.6
176
     1
 40
30.0
176
     1
 62
     7
420
 16777215
176
     1
 90
        2
176
     1
 90
        2
176
     1
 62
     7
176
     1
 62
   257
176
     1
 90
        1
176
     1
 90
        1
176
     1
 40
179.0
176
     1
 90
        8
176
     1
 62
     7
176
     1
 40
1.0
176
     1
 90
        1
176
     1
 90
        6
176
     1
 90
        2
176
     1
 62
     7
176
     1
 90
        3
176
     1
 90
        0
176
     1
 90
        0
176
     1
290
     0
176
     1
 90
        1
176
     1
 40
0.0
176
     1
 90
        0
176
     1
290
     0
176
     1
290
     1
176
     1
290
     1
176
     1
290
     0
176
     1
290
     0
176
     1
290
     0
176
     1
290
     0
176
     1
290
     0
176
     1
290
     0
176
     1
 90
       50
176
     1
 40
0.0
176
     1
 40
1.0
176
     1
 90
        0
176
     1
 62
    18
420
        0
176
     1
 90
       50
176
     1
 90
        3
176
     1
 62
     5
420
      255
176
     1
290
     0
176
     1
 90
       50
176
     1
 90
       50
176
     1
 90
       50
176
     1
290
     0
176
     1
 90
       50
176
     1
 62
   256
176
     0
 40
1.0
176
     0
 90
        2
176
     1
  1
strokes_ogs.tif
176
     1
290
     0
176
     1
 40
1.0
176
     1
 40
1.0
176
     1
1001
ACAD
1000
AcDbSavedByObjectVersion
1070
     0
  0
VISUALSTYLE
  5
10028
102
{ACAD_REACTORS
330
1001D
102
}
330
1001D
100
AcDbVisualStyle
  2
Dim
 70
    11
177
     3
291
     1
 70
    58
 90
        2
176
     1
 90
        2
176
     1
 90
        0
176
     1
 90
        0
176
     1
 40
0.6
176
     1
 40
30.0
176
     1
 62
     7
420
 16777215
176
     1
 90
        1
176
     1
 90
        4
176
     1
 62
     7
176
     1
 62
   257
176
     1
 90
        1
176
     1
 90
        1
176
     1
 40
1.0
176
     1
 90
        8
176
     1
 62
     7
176
     1
 40
1.0
176
     1
 90
        1
176
     1
 90
        6
176
     1
 90
        2
176
     1
 62
     7
176
     1
 90
        5
176
     1
 90
        0
176
     1
 90
        0
176
     1
290
     0
176
     1
 90
        1
176
     1
 40
-50.0
176
     1
 90
        0
176
     1
290
     0
176
     1
290
     1
176
     1
290
     1
176
     1
290
     0
176
     1
290
     0
176
     1
290
     0
176
     1
290
     0
176
     1
290
     0
176
     1
290
     0
176
     1
 90
       50
176
     1
 40
0.0
176
     1
 40
1.0
176
     1
 90
        0
176
     1
 62
    18
420
        0
176
     1
 90
       50
176
     1
 90
        3
176
     1
 62
     5
420
      255
176
     1
290
     0
176
     1
 90
       50
176
     1
 90
       50
176
     1
 90
       50
176
     1
290
     0
176
     1
 90
       50
176
     1
 62
   256
176
     0
 40
1.0
176
     0
 90
        2
176
     1
  1
strokes_ogs.tif
176
     1
290
     0
176
     1
 40
1.0
176
     1
 40
1.0
176
     1
1001
ACAD
1000
AcDbSavedByObjectVersion
1070
     0
  0
VISUALSTYLE
  5
10035
102
{ACAD_REACTORS
330
1001D
102
}
330
1001D
100
AcDbVisualStyle
  2
EdgeColorOff
 70
    22
177
     3
291
     1
 70
    58
 90
        2
176
     0
 90
        2
176
     0
 90
        0
176
     0
 90
        0
176
     0
 40
0.6
176
     0
 40
30.0
176
     0
 62
     7
420
 16777215
176
     0
 90
        1
176
     0
 90
        4
176
     0
 62
     7
176
     0
 62
   257
176
     0
 90
        1
176
     0
 90
        1
176
     0
 40
1.0
176
     0
 90
        8
176
     2
 62
     7
176
     0
 40
1.0
176
     0
 90
        1
176
     0
 90
        6
176
     0
 90
        2
176
     0
 62
     7
176
     0
 90
        5
176
     0
 90
        0
176
     0
 90
        0
176
     0
290
     0
176
     0
 90
        1
176
     0
 40
0.0
176
     0
 90
        0
176
     0
290
     0
176
     1
290
     1
176
     1
290
     1
176
     1
290
     0
176
     1
290
     0
176
     1
290
     0
176
     1
290
     0
176
     1
290
     0
176
     1
290
     0
176
     1
 90
       50
176
     0
 40
0.0
176
     0
 40
1.0
176
     0
 90
        0
176
     0
 62
    18
420
        0
176
     0
 90
       50
176
     0
 90
        3
176
     0
 62
     5
420
      255
176
     0
290
     0
176
     1
 90
       50
176
     0
 90
       50
176
     0
 90
       50
176
     0
290
     0
176
     1
 90
       50
176
     0
 62
   256
176
     0
 40
1.0
176
     0
 90
        2
176
     0
  1
strokes_ogs.tif
176
     0
290
     0
176
     1
 40
1.0
176
     0
 40
1.0
176
     0
1001
ACAD
1000
AcDbSavedByObjectVersion
1070
     0
  0
VISUALSTYLE
  5
1002C
102
{ACAD_REACTORS
330
1001D
102
}
330
1001D
100
AcDbVisualStyle
  2
Facepattern
 70
    15
177
     3
291
     1
 70
    58
 90
        2
176
     1
 90
        2
176
     1
 90
        0
176
     1
 90
        0
176
     1
 40
0.6
176
     1
 40
30.0
176
     1
 62
     7
420
 16777215
176
     1
 90
        1
176
     1
 90
        4
176
     1
 62
     7
176
     1
 62
   257
176
     1
 90
        1
176
     1
 90
        1
176
     1
 40
1.0
176
     1
 90
        8
176
     1
 62
     7
176
     1
 40
1.0
176
     1
 90
        1
176
     1
 90
        6
176
     1
 90
        2
176
     1
 62
     7
176
     1
 90
        5
176
     1
 90
        0
176
     1
 90
        0
176
     1
290
     0
176
     1
 90
        1
176
     1
 40
0.0
176
     1
 90
        0
176
     1
290
     0
176
     1
290
     1
176
     1
290
     1
176
     1
290
     0
176
     1
290
     0
176
     1
290
     0
176
     1
290
     0
176
     1
290
     0
176
     1
290
     0
176
     1
 90
       50
176
     1
 40
0.0
176
     1
 40
1.0
176
     1
 90
        0
176
     1
 62
    18
420
        0
176
     1
 90
       50
176
     1
 90
        3
176
     1
 62
     5
420
      255
176
     1
290
     0
176
     1
 90
       50
176
     1
 90
       50
176
     1
 90
       50
176
     1
290
     0
176
     1
 90
       50
176
     1
 62
   256
176
     0
 40
1.0
176
     0
 90
        2
176
     1
  1
strokes_ogs.tif
176
     1
290
     0
176
     1
 40
1.0
176
     1
 40
1.0
176
     1
1001
ACAD
1000
AcDbSavedByObjectVersion
1070
     0
  0
VISUALSTYLE
  5
1001E
102
{ACAD_REACTORS
330
1001D
102
}
330
1001D
100
AcDbVisualStyle
  2
Flat
 70
     0
177
     3
291
     1
 70
    58
 90
        2
176
     1
 90
        1
176
     1
 90
        1
176
     1
 90
        2
176
     1
 40
0.6
176
     1
 40
30.0
176
     1
 62
     7
420
 16777215
176
     1
 90
        0
176
     1
 90
        0
176
     1
 62
     7
176
     1
 62
   257
176
     1
 90
        1
176
     1
 90
        1
176
     1
 40
1.0
176
     1
 90
        8
176
     1
 62
     7
176
     1
 40
1.0
176
     1
 90
        1
176
     1
 90
        6
176
     1
 90
        2
176
     1
 62
     7
176
     1
 90
        5
176
     1
 90
        0
176
     1
 90
        0
176
     1
290
     0
176
     1
 90
       13
176
     1
 40
0.0
176
     1
 90
        0
176
     1
290
     0
176
     1
290
     1
176
     1
290
     1
176
     1
290
     0
176
     1
290
     0
176
     1
290
     0
176
     1
290
     0
176
     1
290
     0
176
     1
290
     0
176
     1
 90
       50
176
     1
 40
0.0
176
     1
 40
1.0
176
     1
 90
        0
176
     1
 62
    18
420
        0
176
     1
 90
       50
176
     1
 90
        3
176
     1
 62
     5
420
      255
176
     1
290
     0
176
     1
 90
       50
176
     1
 90
       50
176
     1
 90
       50
176
     1
290
     0
176
     1
 90
       50
176
     1
 62
   256
176
     0
 40
1.0
176
     0
 90
        2
176
     1
  1
strokes_ogs.tif
176
     1
290
     0
176
     1
 40
1.0
176
     1
 40
1.0
176
     1
1001
ACAD
1000
AcDbSavedByObjectVersion
1070
     0
  0
VISUALSTYLE
  5
1001F
102
{ACAD_REACTORS
330
1001D
102
}
330
1001D
100
AcDbVisualStyle
  2
FlatWithEdges
 70
     1
177
     3
291
     1
 70
    58
 90
        2
176
     1
 90
        1
176
     1
 90
        1
176
     1
 90
        2
176
     1
 40
0.6
176
     1
 40
30.0
176
     1
 62
     7
420
 16777215
176
     1
 90
        1
176
     1
 90
        0
176
     1
 62
     7
176
     1
 62
   257
176
     1
 90
        1
176
     1
 90
        1
176
     1
 40
1.0
176
     1
 90
        0
176
     1
 62
   257
176
     1
 40
1.0
176
     1
 90
        1
176
     1
 90
        6
176
     1
 90
        2
176
     1
 62
     7
176
     1
 90
        5
176
     1
 90
        0
176
     1
 90
        0
176
     1
290
     0
176
     1
 90
       13
176
     1
 40
0.0
176
     1
 90
        0
176
     1
290
     0
176
     1
290
     1
176
     1
290
     1
176
     1
290
     0
176
     1
290
     0
176
     1
290
     0
176
     1
290
     0
176
     1
290
     0
176
     1
290
     0
176
     1
 90
       50
176
     1
 40
0.0
176
     1
 40
1.0
176
     1
 90
        0
176
     1
 62
    18
420
        0
176
     1
 90
       50
176
     1
 90
        3
176
     1
 62
     5
420
      255
176
     1
290
     0
176
     1
 90
       50
176
     1
 90
       50
176
     1
 90
       50
176
     1
290
     0
176
     1
 90
       50
176
     1
 62
   256
176
     0
 40
1.0
176
     0
 90
        2
176
     1
  1
strokes_ogs.tif
176
     1
290
     0
176
     1
 40
1.0
176
     1
 40
1.0
176
     1
1001
ACAD
1000
AcDbSavedByObjectVersion
1070
     0
  0
VISUALSTYLE
  5
10020
102
{ACAD_REACTORS
330
1001D
102
}
330
1001D
100
AcDbVisualStyle
  2
Gouraud
 70
     2
177
     3
291
     1
 70
    58
 90
        2
176
     1
 90
        2
176
     1
 90
        1
176
     1
 90
        2
176
     1
 40
0.6
176
     1
 40
30.0
176
     1
 62
     7
420
 16777215
176
     1
 90
        0
176
     1
 90
        0
176
     1
 62
     7
176
     1
 62
   257
176
     1
 90
        1
176
     1
 90
        1
176
     1
 40
1.0
176
     1
 90
        0
176
     1
 62
     7
176
     1
 40
1.0
176
     1
 90
        1
176
     1
 90
        6
176
     1
 90
        2
176
     1
 62
     7
176
     1
 90
        5
176
     1
 90
        0
176
     1
 90
        0
176
     1
290
     0
176
     1
 90
       13
176
     1
 40
0.0
176
     1
 90
        0
176
     1
290
     0
176
     1
290
     1
176
     1
290
     1
176
     1
290
     0
176
     1
290
     0
176
     1
290
     0
176
     1
290
     0
176
     1
290
     0
176
     1
290
     0
176
     1
 90
       50
176
     1
 40
0.0
176
     1
 40
1.0
176
     1
 90
        0
176
     1
 62
    18
420
        0
176
     1
 90
       50
176
     1
 90
        3
176
     1
 62
     5
420
      255
176
     1
290
     0
176
     1
 90
       50
176
     1
 90
       50
176
     1
 90
       50
176
     1
290
     0
176
     1
 90
       50
176
     1
 62
   256
176
     0
 40
1.0
176
     0
 90
        2
176
     1
  1
strokes_ogs.tif
176
     1
290
     0
176
     1
 40
1.0
176
     1
 40
1.0
176
     1
1001
ACAD
1000
AcDbSavedByObjectVersion
1070
     0
  0
VISUALSTYLE
  5
10021
102
{ACAD_REACTORS
330
1001D
102
}
330
1001D
100
AcDbVisualStyle
  2
GouraudWithEdges
 70
     3
177
     3
291
     1
 70
    58
 90
        2
176
     1
 90
        2
176
     1
 90
        1
176
     1
 90
        2
176
     1
 40
0.6
176
     1
 40
30.0
176
     1
 62
     7
420
 16777215
176
     1
 90
        1
176
     1
 90
        0
176
     1
 62
     7
176
     1
 62
   257
176
     1
 90
        1
176
     1
 90
        1
176
     1
 40
1.0
176
     1
 90
        0
176
     1
 62
   257
176
     1
 40
1.0
176
     1
 90
        1
176
     1
 90
        6
176
     1
 90
        2
176
     1
 62
     7
176
     1
 90
        5
176
     1
 90
        0
176
     1
 90
        0
176
     1
290
     0
176
     1
 90
       13
176
     1
 40
0.0
176
     1
 90
        0
176
     1
290
     0
176
     1
290
     1
176
     1
290
     1
176
     1
290
     0
176
     1
290
     0
176
     1
290
     0
176
     1
290
     0
176
     1
290
     0
176
     1
290
     0
176
     1
 90
       50
176
     1
 40
0.0
176
     1
 40
1.0
176
     1
 90
        0
176
     1
 62
    18
420
        0
176
     1
 90
       50
176
     1
 90
        3
176
     1
 62
     5
420
      255
176
     1
290
     0
176
     1
 90
       50
176
     1
 90
       50
176
     1
 90
       50
176
     1
290
     0
176
     1
 90
       50
176
     1
 62
   256
176
     0
 40
1.0
176
     0
 90
        2
176
     1
  1
strokes_ogs.tif
176
     1
290
     0
176
     1
 40
1.0
176
     1
 40
1.0
176
     1
1001
ACAD
1000
AcDbSavedByObjectVersion
1070
     0
  0
VISUALSTYLE
  5
10025
102
{ACAD_REACTORS
330
1001D
102
}
330
1001D
100
AcDbVisualStyle
  2
Hidden
 70
     6
177
     3
291
     0
 70
    58
 90
        1
176
     1
 90
        2
176
     1
 90
        2
176
     1
 90
        0
176
     1
 40
0.6
176
     1
 40
30.0
176
     1
 62
     7
420
 16777215
176
     1
 90
        2
176
     1
 90
        2
176
     1
 62
     7
176
     1
 62
   257
176
     1
 90
        2
176
     1
 90
        1
176
     1
 40
40.0
176
     1
 90
        0
176
     1
 62
   257
176
     1
 40
1.0
176
     1
 90
        1
176
     1
 90
        6
176
     1
 90
        2
176
     1
 62
     7
176
     1
 90
        3
176
     1
 90
        0
176
     1
 90
        0
176
     1
290
     0
176
     1
 90
        1
176
     1
 40
0.0
176
     1
 90
        0
176
     1
290
     0
176
     1
290
     1
176
     1
290
     1
176
     1
290
     0
176
     1
290
     0
176
     1
290
     0
176
     1
290
     0
176
     1
290
     0
176
     1
290
     0
176
     1
 90
       50
176
     1
 40
0.0
176
     1
 40
1.0
176
     1
 90
        0
176
     1
 62
    18
420
        0
176
     1
 90
       50
176
     1
 90
        3
176
     1
 62
     5
420
      255
176
     1
290
     0
176
     1
 90
       50
176
     1
 90
       50
176
     1
 90
       50
176
     1
290
     0
176
     1
 90
       50
176
     1
 62
   256
176
     0
 40
1.0
176
     0
 90
        2
176
     1
  1
strokes_ogs.tif
176
     1
290
     0
176
     1
 40
1.0
176
     1
 40
1.0
176
     1
1001
ACAD
1000
AcDbSavedByObjectVersion
1070
     0
  0
VISUALSTYLE
  5
10033
102
{ACAD_REACTORS
330
1001D
102
}
330
1001D
100
AcDbVisualStyle
  2
JitterOff
 70
    20
177
     3
291
     1
 70
    58
 90
        2
176
     0
 90
        2
176
     0
 90
        0
176
     0
 90
        0
176
     0
 40
0.6
176
     0
 40
30.0
176
     0
 62
     7
420
 16777215
176
     0
 90
        1
176
     0
 90
        4
176
     0
 62
     7
176
     0
 62
   257
176
     0
 90
        1
176
     0
 90
        1
176
     0
 40
1.0
176
     0
 90
       10
176
     2
 62
     7
176
     0
 40
1.0
176
     0
 90
        1
176
     0
 90
        6
176
     0
 90
        2
176
     0
 62
     7
176
     0
 90
        5
176
     0
 90
        0
176
     0
 90
        0
176
     0
290
     0
176
     0
 90
        1
176
     0
 40
0.0
176
     0
 90
        0
176
     0
290
     0
176
     1
290
     1
176
     1
290
     1
176
     1
290
     0
176
     1
290
     0
176
     1
290
     0
176
     1
290
     0
176
     1
290
     0
176
     1
290
     0
176
     1
 90
       50
176
     0
 40
0.0
176
     0
 40
1.0
176
     0
 90
        0
176
     0
 62
    18
420
        0
176
     0
 90
       50
176
     0
 90
        3
176
     0
 62
     5
420
      255
176
     0
290
     0
176
     1
 90
       50
176
     0
 90
       50
176
     0
 90
       50
176
     0
290
     0
176
     1
 90
       50
176
     0
 62
   256
176
     0
 40
1.0
176
     0
 90
        2
176
     0
  1
strokes_ogs.tif
176
     0
290
     0
176
     1
 40
1.0
176
     0
 40
1.0
176
     0
1001
ACAD
1000
AcDbSavedByObjectVersion
1070
     0
  0
VISUALSTYLE
  5
1002B
102
{ACAD_REACTORS
330
1001D
102
}
330
1001D
100
AcDbVisualStyle
  2
Linepattern
 70
    14
177
     3
291
     1
 70
    58
 90
        2
176
     1
 90
        2
176
     1
 90
        0
176
     1
 90
        0
176
     1
 40
0.6
176
     1
 40
30.0
176
     1
 62
     7
420
 16777215
176
     1
 90
        1
176
     1
 90
        4
176
     1
 62
     7
176
     1
 62
   257
176
     1
 90
        7
176
     1
 90
        7
176
     1
 40
1.0
176
     1
 90
        8
176
     1
 62
     7
176
     1
 40
1.0
176
     1
 90
        1
176
     1
 90
        6
176
     1
 90
        2
176
     1
 62
     7
176
     1
 90
        5
176
     1
 90
        0
176
     1
 90
        0
176
     1
290
     0
176
     1
 90
        1
176
     1
 40
0.0
176
     1
 90
        0
176
     1
290
     0
176
     1
290
     1
176
     1
290
     1
176
     1
290
     0
176
     1
290
     0
176
     1
290
     0
176
     1
290
     0
176
     1
290
     0
176
     1
290
     0
176
     1
 90
       50
176
     1
 40
0.0
176
     1
 40
1.0
176
     1
 90
        0
176
     1
 62
    18
420
        0
176
     1
 90
       50
176
     1
 90
        3
176
     1
 62
     5
420
      255
176
     1
290
     0
176
     1
 90
       50
176
     1
 90
       50
176
     1
 90
       50
176
     1
290
     0
176
     1
 90
       50
176
     1
 62
   256
176
     0
 40
1.0
176
     0
 90
        2
176
     1
  1
strokes_ogs.tif
176
     1
290
     0
176
     1
 40
1.0
176
     1
 40
1.0
176
     1
1001
ACAD
1000
AcDbSavedByObjectVersion
1070
     0
  0
VISUALSTYLE
  5
10034
102
{ACAD_REACTORS
330
1001D
102
}
330
1001D
100
AcDbVisualStyle
  2
OverhangOff
 70
    21
177
     3
291
     1
 70
    58
 90
        2
176
     0
 90
        2
176
     0
 90
        0
176
     0
 90
        0
176
     0
 40
0.6
176
     0
 40
30.0
176
     0
 62
     7
420
 16777215
176
     0
 90
        1
176
     0
 90
        4
176
     0
 62
     7
176
     0
 62
   257
176
     0
 90
        1
176
     0
 90
        1
176
     0
 40
1.0
176
     0
 90
        9
176
     2
 62
     7
176
     0
 40
1.0
176
     0
 90
        1
176
     0
 90
        6
176
     0
 90
        2
176
     0
 62
     7
176
     0
 90
        5
176
     0
 90
        0
176
     0
 90
        0
176
     0
290
     0
176
     0
 90
        1
176
     0
 40
0.0
176
     0
 90
        0
176
     0
290
     0
176
     1
290
     1
176
     1
290
     1
176
     1
290
     0
176
     1
290
     0
176
     1
290
     0
176
     1
290
     0
176
     1
290
     0
176
     1
290
     0
176
     1
 90
       50
176
     0
 40
0.0
176
     0
 40
1.0
176
     0
 90
        0
176
     0
 62
    18
420
        0
176
     0
 90
       50
176
     0
 90
        3
176
     0
 62
     5
420
      255
176
     0
290
     0
176
     1
 90
       50
176
     0
 90
       50
176
     0
 90
       50
176
     0
290
     0
176
     1
 90
       50
176
     0
 62
   256
176
     0
 40
1.0
176
     0
 90
        2
176
     0
  1
strokes_ogs.tif
176
     0
290
     0
176
     1
 40
1.0
176
     0
 40
1.0
176
     0
1001
ACAD
1000
AcDbSavedByObjectVersion
1070
     0
  0
VISUALSTYLE
  5
10027
102
{ACAD_REACTORS
330
1001D
102
}
330
1001D
100
AcDbVisualStyle
  2
Realistic
 70
     8
177
     3
291
     0
 70
    58
 90
        2
176
     1
 90
        3
176
     1
 90
        0
176
     1
 90
        2
176
     1
 40
0.6
176
     1
 40
30.0
176
     1
 62
     7
420
 16777215
176
     1
 90
        0
176
     1
 90
        0
176
     1
 62
     7
176
     1
 62
   257
176
     1
 90
        1
176
     1
 90
        1
176
     1
 40
1.0
176
     1
 90
        8
176
     1
 62
   257
176
     1
 40
1.0
176
     1
 90
        1
176
     1
 90
        6
176
     1
 90
        2
176
     1
 62
     7
176
     1
 90
        3
176
     1
 90
        0
176
     1
 90
        0
176
     1
290
     0
176
     1
 90
       13
176
     1
 40
0.0
176
     1
 90
        0
176
     1
290
     0
176
     1
290
     1
176
     1
290
     1
176
     1
290
     0
176
     1
290
     0
176
     1
290
     0
176
     1
290
     0
176
     1
290
     0
176
     1
290
     0
176
     1
 90
       50
176
     1
 40
0.0
176
     1
 40
1.0
176
     1
 90
        0
176
     1
 62
    18
420
        0
176
     1
 90
       50
176
     1
 90
        3
176
     1
 62
     5
420
      255
176
     1
290
     0
176
     1
 90
       50
176
     1
 90
       50
176
     1
 90
       50
176
     1
290
     0
176
     1
 90
       50
176
     1
 62
   256
176
     0
 40
1.0
176
     0
 90
        2
176
     1
  1
strokes_ogs.tif
176
     1
290
     0
176
     1
 40
1.0
176
     1
 40
1.0
176
     1
1001
ACAD
1000
AcDbSavedByObjectVersion
1070
     0
  0
VISUALSTYLE
  5
10032
102
{ACAD_REACTORS
330
1001D
102
}
330
1001D
100
AcDbVisualStyle
  2
Shaded
 70
    27
177
     3
291
     0
 70
    58
 90
        2
176
     1
 90
        2
176
     1
 90
        1
176
     1
 90
        2
176
     1
 40
0.6
176
     1
 40
30.0
176
     1
 62
     7
420
 16777215
176
     1
 90
        0
176
     1
 90
        4
176
     1
 62
     7
176
     1
 62
   257
176
     1
 90
        1
176
     1
 90
        1
176
     1
 40
1.0
176
     1
 90
        8
176
     1
 62
   257
176
     1
 40
1.0
176
     1
 90
        1
176
     1
 90
        6
176
     1
 90
        2
176
     1
 62
     8
420
  7895160
176
     1
 90
        3
176
     1
 90
        0
176
     1
 90
        0
176
     1
290
     0
176
     1
 90
        5
176
     1
 40
0.0
176
     1
 90
        0
176
     1
290
     0
176
     1
290
     1
176
     1
290
     1
176
     1
290
     0
176
     1
290
     0
176
     1
290
     0
176
     1
290
     0
176
     1
290
     0
176
     1
290
     0
176
     1
 90
       50
176
     1
 40
0.0
176
     1
 40
1.0
176
     1
 90
        0
176
     1
 62
    18
420
        0
176
     1
 90
       50
176
     1
 90
        3
176
     1
 62
     5
420
      255
176
     1
290
     0
176
     1
 90
       50
176
     1
 90
       50
176
     1
 90
       50
176
     1
290
     0
176
     1
 90
       50
176
     1
 62
   256
176
     0
 40
1.0
176
     0
 90
        2
176
     1
  1
strokes_ogs.tif
176
     1
290
     0
176
     1
 40
1.0
176
     1
 40
1.0
176
     1
1001
ACAD
1000
AcDbSavedByObjectVersion
1070
     0
  0
VISUALSTYLE
  5
10031
102
{ACAD_REACTORS
330
1001D
102
}
330
1001D
100
AcDbVisualStyle
  2
Shaded with edges
 70
    26
177
     3
291
     0
 70
    58
 90
        2
176
     1
 90
        2
176
     1
 90
        1
176
     1
 90
        2
176
     1
 40
0.6
176
     1
 40
30.0
176
     1
 62
     7
420
 16777215
176
     1
 90
        1
176
     1
 90
        2
176
     1
 62
     7
176
     1
 62
   257
176
     1
 90
        2
176
     1
 90
        1
176
     1
 40
1.0
176
     1
 90
        8
176
     1
 62
   257
176
     1
 40
1.0
176
     1
 90
        1
176
     1
 90
        6
176
     1
 90
        2
176
     1
 62
     7
176
     1
 90
        3
176
     1
 90
        0
176
     1
 90
        0
176
     1
290
     0
176
     1
 90
        5
176
     1
 40
0.0
176
     1
 90
        0
176
     1
290
     0
176
     1
290
     1
176
     1
290
     1
176
     1
290
     0
176
     1
290
     0
176
     1
290
     0
176
     1
290
     0
176
     1
290
     0
176
     1
290
     0
176
     1
 90
       50
176
     1
 40
0.0
176
     1
 40
1.0
176
     1
 90
        0
176
     1
 62
    18
420
        0
176
     1
 90
       50
176
     1
 90
        3
176
     1
 62
     5
420
      255
176
     1
290
     0
176
     1
 90
       50
176
     1
 90
       50
176
     1
 90
       50
176
     1
290
     0
176
     1
 90
       50
176
     1
 62
   256
176
     0
 40
1.0
176
     0
 90
        2
176
     1
  1
strokes_ogs.tif
176
     1
290
     0
176
     1
 40
1.0
176
     1
 40
1.0
176
     1
1001
ACAD
1000
AcDbSavedByObjectVersion
1070
     0
  0
VISUALSTYLE
  5
1002E
102
{ACAD_REACTORS
330
1001D
102
}
330
1001D
100
AcDbVisualStyle
  2
Shades of Gray
 70
    23
177
     3
291
     0
 70
    58
 90
        2
176
     1
 90
        2
176
     1
 90
        3
176
     1
 90
        0
176
     1
 40
0.6
176
     1
 40
30.0
176
     1
 62
     7
420
 16777215
176
     1
 90
        2
176
     1
 90
        2
176
     1
 62
     7
176
     1
 62
     7
176
     1
 90
        1
176
     1
 90
        1
176
     1
 40
40.0
176
     1
 90
        8
176
     1
 62
     7
176
     1
 40
1.0
176
     1
 90
        1
176
     1
 90
        6
176
     1
 90
        2
176
     1
 62
     7
176
     1
 90
        3
176
     1
 90
        0
176
     1
 90
        0
176
     1
290
     0
176
     1
 90
        1
176
     1
 40
0.0
176
     1
 90
        0
176
     1
290
     0
176
     1
290
     1
176
     1
290
     1
176
     1
290
     0
176
     1
290
     0
176
     1
290
     0
176
     1
290
     0
176
     1
290
     0
176
     1
290
     0
176
     1
 90
       50
176
     1
 40
0.0
176
     1
 40
1.0
176
     1
 90
        0
176
     1
 62
    18
420
        0
176
     1
 90
       50
176
     1
 90
        3
176
     1
 62
     5
420
      255
176
     1
290
     0
176
     1
 90
       50
176
     1
 90
       50
176
     1
 90
       50
176
     1
290
     0
176
     1
 90
       50
176
     1
 62
   256
176
     0
 40
1.0
176
     0
 90
        2
176
     1
  1
strokes_ogs.tif
176
     1
290
     0
176
     1
 40
1.0
176
     1
 40
1.0
176
     1
1001
ACAD
1000
AcDbSavedByObjectVersion
1070
     0
  0
VISUALSTYLE
  5
1002F
102
{ACAD_REACTORS
330
1001D
102
}
330
1001D
100
AcDbVisualStyle
  2
Sketchy
 70
    24
177
     3
291
     0
 70
    58
 90
        1
176
     1
 90
        2
176
     1
 90
        2
176
     1
 90
        0
176
     1
 40
0.6
176
     1
 40
30.0
176
     1
 62
     7
420
 16777215
176
     1
 90
        2
176
     1
 90
        2
176
     1
 62
     7
176
     1
 62
     7
176
     1
 90
        1
176
     1
 90
        1
176
     1
 40
40.0
176
     1
 90
       11
176
     1
 62
     7
176
     1
 40
1.0
176
     1
 90
        1
176
     1
 90
        6
176
     1
 90
        2
176
     1
 62
     7
176
     1
 90
        6
176
     1
 90
        0
176
     1
 90
        0
176
     1
290
     0
176
     1
 90
        1
176
     1
 40
0.0
176
     1
 90
        0
176
     1
290
     0
176
     1
290
     1
176
     1
290
     1
176
     1
290
     0
176
     1
290
     0
176
     1
290
     0
176
     1
290
     0
176
     1
290
     0
176
     1
290
     0
176
     1
 90
       50
176
     1
 40
0.0
176
     1
 40
1.0
176
     1
 90
        0
176
     1
 62
    18
420
        0
176
     1
 90
       50
176
     1
 90
        3
176
     1
 62
     5
420
      255
176
     1
290
     0
176
     1
 90
       50
176
     1
 90
       50
176
     1
 90
       50
176
     1
290
     0
176
     1
 90
       50
176
     1
 62
   256
176
     0
 40
1.0
176
     0
 90
        2
176
     1
  1
strokes_ogs.tif
176
     1
290
     0
176
     1
 40
1.0
176
     1
 40
1.0
176
     1
1001
ACAD
1000
AcDbSavedByObjectVersion
1070
     0
  0
VISUALSTYLE
  5
1002A
102
{ACAD_REACTORS
330
1001D
102
}
330
1001D
100
AcDbVisualStyle
  2
Thicken
 70
    13
177
     3
291
     1
 70
    58
 90
        2
176
     1
 90
        2
176
     1
 90
        0
176
     1
 90
        0
176
     1
 40
0.6
176
     1
 40
30.0
176
     1
 62
     7
420
 16777215
176
     1
 90
        1
176
     1
 90
        4
176
     1
 62
     7
176
     1
 62
   257
176
     1
 90
        1
176
     1
 90
        1
176
     1
 40
1.0
176
     1
 90
       12
176
     1
 62
     7
176
     1
 40
1.0
176
     1
 90
        1
176
     1
 90
        6
176
     1
 90
        2
176
     1
 62
     7
176
     1
 90
        5
176
     1
 90
        0
176
     1
 90
        0
176
     1
290
     0
176
     1
 90
        1
176
     1
 40
0.0
176
     1
 90
        0
176
     1
290
     0
176
     1
290
     1
176
     1
290
     1
176
     1
290
     0
176
     1
290
     0
176
     1
290
     0
176
     1
290
     0
176
     1
290
     0
176
     1
290
     0
176
     1
 90
       50
176
     1
 40
0.0
176
     1
 40
1.0
176
     1
 90
        0
176
     1
 62
    18
420
        0
176
     1
 90
       50
176
     1
 90
        3
176
     1
 62
     5
420
      255
176
     1
290
     0
176
     1
 90
       50
176
     1
 90
       50
176
     1
 90
       50
176
     1
290
     0
176
     1
 90
       50
176
     1
 62
   256
176
     0
 40
1.0
176
     0
 90
        2
176
     1
  1
strokes_ogs.tif
176
     1
290
     0
176
     1
 40
1.0
176
     1
 40
1.0
176
     1
1001
ACAD
1000
AcDbSavedByObjectVersion
1070
     0
  0
VISUALSTYLE
  5
10024
102
{ACAD_REACTORS
330
1001D
102
}
330
1001D
100
AcDbVisualStyle
  2
Wireframe
 70
     5
177
     3
291
     0
 70
    58
 90
        0
176
     1
 90
        2
176
     1
 90
        0
176
     1
 90
        0
176
     1
 40
0.6
176
     1
 40
30.0
176
     1
 62
     7
420
 16777215
176
     1
 90
        1
176
     1
 90
        4
176
     1
 62
     7
176
     1
 62
   257
176
     1
 90
        1
176
     1
 90
        1
176
     1
 40
1.0
176
     1
 90
        0
176
     1
 62
   257
176
     1
 40
1.0
176
     1
 90
        1
176
     1
 90
        6
176
     1
 90
        2
176
     1
 62
     7
176
     1
 90
        3
176
     1
 90
        0
176
     1
 90
        0
176
     1
290
     0
176
     1
 90
        1
176
     1
 40
0.0
176
     1
 90
        0
176
     1
290
     0
176
     1
290
     1
176
     1
290
     1
176
     1
290
     0
176
     1
290
     0
176
     1
290
     0
176
     1
290
     0
176
     1
290
     0
176
     1
290
     0
176
     1
 90
       50
176
     1
 40
0.0
176
     1
 40
1.0
176
     1
 90
        0
176
     1
 62
    18
420
        0
176
     1
 90
       50
176
     1
 90
        3
176
     1
 62
     5
420
      255
176
     1
290
     0
176
     1
 90
       50
176
     1
 90
       50
176
     1
 90
       50
176
     1
290
     0
176
     1
 90
       50
176
     1
 62
   256
176
     0
 40
1.0
176
     0
 90
        2
176
     1
  1
strokes_ogs.tif
176
     1
290
     0
176
     1
 40
1.0
176
     1
 40
1.0
176
     1
1001
ACAD
1000
AcDbSavedByObjectVersion
1070
     0
  0
VISUALSTYLE
  5
10030
102
{ACAD_REACTORS
330
1001D
102
}
330
1001D
100
AcDbVisualStyle
  2
X-Ray
 70
    25
177
     3
291
     0
 70
    58
 90
        2
176
     1
 90
        2
176
     1
 90
        1
176
     1
 90
        1
176
     1
 40
0.5
176
     1
 40
30.0
176
     1
 62
     7
420
 16777215
176
     1
 90
        1
176
     1
 90
        0
176
     1
 62
     7
176
     1
 62
   257
176
     1
 90
        1
176
     1
 90
        1
176
     1
 40
1.0
176
     1
 90
        8
176
     1
 62
     7
176
     1
 40
1.0
176
     1
 90
        1
176
     1
 90
        6
176
     1
 90
        2
176
     1
 62
     7
176
     1
 90
        3
176
     1
 90
        0
176
     1
 90
        0
176
     1
290
     0
176
     1
 90
       13
176
     1
 40
0.0
176
     1
 90
        0
176
     1
290
     0
176
     1
290
     1
176
     1
290
     1
176
     1
290
     0
176
     1
290
     0
176
     1
290
     0
176
     1
290
     0
176
     1
290
     0
176
     1
290
     0
176
     1
 90
       50
176
     1
 40
0.0
176
     1
 40
1.0
176
     1
 90
        0
176
     1
 62
    18
420
        0
176
     1
 90
       50
176
     1
 90
        3
176
     1
 62
     5
420
      255
176
     1
290
     0
176
     1
 90
       50
176
     1
 90
       50
176
     1
 90
       50
176
     1
290
     0
176
     1
 90
       50
176
     1
 62
   256
176
     0
 40
1.0
176
     0
 90
        2
176
     1
  1
strokes_ogs.tif
176
     1
290
     0
176
     1
 40
1.0
176
     1
 40
1.0
176
     1
1001
ACAD
1000
AcDbSavedByObjectVersion
1070
     0
  0
DICTIONARYVAR
  5
10075
102
{ACAD_REACTORS
330
1006F
102
}
330
1006F
100
DictionaryVariables
280
     0
  1
1:1
  0
DICTIONARYVAR
  5
10071
102
{ACAD_REACTORS
330
1006F
102
}
330
1006F
100
DictionaryVariables
280
     0
  1
STANDARD
  0
DICTIONARYVAR
  5
10070
102
{ACAD_REACTORS
330
1006F
102
}
330
1006F
100
DictionaryVariables
280
     0
  1
STANDARD
  0
DICTIONARYVAR
  5
10072
102
{ACAD_REACTORS
330
1006F
102
}
330
1006F
100
DictionaryVariables
280
     0
  1
Imperial24
  0
DICTIONARYVAR
  5
10073
102
{ACAD_REACTORS
330
1006F
102
}
330
1006F
100
DictionaryVariables
280
     0
  1
Imperial24
  0
DICTIONARYVAR
  5
10077
102
{ACAD_REACTORS
330
1006F
102
}
330
1006F
100
DictionaryVariables
280
     0
  1
1
  0
DICTIONARYVAR
  5
10078
102
{ACAD_REACTORS
330
1006F
102
}
330
1006F
100
DictionaryVariables
280
     0
  1
15
  0
DICTIONARYVAR
  5
10076
102
{ACAD_REACTORS
330
1006F
102
}
330
1006F
100
DictionaryVariables
280
     0
  1
0
  0
DICTIONARYVAR
  5
10074
102
{ACAD_REACTORS
330
1006F
102
}
330
1006F
100
DictionaryVariables
280
     0
  1
0
  0
DICTIONARY
  5
10093
102
{ACAD_REACTORS
330
10091
102
}
330
10091
100
AcDbDictionary
281
     1
  0
DICTIONARY
  5
10092
102
{ACAD_REACTORS
330
10091
102
}
330
10091
100
AcDbDictionary
281
     1
  3
1850674109760
350
1008C
  3
1850674109776
350
1008D
  3
1850674109792
350
1008E
  3
1850674109808
350
1008F
  3
1850674109824
350
10090
  0
DICTIONARY
  5
10096
330
10052
100
AcDbDictionary
280
     1
281
     1
  3
ACAD_XREC_ROUNDTRIP
360
10097
  0
DICTIONARY
  5
1000E
330
1000D
100
AcDbDictionary
280
     1
281
     1
  3
BUMPTILE
360
10010
  3
DIFFUSETILE
360
1000F
  3
OPACITYTILE
360
10013
  3
REFLECTIONTILE
360
10012
  3
REFRACTIONTILE
360
10014
  3
SPECULARTILE
360
10011
  0
DICTIONARY
  5
10006
330
10005
100
AcDbDictionary
280
     1
281
     1
  3
BUMPTILE
360
10008
  3
DIFFUSETILE
360
10007
  3
OPACITYTILE
360
1000B
  3
REFLECTIONTILE
360
1000A
  3
REFRACTIONTILE
360
1000C
  3
SPECULARTILE
360
10009
  0
DICTIONARY
  5
10016
330
10015
100
AcDbDictionary
280
     1
281
     1
  3
BUMPTILE
360
10018
  3
DIFFUSETILE
360
10017
  3
OPACITYTILE
360
1001B
  3
REFLECTIONTILE
360
1001A
  3
REFRACTIONTILE
360
1001C
  3
SPECULARTILE
360
10019
  0
DICTIONARY
  5
10094
330
10050
100
AcDbDictionary
280
     1
281
     1
  3
ACAD_XREC_ROUNDTRIP
360
10095
  0
DICTIONARY
  5
10089
330
10039
100
AcDbDictionary
280
     1
281
     1
  3
ACAD_ROUNDTRIP_2008_TABLESTYLE_CELLSTYLEMAP
360
1008A
  0
XRECORD
  5
1008C
102
{ACAD_REACTORS
330
10092
102
}
330
10092
100
AcDbXrecord
280
     1
  1
AcDb_Thumbnail_Schema
102
{ATTRRECORD
341
1008D
  2
AcDbDs::TreatedAsObjectData
280
     1
291
     1
102
ATTRRECORD}
102
{ATTRRECORD
341
1008E
  2
AcDbDs::Legacy
280
     1
291
     1
102
ATTRRECORD}
  2
AcDbDs::ID
280
    10
 91
        8
102
{ATTRRECORD
341
1008F
  2
AcDs:Indexable
280
     1
291
     1
102
ATTRRECORD}
102
{ATTRRECORD
341
10090
  2
AcDbDs::HandleAttribute
280
     7
282
     1
102
ATTRRECORD}
  2
Thumbnail_Data
280
    15
 91
        0
  0
XRECORD
  5
1008D
102
{ACAD_REACTORS
330
10092
102
}
330
10092
100
AcDbXrecord
280
     1
  1
AcDbDs::TreatedAsObjectDataSchema
  2
AcDbDs::TreatedAsObjectData
280
     1
 91
        0
  0
XRECORD
  5
1008E
102
{ACAD_REACTORS
330
10092
102
}
330
10092
100
AcDbXrecord
280
     1
  1
AcDbDs::LegacySchema
  2
AcDbDs::Legacy
280
     1
 91
        0
  0
XRECORD
  5
1008F
102
{ACAD_REACTORS
330
10092
102
}
330
10092
100
AcDbXrecord
280
     1
  1
AcDbDs::IndexedPropertySchema
  2
AcDs:Indexable
280
     1
 91
        0
  0
XRECORD
  5
10090
102
{ACAD_REACTORS
330
10092
102
}
330
10092
100
AcDbXrecord
280
     1
  1
AcDbDs::HandleAttributeSchema
  2
AcDbDs::HandleAttribute
280
     7
 91
        1
284
     1
  0
XRECORD
  5
10097
102
{ACAD_REACTORS
330
10096
102
}
330
10096
100
AcDbXrecord
280
     1
102
DISPLAYNAME
  1
Imperial24
102
FLAGS
 90
        0
  0
XRECORD
  5
10010
102
{ACAD_REACTORS
330
1000E
102
}
330
1000E
100
AcDbXrecord
280
     1
270
     1
271
     1
  0
XRECORD
  5
1000F
102
{ACAD_REACTORS
330
1000E
102
}
330
1000E
100
AcDbXrecord
280
     1
270
     1
271
     1
  0
XRECORD
  5
10013
102
{ACAD_REACTORS
330
1000E
102
}
330
1000E
100
AcDbXrecord
280
     1
270
     1
271
     1
  0
XRECORD
  5
10012
102
{ACAD_REACTORS
330
1000E
102
}
330
1000E
100
AcDbXrecord
280
     1
270
     1
271
     1
  0
XRECORD
  5
10014
102
{ACAD_REACTORS
330
1000E
102
}
330
1000E
100
AcDbXrecord
280
     1
270
     1
271
     1
  0
XRECORD
  5
10011
102
{ACAD_REACTORS
330
1000E
102
}
330
1000E
100
AcDbXrecord
280
     1
270
     1
271
     1
  0
XRECORD
  5
10008
102
{ACAD_REACTORS
330
10006
102
}
330
10006
100
AcDbXrecord
280
     1
270
     1
271
     1
  0
XRECORD
  5
10007
102
{ACAD_REACTORS
330
10006
102
}
330
10006
100
AcDbXrecord
280
     1
270
     1
271
     1
  0
XRECORD
  5
1000B
102
{ACAD_REACTORS
330
10006
102
}
330
10006
100
AcDbXrecord
280
     1
270
     1
271
     1
  0
XRECORD
  5
1000A
102
{ACAD_REACTORS
330
10006
102
}
330
10006
100
AcDbXrecord
280
     1
270
     1
271
     1
  0
XRECORD
  5
1000C
102
{ACAD_REACTORS
330
10006
102
}
330
10006
100
AcDbXrecord
280
     1
270
     1
271
     1
  0
XRECORD
  5
10009
102
{ACAD_REACTORS
330
10006
102
}
330
10006
100
AcDbXrecord
280
     1
270
     1
271
     1
  0
XRECORD
  5
10018
102
{ACAD_REACTORS
330
10016
102
}
330
10016
100
AcDbXrecord
280
     1
270
     1
271
     1
  0
XRECORD
  5
10017
102
{ACAD_REACTORS
330
10016
102
}
330
10016
100
AcDbXrecord
280
     1
270
     1
271
     1
  0
XRECORD
  5
1001B
102
{ACAD_REACTORS
330
10016
102
}
330
10016
100
AcDbXrecord
280
     1
270
     1
271
     1
  0
XRECORD
  5
1001A
102
{ACAD_REACTORS
330
10016
102
}
330
10016
100
AcDbXrecord
280
     1
270
     1
271
     1
  0
XRECORD
  5
1001C
102
{ACAD_REACTORS
330
10016
102
}
330
10016
100
AcDbXrecord
280
     1
270
     1
271
     1
  0
XRECORD
  5
10019
102
{ACAD_REACTORS
330
10016
102
}
330
10016
100
AcDbXrecord
280
     1
270
     1
271
     1
  0
XRECORD
  5
10095
102
{ACAD_REACTORS
330
10094
102
}
330
10094
100
AcDbXrecord
280
     1
102
DISPLAYNAME
  1
Imperial24
102
FLAGS
 90
        0
  0
CELLSTYLEMAP
  5
1008A
102
{ACAD_REACTORS
330
10089
102
}
330
10089
100
AcDbCellStyleMap
 90
        3
300
CELLSTYLE
  1
TABLEFORMAT_BEGIN
 90
        5
170
     1
 91
        0
 92
    32768
 62
   257
 93
        1
300
CONTENTFORMAT
  1
CONTENTFORMAT_BEGIN
 90
        0
 91
        0
 92
      512
 93
        0
300

 40
0.0
140
1.0
 94
        5
 62
     0
340
11
144
0.25
309
CONTENTFORMAT_END
171
     0
 94
        0
309
TABLEFORMAT_END
  1
CELLSTYLE_BEGIN
 90
        1
 91
        1
300
_TITLE
309
CELLSTYLE_END
300
CELLSTYLE
  1
TABLEFORMAT_BEGIN
 90
        5
170
     1
 91
        0
 92
        0
 62
   257
 93
        1
300
CONTENTFORMAT
  1
CONTENTFORMAT_BEGIN
 90
        0
 91
        0
 92
      512
 93
        0
300

 40
0.0
140
1.0
 94
        5
 62
     0
340
11
144
0.18
309
CONTENTFORMAT_END
171
     0
 94
        0
309
TABLEFORMAT_END
  1
CELLSTYLE_BEGIN
 90
        2
 91
        1
300
_HEADER
309
CELLSTYLE_END
300
CELLSTYLE
  1
TABLEFORMAT_BEGIN
 90
        5
170
     1
 91
        0
 92
        0
 62
   257
 93
        1
300
CONTENTFORMAT
  1
CONTENTFORMAT_BEGIN
 90
        0
 91
        0
 92
      512
 93
        0
300

 40
0.0
140
1.0
 94
        2
 62
     0
340
11
144
0.18
309
CONTENTFORMAT_END
171
     0
 94
        0
309
TABLEFORMAT_END
  1
CELLSTYLE_BEGIN
 90
        3
 91
        2
300
_DATA
309
CELLSTYLE_END
  0
ENDSEC
  0
SECTION
  2
ACDSDATA
 70
     2
 71
     8
  0
ACDSSCHEMA
 90
        0
  1
AcDb_Thumbnail_Schema
  2
AcDbDs::ID
280
    10
 91
        8
  2
Thumbnail_Data
280
    15
 91
        0
101
ACDSRECORD
 95
        0
 90
        1
  2
AcDbDs::TreatedAsObjectData
280
     1
291
     1
101
ACDSRECORD
 95
        0
 90
        2
  2
AcDbDs::Legacy
280
     1
291
     1
101
ACDSRECORD
  1
AcDbDs::ID
 90
        3
  2
AcDs:Indexable
280
     1
291
     1
101
ACDSRECORD
  1
AcDbDs::ID
 90
        4
  2
AcDbDs::HandleAttribute
280
     7
282
     1
  0
ACDSSCHEMA
 90
        1
  1
AcDbDs::TreatedAsObjectDataSchema
  2
AcDbDs::TreatedAsObjectData
280
     1
 91
        0
  0
ACDSSCHEMA
 90
        2
  1
AcDbDs::LegacySchema
  2
AcDbDs::Legacy
280
     1
 91
        0
  0
ACDSSCHEMA
 90
        3
  1
AcDbDs::IndexedPropertySchema
  2
AcDs:Indexable
280
     1
 91
        0
  0
ACDSSCHEMA
 90
        4
  1
AcDbDs::HandleAttributeSchema
  2
AcDbDs::HandleAttribute
280
     7
 91
        1
284
     1
  0
ACDSRECORD
 90
        0
  2
AcDbDs::ID
280
    10
320
10055
  2
Thumbnail_Data
280
    15
 94
     1230
310
89504E470D0A1A0A0000000D49484452000001000000006E0803000000FF253DCA00000300504C5445212830FFFFFF2128300000000000000000000000000000000000000000000000000000330000660000990000CC0000FF0033000033330033660033990033CC0033FF0066000066330066660066990066CC0066FF0099
310
000099330099660099990099CC0099FF00CC0000CC3300CC6600CC9900CCCC00CCFF00FF0000FF3300FF6600FF9900FFCC00FFFF3300003300333300663300993300CC3300FF3333003333333333663333993333CC3333FF3366003366333366663366993366CC3366FF3399003399333399663399993399CC3399FF33CC00
310
33CC3333CC6633CC9933CCCC33CCFF33FF0033FF3333FF6633FF9933FFCC33FFFF6600006600336600666600996600CC6600FF6633006633336633666633996633CC6633FF6666006666336666666666996666CC6666FF6699006699336699666699996699CC6699FF66CC0066CC3366CC6666CC9966CCCC66CCFF66FF0066
310
FF3366FF6666FF9966FFCC66FFFF9900009900339900669900999900CC9900FF9933009933339933669933999933CC9933FF9966009966339966669966999966CC9966FF9999009999339999669999999999CC9999FF99CC0099CC3399CC6699CC9999CCCC99CCFF99FF0099FF3399FF6699FF9999FFCC99FFFFCC0000CC00
310
33CC0066CC0099CC00CCCC00FFCC3300CC3333CC3366CC3399CC33CCCC33FFCC6600CC6633CC6666CC6699CC66CCCC66FFCC9900CC9933CC9966CC9999CC99CCCC99FFCCCC00CCCC33CCCC66CCCC99CCCCCCCCCCFFCCFF00CCFF33CCFF66CCFF99CCFFCCCCFFFFFF0000FF0033FF0066FF0099FF00CCFF00FFFF3300FF3333
310
FF3366FF3399FF33CCFF33FFFF6600FF6633FF6666FF6699FF66CCFF66FFFF9900FF9933FF9966FF9999FF99CCFF99FFFFCC00FFCC33FFCC66FFCC99FFCCCCFFCCFFFFFF00FFFF33FFFF66FFFF99FFFFCCFFFFFF0000000D0D0D1A1A1A2828283535354343435050505D5D5D6B6B6B787878868686939393A1A1A1AEAEAEBB
310
BBBBC9C9C9D6D6D6E4E4E4F1F1F1FFFFFF0000000000000000000000000000000000000000000000000000000000002E4550F1000001894944415478DAED9BD18E84200C45EFFFFF6FDF37EB38A22EB00C9109A5E7C4E1418C916B4B4B712400000000000000000000E8C34633BD00B2ADCDF5A8D877BFAEB7770A0B504500
310
B5BCC2EA250E2CA02A40EAB1F2D81610A0A11F01A20BD0790D16C024B88A006BBB0061D0FEED4000C22061904C903C0001108039803018350C4617C03EEC4380B5A240AEC29FCEF916A0B12C5EB100E765F1DF216EC7DED87BD8D78D91DE92890B01466E7E7970817D18AFA3551635EEFDF9B100DD47763EA5EECD4FCF2EA0
310
7D3EB8FCD28CB18C00B2D3B8AEB2C84ED3A3C25940D12CCE52695D01947DDDC7B18E00BA59735E8CFD4B8AC753ED3912A1ED412B163070AD317514F8C6626B6217501401CC6EA6F0D5E5F6AC2EA050166097362D106308702CFA8FD64A25906851C0A2B8C03BBB4B79DE8333A1874F65AD94F32AB80B28B60B841120BBEB17
310
C9021020BFEF6BCFDDDF83006322801B01FE960114682D2095EB5F71D602BA1705425980EBFB23000220C0B87A40887F8E0200000000000000000000000000C0A4FC003A128455DA3D14A30000000049454E44AE426082
  0
ENDSEC
  0
EOF
